ISO-10303-21;
HEADER;
FILE_DESCRIPTION(
  ('This file contains a STEP AP42 implementation'
    ,'as created by ZW3D STEP Interface translator.'
    ,'')
  ,'2;1'
  );
FILE_NAME(
  'MG310电机GMR编码器3d模型.stp'
  ,'26 716.115046',
  (''),
  ('ZWCAD Software Co.'),
  'Version 1.0',
  'ZW3D to STEP translator',
  ''
  );
FILE_SCHEMA(('AUTOMOTIVE_DESIGN { 1 0 10303 214 1 1 1 1 }'));
ENDSEC;

DATA;

/**File Base Unit**/
#1=(LENGTH_UNIT()NAMED_UNIT(*)SI_UNIT(.MILLI.,.METRE.));
#2=(NAMED_UNIT(*)PLANE_ANGLE_UNIT()SI_UNIT($,.RADIAN.));
#3=(NAMED_UNIT(*)SI_UNIT($,.STERADIAN.)SOLID_ANGLE_UNIT());
#4=UNCERTAINTY_MEASURE_WITH_UNIT(LENGTH_MEASURE(0.01),#1,'DISTANCE_ACCURACY_VALUE','Maximum Tolerance applied to model');
#5=(GEOMETRIC_REPRESENTATION_CONTEXT(3)GLOBAL_UNCERTAINTY_ASSIGNED_CONTEXT((#4))GLOBAL_UNIT_ASSIGNED_CONTEXT((#1,#2,#3))REPRESENTATION_CONTEXT('STEP 203','TOP_LEVEL_ASSEMBLY_PART'));

/**product_definition_shape**/
#6=APPLICATION_CONTEXT('mechanical parts and assemblies' );
#7=DESIGN_CONTEXT('NONE',#6,'design');
#8=MECHANICAL_CONTEXT('NONE',#6,'mechanical');
#9=PRODUCT('0','Part','',(#8));
#10=PRODUCT_DEFINITION_FORMATION_WITH_SPECIFIED_SOURCE('ANY','',#9,.NOT_KNOWN.);
#11=PRODUCT_DEFINITION('UNKNOWN','',#10,#7);
#12=PRODUCT_DEFINITION_SHAPE('NONE','NONE',#11);
#13=PRODUCT_RELATED_PRODUCT_CATEGORY('detail','',(#9));
/**geometry information**/
#14=CARTESIAN_POINT('',(0.,0.,0.));
#15=DIRECTION('',(0.,0.,1.));
#16=DIRECTION('',(1.,0.,0.));
#17=AXIS2_PLACEMENT_3D('',#14,#15,#16);
#18=SHAPE_REPRESENTATION('none',(#17),#5);
#19=SHAPE_DEFINITION_REPRESENTATION(#12,#18);
#20=DESCRIPTIVE_REPRESENTATION_ITEM('\X2\00500061007200740020004E0075006D006200650072\X0\','\X2\004D00470033003100307535673A0047004D00527F16780156685BA2623756FE\X0\');
#21=REPRESENTATION('',(#20),#5);
#22=PROPERTY_DEFINITION('\X2\00500061007200740020004E0075006D006200650072\X0\','user defined attribute',#11);
#23=PROPERTY_DEFINITION_REPRESENTATION(#22,#21);
#24=GENERAL_PROPERTY('','\X2\00500061007200740020004E0075006D006200650072\X0\','user defined attribute');
#25=GENERAL_PROPERTY_ASSOCIATION('user defined attribute','',#24,#22);
#26=DESCRIPTIVE_REPRESENTATION_ITEM('\X2\005200650076006900730069006F006E\X0\','\X2\0041004E0059\X0\');
#27=REPRESENTATION('',(#26),#5);
#28=PROPERTY_DEFINITION('\X2\005200650076006900730069006F006E\X0\','user defined attribute',#11);
#29=PROPERTY_DEFINITION_REPRESENTATION(#28,#27);
#30=GENERAL_PROPERTY('','\X2\005200650076006900730069006F006E\X0\','user defined attribute');
#31=GENERAL_PROPERTY_ASSOCIATION('user defined attribute','',#30,#28);
#32=DESCRIPTIVE_REPRESENTATION_ITEM('\X2\004E006F006D0065006E0063006C00610074007500720065\X0\','\X2\004D00470033003100307535673A0047004D00527F16780156685BA2623756FE\X0\');
#33=REPRESENTATION('',(#32),#5);
#34=PROPERTY_DEFINITION('\X2\004E006F006D0065006E0063006C00610074007500720065\X0\','user defined attribute',#11);
#35=PROPERTY_DEFINITION_REPRESENTATION(#34,#33);
#36=GENERAL_PROPERTY('','\X2\004E006F006D0065006E0063006C00610074007500720065\X0\','user defined attribute');
#37=GENERAL_PROPERTY_ASSOCIATION('user defined attribute','',#36,#34);
#38=DESCRIPTIVE_REPRESENTATION_ITEM('\X2\0053006F0075007200630065\X0\','\X2\0055006E006B006E006F0077006E\X0\');
#39=REPRESENTATION('',(#38),#5);
#40=PROPERTY_DEFINITION('\X2\0053006F0075007200630065\X0\','user defined attribute',#11);
#41=PROPERTY_DEFINITION_REPRESENTATION(#40,#39);
#42=GENERAL_PROPERTY('','\X2\0053006F0075007200630065\X0\','user defined attribute');
#43=GENERAL_PROPERTY_ASSOCIATION('user defined attribute','',#42,#40);
#44=CARTESIAN_POINT('',(-6.2172489379009E-15,-5.3290705182008E-15,37.9));
#45=DIRECTION('',(1.,1.5185990879478E-15,-5.8480883601654E-16));
#46=DIRECTION('',(8.2238742564826E-17,-1.3727218607956E-17,1.));
#47=AXIS2_PLACEMENT_3D('',#44,#46,#45);
#48=CYLINDRICAL_SURFACE('',#47,12.15);
#49=CARTESIAN_POINT('',(-9.8596399528583,7.1,44.2));
#50=VERTEX_POINT('',#49);
#51=CARTESIAN_POINT('',(-9.8596399528583,-7.1,44.2));
#52=VERTEX_POINT('',#51);
#53=CARTESIAN_POINT('',(0.,4.903018778349E-16,44.2));
#54=DIRECTION('',(-0.81149300023525,0.5843621399177,5.8480883601654E-16));
#55=DIRECTION('',(-0.,0.,1.));
#56=AXIS2_PLACEMENT_3D('',#53,#55,#54);
#57=CIRCLE('',#56,12.15);
#58=EDGE_CURVE('',#50,#52,#57,.T.);
#59=ORIENTED_EDGE('E139',*,*,#58,.T.);
#60=CARTESIAN_POINT('',(-9.8596399534867,-7.0999999991273,37.9));
#61=VERTEX_POINT('',#60);
#62=CARTESIAN_POINT('',(-9.8596399528583,-7.1,44.2));
#63=DIRECTION('',(-9.9746102030564E-11,1.3852368987327E-10,-1.));
#64=VECTOR('',#63,6.3);
#65=LINE('',#62,#64);
#66=EDGE_CURVE('',#52,#61,#65,.T.);
#67=ORIENTED_EDGE('E140',*,*,#66,.T.);
#68=CARTESIAN_POINT('',(12.15,1.3510726970673E-14,37.9));
#69=VERTEX_POINT('',#68);
#70=CARTESIAN_POINT('',(-1.1102230246252E-14,-1.7763568394003E-15,37.9));
#71=DIRECTION('',(-0.81149300028697,-0.58436213984587,5.8480883601655E-16));
#72=DIRECTION('',(4.7194501653578E-16,-1.5499919186195E-16,1.));
#73=AXIS2_PLACEMENT_3D('',#70,#72,#71);
#74=CIRCLE('',#73,12.15);
#75=EDGE_CURVE('',#61,#69,#74,.T.);
#76=ORIENTED_EDGE('E141',*,*,#75,.T.);
#77=CARTESIAN_POINT('',(12.15,1.29736544394E-14,48.7));
#78=VERTEX_POINT('',#77);
#79=CARTESIAN_POINT('',(12.15,1.3510726970673E-14,37.9));
#80=DIRECTION('',(0.,-4.9728938080833E-17,1.));
#81=VECTOR('',#80,10.8);
#82=LINE('',#79,#81);
#83=EDGE_CURVE('',#69,#78,#82,.T.);
#84=ORIENTED_EDGE('E142',*,*,#83,.T.);
#85=CARTESIAN_POINT('',(-1.7763568394003E-15,4.129147699298E-16,48.7));
#86=DIRECTION('',(1.,1.0338057341128E-15,2.0676114682255E-16));
#87=DIRECTION('',(2.0676114682255E-16,-2.0676114682255E-16,-1.));
#88=AXIS2_PLACEMENT_3D('',#85,#87,#86);
#89=CIRCLE('',#88,12.15);
#90=EDGE_CURVE('',#78,#78,#89,.T.);
#91=ORIENTED_EDGE('E143',*,*,#90,.T.);
#92=ORIENTED_EDGE('E143',*,*,#83,.F.);
#93=CARTESIAN_POINT('',(-9.8596399533814,7.0999999992736,37.9));
#94=VERTEX_POINT('',#93);
#95=CARTESIAN_POINT('',(-3.5527136788005E-15,8.8817841970013E-16,37.9));
#96=DIRECTION('',(1.,1.0388928848537E-15,1.1696176720331E-15));
#97=DIRECTION('',(-7.7105043951687E-16,-5.6144613768716E-16,1.));
#98=AXIS2_PLACEMENT_3D('',#95,#97,#96);
#99=CIRCLE('',#98,12.15);
#100=EDGE_CURVE('',#69,#94,#99,.T.);
#101=ORIENTED_EDGE('E144',*,*,#100,.T.);
#102=CARTESIAN_POINT('',(-9.8596399533814,7.0999999992736,37.9));
#103=DIRECTION('',(8.303171201742E-11,1.1530148969635E-10,1.));
#104=VECTOR('',#103,6.3);
#105=LINE('',#102,#104);
#106=EDGE_CURVE('',#94,#50,#105,.T.);
#107=ORIENTED_EDGE('E145',*,*,#106,.T.);
#108=EDGE_LOOP('',(#59,#67,#76,#84,#91,#92,#101,#107));
#109=FACE_OUTER_BOUND('',#108,.T.);
#110=ADVANCED_FACE('F64',(#109),#48,.T.);
#111=CARTESIAN_POINT('',(-6.1754541110887,3.5527136788005E-15,37.9));
#112=DIRECTION('',(1.,9.6933851059406E-16,0.));
#113=DIRECTION('',(0.,0.,-1.));
#114=AXIS2_PLACEMENT_3D('',#111,#113,#112);
#115=PLANE('',#114);
#116=ORIENTED_EDGE('',*,*,#100,.F.);
#117=ORIENTED_EDGE('',*,*,#75,.F.);
#118=CARTESIAN_POINT('',(-9.0465463030435,-7.0999999990768,37.9));
#119=VERTEX_POINT('',#118);
#120=CARTESIAN_POINT('',(-9.8596399534867,-7.0999999991273,37.9));
#121=DIRECTION('',(1.,6.2108526563678E-11,0.));
#122=VECTOR('',#121,0.8130936504432);
#123=LINE('',#120,#122);
#124=EDGE_CURVE('',#61,#119,#123,.T.);
#125=ORIENTED_EDGE('E146',*,*,#124,.T.);
#126=CARTESIAN_POINT('',(11.5,8.5368027230347E-15,37.9));
#127=VERTEX_POINT('',#126);
#128=CARTESIAN_POINT('',(-3.1086244689504E-15,3.5527136788005E-15,37.9));
#129=DIRECTION('',(-0.78665620026465,-0.61739130426755,-6.1786324848704E-16));
#130=DIRECTION('',(-5.1072986624756E-16,1.5037009925269E-16,1.));
#131=AXIS2_PLACEMENT_3D('',#128,#130,#129);
#132=CIRCLE('',#131,11.5);
#133=EDGE_CURVE('',#119,#127,#132,.T.);
#134=ORIENTED_EDGE('E147',*,*,#133,.T.);
#135=CARTESIAN_POINT('',(-9.0465463030294,7.0999999990948,37.9));
#136=VERTEX_POINT('',#135);
#137=CARTESIAN_POINT('',(3.5527136788005E-15,6.2172489379009E-15,37.9));
#138=DIRECTION('',(1.,1.5446581212176E-16,0.));
#139=DIRECTION('',(-7.0797750610168E-16,-1.1581215710306E-15,1.));
#140=AXIS2_PLACEMENT_3D('',#137,#139,#138);
#141=CIRCLE('',#140,11.5);
#142=EDGE_CURVE('',#127,#136,#141,.T.);
#143=ORIENTED_EDGE('E148',*,*,#142,.T.);
#144=CARTESIAN_POINT('',(-9.0465463030294,7.0999999990948,37.9));
#145=DIRECTION('',(-1.,2.1990097422461E-10,0.));
#146=VECTOR('',#145,0.813093650352);
#147=LINE('',#144,#146);
#148=EDGE_CURVE('',#136,#94,#147,.T.);
#149=ORIENTED_EDGE('E149',*,*,#148,.T.);
#150=EDGE_LOOP('',(#116,#117,#125,#134,#143,#149));
#151=FACE_OUTER_BOUND('',#150,.T.);
#152=ADVANCED_FACE('F65',(#151),#115,.T.);
#153=CARTESIAN_POINT('',(-2.1171802616769,7.1,28.312759590149));
#154=DIRECTION('',(0.,-2.5157313577079E-16,-1.));
#155=DIRECTION('',(7.4564931015868E-16,-1.,2.5157313577079E-16));
#156=AXIS2_PLACEMENT_3D('',#153,#155,#154);
#157=PLANE('',#156);
#158=ORIENTED_EDGE('',*,*,#106,.F.);
#159=ORIENTED_EDGE('',*,*,#148,.F.);
#160=CARTESIAN_POINT('',(-9.0465463022724,7.1,44.2));
#161=VERTEX_POINT('',#160);
#162=CARTESIAN_POINT('',(-9.0465463030294,7.0999999990948,37.9));
#163=DIRECTION('',(1.201586978065E-10,1.4368245570401E-10,1.));
#164=VECTOR('',#163,6.3);
#165=LINE('',#162,#164);
#166=EDGE_CURVE('',#136,#161,#165,.T.);
#167=ORIENTED_EDGE('E150',*,*,#166,.T.);
#168=CARTESIAN_POINT('',(-9.0465463022724,7.1,44.2));
#169=DIRECTION('',(-1.,0.,0.));
#170=VECTOR('',#169,0.8130936505859);
#171=LINE('',#168,#170);
#172=EDGE_CURVE('',#161,#50,#171,.T.);
#173=ORIENTED_EDGE('E151',*,*,#172,.T.);
#174=EDGE_LOOP('',(#158,#159,#167,#173));
#175=FACE_OUTER_BOUND('',#174,.T.);
#176=ADVANCED_FACE('F66',(#175),#157,.T.);
#177=CARTESIAN_POINT('',(-7.5,1.2142798823584E-15,44.2));
#178=DIRECTION('',(-8.7566886449308E-16,1.,0.));
#179=DIRECTION('',(0.,0.,-1.));
#180=AXIS2_PLACEMENT_3D('',#177,#179,#178);
#181=PLANE('',#180);
#182=ORIENTED_EDGE('',*,*,#58,.F.);
#183=ORIENTED_EDGE('',*,*,#172,.F.);
#184=CARTESIAN_POINT('',(-9.0465463022631,-7.1,44.2));
#185=VERTEX_POINT('',#184);
#186=CARTESIAN_POINT('',(-3.5527136788005E-15,-2.341363243205E-15,44.2));
#187=DIRECTION('',(-0.7866562002001,0.61739130434979,6.178632484894E-16));
#188=DIRECTION('',(-1.2471303846435E-28,5.0038220828192E-16,1.));
#189=AXIS2_PLACEMENT_3D('',#186,#188,#187);
#190=CIRCLE('',#189,11.499999999956);
#191=EDGE_CURVE('',#161,#185,#190,.T.);
#192=ORIENTED_EDGE('E152',*,*,#191,.T.);
#193=CARTESIAN_POINT('',(-9.0465463022631,-7.1,44.2));
#194=DIRECTION('',(-1.,0.,0.));
#195=VECTOR('',#194,0.8130936505952);
#196=LINE('',#193,#195);
#197=EDGE_CURVE('',#185,#52,#196,.T.);
#198=ORIENTED_EDGE('E153',*,*,#197,.T.);
#199=EDGE_LOOP('',(#182,#183,#192,#198));
#200=FACE_OUTER_BOUND('',#199,.T.);
#201=ADVANCED_FACE('F67',(#200),#181,.T.);
#202=CARTESIAN_POINT('',(-7.5,-7.1,28.312759590149));
#203=DIRECTION('',(0.,3.6338341833558E-16,1.));
#204=DIRECTION('',(-9.4101053254726E-16,1.,-3.6338341833558E-16));
#205=AXIS2_PLACEMENT_3D('',#202,#204,#203);
#206=PLANE('',#205);
#207=ORIENTED_EDGE('',*,*,#66,.F.);
#208=ORIENTED_EDGE('',*,*,#197,.F.);
#209=CARTESIAN_POINT('',(-9.0465463022631,-7.1,44.2));
#210=DIRECTION('',(-1.2387325733067E-10,1.4653957060141E-10,-1.));
#211=VECTOR('',#210,6.3);
#212=LINE('',#209,#211);
#213=EDGE_CURVE('',#185,#119,#212,.T.);
#214=ORIENTED_EDGE('E154',*,*,#213,.T.);
#215=ORIENTED_EDGE('E154',*,*,#124,.F.);
#216=EDGE_LOOP('',(#207,#208,#214,#215));
#217=FACE_OUTER_BOUND('',#216,.T.);
#218=ADVANCED_FACE('F68',(#217),#206,.T.);
#219=CARTESIAN_POINT('',(-3.0814157129579,-1.0658141036402E-14,48.7));
#220=DIRECTION('',(1.,8.1637177463571E-16,0.));
#221=DIRECTION('',(0.,-0.,1.));
#222=AXIS2_PLACEMENT_3D('',#219,#221,#220);
#223=PLANE('',#222);
#224=ORIENTED_EDGE('',*,*,#90,.F.);
#225=EDGE_LOOP('',(#224));
#226=FACE_OUTER_BOUND('',#225,.T.);
#227=ADVANCED_FACE('F69',(#226),#223,.T.);
#228=CARTESIAN_POINT('',(3.9968028886506E-15,3.5527136788005E-15,44.2));
#229=DIRECTION('',(1.,5.5586372723945E-16,6.1786324848704E-16));
#230=DIRECTION('',(-1.2985064615499E-17,0.,-1.));
#231=AXIS2_PLACEMENT_3D('',#228,#230,#229);
#232=CYLINDRICAL_SURFACE('',#231,11.5);
#233=CARTESIAN_POINT('',(11.5,9.9451465420542E-15,10.));
#234=VERTEX_POINT('',#233);
#235=CARTESIAN_POINT('',(11.5,9.9451465420542E-15,10.));
#236=DIRECTION('',(0.,-5.0478273083136E-17,1.));
#237=VECTOR('',#236,27.9);
#238=LINE('',#235,#237);
#239=EDGE_CURVE('',#234,#127,#238,.T.);
#240=ORIENTED_EDGE('E155',*,*,#239,.T.);
#241=ORIENTED_EDGE('E155',*,*,#133,.F.);
#242=ORIENTED_EDGE('E155',*,*,#213,.F.);
#243=ORIENTED_EDGE('E155',*,*,#191,.F.);
#244=ORIENTED_EDGE('E155',*,*,#166,.F.);
#245=ORIENTED_EDGE('E155',*,*,#142,.F.);
#246=ORIENTED_EDGE('E155',*,*,#239,.F.);
#247=CARTESIAN_POINT('',(1.7763568394003E-15,-7.3148217699547E-16,10.));
#248=DIRECTION('',(1.,9.2840249730867E-16,9.3699226974156E-18));
#249=DIRECTION('',(-9.3699226974155E-18,-1.6383573481918E-16,1.));
#250=AXIS2_PLACEMENT_3D('',#247,#249,#248);
#251=CIRCLE('',#250,11.5);
#252=EDGE_CURVE('',#234,#234,#251,.T.);
#253=ORIENTED_EDGE('E156',*,*,#252,.T.);
#254=EDGE_LOOP('',(#240,#241,#242,#243,#244,#245,#246,#253));
#255=FACE_OUTER_BOUND('',#254,.T.);
#256=ADVANCED_FACE('F70',(#255),#232,.T.);
#257=CARTESIAN_POINT('',(0.,-7.105427357601E-15,10.));
#258=DIRECTION('',(-1.,0.,0.));
#259=DIRECTION('',(0.,0.,-1.));
#260=AXIS2_PLACEMENT_3D('',#257,#259,#258);
#261=PLANE('',#260);
#262=ORIENTED_EDGE('',*,*,#252,.F.);
#263=EDGE_LOOP('',(#262));
#264=FACE_OUTER_BOUND('',#263,.T.);
#265=ADVANCED_FACE('F71',(#264),#261,.T.);
#266=CLOSED_SHELL('',(#110,#152,#176,#201,#218,#227,#256,#265));
#267=COLOUR_RGB('',0.745098,0.901961,0.960784);
#268=FILL_AREA_STYLE_COLOUR('',#267);
#269=FILL_AREA_STYLE('',(#268));
#270=SURFACE_STYLE_FILL_AREA(#269);
#271=SURFACE_SIDE_STYLE('',(#270));
#272=SURFACE_STYLE_USAGE(.BOTH.,#271);
#273=PRESENTATION_STYLE_ASSIGNMENT((#272));
#274=OVER_RIDING_STYLED_ITEM('',(#273),#110,#266);
#275=OVER_RIDING_STYLED_ITEM('',(#273),#152,#266);
#276=OVER_RIDING_STYLED_ITEM('',(#273),#176,#266);
#277=OVER_RIDING_STYLED_ITEM('',(#273),#201,#266);
#278=OVER_RIDING_STYLED_ITEM('',(#273),#218,#266);
#279=OVER_RIDING_STYLED_ITEM('',(#273),#227,#266);
#280=OVER_RIDING_STYLED_ITEM('',(#273),#256,#266);
#281=OVER_RIDING_STYLED_ITEM('',(#273),#265,#266);
#282=MANIFOLD_SOLID_BREP('S1_1',#266);
#283=CARTESIAN_POINT('',(-4.975,3.5527136788005E-15,43.7));
#284=DIRECTION('',(1.,0.,0.));
#285=DIRECTION('',(0.,0.,1.));
#286=AXIS2_PLACEMENT_3D('',#283,#285,#284);
#287=PLANE('',#286);
#288=CARTESIAN_POINT('',(-12.05,7.075,43.7));
#289=VERTEX_POINT('',#288);
#290=CARTESIAN_POINT('',(-12.05,-7.075,43.7));
#291=VERTEX_POINT('',#290);
#292=CARTESIAN_POINT('',(-12.05,7.075,43.7));
#293=DIRECTION('',(0.,-1.,0.));
#294=VECTOR('',#293,14.15);
#295=LINE('',#292,#294);
#296=EDGE_CURVE('',#289,#291,#295,.T.);
#297=ORIENTED_EDGE('E127',*,*,#296,.T.);
#298=CARTESIAN_POINT('',(-6.,-7.075,43.7));
#299=VERTEX_POINT('',#298);
#300=CARTESIAN_POINT('',(-12.05,-7.075,43.7));
#301=DIRECTION('',(1.,0.,0.));
#302=VECTOR('',#301,6.05);
#303=LINE('',#300,#302);
#304=EDGE_CURVE('',#291,#299,#303,.T.);
#305=ORIENTED_EDGE('E128',*,*,#304,.T.);
#306=CARTESIAN_POINT('',(-6.,7.075,43.7));
#307=VERTEX_POINT('',#306);
#308=CARTESIAN_POINT('',(-6.,-7.075,43.7));
#309=DIRECTION('',(0.,1.,0.));
#310=VECTOR('',#309,14.15);
#311=LINE('',#308,#310);
#312=EDGE_CURVE('',#299,#307,#311,.T.);
#313=ORIENTED_EDGE('E129',*,*,#312,.T.);
#314=CARTESIAN_POINT('',(-6.,7.075,43.7));
#315=DIRECTION('',(-1.,0.,0.));
#316=VECTOR('',#315,6.05);
#317=LINE('',#314,#316);
#318=EDGE_CURVE('',#307,#289,#317,.T.);
#319=ORIENTED_EDGE('E130',*,*,#318,.T.);
#320=EDGE_LOOP('',(#297,#305,#313,#319));
#321=FACE_OUTER_BOUND('',#320,.T.);
#322=ADVANCED_FACE('F58',(#321),#287,.T.);
#323=CARTESIAN_POINT('',(-4.975,3.5527136788005E-15,38.9));
#324=DIRECTION('',(1.,0.,0.));
#325=DIRECTION('',(0.,0.,-1.));
#326=AXIS2_PLACEMENT_3D('',#323,#325,#324);
#327=PLANE('',#326);
#328=CARTESIAN_POINT('',(-6.,-7.075,38.9));
#329=VERTEX_POINT('',#328);
#330=CARTESIAN_POINT('',(-12.05,-7.075,38.9));
#331=VERTEX_POINT('',#330);
#332=CARTESIAN_POINT('',(-6.,-7.075,38.9));
#333=DIRECTION('',(-1.,0.,0.));
#334=VECTOR('',#333,6.05);
#335=LINE('',#332,#334);
#336=EDGE_CURVE('',#329,#331,#335,.T.);
#337=ORIENTED_EDGE('E131',*,*,#336,.T.);
#338=CARTESIAN_POINT('',(-12.05,7.075,38.9));
#339=VERTEX_POINT('',#338);
#340=CARTESIAN_POINT('',(-12.05,-7.075,38.9));
#341=DIRECTION('',(0.,1.,0.));
#342=VECTOR('',#341,14.15);
#343=LINE('',#340,#342);
#344=EDGE_CURVE('',#331,#339,#343,.T.);
#345=ORIENTED_EDGE('E132',*,*,#344,.T.);
#346=CARTESIAN_POINT('',(-6.,7.075,38.9));
#347=VERTEX_POINT('',#346);
#348=CARTESIAN_POINT('',(-12.05,7.075,38.9));
#349=DIRECTION('',(1.,0.,0.));
#350=VECTOR('',#349,6.05);
#351=LINE('',#348,#350);
#352=EDGE_CURVE('',#339,#347,#351,.T.);
#353=ORIENTED_EDGE('E133',*,*,#352,.T.);
#354=CARTESIAN_POINT('',(-6.,7.075,38.9));
#355=DIRECTION('',(0.,-1.,0.));
#356=VECTOR('',#355,14.15);
#357=LINE('',#354,#356);
#358=EDGE_CURVE('',#347,#329,#357,.T.);
#359=ORIENTED_EDGE('E134',*,*,#358,.T.);
#360=EDGE_LOOP('',(#337,#345,#353,#359));
#361=FACE_OUTER_BOUND('',#360,.T.);
#362=ADVANCED_FACE('F59',(#361),#327,.T.);
#363=CARTESIAN_POINT('',(-6.,3.5527136788005E-15,41.3));
#364=DIRECTION('',(1.2553758582334E-16,1.,0.));
#365=DIRECTION('',(1.,-1.2553758582334E-16,0.));
#366=AXIS2_PLACEMENT_3D('',#363,#365,#364);
#367=PLANE('',#366);
#368=CARTESIAN_POINT('',(-6.,-7.075,43.7));
#369=DIRECTION('',(0.,0.,-1.));
#370=VECTOR('',#369,4.8);
#371=LINE('',#368,#370);
#372=EDGE_CURVE('',#299,#329,#371,.T.);
#373=ORIENTED_EDGE('E135',*,*,#372,.T.);
#374=ORIENTED_EDGE('E135',*,*,#358,.F.);
#375=CARTESIAN_POINT('',(-6.,7.075,38.9));
#376=DIRECTION('',(0.,0.,1.));
#377=VECTOR('',#376,4.8);
#378=LINE('',#375,#377);
#379=EDGE_CURVE('',#347,#307,#378,.T.);
#380=ORIENTED_EDGE('E136',*,*,#379,.T.);
#381=ORIENTED_EDGE('E136',*,*,#312,.F.);
#382=EDGE_LOOP('',(#373,#374,#380,#381));
#383=FACE_OUTER_BOUND('',#382,.T.);
#384=ADVANCED_FACE('F60',(#383),#367,.T.);
#385=CARTESIAN_POINT('',(-9.025,7.075,41.3));
#386=DIRECTION('',(-1.,0.,0.));
#387=DIRECTION('',(0.,1.,-0.));
#388=AXIS2_PLACEMENT_3D('',#385,#387,#386);
#389=PLANE('',#388);
#390=ORIENTED_EDGE('',*,*,#379,.F.);
#391=ORIENTED_EDGE('',*,*,#352,.F.);
#392=CARTESIAN_POINT('',(-12.05,7.075,38.9));
#393=DIRECTION('',(0.,0.,1.));
#394=VECTOR('',#393,4.8);
#395=LINE('',#392,#394);
#396=EDGE_CURVE('',#339,#289,#395,.T.);
#397=ORIENTED_EDGE('E137',*,*,#396,.T.);
#398=ORIENTED_EDGE('E137',*,*,#318,.F.);
#399=EDGE_LOOP('',(#390,#391,#397,#398));
#400=FACE_OUTER_BOUND('',#399,.T.);
#401=ADVANCED_FACE('F61',(#400),#389,.T.);
#402=CARTESIAN_POINT('',(-12.05,4.4408920985006E-15,41.3));
#403=DIRECTION('',(2.5107517164668E-16,-1.,0.));
#404=DIRECTION('',(-1.,-2.5107517164668E-16,0.));
#405=AXIS2_PLACEMENT_3D('',#402,#404,#403);
#406=PLANE('',#405);
#407=ORIENTED_EDGE('',*,*,#396,.F.);
#408=ORIENTED_EDGE('',*,*,#344,.F.);
#409=CARTESIAN_POINT('',(-12.05,-7.075,38.9));
#410=DIRECTION('',(0.,0.,1.));
#411=VECTOR('',#410,4.8);
#412=LINE('',#409,#411);
#413=EDGE_CURVE('',#331,#291,#412,.T.);
#414=ORIENTED_EDGE('E138',*,*,#413,.T.);
#415=ORIENTED_EDGE('E138',*,*,#296,.F.);
#416=EDGE_LOOP('',(#407,#408,#414,#415));
#417=FACE_OUTER_BOUND('',#416,.T.);
#418=ADVANCED_FACE('F62',(#417),#406,.T.);
#419=CARTESIAN_POINT('',(-9.025,-7.075,41.3));
#420=DIRECTION('',(1.,-2.9361270072731E-16,0.));
#421=DIRECTION('',(-2.9361270072731E-16,-1.,0.));
#422=AXIS2_PLACEMENT_3D('',#419,#421,#420);
#423=PLANE('',#422);
#424=ORIENTED_EDGE('',*,*,#413,.F.);
#425=ORIENTED_EDGE('',*,*,#336,.F.);
#426=ORIENTED_EDGE('',*,*,#372,.F.);
#427=ORIENTED_EDGE('',*,*,#304,.F.);
#428=EDGE_LOOP('',(#424,#425,#426,#427));
#429=FACE_OUTER_BOUND('',#428,.T.);
#430=ADVANCED_FACE('F63',(#429),#423,.T.);
#431=CLOSED_SHELL('',(#322,#362,#384,#401,#418,#430));
#432=COLOUR_RGB('',1.,1.,1.000000);
#433=FILL_AREA_STYLE_COLOUR('',#432);
#434=FILL_AREA_STYLE('',(#433));
#435=SURFACE_STYLE_FILL_AREA(#434);
#436=SURFACE_SIDE_STYLE('',(#435));
#437=SURFACE_STYLE_USAGE(.BOTH.,#436);
#438=PRESENTATION_STYLE_ASSIGNMENT((#437));
#439=OVER_RIDING_STYLED_ITEM('',(#438),#322,#431);
#440=OVER_RIDING_STYLED_ITEM('',(#438),#362,#431);
#441=OVER_RIDING_STYLED_ITEM('',(#273),#384,#431);
#442=OVER_RIDING_STYLED_ITEM('',(#438),#401,#431);
#443=OVER_RIDING_STYLED_ITEM('',(#438),#418,#431);
#444=OVER_RIDING_STYLED_ITEM('',(#438),#430,#431);
#445=MANIFOLD_SOLID_BREP('S3',#431);
#446=CARTESIAN_POINT('',(0.,7.105427357601E-15,37.8));
#447=DIRECTION('',(-1.,0.,0.));
#448=DIRECTION('',(0.,0.,1.));
#449=AXIS2_PLACEMENT_3D('',#446,#448,#447);
#450=PLANE('',#449);
#451=CARTESIAN_POINT('',(-12.1,0.,37.8));
#452=VERTEX_POINT('',#451);
#453=CARTESIAN_POINT('',(3.5527136788005E-15,6.9084068182086E-15,37.8));
#454=DIRECTION('',(-1.,-5.7094271224865E-16,0.));
#455=DIRECTION('',(0.,0.,1.));
#456=AXIS2_PLACEMENT_3D('',#453,#455,#454);
#457=CIRCLE('',#456,12.1);
#458=EDGE_CURVE('',#452,#452,#457,.T.);
#459=ORIENTED_EDGE('E1',*,*,#458,.T.);
#460=EDGE_LOOP('',(#459));
#461=FACE_OUTER_BOUND('',#460,.T.);
#462=CARTESIAN_POINT('',(11.65,-2.3164876939259E-16,37.8));
#463=VERTEX_POINT('',#462);
#464=CARTESIAN_POINT('',(-1.0658141036402E-14,-2.1157597198131E-15,37.8));
#465=DIRECTION('',(1.,1.6172626183867E-16,4.3127003156979E-16));
#466=DIRECTION('',(4.3127003156979E-16,-4.3127003156979E-16,-1.));
#467=AXIS2_PLACEMENT_3D('',#464,#466,#465);
#468=CIRCLE('',#467,11.65);
#469=EDGE_CURVE('',#463,#463,#468,.T.);
#470=ORIENTED_EDGE('E2',*,*,#469,.T.);
#471=EDGE_LOOP('',(#470));
#472=FACE_BOUND('',#471,.T.);
#473=ADVANCED_FACE('F1',(#461,#472),#450,.T.);
#474=CARTESIAN_POINT('',(-4.8849813083507E-15,-7.105427357601E-15,37.8));
#475=DIRECTION('',(-1.,5.8722540145462E-16,0.));
#476=DIRECTION('',(3.4967654318903E-16,0.,-1.));
#477=AXIS2_PLACEMENT_3D('',#474,#476,#475);
#478=CYLINDRICAL_SURFACE('',#477,12.1);
#479=CARTESIAN_POINT('',(-12.1,0.,18.75));
#480=VERTEX_POINT('',#479);
#481=CARTESIAN_POINT('',(-12.1,0.,37.8));
#482=DIRECTION('',(0.,0.,-1.));
#483=VECTOR('',#482,19.05);
#484=LINE('',#481,#483);
#485=EDGE_CURVE('',#452,#480,#484,.T.);
#486=ORIENTED_EDGE('E3',*,*,#485,.T.);
#487=CARTESIAN_POINT('',(3.5527136788005E-15,6.9084068182086E-15,18.75));
#488=DIRECTION('',(-1.,-5.7094271224865E-16,0.));
#489=DIRECTION('',(0.,0.,1.));
#490=AXIS2_PLACEMENT_3D('',#487,#489,#488);
#491=CIRCLE('',#490,12.1);
#492=EDGE_CURVE('',#480,#480,#491,.T.);
#493=ORIENTED_EDGE('E4',*,*,#492,.T.);
#494=ORIENTED_EDGE('E4',*,*,#485,.F.);
#495=ORIENTED_EDGE('E4',*,*,#458,.F.);
#496=EDGE_LOOP('',(#486,#493,#494,#495));
#497=FACE_OUTER_BOUND('',#496,.T.);
#498=ADVANCED_FACE('F2',(#497),#478,.T.);
#499=CARTESIAN_POINT('',(0.,3.5527136788005E-15,18.75));
#500=DIRECTION('',(-1.,0.,0.));
#501=DIRECTION('',(0.,0.,1.));
#502=AXIS2_PLACEMENT_3D('',#499,#501,#500);
#503=PLANE('',#502);
#504=CARTESIAN_POINT('',(-12.4,0.,18.75));
#505=VERTEX_POINT('',#504);
#506=CARTESIAN_POINT('',(-1.7763568394003E-15,-1.8841109504205E-15,18.75));
#507=DIRECTION('',(-1.,1.5194443148553E-16,-0.));
#508=DIRECTION('',(0.,0.,1.));
#509=AXIS2_PLACEMENT_3D('',#506,#508,#507);
#510=CIRCLE('',#509,12.4);
#511=EDGE_CURVE('',#505,#505,#510,.T.);
#512=ORIENTED_EDGE('E5',*,*,#511,.T.);
#513=EDGE_LOOP('',(#512));
#514=FACE_OUTER_BOUND('',#513,.T.);
#515=ORIENTED_EDGE('',*,*,#492,.F.);
#516=EDGE_LOOP('',(#515));
#517=FACE_BOUND('',#516,.T.);
#518=ADVANCED_FACE('F3',(#514,#517),#503,.T.);
#519=CARTESIAN_POINT('',(8.8817841970013E-16,-3.5527136788005E-15,18.75));
#520=DIRECTION('',(-1.,2.865091676452E-16,-2.865091676452E-16));
#521=DIRECTION('',(3.3158661002138E-16,0.,-1.));
#522=AXIS2_PLACEMENT_3D('',#519,#521,#520);
#523=CYLINDRICAL_SURFACE('',#522,12.4);
#524=CARTESIAN_POINT('',(-12.4,0.,0.));
#525=VERTEX_POINT('',#524);
#526=CARTESIAN_POINT('',(-12.4,0.,18.75));
#527=DIRECTION('',(0.,0.,-1.));
#528=VECTOR('',#527,18.75);
#529=LINE('',#526,#528);
#530=EDGE_CURVE('',#505,#525,#529,.T.);
#531=ORIENTED_EDGE('E6',*,*,#530,.T.);
#532=CARTESIAN_POINT('',(-8.8817841970013E-15,-1.256073966947E-15,0.));
#533=DIRECTION('',(-1.,1.0129628765702E-16,-0.));
#534=DIRECTION('',(0.,0.,1.));
#535=AXIS2_PLACEMENT_3D('',#532,#534,#533);
#536=CIRCLE('',#535,12.4);
#537=EDGE_CURVE('',#525,#525,#536,.T.);
#538=ORIENTED_EDGE('E7',*,*,#537,.T.);
#539=ORIENTED_EDGE('E7',*,*,#530,.F.);
#540=ORIENTED_EDGE('E7',*,*,#511,.F.);
#541=EDGE_LOOP('',(#531,#538,#539,#540));
#542=FACE_OUTER_BOUND('',#541,.T.);
#543=ADVANCED_FACE('F4',(#542),#523,.T.);
#544=CARTESIAN_POINT('',(-4.4408920985006E-16,4.4408920985006E-16,-2.2137090163911E-16));
#545=DIRECTION('',(1.,-2.4934731130047E-16,6.3248829039747E-17));
#546=DIRECTION('',(1.6447748512965E-16,-3.6521338204676E-32,-1.));
#547=AXIS2_PLACEMENT_3D('',#544,#546,#545);
#548=CYLINDRICAL_SURFACE('',#547,3.5);
#549=CARTESIAN_POINT('',(3.5,-4.2862637970157E-16,0.));
#550=VERTEX_POINT('',#549);
#551=CARTESIAN_POINT('',(2.6645352591004E-15,-7.4264487143832E-16,0.));
#552=DIRECTION('',(1.,8.9719569067644E-17,-0.));
#553=DIRECTION('',(0.,-0.,-1.));
#554=AXIS2_PLACEMENT_3D('',#551,#553,#552);
#555=CIRCLE('',#554,3.5);
#556=EDGE_CURVE('',#550,#550,#555,.T.);
#557=ORIENTED_EDGE('E8',*,*,#556,.T.);
#558=CARTESIAN_POINT('',(3.5,-4.2862637970157E-16,-2.7));
#559=VERTEX_POINT('',#558);
#560=CARTESIAN_POINT('',(3.5,-4.2862637970157E-16,0.));
#561=DIRECTION('',(0.,0.,-1.));
#562=VECTOR('',#561,2.7);
#563=LINE('',#560,#562);
#564=EDGE_CURVE('',#550,#559,#563,.T.);
#565=ORIENTED_EDGE('E9',*,*,#564,.T.);
#566=CARTESIAN_POINT('',(-3.1086244689504E-15,-1.1460788796481E-16,-2.7));
#567=DIRECTION('',(1.,-8.9719569067644E-17,-1.422760758172E-16));
#568=DIRECTION('',(1.422760758172E-16,2.6915870720293E-16,1.));
#569=AXIS2_PLACEMENT_3D('',#566,#568,#567);
#570=CIRCLE('',#569,3.5);
#571=EDGE_CURVE('',#559,#559,#570,.T.);
#572=ORIENTED_EDGE('E10',*,*,#571,.T.);
#573=ORIENTED_EDGE('E10',*,*,#564,.F.);
#574=EDGE_LOOP('',(#557,#565,#572,#573));
#575=FACE_OUTER_BOUND('',#574,.T.);
#576=ADVANCED_FACE('F5',(#575),#548,.T.);
#577=CARTESIAN_POINT('',(-0.93782217350893,5.3290705182008E-15,-2.7));
#578=DIRECTION('',(1.,-1.0006917638589E-16,0.));
#579=DIRECTION('',(0.,0.,-1.));
#580=AXIS2_PLACEMENT_3D('',#577,#579,#578);
#581=PLANE('',#580);
#582=ORIENTED_EDGE('',*,*,#571,.F.);
#583=EDGE_LOOP('',(#582));
#584=FACE_OUTER_BOUND('',#583,.T.);
#585=CARTESIAN_POINT('',(1.5,-1.9978833105284E-16,-2.7));
#586=VERTEX_POINT('',#585);
#587=CARTESIAN_POINT('',(-2.2204460492503E-16,4.2824865242067E-16,-2.7));
#588=DIRECTION('',(1.,-4.1869132231567E-16,-3.3197751024013E-16));
#589=DIRECTION('',(3.3197751024014E-16,6.2803698347351E-16,1.));
#590=AXIS2_PLACEMENT_3D('',#587,#589,#588);
#591=CIRCLE('',#590,1.5);
#592=EDGE_CURVE('',#586,#586,#591,.T.);
#593=ORIENTED_EDGE('E11',*,*,#592,.T.);
#594=EDGE_LOOP('',(#593));
#595=FACE_BOUND('',#594,.T.);
#596=ADVANCED_FACE('F6',(#584,#595),#581,.T.);
#597=CARTESIAN_POINT('',(5.5511151231258E-16,0.,-2.7));
#598=DIRECTION('',(1.,-1.3319222070189E-16,2.9605947323338E-16));
#599=DIRECTION('',(1.0279842820603E-17,0.,-1.));
#600=AXIS2_PLACEMENT_3D('',#597,#599,#598);
#601=CYLINDRICAL_SURFACE('',#600,1.5);
#602=ORIENTED_EDGE('',*,*,#592,.F.);
#603=CARTESIAN_POINT('',(1.5,1.6760570869137E-16,-13.5));
#604=VERTEX_POINT('',#603);
#605=CARTESIAN_POINT('',(1.5,-1.9978833105284E-16,-2.7));
#606=DIRECTION('',(0.,3.4017966642982E-17,-1.));
#607=VECTOR('',#606,10.8);
#608=LINE('',#605,#607);
#609=EDGE_CURVE('',#586,#604,#608,.T.);
#610=ORIENTED_EDGE('E12',*,*,#609,.T.);
#611=CARTESIAN_POINT('',(1.1180339887499,1.,-13.5));
#612=VERTEX_POINT('',#611);
#613=CARTESIAN_POINT('',(3.7747582837255E-15,5.5511151231258E-16,-13.5));
#614=DIRECTION('',(1.,-2.5833720241417E-16,-1.0658141036402E-14));
#615=DIRECTION('',(1.2146066093902E-14,2.8630275788677E-15,1.));
#616=AXIS2_PLACEMENT_3D('',#613,#615,#614);
#617=CIRCLE('',#616,1.5);
#618=EDGE_CURVE('',#604,#612,#617,.T.);
#619=ORIENTED_EDGE('E13',*,*,#618,.T.);
#620=CARTESIAN_POINT('',(1.1180339887499,1.,-6.65));
#621=VERTEX_POINT('',#620);
#622=CARTESIAN_POINT('',(1.1180339887499,1.,-13.5));
#623=DIRECTION('',(0.,0.,1.));
#624=VECTOR('',#623,6.85);
#625=LINE('',#622,#624);
#626=EDGE_CURVE('',#612,#621,#625,.T.);
#627=ORIENTED_EDGE('E14',*,*,#626,.T.);
#628=CARTESIAN_POINT('',(-1.1180339887499,1.,-6.65));
#629=VERTEX_POINT('',#628);
#630=CARTESIAN_POINT('',(-2.2204460492503E-15,-1.1102230246252E-15,-6.65));
#631=DIRECTION('',(0.74535599249993,0.66666666666666,2.9605947323337E-15));
#632=DIRECTION('',(-5.5179417413E-16,-3.0102061223433E-15,1.));
#633=AXIS2_PLACEMENT_3D('',#630,#632,#631);
#634=CIRCLE('',#633,1.5);
#635=EDGE_CURVE('',#621,#629,#634,.T.);
#636=ORIENTED_EDGE('E15',*,*,#635,.T.);
#637=CARTESIAN_POINT('',(-1.1180339887499,1.,-13.5));
#638=VERTEX_POINT('',#637);
#639=CARTESIAN_POINT('',(-1.1180339887499,1.,-6.65));
#640=DIRECTION('',(0.,0.,-1.));
#641=VECTOR('',#640,6.85);
#642=LINE('',#639,#641);
#643=EDGE_CURVE('',#629,#638,#642,.T.);
#644=ORIENTED_EDGE('E16',*,*,#643,.T.);
#645=CARTESIAN_POINT('',(2.2204460492503E-16,1.1102230246252E-16,-13.5));
#646=DIRECTION('',(-0.74535599249993,0.66666666666666,-2.368475785867E-15));
#647=DIRECTION('',(-2.4715588841576E-15,3.2467127840211E-15,1.));
#648=AXIS2_PLACEMENT_3D('',#645,#647,#646);
#649=CIRCLE('',#648,1.5);
#650=EDGE_CURVE('',#638,#604,#649,.T.);
#651=ORIENTED_EDGE('E17',*,*,#650,.T.);
#652=ORIENTED_EDGE('E17',*,*,#609,.F.);
#653=EDGE_LOOP('',(#602,#610,#619,#627,#636,#644,#651,#652));
#654=FACE_OUTER_BOUND('',#653,.T.);
#655=ADVANCED_FACE('F7',(#654),#601,.T.);
#656=CARTESIAN_POINT('',(-0.40192378864668,8.8817841970013E-16,-13.7));
#657=DIRECTION('',(1.,-1.3046683194998E-16,0.));
#658=DIRECTION('',(0.,-0.,-1.));
#659=AXIS2_PLACEMENT_3D('',#656,#658,#657);
#660=PLANE('',#659);
#661=CARTESIAN_POINT('',(-0.8306481501696,1.,-13.7));
#662=VERTEX_POINT('',#661);
#663=CARTESIAN_POINT('',(0.83066170251501,1.,-13.7));
#664=VERTEX_POINT('',#663);
#665=CARTESIAN_POINT('',(-0.8306481501696,1.,-13.7));
#666=DIRECTION('',(1.,0.,0.));
#667=VECTOR('',#666,1.6613098526846);
#668=LINE('',#665,#667);
#669=EDGE_CURVE('',#662,#664,#668,.T.);
#670=ORIENTED_EDGE('E18',*,*,#669,.T.);
#671=CARTESIAN_POINT('',(1.3,0.,-13.7));
#672=VERTEX_POINT('',#671);
#673=CARTESIAN_POINT('',(-1.5543122344752E-15,-1.3322676295502E-15,-13.7));
#674=DIRECTION('',(0.63897075514611,0.76923102775954,1.3664287972395E-14));
#675=DIRECTION('',(9.9244933741645E-15,6.4342973268867E-15,-1.));
#676=AXIS2_PLACEMENT_3D('',#673,#675,#674);
#677=CIRCLE('',#676,1.2999995630865);
#678=EDGE_CURVE('',#664,#672,#677,.T.);
#679=ORIENTED_EDGE('E19',*,*,#678,.T.);
#680=CARTESIAN_POINT('',(-2.2204460492503E-16,2.2204460492503E-16,-13.7));
#681=DIRECTION('',(1.,-1.7080354225003E-16,-1.3664283380002E-15));
#682=DIRECTION('',(-2.5914434053526E-16,-1.2292543676802E-15,-1.));
#683=AXIS2_PLACEMENT_3D('',#680,#682,#681);
#684=CIRCLE('',#683,1.3);
#685=EDGE_CURVE('',#672,#662,#684,.T.);
#686=ORIENTED_EDGE('E20',*,*,#685,.T.);
#687=EDGE_LOOP('',(#670,#679,#686));
#688=FACE_OUTER_BOUND('',#687,.T.);
#689=ADVANCED_FACE('F8',(#688),#660,.T.);
#690=CARTESIAN_POINT('',(2.2204460492503E-16,1.,-10.175));
#691=DIRECTION('',(-1.,2.4825341532473E-16,0.));
#692=DIRECTION('',(2.4825341532473E-16,1.,-0.));
#693=AXIS2_PLACEMENT_3D('',#690,#692,#691);
#694=PLANE('',#693);
#695=CARTESIAN_POINT('',(-1.1180339887499,1.,-6.65));
#696=DIRECTION('',(1.,0.,0.));
#697=VECTOR('',#696,2.2360679774998);
#698=LINE('',#695,#697);
#699=EDGE_CURVE('',#629,#621,#698,.T.);
#700=ORIENTED_EDGE('E21',*,*,#699,.T.);
#701=ORIENTED_EDGE('E21',*,*,#626,.F.);
#702=CARTESIAN_POINT('',(1.1180339887497,1.0000000000002,-13.5));
#703=CARTESIAN_POINT('',(1.0265961291781,0.99999999999974,-13.568279207662));
#704=CARTESIAN_POINT('',(0.92721565426941,1.0000001668343,-13.638304938441));
#705=CARTESIAN_POINT('',(0.83066184355842,1.0000001668343,-13.7));
#706=B_SPLINE_CURVE_WITH_KNOTS('',3,(#702,#703,#704,#705),.UNSPECIFIED.,.F.,.U.,(4,4),(0.,1.),.UNSPECIFIED.);
#707=EDGE_CURVE('',#612,#664,#706,.T.);
#708=ORIENTED_EDGE('E22',*,*,#707,.T.);
#709=ORIENTED_EDGE('E22',*,*,#669,.F.);
#710=CARTESIAN_POINT('',(-0.83065243208299,1.0000034986491,-13.699999120933));
#711=CARTESIAN_POINT('',(-0.92732883589897,1.0000034986159,-13.638226261088));
#712=CARTESIAN_POINT('',(-1.0262170334717,0.99999999999988,-13.568562300008));
#713=CARTESIAN_POINT('',(-1.1180339887499,1.,-13.5));
#714=B_SPLINE_CURVE_WITH_KNOTS('',3,(#710,#711,#712,#713),.UNSPECIFIED.,.F.,.U.,(4,4),(0.,0.99999525647578),.UNSPECIFIED.);
#715=EDGE_CURVE('',#662,#638,#714,.T.);
#716=ORIENTED_EDGE('E23',*,*,#715,.T.);
#717=ORIENTED_EDGE('E23',*,*,#643,.F.);
#718=EDGE_LOOP('',(#700,#701,#708,#709,#716,#717));
#719=FACE_OUTER_BOUND('',#718,.T.);
#720=ADVANCED_FACE('F9',(#719),#694,.T.);
#721=CARTESIAN_POINT('',(1.1102230246252E-15,2.4540987014771,-6.65));
#722=DIRECTION('',(1.,0.,0.));
#723=DIRECTION('',(0.,0.,-1.));
#724=AXIS2_PLACEMENT_3D('',#721,#723,#722);
#725=PLANE('',#724);
#726=ORIENTED_EDGE('',*,*,#699,.F.);
#727=ORIENTED_EDGE('',*,*,#635,.F.);
#728=EDGE_LOOP('',(#726,#727));
#729=FACE_OUTER_BOUND('',#728,.T.);
#730=ADVANCED_FACE('F10',(#729),#725,.T.);
#731=CARTESIAN_POINT('',(1.7763568394003E-15,-3.7747582837255E-15,-15.));
#732=DIRECTION('',(1.,2.8768045240403E-15,-5.1513075502928E-16));
#733=DIRECTION('',(5.1513075502929E-16,-4.934912222584E-16,1.));
#734=AXIS2_PLACEMENT_3D('',#731,#733,#732);
#735=CONICAL_SURFACE('',#734,0.,0.78539816339746);
#736=CARTESIAN_POINT('',(1.3,0.,-13.7));
#737=DIRECTION('',(0.70710678118655,5.9257566590623E-16,0.70710678118655));
#738=VECTOR('',#737,0.28284271247462);
#739=LINE('',#736,#738);
#740=EDGE_CURVE('',#672,#604,#739,.T.);
#741=ORIENTED_EDGE('E24',*,*,#740,.T.);
#742=ORIENTED_EDGE('E24',*,*,#650,.F.);
#743=ORIENTED_EDGE('E24',*,*,#715,.F.);
#744=ORIENTED_EDGE('E24',*,*,#685,.F.);
#745=EDGE_LOOP('',(#741,#742,#743,#744));
#746=FACE_OUTER_BOUND('',#745,.T.);
#747=ADVANCED_FACE('F11',(#746),#735,.T.);
#748=CARTESIAN_POINT('',(1.7763568394003E-15,-3.7747582837255E-15,-15.));
#749=DIRECTION('',(-0.86377947302233,-0.50387004473899,-4.0624833343071E-16));
#750=DIRECTION('',(-2.8915169506654E-16,-3.1056625865443E-16,1.));
#751=AXIS2_PLACEMENT_3D('',#748,#750,#749);
#752=CONICAL_SURFACE('',#751,0.,0.78539816339746);
#753=ORIENTED_EDGE('',*,*,#740,.F.);
#754=ORIENTED_EDGE('',*,*,#678,.F.);
#755=ORIENTED_EDGE('',*,*,#707,.F.);
#756=ORIENTED_EDGE('',*,*,#618,.F.);
#757=EDGE_LOOP('',(#753,#754,#755,#756));
#758=FACE_OUTER_BOUND('',#757,.T.);
#759=ADVANCED_FACE('F12',(#758),#752,.T.);
#760=CARTESIAN_POINT('',(-6.6613381477509E-15,0.,37.8));
#761=DIRECTION('',(1.,-1.9884014540136E-17,-5.4891713492197E-15));
#762=DIRECTION('',(-9.9920072216264E-15,0.,-1.));
#763=AXIS2_PLACEMENT_3D('',#760,#762,#761);
#764=CYLINDRICAL_SURFACE('',#763,11.65);
#765=ORIENTED_EDGE('',*,*,#469,.F.);
#766=CARTESIAN_POINT('',(11.65,-2.3164876939259E-16,37.4));
#767=VERTEX_POINT('',#766);
#768=CARTESIAN_POINT('',(11.65,-2.3164876939259E-16,37.8));
#769=DIRECTION('',(0.,0.,-1.));
#770=VECTOR('',#769,0.4);
#771=LINE('',#768,#770);
#772=EDGE_CURVE('',#463,#767,#771,.T.);
#773=ORIENTED_EDGE('E25',*,*,#772,.T.);
#774=CARTESIAN_POINT('',(-1.0658141036402E-14,-2.1157597198131E-15,37.4));
#775=DIRECTION('',(1.,1.6172626183867E-16,-0.));
#776=DIRECTION('',(0.,-0.,-1.));
#777=AXIS2_PLACEMENT_3D('',#774,#776,#775);
#778=CIRCLE('',#777,11.65);
#779=EDGE_CURVE('',#767,#767,#778,.T.);
#780=ORIENTED_EDGE('E26',*,*,#779,.T.);
#781=ORIENTED_EDGE('E26',*,*,#772,.F.);
#782=EDGE_LOOP('',(#765,#773,#780,#781));
#783=FACE_OUTER_BOUND('',#782,.T.);
#784=ADVANCED_FACE('F13',(#783),#764,.F.);
#785=CARTESIAN_POINT('',(-5.7143741865527,-7.9011450138378,37.4));
#786=DIRECTION('',(1.,0.,0.));
#787=DIRECTION('',(0.,0.,1.));
#788=AXIS2_PLACEMENT_3D('',#785,#787,#786);
#789=CYLINDRICAL_SURFACE('',#788,1.1999999999998);
#790=CARTESIAN_POINT('',(-4.5143741865529,-7.9011450138378,37.4));
#791=VERTEX_POINT('',#790);
#792=CARTESIAN_POINT('',(-5.7143741865527,-7.9011450138378,37.4));
#793=DIRECTION('',(1.,2.6168207644734E-16,-0.));
#794=DIRECTION('',(0.,0.,1.));
#795=AXIS2_PLACEMENT_3D('',#792,#794,#793);
#796=CIRCLE('',#795,1.1999999999998);
#797=EDGE_CURVE('',#791,#791,#796,.T.);
#798=ORIENTED_EDGE('E27',*,*,#797,.T.);
#799=CARTESIAN_POINT('',(-4.5143741865529,-7.9011450138378,37.8));
#800=VERTEX_POINT('',#799);
#801=CARTESIAN_POINT('',(-4.5143741865529,-7.9011450138378,37.4));
#802=DIRECTION('',(0.,0.,1.));
#803=VECTOR('',#802,0.4);
#804=LINE('',#801,#803);
#805=EDGE_CURVE('',#791,#800,#804,.T.);
#806=ORIENTED_EDGE('E28',*,*,#805,.T.);
#807=CARTESIAN_POINT('',(-5.7143741865527,-7.9011450138378,37.8));
#808=DIRECTION('',(1.,-2.6168207644732E-16,4.1869132231574E-15));
#809=DIRECTION('',(4.1869132231574E-15,-4.1869132231574E-15,-1.));
#810=AXIS2_PLACEMENT_3D('',#807,#809,#808);
#811=CIRCLE('',#810,1.1999999999998);
#812=EDGE_CURVE('',#800,#800,#811,.T.);
#813=ORIENTED_EDGE('E29',*,*,#812,.T.);
#814=ORIENTED_EDGE('E29',*,*,#805,.F.);
#815=EDGE_LOOP('',(#798,#806,#813,#814));
#816=FACE_OUTER_BOUND('',#815,.T.);
#817=ADVANCED_FACE('F14',(#816),#789,.T.);
#818=CARTESIAN_POINT('',(-3.7513298923495,9.0005382568152,37.4));
#819=DIRECTION('',(1.,0.,5.9211894646685E-15));
#820=DIRECTION('',(0.,4.4408920985006E-15,1.));
#821=AXIS2_PLACEMENT_3D('',#818,#820,#819);
#822=CYLINDRICAL_SURFACE('',#821,1.1999999999998);
#823=CARTESIAN_POINT('',(-2.5513298923497,9.0005382568152,37.4));
#824=VERTEX_POINT('',#823);
#825=CARTESIAN_POINT('',(-3.7513298923495,9.0005382568152,37.4));
#826=DIRECTION('',(1.,-4.3825605845626E-30,2.0934566115787E-15));
#827=DIRECTION('',(-2.0934566115787E-15,-2.0934566115787E-15,1.));
#828=AXIS2_PLACEMENT_3D('',#825,#827,#826);
#829=CIRCLE('',#828,1.1999999999998);
#830=EDGE_CURVE('',#824,#824,#829,.T.);
#831=ORIENTED_EDGE('E30',*,*,#830,.T.);
#832=CARTESIAN_POINT('',(-2.5513298923497,9.0005382568152,37.8));
#833=VERTEX_POINT('',#832);
#834=CARTESIAN_POINT('',(-2.5513298923497,9.0005382568152,37.4));
#835=DIRECTION('',(0.,0.,1.));
#836=VECTOR('',#835,0.4);
#837=LINE('',#834,#836);
#838=EDGE_CURVE('',#824,#833,#837,.T.);
#839=ORIENTED_EDGE('E31',*,*,#838,.T.);
#840=CARTESIAN_POINT('',(-3.7513298923495,9.0005382568152,37.8));
#841=DIRECTION('',(1.,1.5777218104426E-28,1.2560739669472E-14));
#842=DIRECTION('',(1.2560739669472E-14,-1.2560739669472E-14,-1.));
#843=AXIS2_PLACEMENT_3D('',#840,#842,#841);
#844=CIRCLE('',#843,1.1999999999998);
#845=EDGE_CURVE('',#833,#833,#844,.T.);
#846=ORIENTED_EDGE('E32',*,*,#845,.T.);
#847=ORIENTED_EDGE('E32',*,*,#838,.F.);
#848=EDGE_LOOP('',(#831,#839,#846,#847));
#849=FACE_OUTER_BOUND('',#848,.T.);
#850=ADVANCED_FACE('F15',(#849),#822,.T.);
#851=CARTESIAN_POINT('',(3.7513298923498,-9.0005382568157,37.4));
#852=DIRECTION('',(1.,0.,0.));
#853=DIRECTION('',(0.,0.,1.));
#854=AXIS2_PLACEMENT_3D('',#851,#853,#852);
#855=CYLINDRICAL_SURFACE('',#854,1.1999999999998);
#856=CARTESIAN_POINT('',(4.9513298923496,-9.0005382568157,37.4));
#857=VERTEX_POINT('',#856);
#858=CARTESIAN_POINT('',(3.7513298923498,-9.0005382568157,37.4));
#859=DIRECTION('',(1.,2.6168207644734E-16,2.0934566115787E-15));
#860=DIRECTION('',(-2.0934566115787E-15,-2.0934566115787E-15,1.));
#861=AXIS2_PLACEMENT_3D('',#858,#860,#859);
#862=CIRCLE('',#861,1.1999999999998);
#863=EDGE_CURVE('',#857,#857,#862,.T.);
#864=ORIENTED_EDGE('E33',*,*,#863,.T.);
#865=CARTESIAN_POINT('',(4.9513298923496,-9.0005382568157,37.8));
#866=VERTEX_POINT('',#865);
#867=CARTESIAN_POINT('',(4.9513298923496,-9.0005382568157,37.4));
#868=DIRECTION('',(0.,0.,1.));
#869=VECTOR('',#868,0.4);
#870=LINE('',#867,#869);
#871=EDGE_CURVE('',#857,#866,#870,.T.);
#872=ORIENTED_EDGE('E34',*,*,#871,.T.);
#873=CARTESIAN_POINT('',(3.7513298923498,-9.0005382568157,37.8));
#874=DIRECTION('',(1.,-2.6168207644727E-16,8.3738264463149E-15));
#875=DIRECTION('',(8.3738264463149E-15,-8.3738264463149E-15,-1.));
#876=AXIS2_PLACEMENT_3D('',#873,#875,#874);
#877=CIRCLE('',#876,1.1999999999998);
#878=EDGE_CURVE('',#866,#866,#877,.T.);
#879=ORIENTED_EDGE('E35',*,*,#878,.T.);
#880=ORIENTED_EDGE('E35',*,*,#871,.F.);
#881=EDGE_LOOP('',(#864,#872,#879,#880));
#882=FACE_OUTER_BOUND('',#881,.T.);
#883=ADVANCED_FACE('F16',(#882),#855,.T.);
#884=CARTESIAN_POINT('',(5.714374186553,7.9011450138378,37.4));
#885=DIRECTION('',(1.,7.4014868308356E-16,0.));
#886=DIRECTION('',(0.,0.,1.));
#887=AXIS2_PLACEMENT_3D('',#884,#886,#885);
#888=CYLINDRICAL_SURFACE('',#887,1.1999999999998);
#889=CARTESIAN_POINT('',(6.9143741865528,7.9011450138378,37.4));
#890=VERTEX_POINT('',#889);
#891=CARTESIAN_POINT('',(5.714374186553,7.9011450138378,37.4));
#892=DIRECTION('',(1.,-0.,-0.));
#893=DIRECTION('',(0.,-0.,1.));
#894=AXIS2_PLACEMENT_3D('',#891,#893,#892);
#895=CIRCLE('',#894,1.1999999999998);
#896=EDGE_CURVE('',#890,#890,#895,.T.);
#897=ORIENTED_EDGE('E36',*,*,#896,.T.);
#898=CARTESIAN_POINT('',(6.9143741865528,7.9011450138378,37.8));
#899=VERTEX_POINT('',#898);
#900=CARTESIAN_POINT('',(6.9143741865528,7.9011450138378,37.4));
#901=DIRECTION('',(0.,0.,1.));
#902=VECTOR('',#901,0.4);
#903=LINE('',#900,#902);
#904=EDGE_CURVE('',#890,#899,#903,.T.);
#905=ORIENTED_EDGE('E37',*,*,#904,.T.);
#906=CARTESIAN_POINT('',(5.714374186553,7.9011450138378,37.8));
#907=DIRECTION('',(1.,1.7530242338251E-29,4.1869132231574E-15));
#908=DIRECTION('',(4.1869132231574E-15,-4.1869132231574E-15,-1.));
#909=AXIS2_PLACEMENT_3D('',#906,#908,#907);
#910=CIRCLE('',#909,1.1999999999998);
#911=EDGE_CURVE('',#899,#899,#910,.T.);
#912=ORIENTED_EDGE('E38',*,*,#911,.T.);
#913=ORIENTED_EDGE('E38',*,*,#904,.F.);
#914=EDGE_LOOP('',(#897,#905,#912,#913));
#915=FACE_OUTER_BOUND('',#914,.T.);
#916=ADVANCED_FACE('F17',(#915),#888,.T.);
#917=CARTESIAN_POINT('',(4.8564035034065,3.7377154043281,37.4));
#918=DIRECTION('',(1.,8.8817841970013E-16,0.));
#919=DIRECTION('',(2.2204460492503E-15,-1.1102230246252E-15,-1.));
#920=AXIS2_PLACEMENT_3D('',#917,#919,#918);
#921=CYLINDRICAL_SURFACE('',#920,0.5);
#922=CARTESIAN_POINT('',(5.3564035034065,3.7377154043281,37.));
#923=VERTEX_POINT('',#922);
#924=CARTESIAN_POINT('',(4.8564035034065,3.7377154043281,37.));
#925=DIRECTION('',(1.,6.2803698347351E-16,-0.));
#926=DIRECTION('',(0.,-0.,-1.));
#927=AXIS2_PLACEMENT_3D('',#924,#926,#925);
#928=CIRCLE('',#927,0.5);
#929=EDGE_CURVE('',#923,#923,#928,.T.);
#930=ORIENTED_EDGE('E39',*,*,#929,.T.);
#931=CARTESIAN_POINT('',(5.3564035034065,3.7377154043281,37.4));
#932=VERTEX_POINT('',#931);
#933=CARTESIAN_POINT('',(5.3564035034065,3.7377154043281,37.));
#934=DIRECTION('',(0.,0.,1.));
#935=VECTOR('',#934,0.4);
#936=LINE('',#933,#935);
#937=EDGE_CURVE('',#923,#932,#936,.T.);
#938=ORIENTED_EDGE('E40',*,*,#937,.T.);
#939=CARTESIAN_POINT('',(4.8564035034065,3.7377154043281,37.4));
#940=DIRECTION('',(1.,-6.2803698347361E-16,1.0048591735576E-14));
#941=DIRECTION('',(-1.0048591735576E-14,-1.0048591735576E-14,1.));
#942=AXIS2_PLACEMENT_3D('',#939,#941,#940);
#943=CIRCLE('',#942,0.5);
#944=EDGE_CURVE('',#932,#932,#943,.T.);
#945=ORIENTED_EDGE('E41',*,*,#944,.T.);
#946=ORIENTED_EDGE('E41',*,*,#937,.F.);
#947=EDGE_LOOP('',(#930,#938,#945,#946));
#948=FACE_OUTER_BOUND('',#947,.T.);
#949=ADVANCED_FACE('F18',(#948),#921,.F.);
#950=CARTESIAN_POINT('',(1.5844528131543,3.6182881702381,37.4));
#951=DIRECTION('',(0.40112729446877,0.91602232157965,2.8421709430396E-14));
#952=DIRECTION('',(-2.7755575615627E-15,2.2204460492502E-15,-1.));
#953=AXIS2_PLACEMENT_3D('',#950,#952,#951);
#954=CYLINDRICAL_SURFACE('',#953,0.25000000000007);
#955=CARTESIAN_POINT('',(1.6847346367711,3.8472937506334,37.));
#956=VERTEX_POINT('',#955);
#957=CARTESIAN_POINT('',(1.4841709895372,3.3892825898431,37.));
#958=VERTEX_POINT('',#957);
#959=CARTESIAN_POINT('',(1.5844528131543,3.6182881702381,37.));
#960=DIRECTION('',(0.40112729446688,0.91602232158047,-2.8421709430381E-14));
#961=DIRECTION('',(-7.9602128144584E-15,-4.6268162789718E-14,-1.));
#962=AXIS2_PLACEMENT_3D('',#959,#961,#960);
#963=CIRCLE('',#962,0.2500000000002);
#964=EDGE_CURVE('',#956,#958,#963,.T.);
#965=ORIENTED_EDGE('E42',*,*,#964,.T.);
#966=CARTESIAN_POINT('',(1.4841709895366,3.3892825898435,37.4));
#967=VERTEX_POINT('',#966);
#968=CARTESIAN_POINT('',(1.4841709895372,3.3892825898431,37.));
#969=DIRECTION('',(-1.4999113062686E-12,1.0003109451873E-12,1.));
#970=VECTOR('',#969,0.4);
#971=LINE('',#968,#970);
#972=EDGE_CURVE('',#958,#967,#971,.T.);
#973=ORIENTED_EDGE('E43',*,*,#972,.T.);
#974=CARTESIAN_POINT('',(1.6847346367716,3.8472937506331,37.4));
#975=VERTEX_POINT('',#974);
#976=CARTESIAN_POINT('',(1.5844528131543,3.6182881702381,37.4));
#977=DIRECTION('',(-0.40112729447093,-0.9160223215787,2.8421709430413E-14));
#978=DIRECTION('',(-1.7665038251983E-14,4.5188819324587E-14,1.));
#979=AXIS2_PLACEMENT_3D('',#976,#978,#977);
#980=CIRCLE('',#979,0.24999999999992);
#981=EDGE_CURVE('',#967,#975,#980,.T.);
#982=ORIENTED_EDGE('E44',*,*,#981,.T.);
#983=CARTESIAN_POINT('',(1.6847346367716,3.8472937506331,37.4));
#984=DIRECTION('',(-1.2501111257279E-12,7.4940054162198E-13,-1.));
#985=VECTOR('',#984,0.4);
#986=LINE('',#983,#985);
#987=EDGE_CURVE('',#975,#956,#986,.T.);
#988=ORIENTED_EDGE('E45',*,*,#987,.T.);
#989=EDGE_LOOP('',(#965,#973,#982,#988));
#990=FACE_OUTER_BOUND('',#989,.T.);
#991=ADVANCED_FACE('F19',(#990),#954,.F.);
#992=CARTESIAN_POINT('',(-1.7763568394003E-15,-9.4146912488213E-14,37.4));
#993=DIRECTION('',(0.40112733215187,0.91602230507817,-3.8407715446492E-15));
#994=DIRECTION('',(-5.5511151231256E-16,-3.3306690738754E-15,-1.));
#995=AXIS2_PLACEMENT_3D('',#992,#994,#993);
#996=CYLINDRICAL_SURFACE('',#995,3.7);
#997=CARTESIAN_POINT('',(-1.4126284139665,3.4197194276803,37.));
#998=VERTEX_POINT('',#997);
#999=CARTESIAN_POINT('',(1.6237011735143E-15,-9.0150109599563E-14,37.));
#1000=DIRECTION('',(0.40112729446954,0.91602232157931,-2.6885400812546E-14));
#1001=DIRECTION('',(3.0809329055198E-16,2.9322509292072E-14,1.));
#1002=AXIS2_PLACEMENT_3D('',#999,#1001,#1000);
#1003=CIRCLE('',#1002,3.6999999999997);
#1004=EDGE_CURVE('',#958,#998,#1003,.T.);
#1005=ORIENTED_EDGE('E46',*,*,#1004,.T.);
#1006=CARTESIAN_POINT('',(-1.4126284139666,3.4197194276802,37.4));
#1007=VERTEX_POINT('',#1006);
#1008=CARTESIAN_POINT('',(-1.4126284139665,3.4197194276803,37.));
#1009=DIRECTION('',(-2.5035529205297E-13,-2.4980018054066E-13,1.));
#1010=VECTOR('',#1009,0.4);
#1011=LINE('',#1008,#1010);
#1012=EDGE_CURVE('',#998,#1007,#1011,.T.);
#1013=ORIENTED_EDGE('E47',*,*,#1012,.T.);
#1014=CARTESIAN_POINT('',(3.7470027081099E-16,-8.8373752760162E-14,37.4));
#1015=DIRECTION('',(-0.38179146323422,0.92424849396765,-2.6885400812545E-14));
#1016=DIRECTION('',(-3.0809329054876E-16,-2.9322509292081E-14,-1.));
#1017=AXIS2_PLACEMENT_3D('',#1014,#1016,#1015);
#1018=CIRCLE('',#1017,3.7);
#1019=EDGE_CURVE('',#1007,#967,#1018,.T.);
#1020=ORIENTED_EDGE('E48',*,*,#1019,.T.);
#1021=ORIENTED_EDGE('E48',*,*,#972,.F.);
#1022=EDGE_LOOP('',(#1005,#1013,#1020,#1021));
#1023=FACE_OUTER_BOUND('',#1022,.T.);
#1024=ADVANCED_FACE('F20',(#1023),#996,.T.);
#1025=CARTESIAN_POINT('',(-1.5080762797752,3.6507815511721,37.4));
#1026=DIRECTION('',(0.38179146323378,-0.92424849396783,-2.8421709430403E-14));
#1027=DIRECTION('',(2.5535129566377E-14,1.1102230246251E-14,-1.));
#1028=AXIS2_PLACEMENT_3D('',#1025,#1027,#1026);
#1029=CYLINDRICAL_SURFACE('',#1028,0.25000000000001);
#1030=CARTESIAN_POINT('',(-1.6035241455838,3.881843674664,37.));
#1031=VERTEX_POINT('',#1030);
#1032=CARTESIAN_POINT('',(-1.5080762797752,3.6507815511721,37.));
#1033=DIRECTION('',(0.38179146323488,-0.92424849396738,0.));
#1034=DIRECTION('',(0.,0.,-1.));
#1035=AXIS2_PLACEMENT_3D('',#1032,#1034,#1033);
#1036=CIRCLE('',#1035,0.24999999999995);
#1037=EDGE_CURVE('',#998,#1031,#1036,.T.);
#1038=ORIENTED_EDGE('E49',*,*,#1037,.T.);
#1039=CARTESIAN_POINT('',(-1.6035241455834,3.8818436746642,37.4));
#1040=VERTEX_POINT('',#1039);
#1041=CARTESIAN_POINT('',(-1.6035241455838,3.881843674664,37.));
#1042=DIRECTION('',(1.0003109451873E-12,4.9960036108132E-13,1.));
#1043=VECTOR('',#1042,0.4);
#1044=LINE('',#1041,#1043);
#1045=EDGE_CURVE('',#1031,#1040,#1044,.T.);
#1046=ORIENTED_EDGE('E50',*,*,#1045,.T.);
#1047=CARTESIAN_POINT('',(-1.5080762797752,3.6507815511721,37.4));
#1048=DIRECTION('',(-0.38179146323274,0.92424849396826,2.84217094304E-14));
#1049=DIRECTION('',(3.3605751543412E-14,-1.3957977393696E-14,1.));
#1050=AXIS2_PLACEMENT_3D('',#1047,#1049,#1048);
#1051=CIRCLE('',#1050,0.25000000000004);
#1052=EDGE_CURVE('',#1040,#1007,#1051,.T.);
#1053=ORIENTED_EDGE('E51',*,*,#1052,.T.);
#1054=ORIENTED_EDGE('E51',*,*,#1012,.F.);
#1055=EDGE_LOOP('',(#1038,#1046,#1053,#1054));
#1056=FACE_OUTER_BOUND('',#1055,.T.);
#1057=ADVANCED_FACE('F21',(#1056),#1029,.F.);
#1058=CARTESIAN_POINT('',(-2.3014923300479E-13,-5.5955240441108E-14,37.4));
#1059=DIRECTION('',(-0.38179150125497,0.92424847826192,-1.6917684184764E-15));
#1060=DIRECTION('',(2.7755575615629E-16,0.,-1.));
#1061=AXIS2_PLACEMENT_3D('',#1058,#1060,#1059);
#1062=CYLINDRICAL_SURFACE('',#1061,4.2);
#1063=CARTESIAN_POINT('',(-2.2672835831017E-13,-6.1284310959309E-14,37.));
#1064=DIRECTION('',(-0.3817914632342,0.92424849396766,-5.0753052554294E-15));
#1065=DIRECTION('',(-2.7837489011758E-17,-2.6494086539856E-15,-1.));
#1066=AXIS2_PLACEMENT_3D('',#1063,#1065,#1064);
#1067=CIRCLE('',#1066,4.1999999999999);
#1068=EDGE_CURVE('',#1031,#956,#1067,.T.);
#1069=ORIENTED_EDGE('E52',*,*,#1068,.T.);
#1070=ORIENTED_EDGE('E52',*,*,#987,.F.);
#1071=CARTESIAN_POINT('',(-2.2686019729434E-13,-4.8849813083507E-14,37.4));
#1072=DIRECTION('',(0.40112729446949,0.91602232157933,0.));
#1073=DIRECTION('',(-6.9593722530195E-18,-6.6235216349633E-16,1.));
#1074=AXIS2_PLACEMENT_3D('',#1071,#1073,#1072);
#1075=CIRCLE('',#1074,4.1999999999999);
#1076=EDGE_CURVE('',#975,#1040,#1075,.T.);
#1077=ORIENTED_EDGE('E53',*,*,#1076,.T.);
#1078=ORIENTED_EDGE('E53',*,*,#1045,.F.);
#1079=EDGE_LOOP('',(#1069,#1070,#1077,#1078));
#1080=FACE_OUTER_BOUND('',#1079,.T.);
#1081=ADVANCED_FACE('F22',(#1080),#1062,.F.);
#1082=CARTESIAN_POINT('',(-5.5054259873857,-2.6458590649422,37.4));
#1083=DIRECTION('',(1.,-1.7763568394011E-15,0.));
#1084=DIRECTION('',(0.,0.,-1.));
#1085=AXIS2_PLACEMENT_3D('',#1082,#1084,#1083);
#1086=CYLINDRICAL_SURFACE('',#1085,0.49999999999977);
#1087=CARTESIAN_POINT('',(-5.0054259873859,-2.6458590649422,37.));
#1088=VERTEX_POINT('',#1087);
#1089=CARTESIAN_POINT('',(-5.5054259873857,-2.6458590649422,37.));
#1090=DIRECTION('',(1.,-6.2803698347376E-16,-0.));
#1091=DIRECTION('',(0.,0.,-1.));
#1092=AXIS2_PLACEMENT_3D('',#1089,#1091,#1090);
#1093=CIRCLE('',#1092,0.4999999999998);
#1094=EDGE_CURVE('',#1088,#1088,#1093,.T.);
#1095=ORIENTED_EDGE('E54',*,*,#1094,.T.);
#1096=CARTESIAN_POINT('',(-5.0054259873859,-2.6458590649422,37.4));
#1097=VERTEX_POINT('',#1096);
#1098=CARTESIAN_POINT('',(-5.0054259873859,-2.6458590649422,37.));
#1099=DIRECTION('',(0.,0.,1.));
#1100=VECTOR('',#1099,0.4);
#1101=LINE('',#1098,#1100);
#1102=EDGE_CURVE('',#1088,#1097,#1101,.T.);
#1103=ORIENTED_EDGE('E55',*,*,#1102,.T.);
#1104=CARTESIAN_POINT('',(-5.5054259873857,-2.6458590649422,37.4));
#1105=DIRECTION('',(1.,6.2803698347376E-16,-0.));
#1106=DIRECTION('',(0.,0.,1.));
#1107=AXIS2_PLACEMENT_3D('',#1104,#1106,#1105);
#1108=CIRCLE('',#1107,0.4999999999998);
#1109=EDGE_CURVE('',#1097,#1097,#1108,.T.);
#1110=ORIENTED_EDGE('E56',*,*,#1109,.T.);
#1111=ORIENTED_EDGE('E56',*,*,#1102,.F.);
#1112=EDGE_LOOP('',(#1095,#1103,#1110,#1111));
#1113=FACE_OUTER_BOUND('',#1112,.T.);
#1114=ADVANCED_FACE('F23',(#1113),#1086,.F.);
#1115=CARTESIAN_POINT('',(-2.3336887977621E-13,-1.5987211554602E-13,37.4));
#1116=DIRECTION('',(0.38179150125498,-0.92424847826192,-1.6917684184764E-15));
#1117=DIRECTION('',(-5.5511151231255E-16,2.2204460492502E-15,-1.));
#1118=AXIS2_PLACEMENT_3D('',#1115,#1117,#1116);
#1119=CYLINDRICAL_SURFACE('',#1118,4.2);
#1120=CARTESIAN_POINT('',(1.6035241455834,-3.8818436746641,37.));
#1121=VERTEX_POINT('',#1120);
#1122=CARTESIAN_POINT('',(-1.6847346367713,-3.8472937506337,37.));
#1123=VERTEX_POINT('',#1122);
#1124=CARTESIAN_POINT('',(-2.2785939801651E-13,-1.6697754290362E-13,37.));
#1125=DIRECTION('',(0.38179146323422,-0.92424849396765,-5.0753052554296E-15));
#1126=DIRECTION('',(5.5674978023293E-17,5.2988173079718E-15,-1.));
#1127=AXIS2_PLACEMENT_3D('',#1124,#1126,#1125);
#1128=CIRCLE('',#1127,4.1999999999998);
#1129=EDGE_CURVE('',#1121,#1123,#1128,.T.);
#1130=ORIENTED_EDGE('E57',*,*,#1129,.T.);
#1131=CARTESIAN_POINT('',(-1.6847346367718,-3.8472937506335,37.4));
#1132=VERTEX_POINT('',#1131);
#1133=CARTESIAN_POINT('',(-1.6847346367713,-3.8472937506337,37.));
#1134=DIRECTION('',(-1.2495560142156E-12,5.0071058410595E-13,1.));
#1135=VECTOR('',#1134,0.4);
#1136=LINE('',#1133,#1135);
#1137=EDGE_CURVE('',#1123,#1132,#1136,.T.);
#1138=ORIENTED_EDGE('E58',*,*,#1137,.T.);
#1139=CARTESIAN_POINT('',(1.6035241455829,-3.8818436746644,37.4));
#1140=VERTEX_POINT('',#1139);
#1141=CARTESIAN_POINT('',(-2.2878920979963E-13,-1.7408297026122E-13,37.4));
#1142=DIRECTION('',(-0.40112729446942,-0.91602232157936,8.4588420923821E-15));
#1143=DIRECTION('',(1.0439058379499E-16,9.9352824524468E-15,1.));
#1144=AXIS2_PLACEMENT_3D('',#1141,#1143,#1142);
#1145=CIRCLE('',#1144,4.2);
#1146=EDGE_CURVE('',#1132,#1140,#1145,.T.);
#1147=ORIENTED_EDGE('E59',*,*,#1146,.T.);
#1148=CARTESIAN_POINT('',(1.6035241455829,-3.8818436746644,37.4));
#1149=DIRECTION('',(1.2501111257279E-12,7.4940054162198E-13,-1.));
#1150=VECTOR('',#1149,0.4);
#1151=LINE('',#1148,#1150);
#1152=EDGE_CURVE('',#1140,#1121,#1151,.T.);
#1153=ORIENTED_EDGE('E60',*,*,#1152,.T.);
#1154=EDGE_LOOP('',(#1130,#1138,#1147,#1153));
#1155=FACE_OUTER_BOUND('',#1154,.T.);
#1156=ADVANCED_FACE('F24',(#1155),#1119,.F.);
#1157=CARTESIAN_POINT('',(-1.5844528131545,-3.6182881702386,37.4));
#1158=DIRECTION('',(-0.40112729446831,-0.91602232157985,0.));
#1159=DIRECTION('',(5.218048215738E-14,-2.4424906541752E-14,-1.));
#1160=AXIS2_PLACEMENT_3D('',#1157,#1159,#1158);
#1161=CYLINDRICAL_SURFACE('',#1160,0.25000000000006);
#1162=CARTESIAN_POINT('',(-1.4841709895375,-3.3892825898435,37.));
#1163=VERTEX_POINT('',#1162);
#1164=CARTESIAN_POINT('',(-1.5844528131545,-3.6182881702386,37.));
#1165=DIRECTION('',(-0.40112729446718,-0.91602232158034,0.));
#1166=DIRECTION('',(0.,0.,-1.));
#1167=AXIS2_PLACEMENT_3D('',#1164,#1166,#1165);
#1168=CIRCLE('',#1167,0.25000000000002);
#1169=EDGE_CURVE('',#1123,#1163,#1168,.T.);
#1170=ORIENTED_EDGE('E61',*,*,#1169,.T.);
#1171=CARTESIAN_POINT('',(-1.484170989537,-3.3892825898438,37.4));
#1172=VERTEX_POINT('',#1171);
#1173=CARTESIAN_POINT('',(-1.4841709895375,-3.3892825898435,37.));
#1174=DIRECTION('',(1.2495560142156E-12,-7.5051076464661E-13,1.));
#1175=VECTOR('',#1174,0.4);
#1176=LINE('',#1173,#1175);
#1177=EDGE_CURVE('',#1163,#1172,#1176,.T.);
#1178=ORIENTED_EDGE('E62',*,*,#1177,.T.);
#1179=CARTESIAN_POINT('',(-1.5844528131545,-3.6182881702386,37.4));
#1180=DIRECTION('',(0.40112729446996,0.91602232157912,2.8421709430402E-14));
#1181=DIRECTION('',(2.2081297815029E-14,-5.6486024155688E-14,1.));
#1182=AXIS2_PLACEMENT_3D('',#1179,#1181,#1180);
#1183=CIRCLE('',#1182,0.25000000000002);
#1184=EDGE_CURVE('',#1172,#1132,#1183,.T.);
#1185=ORIENTED_EDGE('E63',*,*,#1184,.T.);
#1186=ORIENTED_EDGE('E63',*,*,#1137,.F.);
#1187=EDGE_LOOP('',(#1170,#1178,#1185,#1186));
#1188=FACE_OUTER_BOUND('',#1187,.T.);
#1189=ADVANCED_FACE('F25',(#1188),#1161,.F.);
#1190=CARTESIAN_POINT('',(-2.9309887850104E-14,-9.0594198809413E-14,37.4));
#1191=DIRECTION('',(-0.40112733215193,-0.91602230507814,-5.7611573169737E-15));
#1192=DIRECTION('',(0.,5.5511151231258E-15,-1.));
#1193=AXIS2_PLACEMENT_3D('',#1190,#1192,#1191);
#1194=CYLINDRICAL_SURFACE('',#1193,3.7000000000001);
#1195=CARTESIAN_POINT('',(1.4126284139657,-3.4197194276809,37.));
#1196=VERTEX_POINT('',#1195);
#1197=CARTESIAN_POINT('',(-1.0685896612017E-15,-1.3322676295502E-15,37.));
#1198=DIRECTION('',(-0.40112729446958,-0.91602232157929,-2.112424349557E-14));
#1199=DIRECTION('',(-2.606943227785E-16,-2.4811354016378E-14,1.));
#1200=AXIS2_PLACEMENT_3D('',#1197,#1199,#1198);
#1201=CIRCLE('',#1200,3.7000000000001);
#1202=EDGE_CURVE('',#1163,#1196,#1201,.T.);
#1203=ORIENTED_EDGE('E64',*,*,#1202,.T.);
#1204=CARTESIAN_POINT('',(1.4126284139658,-3.4197194276804,37.4));
#1205=VERTEX_POINT('',#1204);
#1206=CARTESIAN_POINT('',(1.4126284139657,-3.4197194276809,37.));
#1207=DIRECTION('',(2.5035529205297E-13,1.2501111257279E-12,1.));
#1208=VECTOR('',#1207,0.4);
#1209=LINE('',#1206,#1208);
#1210=EDGE_CURVE('',#1196,#1205,#1209,.T.);
#1211=ORIENTED_EDGE('E65',*,*,#1210,.T.);
#1212=CARTESIAN_POINT('',(-8.9511731360403E-16,-8.8817841970013E-16,37.4));
#1213=DIRECTION('',(0.38179146323402,-0.92424849396773,-3.8407715446494E-15));
#1214=DIRECTION('',(3.1599311851599E-17,3.007436850471E-15,-1.));
#1215=AXIS2_PLACEMENT_3D('',#1212,#1214,#1213);
#1216=CIRCLE('',#1215,3.6999999999998);
#1217=EDGE_CURVE('',#1205,#1172,#1216,.T.);
#1218=ORIENTED_EDGE('E66',*,*,#1217,.T.);
#1219=ORIENTED_EDGE('E66',*,*,#1177,.F.);
#1220=EDGE_LOOP('',(#1203,#1211,#1218,#1219));
#1221=FACE_OUTER_BOUND('',#1220,.T.);
#1222=ADVANCED_FACE('F26',(#1221),#1194,.T.);
#1223=CARTESIAN_POINT('',(1.5080762797745,-3.6507815511721,37.4));
#1224=DIRECTION('',(-0.38179146323417,0.92424849396767,-2.8421709430381E-14));
#1225=DIRECTION('',(-2.6090241078689E-14,-9.9920072216256E-15,-1.));
#1226=AXIS2_PLACEMENT_3D('',#1223,#1225,#1224);
#1227=CYLINDRICAL_SURFACE('',#1226,0.2500000000002);
#1228=CARTESIAN_POINT('',(1.5080762797745,-3.6507815511721,37.));
#1229=DIRECTION('',(-0.38179146323607,0.92424849396689,0.));
#1230=DIRECTION('',(0.,-0.,-1.));
#1231=AXIS2_PLACEMENT_3D('',#1228,#1230,#1229);
#1232=CIRCLE('',#1231,0.24999999999943);
#1233=EDGE_CURVE('',#1196,#1121,#1232,.T.);
#1234=ORIENTED_EDGE('E67',*,*,#1233,.T.);
#1235=ORIENTED_EDGE('E67',*,*,#1152,.F.);
#1236=CARTESIAN_POINT('',(1.5080762797745,-3.6507815511721,37.4));
#1237=DIRECTION('',(0.38179146323314,-0.9242484939681,2.842170943037E-14));
#1238=DIRECTION('',(-4.4807668724511E-14,1.8610636524889E-14,1.));
#1239=AXIS2_PLACEMENT_3D('',#1236,#1238,#1237);
#1240=CIRCLE('',#1239,0.2500000000003);
#1241=EDGE_CURVE('',#1140,#1205,#1240,.T.);
#1242=ORIENTED_EDGE('E68',*,*,#1241,.T.);
#1243=ORIENTED_EDGE('E68',*,*,#1210,.F.);
#1244=EDGE_LOOP('',(#1234,#1235,#1242,#1243));
#1245=FACE_OUTER_BOUND('',#1244,.T.);
#1246=ADVANCED_FACE('F27',(#1245),#1227,.F.);
#1247=CARTESIAN_POINT('',(4.7224289071909,3.7377154043281,37.));
#1248=DIRECTION('',(1.,3.5024211735058E-16,0.));
#1249=DIRECTION('',(0.,-0.,1.));
#1250=AXIS2_PLACEMENT_3D('',#1247,#1249,#1248);
#1251=PLANE('',#1250);
#1252=ORIENTED_EDGE('',*,*,#929,.F.);
#1253=EDGE_LOOP('',(#1252));
#1254=FACE_OUTER_BOUND('',#1253,.T.);
#1255=ADVANCED_FACE('F28',(#1254),#1251,.T.);
#1256=CARTESIAN_POINT('',(0.039576974045337,5.1631640093473,37.));
#1257=DIRECTION('',(1.,2.3695332382601E-16,0.));
#1258=DIRECTION('',(0.,-0.,1.));
#1259=AXIS2_PLACEMENT_3D('',#1256,#1258,#1257);
#1260=PLANE('',#1259);
#1261=ORIENTED_EDGE('',*,*,#964,.F.);
#1262=ORIENTED_EDGE('',*,*,#1068,.F.);
#1263=ORIENTED_EDGE('',*,*,#1037,.F.);
#1264=ORIENTED_EDGE('',*,*,#1004,.F.);
#1265=EDGE_LOOP('',(#1261,#1262,#1263,#1264));
#1266=FACE_OUTER_BOUND('',#1265,.T.);
#1267=ADVANCED_FACE('F29',(#1266),#1260,.T.);
#1268=CARTESIAN_POINT('',(-5.6394005836012,-2.6458590649422,37.));
#1269=DIRECTION('',(1.,0.,0.));
#1270=DIRECTION('',(0.,0.,1.));
#1271=AXIS2_PLACEMENT_3D('',#1268,#1270,#1269);
#1272=PLANE('',#1271);
#1273=ORIENTED_EDGE('',*,*,#1094,.F.);
#1274=EDGE_LOOP('',(#1273));
#1275=FACE_OUTER_BOUND('',#1274,.T.);
#1276=ADVANCED_FACE('F30',(#1275),#1272,.T.);
#1277=CARTESIAN_POINT('',(-0.039576974045674,-2.6898784653335,37.));
#1278=DIRECTION('',(1.,0.,0.));
#1279=DIRECTION('',(0.,0.,1.));
#1280=AXIS2_PLACEMENT_3D('',#1277,#1279,#1278);
#1281=PLANE('',#1280);
#1282=ORIENTED_EDGE('',*,*,#1169,.F.);
#1283=ORIENTED_EDGE('',*,*,#1129,.F.);
#1284=ORIENTED_EDGE('',*,*,#1233,.F.);
#1285=ORIENTED_EDGE('',*,*,#1202,.F.);
#1286=EDGE_LOOP('',(#1282,#1283,#1284,#1285));
#1287=FACE_OUTER_BOUND('',#1286,.T.);
#1288=ADVANCED_FACE('F31',(#1287),#1281,.T.);
#1289=CARTESIAN_POINT('',(-1.1657341758564E-15,8.5,0.));
#1290=DIRECTION('',(1.,0.,0.));
#1291=DIRECTION('',(9.251858538543E-18,0.,1.));
#1292=AXIS2_PLACEMENT_3D('',#1289,#1291,#1290);
#1293=CYLINDRICAL_SURFACE('',#1292,1.25);
#1294=CARTESIAN_POINT('',(1.25,8.5,0.));
#1295=VERTEX_POINT('',#1294);
#1296=CARTESIAN_POINT('',(1.25,8.5,6.));
#1297=VERTEX_POINT('',#1296);
#1298=CARTESIAN_POINT('',(1.25,8.5,0.));
#1299=DIRECTION('',(0.,0.,1.));
#1300=VECTOR('',#1299,6.);
#1301=LINE('',#1298,#1300);
#1302=EDGE_CURVE('',#1295,#1297,#1301,.T.);
#1303=ORIENTED_EDGE('E78',*,*,#1302,.T.);
#1304=CARTESIAN_POINT('',(-3.1086244689504E-15,8.5,6.));
#1305=DIRECTION('',(1.,1.8841109504205E-16,2.512147933894E-16));
#1306=DIRECTION('',(-2.512147933894E-16,-2.512147933894E-16,1.));
#1307=AXIS2_PLACEMENT_3D('',#1304,#1306,#1305);
#1308=CIRCLE('',#1307,1.25);
#1309=EDGE_CURVE('',#1297,#1297,#1308,.T.);
#1310=ORIENTED_EDGE('E79',*,*,#1309,.T.);
#1311=ORIENTED_EDGE('E79',*,*,#1302,.F.);
#1312=CARTESIAN_POINT('',(-1.7763568394003E-15,8.5,0.));
#1313=DIRECTION('',(1.,1.256073966947E-16,-0.));
#1314=DIRECTION('',(0.,-0.,-1.));
#1315=AXIS2_PLACEMENT_3D('',#1312,#1314,#1313);
#1316=CIRCLE('',#1315,1.25);
#1317=EDGE_CURVE('',#1295,#1295,#1316,.T.);
#1318=ORIENTED_EDGE('E80',*,*,#1317,.T.);
#1319=EDGE_LOOP('',(#1303,#1310,#1311,#1318));
#1320=FACE_OUTER_BOUND('',#1319,.T.);
#1321=ADVANCED_FACE('F33',(#1320),#1293,.F.);
#1322=CARTESIAN_POINT('',(-1.1102230246252E-16,-8.5,4.515313380455E-18));
#1323=DIRECTION('',(1.,0.,-3.612250704364E-18));
#1324=DIRECTION('',(1.8503717077086E-17,0.,1.));
#1325=AXIS2_PLACEMENT_3D('',#1322,#1324,#1323);
#1326=CYLINDRICAL_SURFACE('',#1325,1.25);
#1327=CARTESIAN_POINT('',(1.25,-8.5,0.));
#1328=VERTEX_POINT('',#1327);
#1329=CARTESIAN_POINT('',(1.25,-8.5,6.));
#1330=VERTEX_POINT('',#1329);
#1331=CARTESIAN_POINT('',(1.25,-8.5,0.));
#1332=DIRECTION('',(0.,0.,1.));
#1333=VECTOR('',#1332,6.);
#1334=LINE('',#1331,#1333);
#1335=EDGE_CURVE('',#1328,#1330,#1334,.T.);
#1336=ORIENTED_EDGE('E81',*,*,#1335,.T.);
#1337=CARTESIAN_POINT('',(-2.2204460492503E-16,-8.5,6.));
#1338=DIRECTION('',(1.,-6.3108872417681E-32,2.512147933894E-16));
#1339=DIRECTION('',(-2.512147933894E-16,-2.512147933894E-16,1.));
#1340=AXIS2_PLACEMENT_3D('',#1337,#1339,#1338);
#1341=CIRCLE('',#1340,1.25);
#1342=EDGE_CURVE('',#1330,#1330,#1341,.T.);
#1343=ORIENTED_EDGE('E82',*,*,#1342,.T.);
#1344=ORIENTED_EDGE('E82',*,*,#1335,.F.);
#1345=CARTESIAN_POINT('',(-4.4408920985006E-16,-8.5,0.));
#1346=DIRECTION('',(1.,1.256073966947E-16,-0.));
#1347=DIRECTION('',(0.,-0.,-1.));
#1348=AXIS2_PLACEMENT_3D('',#1345,#1347,#1346);
#1349=CIRCLE('',#1348,1.25);
#1350=EDGE_CURVE('',#1328,#1328,#1349,.T.);
#1351=ORIENTED_EDGE('E83',*,*,#1350,.T.);
#1352=EDGE_LOOP('',(#1336,#1343,#1344,#1351));
#1353=FACE_OUTER_BOUND('',#1352,.T.);
#1354=ADVANCED_FACE('F34',(#1353),#1326,.F.);
#1355=CARTESIAN_POINT('',(5.5511151231258E-16,8.5,6.7510757737845));
#1356=DIRECTION('',(1.,0.,1.1217144686912E-16));
#1357=DIRECTION('',(1.1217144686912E-16,-0.,-1.));
#1358=AXIS2_PLACEMENT_3D('',#1355,#1357,#1356);
#1359=CONICAL_SURFACE('',#1358,0.,1.0297442586767);
#1360=CARTESIAN_POINT('',(4.1633363423444E-16,8.5,6.7510757737845));
#1361=VERTEX_POINT('',#1360);
#1362=CARTESIAN_POINT('',(1.25,8.5,6.));
#1363=DIRECTION('',(-0.8571673007021,0.,0.51503807491008));
#1364=VECTOR('',#1363,1.4582917465192);
#1365=LINE('',#1362,#1364);
#1366=EDGE_CURVE('',#1297,#1361,#1365,.T.);
#1367=ORIENTED_EDGE('E84',*,*,#1366,.T.);
#1368=ORIENTED_EDGE('E85',*,*,#1366,.F.);
#1369=ORIENTED_EDGE('E85',*,*,#1309,.F.);
#1370=EDGE_LOOP('',(#1367,#1368,#1369));
#1371=FACE_OUTER_BOUND('',#1370,.T.);
#1372=ADVANCED_FACE('F35',(#1371),#1359,.F.);
#1373=CARTESIAN_POINT('',(-4.9960036108132E-16,-8.5,6.7510757737845));
#1374=DIRECTION('',(1.,0.,1.1217144686912E-16));
#1375=DIRECTION('',(1.1217144686912E-16,-0.,-1.));
#1376=AXIS2_PLACEMENT_3D('',#1373,#1375,#1374);
#1377=CONICAL_SURFACE('',#1376,0.,1.0297442586767);
#1378=CARTESIAN_POINT('',(-3.7470027081099E-16,-8.5,6.7510757737845));
#1379=VERTEX_POINT('',#1378);
#1380=CARTESIAN_POINT('',(1.25,-8.5,6.));
#1381=DIRECTION('',(-0.8571673007021,0.,0.51503807491008));
#1382=VECTOR('',#1381,1.4582917465192);
#1383=LINE('',#1380,#1382);
#1384=EDGE_CURVE('',#1330,#1379,#1383,.T.);
#1385=ORIENTED_EDGE('E86',*,*,#1384,.T.);
#1386=ORIENTED_EDGE('E87',*,*,#1384,.F.);
#1387=ORIENTED_EDGE('E87',*,*,#1342,.F.);
#1388=EDGE_LOOP('',(#1385,#1386,#1387));
#1389=FACE_OUTER_BOUND('',#1388,.T.);
#1390=ADVANCED_FACE('F36',(#1389),#1377,.F.);
#1391=CARTESIAN_POINT('',(1.6762967068551,-7.105427357601E-15,0.));
#1392=DIRECTION('',(-1.,0.,0.));
#1393=DIRECTION('',(0.,0.,-1.));
#1394=AXIS2_PLACEMENT_3D('',#1391,#1393,#1392);
#1395=PLANE('',#1394);
#1396=ORIENTED_EDGE('',*,*,#537,.F.);
#1397=EDGE_LOOP('',(#1396));
#1398=FACE_OUTER_BOUND('',#1397,.T.);
#1399=ORIENTED_EDGE('',*,*,#556,.F.);
#1400=EDGE_LOOP('',(#1399));
#1401=FACE_BOUND('',#1400,.T.);
#1402=ORIENTED_EDGE('',*,*,#1317,.F.);
#1403=EDGE_LOOP('',(#1402));
#1404=FACE_BOUND('',#1403,.T.);
#1405=ORIENTED_EDGE('',*,*,#1350,.F.);
#1406=EDGE_LOOP('',(#1405));
#1407=FACE_BOUND('',#1406,.T.);
#1408=ADVANCED_FACE('F37',(#1398,#1401,#1404,#1407),#1395,.T.);
#1409=CARTESIAN_POINT('',(2.3314683517128E-15,-8.8817841970013E-16,37.4));
#1410=DIRECTION('',(1.,4.4202072409455E-16,-2.2556912246352E-15));
#1411=DIRECTION('',(-2.7755575615628E-16,0.,1.));
#1412=AXIS2_PLACEMENT_3D('',#1409,#1411,#1410);
#1413=CYLINDRICAL_SURFACE('',#1412,3.15);
#1414=CARTESIAN_POINT('',(3.15,5.0418686119772E-16,37.4));
#1415=VERTEX_POINT('',#1414);
#1416=CARTESIAN_POINT('',(-4.4408920985006E-16,1.9016836946096E-16,37.4));
#1417=DIRECTION('',(1.,9.968841007516E-17,-0.));
#1418=DIRECTION('',(0.,-0.,-1.));
#1419=AXIS2_PLACEMENT_3D('',#1416,#1418,#1417);
#1420=CIRCLE('',#1419,3.15);
#1421=EDGE_CURVE('',#1415,#1415,#1420,.T.);
#1422=ORIENTED_EDGE('E77',*,*,#1421,.F.);
#1423=CARTESIAN_POINT('',(3.15,4.1066837835374E-16,37.8));
#1424=VERTEX_POINT('',#1423);
#1425=CARTESIAN_POINT('',(3.15,5.0418686119772E-16,37.4));
#1426=DIRECTION('',(0.,-2.3379620710995E-16,1.));
#1427=VECTOR('',#1426,0.4);
#1428=LINE('',#1425,#1427);
#1429=EDGE_CURVE('',#1415,#1424,#1428,.T.);
#1430=ORIENTED_EDGE('E106',*,*,#1429,.T.);
#1431=CARTESIAN_POINT('',(-8.8817841970013E-16,-1.7874610638035E-15,37.8));
#1432=DIRECTION('',(1.,6.9781887052612E-16,2.9163678880679E-15));
#1433=DIRECTION('',(2.9163678880679E-15,1.5950145612026E-15,-1.));
#1434=AXIS2_PLACEMENT_3D('',#1431,#1433,#1432);
#1435=CIRCLE('',#1434,3.15);
#1436=EDGE_CURVE('',#1424,#1424,#1435,.T.);
#1437=ORIENTED_EDGE('E107',*,*,#1436,.T.);
#1438=ORIENTED_EDGE('E107',*,*,#1429,.F.);
#1439=EDGE_LOOP('',(#1422,#1430,#1437,#1438));
#1440=FACE_OUTER_BOUND('',#1439,.T.);
#1441=ADVANCED_FACE('F46',(#1440),#1413,.T.);
#1442=CARTESIAN_POINT('',(-0.55099201792405,9.1244949335726,37.4));
#1443=DIRECTION('',(-0.11536936016027,-0.99332266194636,-5.0753052550399E-15));
#1444=DIRECTION('',(0.,0.,1.));
#1445=AXIS2_PLACEMENT_3D('',#1442,#1444,#1443);
#1446=CYLINDRICAL_SURFACE('',#1445,1.4000000001074);
#1447=CARTESIAN_POINT('',(-0.71250912211478,7.7338432068703,37.4));
#1448=VERTEX_POINT('',#1447);
#1449=CARTESIAN_POINT('',(-0.38947491381005,10.515146660445,37.4));
#1450=VERTEX_POINT('',#1449);
#1451=CARTESIAN_POINT('',(-0.55099201792405,9.1244949335726,37.4));
#1452=DIRECTION('',(-0.11536936013841,-0.9933226619489,5.0753052555248E-15));
#1453=DIRECTION('',(-8.4904125516503E-15,-6.7234052243118E-15,-1.));
#1454=AXIS2_PLACEMENT_3D('',#1451,#1453,#1452);
#1455=CIRCLE('',#1454,1.3999999999737);
#1456=EDGE_CURVE('',#1448,#1450,#1455,.T.);
#1457=ORIENTED_EDGE('E73',*,*,#1456,.F.);
#1458=CARTESIAN_POINT('',(-0.71250912221536,7.7338432068819,37.8));
#1459=VERTEX_POINT('',#1458);
#1460=CARTESIAN_POINT('',(-0.71250912211478,7.7338432068703,37.4));
#1461=DIRECTION('',(-2.5144997195525E-10,2.9001245849258E-11,1.));
#1462=VECTOR('',#1461,0.4);
#1463=LINE('',#1460,#1462);
#1464=EDGE_CURVE('',#1448,#1459,#1463,.T.);
#1465=ORIENTED_EDGE('E108',*,*,#1464,.T.);
#1466=CARTESIAN_POINT('',(-0.38947491371654,10.515146660434,37.8));
#1467=VERTEX_POINT('',#1466);
#1468=CARTESIAN_POINT('',(-0.55099201792405,9.1244949335726,37.8));
#1469=DIRECTION('',(-0.11536936013721,-0.99332266194904,5.0753052549448E-15));
#1470=DIRECTION('',(-9.0202705436785E-15,-2.5652489559382E-15,-1.));
#1471=AXIS2_PLACEMENT_3D('',#1468,#1470,#1469);
#1472=CIRCLE('',#1471,1.4000000001336);
#1473=EDGE_CURVE('',#1459,#1467,#1472,.T.);
#1474=ORIENTED_EDGE('E109',*,*,#1473,.T.);
#1475=CARTESIAN_POINT('',(-0.38947491371654,10.515146660434,37.8));
#1476=DIRECTION('',(-2.3377494384747E-10,2.7498003873916E-11,-1.));
#1477=VECTOR('',#1476,0.4);
#1478=LINE('',#1475,#1477);
#1479=EDGE_CURVE('',#1467,#1450,#1478,.T.);
#1480=ORIENTED_EDGE('E110',*,*,#1479,.T.);
#1481=EDGE_LOOP('',(#1457,#1465,#1474,#1480));
#1482=FACE_OUTER_BOUND('',#1481,.T.);
#1483=ADVANCED_FACE('F47',(#1482),#1446,.T.);
#1484=CARTESIAN_POINT('',(1.1998413452627,10.330555684289,37.4));
#1485=DIRECTION('',(-0.99332266195131,0.11536936011768,0.));
#1486=DIRECTION('',(0.11536936011768,0.99332266195131,-0.));
#1487=AXIS2_PLACEMENT_3D('',#1484,#1486,#1485);
#1488=PLANE('',#1487);
#1489=CARTESIAN_POINT('',(2.7891576039745,10.145964708465,37.4));
#1490=VERTEX_POINT('',#1489);
#1491=CARTESIAN_POINT('',(-0.38947491381005,10.515146660445,37.4));
#1492=DIRECTION('',(0.9933226619636,-0.11536936001186,0.));
#1493=VECTOR('',#1492,3.1999999994977);
#1494=LINE('',#1491,#1493);
#1495=EDGE_CURVE('',#1450,#1490,#1494,.T.);
#1496=ORIENTED_EDGE('E74',*,*,#1495,.F.);
#1497=ORIENTED_EDGE('E74',*,*,#1479,.F.);
#1498=CARTESIAN_POINT('',(2.7891576043327,10.145964708424,37.8));
#1499=VERTEX_POINT('',#1498);
#1500=CARTESIAN_POINT('',(-0.38947491371654,10.515146660434,37.8));
#1501=DIRECTION('',(0.99332266196363,-0.11536936001163,0.));
#1502=VECTOR('',#1501,3.1999999997641);
#1503=LINE('',#1500,#1502);
#1504=EDGE_CURVE('',#1467,#1499,#1503,.T.);
#1505=ORIENTED_EDGE('E111',*,*,#1504,.T.);
#1506=CARTESIAN_POINT('',(2.7891576043327,10.145964708424,37.8));
#1507=DIRECTION('',(-8.9550034054753E-10,1.0250023052549E-10,-1.));
#1508=VECTOR('',#1507,0.4);
#1509=LINE('',#1506,#1508);
#1510=EDGE_CURVE('',#1499,#1490,#1509,.T.);
#1511=ORIENTED_EDGE('E112',*,*,#1510,.T.);
#1512=EDGE_LOOP('',(#1496,#1497,#1505,#1511));
#1513=FACE_OUTER_BOUND('',#1512,.T.);
#1514=ADVANCED_FACE('F48',(#1513),#1488,.T.);
#1515=CARTESIAN_POINT('',(2.6276404998196,8.7553129818329,37.4));
#1516=DIRECTION('',(0.1153693601616,0.99332266194621,0.));
#1517=DIRECTION('',(-6.6613381477507E-15,8.881784197001E-15,1.));
#1518=AXIS2_PLACEMENT_3D('',#1515,#1517,#1516);
#1519=CYLINDRICAL_SURFACE('',#1518,1.4000000002146);
#1520=CARTESIAN_POINT('',(2.4661233960116,7.3646612547429,37.4));
#1521=VERTEX_POINT('',#1520);
#1522=CARTESIAN_POINT('',(2.6276404998196,8.7553129818329,37.4));
#1523=DIRECTION('',(0.1153693601189,0.99332266195117,0.));
#1524=DIRECTION('',(5.6241055243514E-15,-1.2411313340042E-16,-1.));
#1525=AXIS2_PLACEMENT_3D('',#1522,#1524,#1523);
#1526=CIRCLE('',#1525,1.3999999998998);
#1527=EDGE_CURVE('',#1490,#1521,#1526,.T.);
#1528=ORIENTED_EDGE('E75',*,*,#1527,.F.);
#1529=ORIENTED_EDGE('E75',*,*,#1510,.F.);
#1530=CARTESIAN_POINT('',(2.4661233956602,7.3646612547838,37.8));
#1531=VERTEX_POINT('',#1530);
#1532=CARTESIAN_POINT('',(2.6276404998196,8.7553129818329,37.8));
#1533=DIRECTION('',(0.11536936008794,0.99332266195476,-1.5225915762867E-14));
#1534=DIRECTION('',(-1.8065910402638E-15,-1.5163830890399E-14,-1.));
#1535=AXIS2_PLACEMENT_3D('',#1532,#1534,#1533);
#1536=CIRCLE('',#1535,1.4000000003145);
#1537=EDGE_CURVE('',#1499,#1531,#1536,.T.);
#1538=ORIENTED_EDGE('E113',*,*,#1537,.T.);
#1539=CARTESIAN_POINT('',(2.4661233956602,7.3646612547838,37.8));
#1540=DIRECTION('',(8.7850060559447E-10,-1.0225154056798E-10,-1.));
#1541=VECTOR('',#1540,0.4);
#1542=LINE('',#1539,#1541);
#1543=EDGE_CURVE('',#1531,#1521,#1542,.T.);
#1544=ORIENTED_EDGE('E114',*,*,#1543,.T.);
#1545=EDGE_LOOP('',(#1528,#1529,#1538,#1544));
#1546=FACE_OUTER_BOUND('',#1545,.T.);
#1547=ADVANCED_FACE('F49',(#1546),#1519,.T.);
#1548=CARTESIAN_POINT('',(0.8768071369027,7.5492522308289,37.4));
#1549=DIRECTION('',(0.99332266195133,-0.11536936011753,0.));
#1550=DIRECTION('',(-0.11536936011753,-0.99332266195133,0.));
#1551=AXIS2_PLACEMENT_3D('',#1548,#1550,#1549);
#1552=PLANE('',#1551);
#1553=CARTESIAN_POINT('',(2.4661233960116,7.3646612547429,37.4));
#1554=DIRECTION('',(-0.99332266195974,0.11536936004507,0.));
#1555=VECTOR('',#1554,3.1999999998542);
#1556=LINE('',#1553,#1555);
#1557=EDGE_CURVE('',#1521,#1448,#1556,.T.);
#1558=ORIENTED_EDGE('E76',*,*,#1557,.F.);
#1559=ORIENTED_EDGE('E76',*,*,#1543,.F.);
#1560=CARTESIAN_POINT('',(2.4661233956602,7.3646612547838,37.8));
#1561=DIRECTION('',(-0.99332266195975,0.11536936004502,0.));
#1562=VECTOR('',#1561,3.1999999996017);
#1563=LINE('',#1560,#1562);
#1564=EDGE_CURVE('',#1531,#1459,#1563,.T.);
#1565=ORIENTED_EDGE('E115',*,*,#1564,.T.);
#1566=ORIENTED_EDGE('E115',*,*,#1464,.F.);
#1567=EDGE_LOOP('',(#1558,#1559,#1565,#1566));
#1568=FACE_OUTER_BOUND('',#1567,.T.);
#1569=ADVANCED_FACE('F50',(#1568),#1552,.T.);
#1570=CARTESIAN_POINT('',(0.55099201804841,-9.1244949337306,37.4));
#1571=DIRECTION('',(0.11536936006041,0.99332266195796,-1.0150610509302E-14));
#1572=DIRECTION('',(-2.2204460492502E-15,4.4408920985004E-15,1.));
#1573=AXIS2_PLACEMENT_3D('',#1570,#1572,#1571);
#1574=CYLINDRICAL_SURFACE('',#1573,1.4000000002147);
#1575=CARTESIAN_POINT('',(0.71250912215099,-7.733843206894,37.4));
#1576=VERTEX_POINT('',#1575);
#1577=CARTESIAN_POINT('',(0.3894749139463,-10.515146660587,37.4));
#1578=VERTEX_POINT('',#1577);
#1579=CARTESIAN_POINT('',(0.55099201804842,-9.1244949337306,37.4));
#1580=DIRECTION('',(0.11536936006528,0.9933226619574,0.));
#1581=DIRECTION('',(1.2946293557214E-14,1.0964547787103E-15,-1.));
#1582=AXIS2_PLACEMENT_3D('',#1579,#1581,#1580);
#1583=CIRCLE('',#1582,1.4000000000969);
#1584=EDGE_CURVE('',#1576,#1578,#1583,.T.);
#1585=ORIENTED_EDGE('E69',*,*,#1584,.F.);
#1586=CARTESIAN_POINT('',(0.7125091222333,-7.733843206902,37.8));
#1587=VERTEX_POINT('',#1586);
#1588=CARTESIAN_POINT('',(0.71250912215099,-7.733843206894,37.4));
#1589=DIRECTION('',(2.0577484161066E-10,-1.9999557565598E-11,1.));
#1590=VECTOR('',#1589,0.4);
#1591=LINE('',#1588,#1590);
#1592=EDGE_CURVE('',#1576,#1587,#1591,.T.);
#1593=ORIENTED_EDGE('E116',*,*,#1592,.T.);
#1594=CARTESIAN_POINT('',(0.38947491396463,-10.515146660589,37.8));
#1595=VERTEX_POINT('',#1594);
#1596=CARTESIAN_POINT('',(0.5509920180484,-9.1244949337306,37.8));
#1597=DIRECTION('',(0.11536936005025,0.99332266195914,-1.5225915765022E-14));
#1598=DIRECTION('',(-4.5643895367358E-15,-8.1921994022485E-15,-1.));
#1599=AXIS2_PLACEMENT_3D('',#1596,#1598,#1597);
#1600=CIRCLE('',#1599,1.4000000001164);
#1601=EDGE_CURVE('',#1587,#1595,#1600,.T.);
#1602=ORIENTED_EDGE('E117',*,*,#1601,.T.);
#1603=CARTESIAN_POINT('',(0.38947491396463,-10.515146660589,37.8));
#1604=DIRECTION('',(-4.5825010452916E-11,5.0004445029117E-12,-1.));
#1605=VECTOR('',#1604,0.4);
#1606=LINE('',#1603,#1605);
#1607=EDGE_CURVE('',#1595,#1578,#1606,.T.);
#1608=ORIENTED_EDGE('E118',*,*,#1607,.T.);
#1609=EDGE_LOOP('',(#1585,#1593,#1602,#1608));
#1610=FACE_OUTER_BOUND('',#1609,.T.);
#1611=ADVANCED_FACE('F51',(#1610),#1574,.T.);
#1612=CARTESIAN_POINT('',(-1.199841345184,-10.330555684298,37.4));
#1613=DIRECTION('',(0.99332266195132,-0.11536936011759,0.));
#1614=DIRECTION('',(-0.11536936011759,-0.99332266195132,0.));
#1615=AXIS2_PLACEMENT_3D('',#1612,#1614,#1613);
#1616=PLANE('',#1615);
#1617=CARTESIAN_POINT('',(-2.7891576042499,-10.145964708198,37.4));
#1618=VERTEX_POINT('',#1617);
#1619=CARTESIAN_POINT('',(0.3894749139463,-10.515146660587,37.4));
#1620=DIRECTION('',(-0.99332266195067,0.11536936012323,0.));
#1621=VECTOR('',#1620,3.1999999999538);
#1622=LINE('',#1619,#1621);
#1623=EDGE_CURVE('',#1578,#1618,#1622,.T.);
#1624=ORIENTED_EDGE('E70',*,*,#1623,.F.);
#1625=ORIENTED_EDGE('E70',*,*,#1607,.F.);
#1626=CARTESIAN_POINT('',(-2.789157604345,-10.145964708187,37.8));
#1627=VERTEX_POINT('',#1626);
#1628=CARTESIAN_POINT('',(0.38947491396463,-10.515146660589,37.8));
#1629=DIRECTION('',(-0.99332266195067,0.11536936012318,0.));
#1630=VECTOR('',#1629,3.2000000000679);
#1631=LINE('',#1628,#1630);
#1632=EDGE_CURVE('',#1595,#1627,#1631,.T.);
#1633=ORIENTED_EDGE('E119',*,*,#1632,.T.);
#1634=CARTESIAN_POINT('',(-2.789157604345,-10.145964708187,37.8));
#1635=DIRECTION('',(2.377509300544E-10,-2.7498003873916E-11,-1.));
#1636=VECTOR('',#1635,0.4);
#1637=LINE('',#1634,#1636);
#1638=EDGE_CURVE('',#1627,#1618,#1637,.T.);
#1639=ORIENTED_EDGE('E120',*,*,#1638,.T.);
#1640=EDGE_LOOP('',(#1624,#1625,#1633,#1639));
#1641=FACE_OUTER_BOUND('',#1640,.T.);
#1642=ADVANCED_FACE('F52',(#1641),#1616,.T.);
#1643=CARTESIAN_POINT('',(-2.6276405001333,-8.7553129814344,37.4));
#1644=DIRECTION('',(-0.11536936009006,-0.99332266195452,5.0753052550396E-15));
#1645=DIRECTION('',(1.1102230246251E-15,0.,1.));
#1646=AXIS2_PLACEMENT_3D('',#1643,#1645,#1644);
#1647=CYLINDRICAL_SURFACE('',#1646,1.4000000001075);
#1648=CARTESIAN_POINT('',(-2.4661233960018,-7.364661254617,37.4));
#1649=VERTEX_POINT('',#1648);
#1650=CARTESIAN_POINT('',(-2.6276405001333,-8.7553129814344,37.4));
#1651=DIRECTION('',(-0.11536936008114,-0.99332266195555,0.));
#1652=DIRECTION('',(-1.2946293557887E-14,-1.0964547785591E-15,-1.));
#1653=AXIS2_PLACEMENT_3D('',#1650,#1652,#1651);
#1654=CIRCLE('',#1653,1.400000000026);
#1655=EDGE_CURVE('',#1618,#1649,#1654,.T.);
#1656=ORIENTED_EDGE('E71',*,*,#1655,.F.);
#1657=ORIENTED_EDGE('E71',*,*,#1638,.F.);
#1658=CARTESIAN_POINT('',(-2.4661233960071,-7.3646612546164,37.8));
#1659=VERTEX_POINT('',#1658);
#1660=CARTESIAN_POINT('',(-2.6276405001333,-8.7553129814344,37.8));
#1661=DIRECTION('',(-0.11536936008346,-0.99332266195529,-5.0753052551351E-15));
#1662=DIRECTION('',(3.3961650202506E-15,2.6893620897061E-15,-1.));
#1663=AXIS2_PLACEMENT_3D('',#1660,#1662,#1661);
#1664=CIRCLE('',#1663,1.4000000000811);
#1665=EDGE_CURVE('',#1627,#1659,#1664,.T.);
#1666=ORIENTED_EDGE('E121',*,*,#1665,.T.);
#1667=CARTESIAN_POINT('',(-2.4661233960071,-7.3646612546164,37.8));
#1668=DIRECTION('',(1.3250511798901E-11,-1.5010215292932E-12,-1.));
#1669=VECTOR('',#1668,0.4);
#1670=LINE('',#1667,#1669);
#1671=EDGE_CURVE('',#1659,#1649,#1670,.T.);
#1672=ORIENTED_EDGE('E122',*,*,#1671,.T.);
#1673=EDGE_LOOP('',(#1656,#1657,#1666,#1672));
#1674=FACE_OUTER_BOUND('',#1673,.T.);
#1675=ADVANCED_FACE('F53',(#1674),#1647,.T.);
#1676=CARTESIAN_POINT('',(-0.87680713688519,-7.5492522308312,37.4));
#1677=DIRECTION('',(-0.99332266195131,0.11536936011767,0.));
#1678=DIRECTION('',(0.11536936011767,0.99332266195131,-0.));
#1679=AXIS2_PLACEMENT_3D('',#1676,#1678,#1677);
#1680=PLANE('',#1679);
#1681=CARTESIAN_POINT('',(-2.4661233960018,-7.364661254617,37.4));
#1682=DIRECTION('',(0.9933226619545,-0.11536936009025,0.));
#1683=VECTOR('',#1682,3.1999999998977);
#1684=LINE('',#1681,#1683);
#1685=EDGE_CURVE('',#1649,#1576,#1684,.T.);
#1686=ORIENTED_EDGE('E72',*,*,#1685,.F.);
#1687=ORIENTED_EDGE('E72',*,*,#1671,.F.);
#1688=CARTESIAN_POINT('',(-2.4661233960071,-7.3646612546164,37.8));
#1689=DIRECTION('',(0.99332266195455,-0.11536936008976,0.));
#1690=VECTOR('',#1689,3.1999999999857);
#1691=LINE('',#1688,#1690);
#1692=EDGE_CURVE('',#1659,#1587,#1691,.T.);
#1693=ORIENTED_EDGE('E123',*,*,#1692,.T.);
#1694=ORIENTED_EDGE('E123',*,*,#1592,.F.);
#1695=EDGE_LOOP('',(#1686,#1687,#1693,#1694));
#1696=FACE_OUTER_BOUND('',#1695,.T.);
#1697=ADVANCED_FACE('F54',(#1696),#1680,.T.);
#1698=CARTESIAN_POINT('',(-7.5495165674511E-15,1.7763568394003E-15,37.8));
#1699=DIRECTION('',(1.,-1.723609964629E-16,0.));
#1700=DIRECTION('',(7.3403175181828E-17,-3.2597558066984E-32,1.));
#1701=AXIS2_PLACEMENT_3D('',#1698,#1700,#1699);
#1702=CYLINDRICAL_SURFACE('',#1701,11.65);
#1703=CARTESIAN_POINT('',(11.65,-2.3164876939259E-16,43.85));
#1704=VERTEX_POINT('',#1703);
#1705=CARTESIAN_POINT('',(11.65,-2.3164876939259E-16,37.8));
#1706=DIRECTION('',(0.,0.,1.));
#1707=VECTOR('',#1706,6.05);
#1708=LINE('',#1705,#1707);
#1709=EDGE_CURVE('',#463,#1704,#1708,.T.);
#1710=ORIENTED_EDGE('E125',*,*,#1709,.T.);
#1711=CARTESIAN_POINT('',(-1.0658141036402E-14,-2.1157597198131E-15,43.85));
#1712=DIRECTION('',(1.,1.6172626183867E-16,6.4690504735469E-16));
#1713=DIRECTION('',(6.4690504735469E-16,-6.4690504735469E-16,-1.));
#1714=AXIS2_PLACEMENT_3D('',#1711,#1713,#1712);
#1715=CIRCLE('',#1714,11.65);
#1716=EDGE_CURVE('',#1704,#1704,#1715,.T.);
#1717=ORIENTED_EDGE('E126',*,*,#1716,.T.);
#1718=ORIENTED_EDGE('E126',*,*,#1709,.F.);
#1719=CARTESIAN_POINT('',(-1.0658141036402E-14,-2.1157597198131E-15,37.8));
#1720=DIRECTION('',(1.,1.6172626183867E-16,4.3127003156979E-16));
#1721=DIRECTION('',(4.3127003156979E-16,-4.3127003156979E-16,-1.));
#1722=AXIS2_PLACEMENT_3D('',#1719,#1721,#1720);
#1723=CIRCLE('',#1722,11.65);
#1724=EDGE_CURVE('',#463,#463,#1723,.T.);
#1725=ORIENTED_EDGE('E124',*,*,#1724,.F.);
#1726=EDGE_LOOP('',(#1710,#1717,#1718,#1725));
#1727=FACE_OUTER_BOUND('',#1726,.T.);
#1728=ADVANCED_FACE('F56',(#1727),#1702,.T.);
#1729=CARTESIAN_POINT('',(-5.3290705182008E-15,-1.7763568394003E-15,43.85));
#1730=DIRECTION('',(0.,1.,0.));
#1731=DIRECTION('',(0.,-0.,1.));
#1732=AXIS2_PLACEMENT_3D('',#1729,#1731,#1730);
#1733=PLANE('',#1732);
#1734=ORIENTED_EDGE('',*,*,#1716,.F.);
#1735=EDGE_LOOP('',(#1734));
#1736=FACE_OUTER_BOUND('',#1735,.T.);
#1737=ADVANCED_FACE('F57',(#1736),#1733,.T.);
#1738=CARTESIAN_POINT('',(-3.1216080918226,-1.7763568394003E-14,37.4));
#1739=DIRECTION('',(1.,1.2025480424055E-16,0.));
#1740=DIRECTION('',(0.,-0.,1.));
#1741=AXIS2_PLACEMENT_3D('',#1738,#1740,#1739);
#1742=PLANE('',#1741);
#1743=ORIENTED_EDGE('',*,*,#779,.F.);
#1744=EDGE_LOOP('',(#1743));
#1745=FACE_OUTER_BOUND('',#1744,.T.);
#1746=CARTESIAN_POINT('',(5.75,-5.4022929317882E-16,37.4));
#1747=VERTEX_POINT('',#1746);
#1748=CARTESIAN_POINT('',(8.5,8.4917112012041E-16,37.4));
#1749=DIRECTION('',(-1.,-6.8513125469837E-16,-1.8270166791957E-15));
#1750=DIRECTION('',(-1.8270166791957E-15,-1.8270166791957E-15,1.));
#1751=AXIS2_PLACEMENT_3D('',#1748,#1750,#1749);
#1752=CIRCLE('',#1751,2.75);
#1753=EDGE_CURVE('',#1747,#1747,#1752,.T.);
#1754=ORIENTED_EDGE('E162',*,*,#1753,.F.);
#1755=EDGE_LOOP('',(#1754));
#1756=FACE_BOUND('',#1755,.T.);
#1757=CARTESIAN_POINT('',(-5.75,-4.2456486865425E-15,37.4));
#1758=VERTEX_POINT('',#1757);
#1759=CARTESIAN_POINT('',(-8.5,-1.0465540774087E-14,37.4));
#1760=DIRECTION('',(1.,1.256073966947E-15,-1.8270166791957E-15));
#1761=DIRECTION('',(1.8270166791957E-15,1.8270166791957E-15,1.));
#1762=AXIS2_PLACEMENT_3D('',#1759,#1761,#1760);
#1763=CIRCLE('',#1762,2.75);
#1764=EDGE_CURVE('',#1758,#1758,#1763,.T.);
#1765=ORIENTED_EDGE('E160',*,*,#1764,.F.);
#1766=EDGE_LOOP('',(#1765));
#1767=FACE_BOUND('',#1766,.T.);
#1768=ORIENTED_EDGE('',*,*,#1584,.T.);
#1769=ORIENTED_EDGE('',*,*,#1623,.T.);
#1770=ORIENTED_EDGE('',*,*,#1655,.T.);
#1771=ORIENTED_EDGE('',*,*,#1685,.T.);
#1772=EDGE_LOOP('',(#1768,#1769,#1770,#1771));
#1773=FACE_BOUND('',#1772,.T.);
#1774=ORIENTED_EDGE('',*,*,#1456,.T.);
#1775=ORIENTED_EDGE('',*,*,#1495,.T.);
#1776=ORIENTED_EDGE('',*,*,#1527,.T.);
#1777=ORIENTED_EDGE('',*,*,#1557,.T.);
#1778=EDGE_LOOP('',(#1774,#1775,#1776,#1777));
#1779=FACE_BOUND('',#1778,.T.);
#1780=ORIENTED_EDGE('',*,*,#896,.F.);
#1781=EDGE_LOOP('',(#1780));
#1782=FACE_BOUND('',#1781,.T.);
#1783=ORIENTED_EDGE('',*,*,#863,.F.);
#1784=EDGE_LOOP('',(#1783));
#1785=FACE_BOUND('',#1784,.T.);
#1786=ORIENTED_EDGE('',*,*,#830,.F.);
#1787=EDGE_LOOP('',(#1786));
#1788=FACE_BOUND('',#1787,.T.);
#1789=ORIENTED_EDGE('',*,*,#797,.F.);
#1790=EDGE_LOOP('',(#1789));
#1791=FACE_BOUND('',#1790,.T.);
#1792=ORIENTED_EDGE('',*,*,#1421,.T.);
#1793=EDGE_LOOP('',(#1792));
#1794=FACE_BOUND('',#1793,.T.);
#1795=ORIENTED_EDGE('',*,*,#944,.F.);
#1796=EDGE_LOOP('',(#1795));
#1797=FACE_BOUND('',#1796,.T.);
#1798=ORIENTED_EDGE('',*,*,#981,.F.);
#1799=ORIENTED_EDGE('',*,*,#1019,.F.);
#1800=ORIENTED_EDGE('',*,*,#1052,.F.);
#1801=ORIENTED_EDGE('',*,*,#1076,.F.);
#1802=EDGE_LOOP('',(#1798,#1799,#1800,#1801));
#1803=FACE_BOUND('',#1802,.T.);
#1804=ORIENTED_EDGE('',*,*,#1109,.F.);
#1805=EDGE_LOOP('',(#1804));
#1806=FACE_BOUND('',#1805,.T.);
#1807=ORIENTED_EDGE('',*,*,#1146,.F.);
#1808=ORIENTED_EDGE('',*,*,#1184,.F.);
#1809=ORIENTED_EDGE('',*,*,#1217,.F.);
#1810=ORIENTED_EDGE('',*,*,#1241,.F.);
#1811=EDGE_LOOP('',(#1807,#1808,#1809,#1810));
#1812=FACE_BOUND('',#1811,.T.);
#1813=ADVANCED_FACE('F32',(#1745,#1756,#1767,#1773,#1779,#1782,#1785,#1788,#1791,#1794,#1797,#1803,#1806,#1812),#1742,.T.);
#1814=CARTESIAN_POINT('',(-8.8817841970013E-15,1.7763568394003E-15,37.8));
#1815=DIRECTION('',(1.,0.,0.));
#1816=DIRECTION('',(0.,0.,-1.));
#1817=AXIS2_PLACEMENT_3D('',#1814,#1816,#1815);
#1818=PLANE('',#1817);
#1819=ORIENTED_EDGE('',*,*,#1724,.T.);
#1820=EDGE_LOOP('',(#1819));
#1821=FACE_OUTER_BOUND('',#1820,.T.);
#1822=CARTESIAN_POINT('',(5.75,-5.524757611703E-16,37.8));
#1823=VERTEX_POINT('',#1822);
#1824=CARTESIAN_POINT('',(8.5,-4.3139578280954E-16,37.8));
#1825=DIRECTION('',(-1.,-2.2837708489946E-16,-1.8270166791957E-15));
#1826=DIRECTION('',(1.8270166791957E-15,-1.8270166791957E-15,-1.));
#1827=AXIS2_PLACEMENT_3D('',#1824,#1826,#1825);
#1828=CIRCLE('',#1827,2.75);
#1829=EDGE_CURVE('',#1823,#1823,#1828,.T.);
#1830=ORIENTED_EDGE('E161',*,*,#1829,.F.);
#1831=EDGE_LOOP('',(#1830));
#1832=FACE_BOUND('',#1831,.T.);
#1833=CARTESIAN_POINT('',(-5.75,-3.3912931714076E-15,37.8));
#1834=VERTEX_POINT('',#1833);
#1835=CARTESIAN_POINT('',(-8.5,-9.9048122416793E-15,37.8));
#1836=DIRECTION('',(1.,1.0276968820476E-15,-1.8270166791957E-15));
#1837=DIRECTION('',(-1.8270166791957E-15,1.8270166791957E-15,-1.));
#1838=AXIS2_PLACEMENT_3D('',#1835,#1837,#1836);
#1839=CIRCLE('',#1838,2.75);
#1840=EDGE_CURVE('',#1834,#1834,#1839,.T.);
#1841=ORIENTED_EDGE('E159',*,*,#1840,.F.);
#1842=EDGE_LOOP('',(#1841));
#1843=FACE_BOUND('',#1842,.T.);
#1844=ORIENTED_EDGE('',*,*,#845,.F.);
#1845=EDGE_LOOP('',(#1844));
#1846=FACE_BOUND('',#1845,.T.);
#1847=ORIENTED_EDGE('',*,*,#911,.F.);
#1848=EDGE_LOOP('',(#1847));
#1849=FACE_BOUND('',#1848,.T.);
#1850=ORIENTED_EDGE('',*,*,#1436,.F.);
#1851=EDGE_LOOP('',(#1850));
#1852=FACE_BOUND('',#1851,.T.);
#1853=ORIENTED_EDGE('',*,*,#1473,.F.);
#1854=ORIENTED_EDGE('',*,*,#1564,.F.);
#1855=ORIENTED_EDGE('',*,*,#1537,.F.);
#1856=ORIENTED_EDGE('',*,*,#1504,.F.);
#1857=EDGE_LOOP('',(#1853,#1854,#1855,#1856));
#1858=FACE_BOUND('',#1857,.T.);
#1859=ORIENTED_EDGE('',*,*,#812,.F.);
#1860=EDGE_LOOP('',(#1859));
#1861=FACE_BOUND('',#1860,.T.);
#1862=ORIENTED_EDGE('',*,*,#1601,.F.);
#1863=ORIENTED_EDGE('',*,*,#1692,.F.);
#1864=ORIENTED_EDGE('',*,*,#1665,.F.);
#1865=ORIENTED_EDGE('',*,*,#1632,.F.);
#1866=EDGE_LOOP('',(#1862,#1863,#1864,#1865));
#1867=FACE_BOUND('',#1866,.T.);
#1868=ORIENTED_EDGE('',*,*,#878,.F.);
#1869=EDGE_LOOP('',(#1868));
#1870=FACE_BOUND('',#1869,.T.);
#1871=ADVANCED_FACE('F55',(#1821,#1832,#1843,#1846,#1849,#1852,#1858,#1861,#1867,#1870),#1818,.T.);
#1872=CARTESIAN_POINT('',(8.5,3.1086244689504E-15,1.6641716333176E-16));
#1873=DIRECTION('',(-1.,-6.7399083085273E-16,-6.0515332120639E-17));
#1874=DIRECTION('',(0.,-6.1232339957368E-17,1.));
#1875=AXIS2_PLACEMENT_3D('',#1872,#1874,#1873);
#1876=CYLINDRICAL_SURFACE('',#1875,2.75);
#1877=CARTESIAN_POINT('',(5.75,-4.5518756057534E-17,37.4));
#1878=DIRECTION('',(0.,0.,1.));
#1879=VECTOR('',#1878,0.4);
#1880=LINE('',#1877,#1879);
#1881=EDGE_CURVE('',#1747,#1823,#1880,.T.);
#1882=ORIENTED_EDGE('E158',*,*,#1881,.F.);
#1883=ORIENTED_EDGE('E158',*,*,#1753,.T.);
#1884=ORIENTED_EDGE('E158',*,*,#1881,.T.);
#1885=ORIENTED_EDGE('E158',*,*,#1829,.T.);
#1886=EDGE_LOOP('',(#1882,#1883,#1884,#1885));
#1887=FACE_OUTER_BOUND('',#1886,.T.);
#1888=ADVANCED_FACE('F72',(#1887),#1876,.T.);
#1889=CARTESIAN_POINT('',(-8.5,-3.9968028886506E-15,1.3731024894653E-16));
#1890=DIRECTION('',(1.,1.1922929812198E-15,-4.9930999616921E-17));
#1891=DIRECTION('',(0.,-1.682711276654E-16,1.));
#1892=AXIS2_PLACEMENT_3D('',#1889,#1891,#1890);
#1893=CYLINDRICAL_SURFACE('',#1892,2.75);
#1894=CARTESIAN_POINT('',(-5.75,2.9605947323337E-16,37.4));
#1895=DIRECTION('',(0.,0.,1.));
#1896=VECTOR('',#1895,0.40000000000001);
#1897=LINE('',#1894,#1896);
#1898=EDGE_CURVE('',#1758,#1834,#1897,.T.);
#1899=ORIENTED_EDGE('E157',*,*,#1898,.F.);
#1900=ORIENTED_EDGE('E157',*,*,#1764,.T.);
#1901=ORIENTED_EDGE('E157',*,*,#1898,.T.);
#1902=ORIENTED_EDGE('E157',*,*,#1840,.T.);
#1903=EDGE_LOOP('',(#1899,#1900,#1901,#1902));
#1904=FACE_OUTER_BOUND('',#1903,.T.);
#1905=ADVANCED_FACE('F73',(#1904),#1893,.T.);
#1906=CLOSED_SHELL('',(#473,#498,#518,#543,#576,#596,#655,#689,#720,#730,#747,#759,#784,#817,#850,#883,#916,#949,#991,#1024,#1057,#1081,#1114,#1156,#1189,#1222,#1246,#1255,#1267,#1276,#1288,#1321,#1354,#1372,#1390,#1408,#1441,#1483,#1514,#1547,#1569,#1611,#1642,#1675,#1697,#1728,#1737,#1813,#1871,#1888,#1905));
#1907=OVER_RIDING_STYLED_ITEM('',(#273),#473,#1906);
#1908=OVER_RIDING_STYLED_ITEM('',(#273),#498,#1906);
#1909=OVER_RIDING_STYLED_ITEM('',(#273),#518,#1906);
#1910=OVER_RIDING_STYLED_ITEM('',(#273),#543,#1906);
#1911=OVER_RIDING_STYLED_ITEM('',(#273),#576,#1906);
#1912=OVER_RIDING_STYLED_ITEM('',(#273),#596,#1906);
#1913=OVER_RIDING_STYLED_ITEM('',(#273),#655,#1906);
#1914=OVER_RIDING_STYLED_ITEM('',(#273),#689,#1906);
#1915=OVER_RIDING_STYLED_ITEM('',(#273),#720,#1906);
#1916=OVER_RIDING_STYLED_ITEM('',(#273),#730,#1906);
#1917=OVER_RIDING_STYLED_ITEM('',(#273),#747,#1906);
#1918=OVER_RIDING_STYLED_ITEM('',(#273),#759,#1906);
#1919=OVER_RIDING_STYLED_ITEM('',(#273),#784,#1906);
#1920=OVER_RIDING_STYLED_ITEM('',(#273),#817,#1906);
#1921=OVER_RIDING_STYLED_ITEM('',(#273),#850,#1906);
#1922=OVER_RIDING_STYLED_ITEM('',(#273),#883,#1906);
#1923=OVER_RIDING_STYLED_ITEM('',(#273),#916,#1906);
#1924=OVER_RIDING_STYLED_ITEM('',(#273),#949,#1906);
#1925=OVER_RIDING_STYLED_ITEM('',(#273),#991,#1906);
#1926=OVER_RIDING_STYLED_ITEM('',(#273),#1024,#1906);
#1927=OVER_RIDING_STYLED_ITEM('',(#273),#1057,#1906);
#1928=OVER_RIDING_STYLED_ITEM('',(#273),#1081,#1906);
#1929=OVER_RIDING_STYLED_ITEM('',(#273),#1114,#1906);
#1930=OVER_RIDING_STYLED_ITEM('',(#273),#1156,#1906);
#1931=OVER_RIDING_STYLED_ITEM('',(#273),#1189,#1906);
#1932=OVER_RIDING_STYLED_ITEM('',(#273),#1222,#1906);
#1933=OVER_RIDING_STYLED_ITEM('',(#273),#1246,#1906);
#1934=OVER_RIDING_STYLED_ITEM('',(#273),#1255,#1906);
#1935=OVER_RIDING_STYLED_ITEM('',(#273),#1267,#1906);
#1936=OVER_RIDING_STYLED_ITEM('',(#273),#1276,#1906);
#1937=OVER_RIDING_STYLED_ITEM('',(#273),#1288,#1906);
#1938=COLOUR_RGB('',0.54902,0.54902,0.921569);
#1939=FILL_AREA_STYLE_COLOUR('',#1938);
#1940=FILL_AREA_STYLE('',(#1939));
#1941=SURFACE_STYLE_FILL_AREA(#1940);
#1942=SURFACE_SIDE_STYLE('',(#1941));
#1943=SURFACE_STYLE_USAGE(.BOTH.,#1942);
#1944=PRESENTATION_STYLE_ASSIGNMENT((#1943));
#1945=OVER_RIDING_STYLED_ITEM('',(#1944),#1321,#1906);
#1946=OVER_RIDING_STYLED_ITEM('',(#1944),#1354,#1906);
#1947=OVER_RIDING_STYLED_ITEM('',(#273),#1372,#1906);
#1948=OVER_RIDING_STYLED_ITEM('',(#273),#1390,#1906);
#1949=OVER_RIDING_STYLED_ITEM('',(#273),#1408,#1906);
#1950=OVER_RIDING_STYLED_ITEM('',(#273),#1441,#1906);
#1951=OVER_RIDING_STYLED_ITEM('',(#273),#1483,#1906);
#1952=OVER_RIDING_STYLED_ITEM('',(#273),#1514,#1906);
#1953=OVER_RIDING_STYLED_ITEM('',(#273),#1547,#1906);
#1954=OVER_RIDING_STYLED_ITEM('',(#273),#1569,#1906);
#1955=OVER_RIDING_STYLED_ITEM('',(#273),#1611,#1906);
#1956=OVER_RIDING_STYLED_ITEM('',(#273),#1642,#1906);
#1957=OVER_RIDING_STYLED_ITEM('',(#273),#1675,#1906);
#1958=OVER_RIDING_STYLED_ITEM('',(#273),#1697,#1906);
#1959=OVER_RIDING_STYLED_ITEM('',(#273),#1728,#1906);
#1960=OVER_RIDING_STYLED_ITEM('',(#273),#1737,#1906);
#1961=OVER_RIDING_STYLED_ITEM('',(#273),#1813,#1906);
#1962=OVER_RIDING_STYLED_ITEM('',(#273),#1871,#1906);
#1963=OVER_RIDING_STYLED_ITEM('',(#273),#1888,#1906);
#1964=OVER_RIDING_STYLED_ITEM('',(#273),#1905,#1906);
#1965=MANIFOLD_SOLID_BREP('S1',#1906);
#1966=ADVANCED_BREP_SHAPE_REPRESENTATION('',(#282,#445,#1965), #5);
#1967=SHAPE_REPRESENTATION_RELATIONSHIP('','',#18,#1966);
#1968=PRESENTATION_LAYER_ASSIGNMENT('图层0000','',(#282,#445,#1965));
#1969=MECHANICAL_DESIGN_GEOMETRIC_PRESENTATION_REPRESENTATION('',(#274,#275,#276,#277,#278,#279,#280,#281,#439,#440,#441,#442,#443,#444,#1907,#1908,#1909,#1910,#1911,#1912,#1913,#1914,#1915,#1916,#1917,#1918,#1919,#1920,#1921,#1922,#1923,#1924,#1925,#1926,#1927,#1928,#1929,#1930,#1931,#1932,#1933,#1934,#1935,#1936,#1937,#1945,#1946,#1947,#1948,#1949,#1950,#1951,#1952,#1953,#1954,#1955,#1956,#1957,#1958,#1959,#1960,#1961,#1962,#1963,#1964),#5);
ENDSEC;
END-ISO-10303-21;
