G04 EAGLE Gerber RS-274X export*
G75*
%MOMM*%
%FSLAX34Y34*%
%LPD*%
%INTop Copper*%
%IPPOS*%
%AMOC8*
5,1,8,0,0,1.08239X$1,22.5*%
G01*
%ADD10R,1.308000X1.308000*%
%ADD11C,1.308000*%
%ADD12P,1.429621X8X112.500000*%
%ADD13P,1.429621X8X292.500000*%
%ADD14R,1.295400X1.295400*%
%ADD15C,1.295400*%
%ADD16C,0.203200*%
%ADD17C,0.756400*%
%ADD18C,0.254000*%

G36*
X435699Y10172D02*
X435699Y10172D01*
X435771Y10174D01*
X435819Y10192D01*
X435871Y10200D01*
X435934Y10234D01*
X436002Y10259D01*
X436042Y10291D01*
X436088Y10316D01*
X436138Y10368D01*
X436194Y10412D01*
X436222Y10456D01*
X436258Y10494D01*
X436288Y10559D01*
X436327Y10619D01*
X436339Y10670D01*
X436361Y10717D01*
X436369Y10788D01*
X436387Y10858D01*
X436383Y10910D01*
X436388Y10961D01*
X436373Y11032D01*
X436367Y11103D01*
X436347Y11151D01*
X436336Y11202D01*
X436299Y11263D01*
X436271Y11329D01*
X436226Y11385D01*
X436210Y11413D01*
X436192Y11428D01*
X436166Y11460D01*
X432109Y15517D01*
X432109Y22883D01*
X437317Y28091D01*
X444683Y28091D01*
X449891Y22883D01*
X449891Y15517D01*
X445834Y11460D01*
X445792Y11402D01*
X445742Y11350D01*
X445720Y11303D01*
X445690Y11261D01*
X445669Y11192D01*
X445639Y11127D01*
X445633Y11075D01*
X445618Y11025D01*
X445620Y10954D01*
X445612Y10883D01*
X445623Y10832D01*
X445624Y10780D01*
X445649Y10712D01*
X445664Y10642D01*
X445691Y10597D01*
X445709Y10549D01*
X445753Y10493D01*
X445790Y10431D01*
X445830Y10397D01*
X445862Y10357D01*
X445923Y10318D01*
X445977Y10271D01*
X446025Y10252D01*
X446069Y10224D01*
X446139Y10206D01*
X446205Y10179D01*
X446277Y10171D01*
X446308Y10163D01*
X446331Y10165D01*
X446372Y10161D01*
X478408Y10161D01*
X478454Y10168D01*
X478500Y10166D01*
X478574Y10188D01*
X478651Y10200D01*
X478692Y10222D01*
X478736Y10235D01*
X478800Y10279D01*
X478869Y10316D01*
X478900Y10349D01*
X478938Y10375D01*
X478984Y10438D01*
X479038Y10494D01*
X479057Y10536D01*
X479085Y10572D01*
X479109Y10646D01*
X479142Y10717D01*
X479147Y10763D01*
X479161Y10806D01*
X479160Y10884D01*
X479169Y10961D01*
X479159Y11006D01*
X479159Y11052D01*
X479120Y11184D01*
X479116Y11202D01*
X479114Y11206D01*
X479112Y11213D01*
X477339Y15493D01*
X477339Y24507D01*
X480789Y32836D01*
X487164Y39211D01*
X495493Y42661D01*
X504507Y42661D01*
X508787Y40888D01*
X508831Y40878D01*
X508873Y40858D01*
X508950Y40850D01*
X509026Y40832D01*
X509072Y40836D01*
X509117Y40831D01*
X509194Y40848D01*
X509271Y40855D01*
X509313Y40874D01*
X509358Y40884D01*
X509425Y40924D01*
X509496Y40955D01*
X509530Y40986D01*
X509569Y41010D01*
X509620Y41069D01*
X509677Y41122D01*
X509699Y41162D01*
X509729Y41197D01*
X509758Y41269D01*
X509795Y41337D01*
X509804Y41382D01*
X509821Y41425D01*
X509836Y41561D01*
X509839Y41579D01*
X509838Y41584D01*
X509839Y41592D01*
X509839Y248408D01*
X509832Y248454D01*
X509834Y248500D01*
X509812Y248574D01*
X509800Y248651D01*
X509778Y248692D01*
X509765Y248736D01*
X509721Y248800D01*
X509684Y248869D01*
X509651Y248900D01*
X509625Y248938D01*
X509562Y248984D01*
X509506Y249038D01*
X509464Y249057D01*
X509428Y249085D01*
X509354Y249109D01*
X509283Y249142D01*
X509237Y249147D01*
X509194Y249161D01*
X509116Y249160D01*
X509039Y249169D01*
X508994Y249159D01*
X508948Y249159D01*
X508816Y249120D01*
X508798Y249116D01*
X508794Y249114D01*
X508787Y249112D01*
X504507Y247339D01*
X503731Y247339D01*
X503660Y247328D01*
X503589Y247326D01*
X503540Y247308D01*
X503488Y247300D01*
X503425Y247266D01*
X503358Y247241D01*
X503317Y247209D01*
X503271Y247184D01*
X503222Y247132D01*
X503166Y247088D01*
X503137Y247044D01*
X503102Y247006D01*
X503071Y246941D01*
X503033Y246881D01*
X503020Y246830D01*
X502998Y246783D01*
X502990Y246712D01*
X502973Y246642D01*
X502977Y246590D01*
X502971Y246539D01*
X502986Y246468D01*
X502992Y246397D01*
X503012Y246349D01*
X503023Y246298D01*
X503060Y246237D01*
X503088Y246171D01*
X503133Y246115D01*
X503149Y246087D01*
X503167Y246072D01*
X503193Y246040D01*
X505645Y243588D01*
X505645Y241323D01*
X497262Y241323D01*
X497242Y241320D01*
X497223Y241322D01*
X497121Y241300D01*
X497019Y241283D01*
X497002Y241274D01*
X496982Y241270D01*
X496893Y241217D01*
X496802Y241168D01*
X496788Y241154D01*
X496771Y241144D01*
X496704Y241065D01*
X496633Y240990D01*
X496624Y240972D01*
X496611Y240957D01*
X496573Y240861D01*
X496529Y240767D01*
X496527Y240747D01*
X496519Y240729D01*
X496501Y240562D01*
X496501Y239799D01*
X496499Y239799D01*
X496499Y240562D01*
X496496Y240582D01*
X496498Y240601D01*
X496476Y240703D01*
X496459Y240805D01*
X496450Y240822D01*
X496446Y240842D01*
X496393Y240931D01*
X496344Y241022D01*
X496330Y241036D01*
X496320Y241053D01*
X496241Y241120D01*
X496166Y241191D01*
X496148Y241200D01*
X496133Y241213D01*
X496037Y241252D01*
X495943Y241295D01*
X495923Y241297D01*
X495905Y241305D01*
X495738Y241323D01*
X487355Y241323D01*
X487355Y243588D01*
X491586Y247818D01*
X491612Y247856D01*
X491646Y247887D01*
X491684Y247955D01*
X491729Y248018D01*
X491743Y248062D01*
X491765Y248102D01*
X491779Y248179D01*
X491802Y248253D01*
X491800Y248299D01*
X491809Y248344D01*
X491797Y248421D01*
X491795Y248499D01*
X491779Y248542D01*
X491773Y248587D01*
X491738Y248657D01*
X491711Y248730D01*
X491682Y248766D01*
X491661Y248807D01*
X491606Y248861D01*
X491557Y248922D01*
X491518Y248947D01*
X491486Y248979D01*
X491366Y249045D01*
X491350Y249055D01*
X491345Y249056D01*
X491339Y249060D01*
X487164Y250789D01*
X480789Y257164D01*
X477339Y265493D01*
X477339Y274507D01*
X479112Y278787D01*
X479122Y278831D01*
X479142Y278873D01*
X479150Y278950D01*
X479168Y279026D01*
X479164Y279072D01*
X479169Y279117D01*
X479152Y279194D01*
X479145Y279271D01*
X479126Y279313D01*
X479116Y279358D01*
X479076Y279425D01*
X479045Y279496D01*
X479014Y279530D01*
X478990Y279569D01*
X478931Y279620D01*
X478878Y279677D01*
X478838Y279699D01*
X478803Y279729D01*
X478731Y279758D01*
X478663Y279795D01*
X478618Y279804D01*
X478575Y279821D01*
X478439Y279836D01*
X478421Y279839D01*
X478416Y279838D01*
X478408Y279839D01*
X353859Y279839D01*
X353788Y279828D01*
X353716Y279826D01*
X353667Y279808D01*
X353616Y279800D01*
X353553Y279766D01*
X353485Y279741D01*
X353445Y279709D01*
X353399Y279684D01*
X353349Y279633D01*
X353293Y279588D01*
X353265Y279544D01*
X353229Y279506D01*
X353199Y279441D01*
X353160Y279381D01*
X353148Y279330D01*
X353126Y279283D01*
X353118Y279212D01*
X353100Y279142D01*
X353104Y279090D01*
X353099Y279039D01*
X353114Y278968D01*
X353119Y278897D01*
X353140Y278849D01*
X353151Y278798D01*
X353188Y278737D01*
X353216Y278671D01*
X353260Y278615D01*
X353277Y278587D01*
X353295Y278572D01*
X353321Y278540D01*
X358006Y273854D01*
X358022Y273843D01*
X358035Y273827D01*
X358122Y273771D01*
X358206Y273711D01*
X358225Y273705D01*
X358242Y273694D01*
X358342Y273669D01*
X358441Y273638D01*
X358461Y273639D01*
X358480Y273634D01*
X358583Y273642D01*
X358687Y273645D01*
X358705Y273652D01*
X358725Y273653D01*
X358820Y273694D01*
X358918Y273729D01*
X358933Y273742D01*
X358952Y273749D01*
X359083Y273854D01*
X360158Y274930D01*
X363379Y276264D01*
X366865Y276264D01*
X370086Y274930D01*
X372552Y272464D01*
X373886Y269243D01*
X373886Y265757D01*
X372552Y262536D01*
X370086Y260070D01*
X366865Y258736D01*
X363379Y258736D01*
X360158Y260070D01*
X357692Y262536D01*
X356358Y265757D01*
X356358Y265845D01*
X356344Y265935D01*
X356336Y266026D01*
X356324Y266056D01*
X356319Y266088D01*
X356276Y266168D01*
X356240Y266252D01*
X356214Y266285D01*
X356203Y266305D01*
X356180Y266327D01*
X356135Y266383D01*
X355119Y267399D01*
X355061Y267441D01*
X355009Y267491D01*
X354962Y267513D01*
X354920Y267543D01*
X354851Y267564D01*
X354786Y267594D01*
X354734Y267600D01*
X354684Y267615D01*
X354613Y267614D01*
X354542Y267621D01*
X354491Y267610D01*
X354439Y267609D01*
X354371Y267584D01*
X354301Y267569D01*
X354256Y267542D01*
X354208Y267525D01*
X354152Y267480D01*
X354090Y267443D01*
X354056Y267403D01*
X354016Y267371D01*
X353977Y267311D01*
X353930Y267256D01*
X353911Y267208D01*
X353883Y267164D01*
X353865Y267094D01*
X353838Y267028D01*
X353830Y266957D01*
X353822Y266925D01*
X353824Y266902D01*
X353820Y266861D01*
X353820Y265757D01*
X352486Y262536D01*
X350020Y260070D01*
X348133Y259289D01*
X348033Y259227D01*
X347934Y259167D01*
X347930Y259163D01*
X347924Y259159D01*
X347849Y259069D01*
X347774Y258980D01*
X347771Y258975D01*
X347767Y258970D01*
X347726Y258861D01*
X347682Y258752D01*
X347681Y258745D01*
X347679Y258740D01*
X347678Y258722D01*
X347663Y258586D01*
X347663Y256632D01*
X299825Y208794D01*
X299798Y208757D01*
X299765Y208726D01*
X299727Y208658D01*
X299682Y208595D01*
X299668Y208551D01*
X299646Y208511D01*
X299632Y208434D01*
X299609Y208360D01*
X299611Y208314D01*
X299602Y208269D01*
X299614Y208192D01*
X299616Y208114D01*
X299631Y208071D01*
X299638Y208025D01*
X299673Y207956D01*
X299700Y207883D01*
X299729Y207847D01*
X299750Y207806D01*
X299805Y207751D01*
X299854Y207691D01*
X299892Y207666D01*
X299925Y207634D01*
X300045Y207568D01*
X300061Y207558D01*
X300066Y207556D01*
X300072Y207553D01*
X301380Y207011D01*
X302999Y205392D01*
X303073Y205339D01*
X303142Y205280D01*
X303172Y205267D01*
X303199Y205249D01*
X303285Y205222D01*
X303370Y205188D01*
X303411Y205183D01*
X303434Y205176D01*
X303466Y205177D01*
X303537Y205169D01*
X329723Y205169D01*
X329813Y205184D01*
X329904Y205191D01*
X329934Y205204D01*
X329966Y205209D01*
X330047Y205252D01*
X330130Y205287D01*
X330163Y205313D01*
X330183Y205324D01*
X330205Y205347D01*
X330261Y205392D01*
X331118Y206249D01*
X346322Y206249D01*
X346412Y206263D01*
X346503Y206271D01*
X346533Y206283D01*
X346565Y206288D01*
X346645Y206331D01*
X346729Y206367D01*
X346761Y206393D01*
X346782Y206404D01*
X346804Y206427D01*
X346860Y206472D01*
X348479Y208091D01*
X350710Y209015D01*
X353124Y209015D01*
X355355Y208091D01*
X357062Y206384D01*
X357986Y204153D01*
X357986Y202142D01*
X357989Y202122D01*
X357987Y202103D01*
X358009Y202001D01*
X358025Y201899D01*
X358035Y201882D01*
X358039Y201862D01*
X358077Y201799D01*
X358077Y193823D01*
X350644Y193823D01*
X350868Y194949D01*
X351236Y195836D01*
X351240Y195855D01*
X351250Y195872D01*
X351268Y195974D01*
X351292Y196075D01*
X351290Y196095D01*
X351293Y196114D01*
X351278Y196217D01*
X351269Y196320D01*
X351261Y196338D01*
X351258Y196358D01*
X351211Y196450D01*
X351169Y196545D01*
X351155Y196559D01*
X351146Y196577D01*
X351072Y196649D01*
X351002Y196726D01*
X350985Y196735D01*
X350971Y196749D01*
X350824Y196830D01*
X349479Y197387D01*
X349435Y197398D01*
X349393Y197417D01*
X349316Y197425D01*
X349240Y197443D01*
X349194Y197439D01*
X349149Y197444D01*
X349072Y197427D01*
X348995Y197420D01*
X348953Y197401D01*
X348908Y197392D01*
X348841Y197352D01*
X348770Y197320D01*
X348736Y197289D01*
X348697Y197265D01*
X348646Y197206D01*
X348589Y197154D01*
X348567Y197113D01*
X348537Y197079D01*
X348508Y197006D01*
X348471Y196938D01*
X348462Y196893D01*
X348445Y196850D01*
X348430Y196714D01*
X348427Y196696D01*
X348428Y196691D01*
X348427Y196684D01*
X348427Y184813D01*
X347087Y183473D01*
X344106Y183473D01*
X344087Y183470D01*
X344067Y183472D01*
X343966Y183450D01*
X343864Y183434D01*
X343846Y183424D01*
X343827Y183420D01*
X343738Y183367D01*
X343646Y183318D01*
X343633Y183304D01*
X343616Y183294D01*
X343548Y183215D01*
X343477Y183140D01*
X343469Y183122D01*
X343456Y183107D01*
X343417Y183011D01*
X343373Y182917D01*
X343371Y182897D01*
X343364Y182879D01*
X343345Y182712D01*
X343345Y141888D01*
X343348Y141868D01*
X343346Y141849D01*
X343368Y141747D01*
X343385Y141645D01*
X343394Y141628D01*
X343399Y141608D01*
X343452Y141519D01*
X343500Y141428D01*
X343514Y141414D01*
X343525Y141397D01*
X343603Y141330D01*
X343678Y141258D01*
X343696Y141250D01*
X343712Y141237D01*
X343808Y141198D01*
X343901Y141155D01*
X343921Y141153D01*
X343940Y141145D01*
X344106Y141127D01*
X347087Y141127D01*
X348427Y139787D01*
X348427Y124813D01*
X347087Y123473D01*
X332113Y123473D01*
X330773Y124813D01*
X330773Y139787D01*
X332113Y141127D01*
X335979Y141127D01*
X335998Y141130D01*
X336018Y141128D01*
X336119Y141150D01*
X336221Y141166D01*
X336239Y141176D01*
X336258Y141180D01*
X336347Y141233D01*
X336439Y141282D01*
X336452Y141296D01*
X336469Y141306D01*
X336537Y141385D01*
X336608Y141460D01*
X336616Y141478D01*
X336629Y141493D01*
X336668Y141589D01*
X336712Y141683D01*
X336714Y141703D01*
X336721Y141721D01*
X336740Y141888D01*
X336740Y181610D01*
X336737Y181630D01*
X336739Y181649D01*
X336717Y181751D01*
X336700Y181853D01*
X336691Y181870D01*
X336686Y181890D01*
X336633Y181979D01*
X336585Y182070D01*
X336571Y182084D01*
X336560Y182101D01*
X336482Y182168D01*
X336407Y182240D01*
X336389Y182248D01*
X336373Y182261D01*
X336277Y182300D01*
X336184Y182343D01*
X336164Y182345D01*
X336145Y182353D01*
X335979Y182371D01*
X283620Y182371D01*
X274326Y191665D01*
X274268Y191707D01*
X274216Y191756D01*
X274169Y191778D01*
X274127Y191809D01*
X274058Y191830D01*
X273993Y191860D01*
X273941Y191866D01*
X273891Y191881D01*
X273820Y191879D01*
X273749Y191887D01*
X273698Y191876D01*
X273646Y191875D01*
X273578Y191850D01*
X273508Y191835D01*
X273463Y191808D01*
X273415Y191790D01*
X273359Y191745D01*
X273297Y191708D01*
X273263Y191669D01*
X273223Y191636D01*
X273184Y191576D01*
X273137Y191522D01*
X273118Y191473D01*
X273090Y191429D01*
X273072Y191360D01*
X273045Y191293D01*
X273037Y191222D01*
X273029Y191191D01*
X273031Y191168D01*
X273027Y191127D01*
X273027Y190544D01*
X272661Y189662D01*
X272635Y189548D01*
X272606Y189435D01*
X272606Y189428D01*
X272605Y189422D01*
X272616Y189306D01*
X272625Y189190D01*
X272628Y189184D01*
X272628Y189177D01*
X272676Y189070D01*
X272721Y188963D01*
X272726Y188957D01*
X272728Y188953D01*
X272741Y188939D01*
X272826Y188832D01*
X300998Y160660D01*
X301072Y160607D01*
X301142Y160548D01*
X301172Y160535D01*
X301198Y160517D01*
X301285Y160490D01*
X301370Y160456D01*
X301411Y160451D01*
X301433Y160444D01*
X301465Y160445D01*
X301537Y160437D01*
X303467Y160437D01*
X305698Y159513D01*
X307405Y157806D01*
X308329Y155576D01*
X308329Y153161D01*
X307405Y150931D01*
X305698Y149224D01*
X303467Y148300D01*
X301053Y148300D01*
X298822Y149224D01*
X297115Y150931D01*
X296191Y153161D01*
X296191Y155092D01*
X296177Y155182D01*
X296169Y155273D01*
X296157Y155303D01*
X296152Y155335D01*
X296109Y155415D01*
X296073Y155499D01*
X296047Y155531D01*
X296036Y155552D01*
X296013Y155574D01*
X295968Y155630D01*
X267849Y183749D01*
X267755Y183817D01*
X267661Y183887D01*
X267655Y183889D01*
X267650Y183893D01*
X267538Y183927D01*
X267427Y183963D01*
X267421Y183963D01*
X267415Y183965D01*
X267298Y183962D01*
X267181Y183961D01*
X267174Y183959D01*
X267169Y183959D01*
X267151Y183952D01*
X267020Y183914D01*
X265956Y183473D01*
X262444Y183473D01*
X259200Y184817D01*
X256717Y187300D01*
X255373Y190544D01*
X255373Y194056D01*
X255865Y195242D01*
X255881Y195312D01*
X255907Y195379D01*
X255909Y195431D01*
X255921Y195482D01*
X255914Y195553D01*
X255917Y195625D01*
X255903Y195675D01*
X255898Y195727D01*
X255869Y195792D01*
X255849Y195861D01*
X255819Y195904D01*
X255798Y195951D01*
X255749Y196004D01*
X255708Y196063D01*
X255667Y196094D01*
X255631Y196132D01*
X255569Y196167D01*
X255511Y196210D01*
X255462Y196226D01*
X255416Y196251D01*
X255345Y196264D01*
X255277Y196286D01*
X255225Y196285D01*
X255174Y196295D01*
X255103Y196284D01*
X255031Y196284D01*
X254962Y196264D01*
X254930Y196259D01*
X254910Y196248D01*
X254870Y196237D01*
X253810Y195798D01*
X253690Y195798D01*
X253597Y195783D01*
X253503Y195774D01*
X253477Y195763D01*
X253448Y195758D01*
X253364Y195714D01*
X253278Y195676D01*
X253256Y195657D01*
X253230Y195643D01*
X253165Y195575D01*
X253095Y195511D01*
X253081Y195486D01*
X253061Y195465D01*
X253021Y195379D01*
X252975Y195297D01*
X252970Y195268D01*
X252957Y195242D01*
X252947Y195148D01*
X252929Y195055D01*
X252933Y195018D01*
X252930Y194997D01*
X252937Y194965D01*
X252944Y194888D01*
X253156Y193823D01*
X245723Y193823D01*
X245723Y201272D01*
X245812Y201262D01*
X245841Y201268D01*
X245870Y201267D01*
X245961Y201294D01*
X246053Y201314D01*
X246078Y201329D01*
X246106Y201337D01*
X246183Y201392D01*
X246264Y201440D01*
X246283Y201462D01*
X246307Y201479D01*
X246363Y201555D01*
X246424Y201627D01*
X246435Y201654D01*
X246452Y201678D01*
X246480Y201768D01*
X246516Y201855D01*
X246520Y201892D01*
X246526Y201912D01*
X246526Y201945D01*
X246534Y202022D01*
X246534Y203074D01*
X247360Y205068D01*
X247371Y205112D01*
X247390Y205154D01*
X247399Y205231D01*
X247416Y205307D01*
X247412Y205353D01*
X247417Y205398D01*
X247401Y205475D01*
X247393Y205552D01*
X247375Y205594D01*
X247365Y205639D01*
X247325Y205706D01*
X247293Y205777D01*
X247262Y205811D01*
X247239Y205850D01*
X247180Y205901D01*
X247127Y205958D01*
X247087Y205980D01*
X247052Y206010D01*
X246980Y206039D01*
X246911Y206076D01*
X246866Y206085D01*
X246824Y206102D01*
X246688Y206117D01*
X246669Y206120D01*
X246664Y206119D01*
X246657Y206120D01*
X242412Y206120D01*
X242322Y206106D01*
X242231Y206098D01*
X242201Y206086D01*
X242169Y206081D01*
X242088Y206038D01*
X242005Y206002D01*
X241972Y205976D01*
X241952Y205965D01*
X241930Y205942D01*
X241874Y205897D01*
X232509Y196533D01*
X232441Y196439D01*
X232371Y196344D01*
X232369Y196338D01*
X232366Y196333D01*
X232332Y196222D01*
X232295Y196110D01*
X232295Y196104D01*
X232293Y196098D01*
X232296Y195981D01*
X232298Y195865D01*
X232300Y195857D01*
X232300Y195852D01*
X232306Y195835D01*
X232344Y195703D01*
X233027Y194056D01*
X233027Y190544D01*
X231683Y187300D01*
X229200Y184817D01*
X225956Y183473D01*
X222444Y183473D01*
X219200Y184817D01*
X216717Y187300D01*
X215373Y190544D01*
X215373Y194056D01*
X216717Y197300D01*
X219160Y199743D01*
X219171Y199759D01*
X219187Y199771D01*
X219243Y199858D01*
X219303Y199942D01*
X219309Y199961D01*
X219320Y199978D01*
X219345Y200079D01*
X219376Y200177D01*
X219375Y200197D01*
X219380Y200217D01*
X219372Y200320D01*
X219369Y200423D01*
X219362Y200442D01*
X219361Y200462D01*
X219321Y200557D01*
X219285Y200654D01*
X219272Y200670D01*
X219265Y200688D01*
X219160Y200819D01*
X218312Y201667D01*
X217454Y203738D01*
X217430Y203777D01*
X217414Y203820D01*
X217365Y203881D01*
X217324Y203947D01*
X217289Y203977D01*
X217260Y204012D01*
X217195Y204054D01*
X217135Y204104D01*
X217092Y204120D01*
X217053Y204145D01*
X216978Y204164D01*
X216905Y204192D01*
X216859Y204194D01*
X216815Y204205D01*
X216737Y204199D01*
X216659Y204203D01*
X216615Y204190D01*
X216570Y204186D01*
X216498Y204156D01*
X216423Y204134D01*
X216386Y204108D01*
X216343Y204090D01*
X216237Y204005D01*
X216221Y203994D01*
X216218Y203990D01*
X216212Y203985D01*
X211143Y198916D01*
X211132Y198900D01*
X211116Y198887D01*
X211060Y198800D01*
X211000Y198716D01*
X210994Y198697D01*
X210983Y198681D01*
X210958Y198580D01*
X210927Y198481D01*
X210928Y198461D01*
X210923Y198442D01*
X210931Y198339D01*
X210934Y198235D01*
X210941Y198217D01*
X210942Y198197D01*
X210983Y198102D01*
X211018Y198004D01*
X211031Y197989D01*
X211039Y197971D01*
X211143Y197840D01*
X211683Y197300D01*
X213027Y194056D01*
X213027Y190544D01*
X211683Y187300D01*
X209200Y184817D01*
X205956Y183473D01*
X202444Y183473D01*
X199200Y184817D01*
X198912Y185105D01*
X198854Y185147D01*
X198802Y185196D01*
X198755Y185218D01*
X198713Y185248D01*
X198644Y185269D01*
X198579Y185300D01*
X198527Y185305D01*
X198477Y185321D01*
X198406Y185319D01*
X198335Y185327D01*
X198284Y185316D01*
X198232Y185314D01*
X198164Y185290D01*
X198094Y185275D01*
X198049Y185248D01*
X198001Y185230D01*
X197945Y185185D01*
X197883Y185148D01*
X197849Y185109D01*
X197809Y185076D01*
X197770Y185016D01*
X197723Y184961D01*
X197704Y184913D01*
X197676Y184869D01*
X197658Y184800D01*
X197631Y184733D01*
X197623Y184662D01*
X197615Y184631D01*
X197617Y184608D01*
X197613Y184567D01*
X197613Y140033D01*
X197624Y139963D01*
X197626Y139891D01*
X197644Y139842D01*
X197652Y139791D01*
X197686Y139727D01*
X197711Y139660D01*
X197743Y139619D01*
X197768Y139573D01*
X197819Y139524D01*
X197864Y139468D01*
X197908Y139440D01*
X197946Y139404D01*
X198011Y139374D01*
X198071Y139335D01*
X198122Y139322D01*
X198169Y139300D01*
X198240Y139292D01*
X198310Y139275D01*
X198362Y139279D01*
X198413Y139273D01*
X198484Y139288D01*
X198555Y139294D01*
X198603Y139314D01*
X198654Y139325D01*
X198715Y139362D01*
X198781Y139390D01*
X198837Y139435D01*
X198865Y139452D01*
X198880Y139469D01*
X198912Y139495D01*
X199200Y139783D01*
X202444Y141127D01*
X205956Y141127D01*
X209200Y139783D01*
X211683Y137300D01*
X213027Y134056D01*
X213027Y130544D01*
X211683Y127300D01*
X209200Y124817D01*
X205956Y123473D01*
X202444Y123473D01*
X199200Y124817D01*
X198912Y125105D01*
X198854Y125147D01*
X198802Y125196D01*
X198755Y125218D01*
X198713Y125248D01*
X198644Y125269D01*
X198579Y125300D01*
X198527Y125305D01*
X198477Y125321D01*
X198406Y125319D01*
X198335Y125327D01*
X198284Y125316D01*
X198232Y125314D01*
X198164Y125290D01*
X198094Y125275D01*
X198049Y125248D01*
X198001Y125230D01*
X197945Y125185D01*
X197883Y125148D01*
X197849Y125109D01*
X197809Y125076D01*
X197770Y125016D01*
X197723Y124961D01*
X197704Y124913D01*
X197676Y124869D01*
X197658Y124800D01*
X197631Y124733D01*
X197623Y124662D01*
X197615Y124631D01*
X197617Y124608D01*
X197613Y124567D01*
X197613Y103156D01*
X197627Y103066D01*
X197635Y102975D01*
X197647Y102946D01*
X197652Y102914D01*
X197695Y102833D01*
X197731Y102749D01*
X197757Y102717D01*
X197768Y102696D01*
X197791Y102674D01*
X197836Y102618D01*
X219880Y80573D01*
X219974Y80506D01*
X220069Y80435D01*
X220075Y80433D01*
X220080Y80430D01*
X220191Y80396D01*
X220303Y80359D01*
X220309Y80359D01*
X220315Y80357D01*
X220432Y80361D01*
X220549Y80362D01*
X220556Y80364D01*
X220561Y80364D01*
X220579Y80370D01*
X220710Y80408D01*
X222444Y81127D01*
X225956Y81127D01*
X229200Y79783D01*
X231683Y77300D01*
X233027Y74056D01*
X233027Y70544D01*
X231683Y67300D01*
X229200Y64817D01*
X225956Y63473D01*
X222444Y63473D01*
X219200Y64817D01*
X216717Y67300D01*
X215373Y70544D01*
X215373Y74056D01*
X215672Y74776D01*
X215698Y74890D01*
X215727Y75003D01*
X215726Y75009D01*
X215728Y75015D01*
X215717Y75132D01*
X215708Y75248D01*
X215705Y75254D01*
X215705Y75260D01*
X215657Y75368D01*
X215611Y75475D01*
X215607Y75481D01*
X215605Y75485D01*
X215592Y75499D01*
X215507Y75606D01*
X212883Y78229D01*
X212804Y78286D01*
X212729Y78348D01*
X212705Y78357D01*
X212684Y78372D01*
X212590Y78401D01*
X212500Y78436D01*
X212474Y78437D01*
X212449Y78445D01*
X212351Y78442D01*
X212254Y78446D01*
X212229Y78439D01*
X212203Y78438D01*
X212111Y78405D01*
X212018Y78378D01*
X211996Y78363D01*
X211972Y78354D01*
X211896Y78293D01*
X211816Y78238D01*
X211800Y78217D01*
X211780Y78200D01*
X211727Y78118D01*
X211669Y78040D01*
X211661Y78015D01*
X211647Y77993D01*
X211623Y77899D01*
X211593Y77806D01*
X211593Y77780D01*
X211587Y77755D01*
X211594Y77658D01*
X211595Y77560D01*
X211604Y77529D01*
X211606Y77510D01*
X211619Y77479D01*
X211642Y77399D01*
X213027Y74056D01*
X213027Y70544D01*
X211683Y67300D01*
X209200Y64817D01*
X205956Y63473D01*
X202444Y63473D01*
X199200Y64817D01*
X196717Y67300D01*
X195373Y70544D01*
X195373Y74056D01*
X196717Y77300D01*
X199200Y79783D01*
X202444Y81127D01*
X205956Y81127D01*
X209299Y79742D01*
X209394Y79720D01*
X209487Y79691D01*
X209513Y79692D01*
X209539Y79686D01*
X209636Y79695D01*
X209733Y79697D01*
X209758Y79706D01*
X209784Y79709D01*
X209872Y79748D01*
X209964Y79782D01*
X209984Y79798D01*
X210008Y79809D01*
X210080Y79875D01*
X210156Y79935D01*
X210170Y79957D01*
X210189Y79975D01*
X210236Y80060D01*
X210289Y80142D01*
X210295Y80168D01*
X210308Y80191D01*
X210325Y80287D01*
X210349Y80381D01*
X210347Y80407D01*
X210352Y80433D01*
X210338Y80529D01*
X210330Y80626D01*
X210320Y80650D01*
X210316Y80676D01*
X210272Y80763D01*
X210234Y80852D01*
X210213Y80878D01*
X210204Y80895D01*
X210181Y80919D01*
X210129Y80983D01*
X191007Y100105D01*
X191007Y124787D01*
X190996Y124857D01*
X190994Y124929D01*
X190976Y124978D01*
X190968Y125029D01*
X190934Y125093D01*
X190909Y125160D01*
X190877Y125201D01*
X190852Y125247D01*
X190801Y125296D01*
X190756Y125352D01*
X190712Y125380D01*
X190674Y125416D01*
X190609Y125446D01*
X190549Y125485D01*
X190498Y125498D01*
X190451Y125520D01*
X190380Y125528D01*
X190310Y125545D01*
X190258Y125541D01*
X190207Y125547D01*
X190136Y125532D01*
X190065Y125526D01*
X190017Y125506D01*
X189966Y125495D01*
X189905Y125458D01*
X189839Y125430D01*
X189783Y125385D01*
X189755Y125368D01*
X189740Y125351D01*
X189708Y125325D01*
X189200Y124817D01*
X188367Y124472D01*
X188268Y124411D01*
X188168Y124351D01*
X188163Y124346D01*
X188158Y124342D01*
X188084Y124253D01*
X188008Y124164D01*
X188005Y124158D01*
X188001Y124153D01*
X187960Y124045D01*
X187916Y123936D01*
X187915Y123928D01*
X187913Y123923D01*
X187912Y123905D01*
X187897Y123769D01*
X187897Y80831D01*
X187916Y80717D01*
X187933Y80600D01*
X187936Y80595D01*
X187937Y80588D01*
X187991Y80486D01*
X188045Y80381D01*
X188049Y80377D01*
X188052Y80371D01*
X188137Y80291D01*
X188220Y80209D01*
X188227Y80205D01*
X188230Y80202D01*
X188247Y80194D01*
X188367Y80128D01*
X189200Y79783D01*
X191683Y77300D01*
X193027Y74056D01*
X193027Y70544D01*
X191683Y67300D01*
X189200Y64817D01*
X185956Y63473D01*
X182444Y63473D01*
X179200Y64817D01*
X176717Y67300D01*
X175373Y70544D01*
X175373Y74056D01*
X176717Y77300D01*
X179200Y79783D01*
X180822Y80455D01*
X180922Y80517D01*
X181021Y80576D01*
X181025Y80581D01*
X181031Y80584D01*
X181106Y80675D01*
X181181Y80763D01*
X181184Y80769D01*
X181188Y80774D01*
X181229Y80882D01*
X181273Y80991D01*
X181274Y80999D01*
X181276Y81003D01*
X181277Y81022D01*
X181292Y81158D01*
X181292Y97409D01*
X181289Y97429D01*
X181291Y97448D01*
X181269Y97550D01*
X181252Y97652D01*
X181243Y97669D01*
X181238Y97689D01*
X181185Y97778D01*
X181137Y97869D01*
X181123Y97883D01*
X181112Y97900D01*
X181034Y97967D01*
X180959Y98039D01*
X180941Y98047D01*
X180925Y98060D01*
X180829Y98099D01*
X180736Y98142D01*
X180716Y98144D01*
X180697Y98152D01*
X180531Y98170D01*
X130331Y98170D01*
X128173Y100328D01*
X119883Y108618D01*
X119804Y108675D01*
X119729Y108737D01*
X119705Y108746D01*
X119684Y108761D01*
X119591Y108790D01*
X119500Y108825D01*
X119474Y108826D01*
X119449Y108834D01*
X119351Y108831D01*
X119254Y108835D01*
X119229Y108828D01*
X119203Y108827D01*
X119111Y108794D01*
X119018Y108767D01*
X118996Y108752D01*
X118972Y108743D01*
X118896Y108682D01*
X118816Y108627D01*
X118800Y108606D01*
X118780Y108589D01*
X118727Y108507D01*
X118669Y108429D01*
X118661Y108404D01*
X118647Y108382D01*
X118623Y108288D01*
X118593Y108195D01*
X118593Y108169D01*
X118587Y108144D01*
X118594Y108047D01*
X118595Y107949D01*
X118604Y107918D01*
X118606Y107899D01*
X118619Y107868D01*
X118642Y107788D01*
X119416Y105919D01*
X119416Y103988D01*
X119431Y103898D01*
X119438Y103807D01*
X119451Y103777D01*
X119456Y103745D01*
X119499Y103665D01*
X119534Y103581D01*
X119560Y103549D01*
X119571Y103528D01*
X119594Y103506D01*
X119639Y103450D01*
X154074Y69015D01*
X154132Y68973D01*
X154184Y68924D01*
X154231Y68902D01*
X154273Y68872D01*
X154342Y68851D01*
X154407Y68820D01*
X154459Y68815D01*
X154509Y68799D01*
X154580Y68801D01*
X154651Y68793D01*
X154702Y68804D01*
X154754Y68806D01*
X154822Y68830D01*
X154892Y68846D01*
X154937Y68872D01*
X154985Y68890D01*
X155041Y68935D01*
X155103Y68972D01*
X155137Y69011D01*
X155177Y69044D01*
X155216Y69104D01*
X155263Y69159D01*
X155282Y69207D01*
X155310Y69251D01*
X155328Y69320D01*
X155355Y69387D01*
X155363Y69458D01*
X155371Y69489D01*
X155369Y69513D01*
X155373Y69554D01*
X155373Y79787D01*
X156713Y81127D01*
X171687Y81127D01*
X173027Y79787D01*
X173027Y68729D01*
X173041Y68639D01*
X173049Y68548D01*
X173061Y68518D01*
X173066Y68486D01*
X173109Y68406D01*
X173145Y68322D01*
X173171Y68290D01*
X173182Y68269D01*
X173205Y68247D01*
X173250Y68191D01*
X197719Y43721D01*
X197793Y43668D01*
X197863Y43609D01*
X197893Y43596D01*
X197919Y43578D01*
X198006Y43551D01*
X198091Y43517D01*
X198132Y43512D01*
X198154Y43505D01*
X198186Y43506D01*
X198258Y43498D01*
X273539Y43498D01*
X273584Y43506D01*
X273630Y43504D01*
X273705Y43525D01*
X273782Y43538D01*
X273822Y43559D01*
X273867Y43572D01*
X273931Y43617D01*
X273999Y43653D01*
X274031Y43686D01*
X274069Y43713D01*
X274115Y43775D01*
X274169Y43831D01*
X274188Y43873D01*
X274215Y43910D01*
X274240Y43984D01*
X274272Y44054D01*
X274277Y44100D01*
X274292Y44144D01*
X274291Y44222D01*
X274299Y44299D01*
X274290Y44344D01*
X274289Y44390D01*
X274251Y44521D01*
X274247Y44539D01*
X274245Y44544D01*
X274243Y44551D01*
X273522Y46291D01*
X273522Y48705D01*
X274446Y50936D01*
X276153Y52643D01*
X278383Y53567D01*
X280798Y53567D01*
X283028Y52643D01*
X284393Y51278D01*
X284467Y51224D01*
X284537Y51165D01*
X284567Y51153D01*
X284593Y51134D01*
X284680Y51107D01*
X284765Y51073D01*
X284806Y51069D01*
X284828Y51062D01*
X284860Y51063D01*
X284932Y51055D01*
X294760Y51055D01*
X294850Y51069D01*
X294941Y51077D01*
X294971Y51089D01*
X295003Y51094D01*
X295083Y51137D01*
X295167Y51173D01*
X295199Y51199D01*
X295220Y51210D01*
X295242Y51233D01*
X295298Y51278D01*
X296663Y52643D01*
X298480Y53395D01*
X298519Y53420D01*
X298562Y53435D01*
X298623Y53484D01*
X298689Y53525D01*
X298718Y53560D01*
X298754Y53589D01*
X298796Y53654D01*
X298846Y53714D01*
X298862Y53757D01*
X298887Y53796D01*
X298906Y53871D01*
X298934Y53944D01*
X298936Y53990D01*
X298947Y54034D01*
X298941Y54112D01*
X298945Y54190D01*
X298932Y54234D01*
X298928Y54280D01*
X298898Y54351D01*
X298876Y54426D01*
X298850Y54464D01*
X298832Y54506D01*
X298747Y54613D01*
X298736Y54628D01*
X298732Y54631D01*
X298727Y54637D01*
X285897Y67467D01*
X285823Y67520D01*
X285753Y67580D01*
X285723Y67592D01*
X285697Y67611D01*
X285610Y67638D01*
X285525Y67672D01*
X285484Y67676D01*
X285462Y67683D01*
X285430Y67682D01*
X285358Y67690D01*
X272353Y67690D01*
X272238Y67671D01*
X272122Y67654D01*
X272117Y67652D01*
X272110Y67651D01*
X272007Y67596D01*
X271903Y67543D01*
X271898Y67538D01*
X271893Y67535D01*
X271813Y67451D01*
X271731Y67367D01*
X271727Y67361D01*
X271724Y67357D01*
X271716Y67340D01*
X271707Y67324D01*
X269200Y64817D01*
X265956Y63473D01*
X262444Y63473D01*
X259200Y64817D01*
X256717Y67300D01*
X255373Y70544D01*
X255373Y74056D01*
X256492Y76757D01*
X256509Y76827D01*
X256534Y76894D01*
X256537Y76946D01*
X256548Y76997D01*
X256542Y77068D01*
X256545Y77140D01*
X256530Y77190D01*
X256525Y77241D01*
X256496Y77307D01*
X256476Y77376D01*
X256446Y77419D01*
X256425Y77466D01*
X256377Y77519D01*
X256336Y77578D01*
X256294Y77609D01*
X256259Y77647D01*
X256196Y77682D01*
X256139Y77725D01*
X256089Y77741D01*
X256043Y77766D01*
X255973Y77779D01*
X255905Y77801D01*
X255853Y77800D01*
X255801Y77810D01*
X255730Y77799D01*
X255659Y77798D01*
X255590Y77779D01*
X255558Y77774D01*
X255537Y77763D01*
X255498Y77752D01*
X253810Y77053D01*
X253200Y77053D01*
X253154Y77045D01*
X253108Y77047D01*
X253033Y77026D01*
X252957Y77013D01*
X252916Y76992D01*
X252872Y76979D01*
X252808Y76934D01*
X252739Y76898D01*
X252708Y76865D01*
X252670Y76838D01*
X252624Y76776D01*
X252570Y76720D01*
X252551Y76678D01*
X252523Y76641D01*
X252499Y76567D01*
X252466Y76497D01*
X252461Y76451D01*
X252447Y76407D01*
X252448Y76329D01*
X252439Y76252D01*
X252449Y76207D01*
X252449Y76161D01*
X252488Y76030D01*
X252492Y76012D01*
X252494Y76007D01*
X252496Y76000D01*
X252932Y74949D01*
X253156Y73823D01*
X245723Y73823D01*
X245723Y81272D01*
X245812Y81262D01*
X245841Y81268D01*
X245870Y81267D01*
X245961Y81294D01*
X246053Y81314D01*
X246078Y81329D01*
X246106Y81337D01*
X246183Y81392D01*
X246264Y81440D01*
X246283Y81462D01*
X246307Y81479D01*
X246363Y81555D01*
X246424Y81627D01*
X246435Y81654D01*
X246452Y81678D01*
X246480Y81768D01*
X246516Y81855D01*
X246520Y81892D01*
X246526Y81912D01*
X246526Y81945D01*
X246534Y82022D01*
X246534Y84329D01*
X247458Y86559D01*
X249165Y88266D01*
X251396Y89190D01*
X253810Y89190D01*
X256041Y88266D01*
X257660Y86647D01*
X257734Y86594D01*
X257803Y86535D01*
X257833Y86522D01*
X257860Y86504D01*
X257946Y86477D01*
X258031Y86443D01*
X258072Y86438D01*
X258095Y86431D01*
X258127Y86432D01*
X258198Y86424D01*
X275803Y86424D01*
X275849Y86432D01*
X275895Y86430D01*
X275969Y86451D01*
X276046Y86464D01*
X276087Y86485D01*
X276131Y86498D01*
X276195Y86543D01*
X276264Y86579D01*
X276295Y86612D01*
X276333Y86639D01*
X276379Y86701D01*
X276433Y86757D01*
X276452Y86799D01*
X276480Y86836D01*
X276504Y86910D01*
X276537Y86980D01*
X276542Y87026D01*
X276556Y87070D01*
X276555Y87148D01*
X276564Y87225D01*
X276554Y87270D01*
X276553Y87316D01*
X276515Y87447D01*
X276511Y87465D01*
X276509Y87470D01*
X276507Y87477D01*
X275681Y89471D01*
X275681Y91885D01*
X276605Y94116D01*
X278224Y95735D01*
X278277Y95809D01*
X278336Y95878D01*
X278349Y95908D01*
X278367Y95935D01*
X278394Y96021D01*
X278428Y96106D01*
X278433Y96147D01*
X278440Y96170D01*
X278439Y96202D01*
X278447Y96273D01*
X278447Y103921D01*
X284699Y110173D01*
X366426Y110173D01*
X366516Y110188D01*
X366607Y110195D01*
X366637Y110208D01*
X366669Y110213D01*
X366750Y110256D01*
X366833Y110291D01*
X366866Y110317D01*
X366886Y110328D01*
X366908Y110351D01*
X366964Y110396D01*
X378742Y122174D01*
X378784Y122232D01*
X378833Y122284D01*
X378855Y122331D01*
X378886Y122373D01*
X378907Y122442D01*
X378937Y122507D01*
X378943Y122559D01*
X378958Y122609D01*
X378956Y122680D01*
X378964Y122751D01*
X378953Y122802D01*
X378952Y122854D01*
X378927Y122922D01*
X378912Y122992D01*
X378885Y123037D01*
X378867Y123085D01*
X378822Y123141D01*
X378785Y123203D01*
X378746Y123237D01*
X378713Y123277D01*
X378653Y123316D01*
X378599Y123363D01*
X378550Y123382D01*
X378506Y123410D01*
X378437Y123428D01*
X378370Y123455D01*
X378299Y123463D01*
X378268Y123471D01*
X378245Y123469D01*
X378204Y123473D01*
X377844Y123473D01*
X374600Y124817D01*
X372117Y127300D01*
X370773Y130544D01*
X370773Y134056D01*
X372117Y137300D01*
X374600Y139783D01*
X377844Y141127D01*
X381356Y141127D01*
X384600Y139783D01*
X387083Y137300D01*
X388427Y134056D01*
X388427Y133696D01*
X388438Y133626D01*
X388440Y133554D01*
X388458Y133505D01*
X388466Y133454D01*
X388500Y133390D01*
X388525Y133323D01*
X388557Y133282D01*
X388582Y133236D01*
X388633Y133187D01*
X388678Y133131D01*
X388722Y133103D01*
X388760Y133067D01*
X388825Y133037D01*
X388885Y132998D01*
X388936Y132985D01*
X388983Y132963D01*
X389054Y132955D01*
X389124Y132938D01*
X389176Y132942D01*
X389227Y132936D01*
X389298Y132951D01*
X389369Y132957D01*
X389417Y132977D01*
X389468Y132988D01*
X389529Y133025D01*
X389595Y133053D01*
X389651Y133098D01*
X389679Y133115D01*
X389694Y133132D01*
X389726Y133158D01*
X390772Y134204D01*
X390810Y134257D01*
X390856Y134304D01*
X390896Y134377D01*
X390915Y134403D01*
X390921Y134422D01*
X390937Y134450D01*
X392117Y137300D01*
X394600Y139783D01*
X397844Y141127D01*
X401356Y141127D01*
X404600Y139783D01*
X407083Y137300D01*
X408427Y134056D01*
X408427Y130544D01*
X407083Y127300D01*
X404600Y124817D01*
X401356Y123473D01*
X397844Y123473D01*
X394600Y124817D01*
X393202Y126215D01*
X393186Y126227D01*
X393173Y126243D01*
X393086Y126299D01*
X393002Y126359D01*
X392983Y126365D01*
X392966Y126376D01*
X392866Y126401D01*
X392767Y126431D01*
X392747Y126431D01*
X392728Y126436D01*
X392625Y126428D01*
X392521Y126425D01*
X392502Y126418D01*
X392482Y126417D01*
X392388Y126376D01*
X392290Y126340D01*
X392274Y126328D01*
X392256Y126320D01*
X392125Y126215D01*
X371635Y105725D01*
X369478Y103568D01*
X354172Y103568D01*
X354101Y103556D01*
X354029Y103554D01*
X353980Y103536D01*
X353929Y103528D01*
X353866Y103494D01*
X353798Y103470D01*
X353758Y103437D01*
X353712Y103413D01*
X353662Y103361D01*
X353606Y103316D01*
X353578Y103272D01*
X353542Y103235D01*
X353512Y103170D01*
X353473Y103109D01*
X353461Y103059D01*
X353439Y103012D01*
X353431Y102940D01*
X353413Y102871D01*
X353417Y102819D01*
X353412Y102767D01*
X353427Y102697D01*
X353432Y102626D01*
X353453Y102578D01*
X353464Y102527D01*
X353501Y102465D01*
X353529Y102399D01*
X353573Y102343D01*
X353590Y102316D01*
X353608Y102300D01*
X353634Y102268D01*
X375314Y80587D01*
X375408Y80520D01*
X375503Y80450D01*
X375509Y80448D01*
X375514Y80444D01*
X375625Y80410D01*
X375737Y80373D01*
X375743Y80373D01*
X375749Y80372D01*
X375866Y80375D01*
X375983Y80376D01*
X375990Y80378D01*
X375995Y80378D01*
X376013Y80384D01*
X376144Y80422D01*
X377844Y81127D01*
X381356Y81127D01*
X382836Y80514D01*
X382949Y80487D01*
X383063Y80458D01*
X383069Y80459D01*
X383075Y80457D01*
X383192Y80468D01*
X383308Y80478D01*
X383314Y80480D01*
X383320Y80481D01*
X383428Y80528D01*
X383534Y80574D01*
X383540Y80579D01*
X383545Y80581D01*
X383559Y80593D01*
X383665Y80679D01*
X389411Y86424D01*
X424719Y86424D01*
X424809Y86439D01*
X424900Y86446D01*
X424930Y86459D01*
X424962Y86464D01*
X425043Y86507D01*
X425126Y86542D01*
X425159Y86568D01*
X425179Y86579D01*
X425201Y86602D01*
X425257Y86647D01*
X474300Y135690D01*
X474353Y135764D01*
X474413Y135833D01*
X474425Y135864D01*
X474444Y135890D01*
X474471Y135977D01*
X474505Y136062D01*
X474509Y136103D01*
X474516Y136125D01*
X474515Y136157D01*
X474523Y136228D01*
X474523Y143277D01*
X482145Y143277D01*
X482145Y142240D01*
X482148Y142220D01*
X482146Y142201D01*
X482168Y142099D01*
X482184Y141997D01*
X482194Y141980D01*
X482198Y141960D01*
X482251Y141871D01*
X482300Y141780D01*
X482314Y141766D01*
X482324Y141749D01*
X482403Y141682D01*
X482478Y141610D01*
X482496Y141602D01*
X482511Y141589D01*
X482607Y141550D01*
X482701Y141507D01*
X482721Y141505D01*
X482739Y141497D01*
X482906Y141479D01*
X486890Y141479D01*
X486980Y141493D01*
X487071Y141501D01*
X487101Y141513D01*
X487133Y141518D01*
X487213Y141561D01*
X487297Y141597D01*
X487329Y141623D01*
X487350Y141634D01*
X487372Y141657D01*
X487428Y141702D01*
X492817Y147091D01*
X500183Y147091D01*
X505391Y141883D01*
X505391Y134517D01*
X500183Y129309D01*
X492817Y129309D01*
X487476Y134650D01*
X487402Y134703D01*
X487333Y134763D01*
X487303Y134775D01*
X487277Y134794D01*
X487190Y134821D01*
X487105Y134855D01*
X487064Y134859D01*
X487041Y134866D01*
X487009Y134865D01*
X486938Y134873D01*
X483140Y134873D01*
X483050Y134859D01*
X482959Y134851D01*
X482930Y134839D01*
X482898Y134834D01*
X482817Y134791D01*
X482733Y134755D01*
X482701Y134729D01*
X482680Y134718D01*
X482658Y134695D01*
X482602Y134650D01*
X427771Y79819D01*
X406402Y79819D01*
X406331Y79807D01*
X406259Y79805D01*
X406211Y79787D01*
X406159Y79779D01*
X406096Y79745D01*
X406028Y79721D01*
X405988Y79688D01*
X405942Y79664D01*
X405892Y79612D01*
X405836Y79567D01*
X405808Y79523D01*
X405772Y79486D01*
X405742Y79421D01*
X405703Y79360D01*
X405691Y79310D01*
X405669Y79263D01*
X405661Y79191D01*
X405643Y79122D01*
X405647Y79070D01*
X405642Y79018D01*
X405657Y78948D01*
X405663Y78877D01*
X405683Y78829D01*
X405694Y78778D01*
X405731Y78716D01*
X405759Y78650D01*
X405804Y78594D01*
X405820Y78567D01*
X405838Y78551D01*
X405864Y78519D01*
X407083Y77300D01*
X408427Y74056D01*
X408427Y70544D01*
X407083Y67300D01*
X404600Y64817D01*
X401356Y63473D01*
X397844Y63473D01*
X394600Y64817D01*
X393428Y65989D01*
X393412Y66001D01*
X393399Y66017D01*
X393312Y66073D01*
X393228Y66133D01*
X393209Y66139D01*
X393192Y66150D01*
X393092Y66175D01*
X392993Y66205D01*
X392973Y66205D01*
X392954Y66210D01*
X392851Y66202D01*
X392747Y66199D01*
X392728Y66192D01*
X392708Y66191D01*
X392614Y66150D01*
X392516Y66114D01*
X392500Y66102D01*
X392482Y66094D01*
X392351Y65989D01*
X386748Y60386D01*
X384591Y58229D01*
X307033Y58229D01*
X306962Y58217D01*
X306891Y58215D01*
X306842Y58197D01*
X306790Y58189D01*
X306727Y58155D01*
X306660Y58131D01*
X306619Y58098D01*
X306573Y58074D01*
X306524Y58022D01*
X306468Y57977D01*
X306439Y57933D01*
X306404Y57896D01*
X306373Y57831D01*
X306335Y57770D01*
X306322Y57720D01*
X306300Y57673D01*
X306292Y57601D01*
X306274Y57532D01*
X306279Y57480D01*
X306273Y57428D01*
X306288Y57358D01*
X306294Y57287D01*
X306314Y57239D01*
X306325Y57188D01*
X306362Y57126D01*
X306390Y57060D01*
X306435Y57004D01*
X306451Y56977D01*
X306469Y56961D01*
X306495Y56929D01*
X334794Y28630D01*
X334847Y28592D01*
X334894Y28546D01*
X334967Y28505D01*
X334994Y28486D01*
X335013Y28480D01*
X335041Y28465D01*
X337540Y27430D01*
X340006Y24964D01*
X341340Y21743D01*
X341340Y18257D01*
X340006Y15036D01*
X337540Y12570D01*
X335258Y11625D01*
X335175Y11574D01*
X335090Y11528D01*
X335072Y11510D01*
X335049Y11496D01*
X334987Y11420D01*
X334920Y11350D01*
X334909Y11326D01*
X334892Y11306D01*
X334858Y11215D01*
X334817Y11127D01*
X334814Y11101D01*
X334804Y11077D01*
X334800Y10979D01*
X334789Y10883D01*
X334795Y10857D01*
X334794Y10831D01*
X334821Y10737D01*
X334842Y10642D01*
X334855Y10620D01*
X334862Y10595D01*
X334918Y10515D01*
X334968Y10431D01*
X334988Y10414D01*
X335003Y10393D01*
X335081Y10334D01*
X335155Y10271D01*
X335179Y10261D01*
X335200Y10246D01*
X335293Y10216D01*
X335383Y10179D01*
X335415Y10176D01*
X335434Y10170D01*
X335467Y10170D01*
X335550Y10161D01*
X435628Y10161D01*
X435699Y10172D01*
G37*
G36*
X54699Y10172D02*
X54699Y10172D01*
X54771Y10174D01*
X54819Y10192D01*
X54871Y10200D01*
X54934Y10234D01*
X55002Y10259D01*
X55042Y10291D01*
X55088Y10316D01*
X55138Y10368D01*
X55194Y10412D01*
X55222Y10456D01*
X55258Y10494D01*
X55288Y10559D01*
X55327Y10619D01*
X55339Y10670D01*
X55361Y10717D01*
X55369Y10788D01*
X55387Y10858D01*
X55383Y10910D01*
X55388Y10961D01*
X55373Y11032D01*
X55367Y11103D01*
X55347Y11151D01*
X55336Y11202D01*
X55299Y11263D01*
X55271Y11329D01*
X55226Y11385D01*
X55210Y11413D01*
X55192Y11428D01*
X55166Y11460D01*
X51109Y15517D01*
X51109Y22883D01*
X56317Y28091D01*
X63757Y28091D01*
X63759Y28090D01*
X63859Y28064D01*
X63958Y28034D01*
X63978Y28034D01*
X63998Y28030D01*
X64101Y28038D01*
X64204Y28040D01*
X64223Y28047D01*
X64243Y28049D01*
X64338Y28089D01*
X64435Y28125D01*
X64451Y28137D01*
X64469Y28145D01*
X64600Y28250D01*
X101184Y64834D01*
X122865Y64834D01*
X122956Y64849D01*
X123046Y64856D01*
X123076Y64869D01*
X123108Y64874D01*
X123189Y64917D01*
X123273Y64952D01*
X123305Y64978D01*
X123326Y64989D01*
X123348Y65012D01*
X123404Y65057D01*
X125023Y66676D01*
X127253Y67600D01*
X129668Y67600D01*
X131898Y66676D01*
X133605Y64969D01*
X134529Y62739D01*
X134529Y60324D01*
X133605Y58094D01*
X131898Y56387D01*
X129668Y55463D01*
X127253Y55463D01*
X125023Y56387D01*
X123404Y58006D01*
X123330Y58059D01*
X123260Y58118D01*
X123230Y58131D01*
X123204Y58149D01*
X123117Y58176D01*
X123032Y58210D01*
X122991Y58215D01*
X122969Y58222D01*
X122937Y58221D01*
X122865Y58229D01*
X104236Y58229D01*
X104146Y58214D01*
X104055Y58207D01*
X104025Y58194D01*
X103993Y58189D01*
X103912Y58146D01*
X103829Y58111D01*
X103796Y58085D01*
X103776Y58074D01*
X103754Y58051D01*
X103698Y58006D01*
X69114Y23422D01*
X69061Y23348D01*
X69001Y23279D01*
X68989Y23248D01*
X68970Y23222D01*
X68943Y23135D01*
X68909Y23050D01*
X68905Y23009D01*
X68898Y22987D01*
X68899Y22955D01*
X68891Y22884D01*
X68891Y15517D01*
X64834Y11460D01*
X64792Y11402D01*
X64742Y11350D01*
X64720Y11303D01*
X64690Y11261D01*
X64669Y11192D01*
X64639Y11127D01*
X64633Y11075D01*
X64618Y11025D01*
X64620Y10954D01*
X64612Y10883D01*
X64623Y10832D01*
X64624Y10780D01*
X64649Y10712D01*
X64664Y10642D01*
X64691Y10597D01*
X64709Y10549D01*
X64753Y10493D01*
X64790Y10431D01*
X64830Y10397D01*
X64862Y10357D01*
X64923Y10318D01*
X64977Y10271D01*
X65025Y10252D01*
X65069Y10224D01*
X65139Y10206D01*
X65205Y10179D01*
X65277Y10171D01*
X65308Y10163D01*
X65331Y10165D01*
X65372Y10161D01*
X88628Y10161D01*
X88699Y10172D01*
X88771Y10174D01*
X88819Y10192D01*
X88871Y10200D01*
X88934Y10234D01*
X89002Y10259D01*
X89042Y10291D01*
X89088Y10316D01*
X89138Y10368D01*
X89194Y10412D01*
X89222Y10456D01*
X89258Y10494D01*
X89288Y10559D01*
X89327Y10619D01*
X89339Y10670D01*
X89361Y10717D01*
X89369Y10788D01*
X89387Y10858D01*
X89383Y10910D01*
X89388Y10961D01*
X89373Y11032D01*
X89367Y11103D01*
X89347Y11151D01*
X89336Y11202D01*
X89299Y11263D01*
X89271Y11329D01*
X89226Y11385D01*
X89210Y11413D01*
X89192Y11428D01*
X89166Y11460D01*
X85109Y15517D01*
X85109Y22883D01*
X90317Y28091D01*
X97683Y28091D01*
X102891Y22883D01*
X102891Y15517D01*
X98834Y11460D01*
X98792Y11402D01*
X98742Y11350D01*
X98720Y11303D01*
X98690Y11261D01*
X98669Y11192D01*
X98639Y11127D01*
X98633Y11075D01*
X98618Y11025D01*
X98620Y10954D01*
X98612Y10883D01*
X98623Y10832D01*
X98624Y10780D01*
X98649Y10712D01*
X98664Y10642D01*
X98691Y10597D01*
X98709Y10549D01*
X98753Y10493D01*
X98790Y10431D01*
X98830Y10397D01*
X98862Y10357D01*
X98923Y10318D01*
X98977Y10271D01*
X99025Y10252D01*
X99069Y10224D01*
X99139Y10206D01*
X99205Y10179D01*
X99277Y10171D01*
X99308Y10163D01*
X99331Y10165D01*
X99372Y10161D01*
X224314Y10161D01*
X224384Y10172D01*
X224456Y10174D01*
X224505Y10192D01*
X224556Y10200D01*
X224620Y10234D01*
X224687Y10259D01*
X224728Y10291D01*
X224774Y10316D01*
X224823Y10368D01*
X224879Y10412D01*
X224907Y10456D01*
X224943Y10494D01*
X224973Y10559D01*
X225012Y10619D01*
X225025Y10670D01*
X225047Y10717D01*
X225055Y10788D01*
X225072Y10858D01*
X225068Y10910D01*
X225074Y10961D01*
X225059Y11032D01*
X225053Y11103D01*
X225033Y11151D01*
X225022Y11202D01*
X224985Y11263D01*
X224957Y11329D01*
X224912Y11385D01*
X224895Y11413D01*
X224878Y11428D01*
X224852Y11460D01*
X223736Y12576D01*
X223736Y27424D01*
X225076Y28764D01*
X239924Y28764D01*
X241264Y27424D01*
X241264Y12576D01*
X240148Y11460D01*
X240106Y11402D01*
X240057Y11350D01*
X240035Y11303D01*
X240005Y11261D01*
X239984Y11192D01*
X239953Y11127D01*
X239948Y11075D01*
X239932Y11025D01*
X239934Y10954D01*
X239926Y10883D01*
X239937Y10832D01*
X239939Y10780D01*
X239963Y10712D01*
X239978Y10642D01*
X240005Y10597D01*
X240023Y10549D01*
X240068Y10493D01*
X240105Y10431D01*
X240144Y10397D01*
X240177Y10357D01*
X240237Y10318D01*
X240292Y10271D01*
X240340Y10252D01*
X240384Y10224D01*
X240453Y10206D01*
X240520Y10179D01*
X240591Y10171D01*
X240622Y10163D01*
X240646Y10165D01*
X240686Y10161D01*
X249592Y10161D01*
X249688Y10176D01*
X249785Y10186D01*
X249809Y10196D01*
X249835Y10200D01*
X249921Y10246D01*
X250010Y10286D01*
X250029Y10303D01*
X250052Y10316D01*
X250120Y10386D01*
X250191Y10452D01*
X250204Y10475D01*
X250222Y10494D01*
X250263Y10582D01*
X250310Y10668D01*
X250314Y10693D01*
X250325Y10717D01*
X250336Y10814D01*
X250353Y10910D01*
X250350Y10936D01*
X250353Y10961D01*
X250332Y11057D01*
X250318Y11153D01*
X250306Y11176D01*
X250300Y11202D01*
X250250Y11285D01*
X250206Y11372D01*
X250187Y11391D01*
X250174Y11413D01*
X250100Y11476D01*
X250031Y11544D01*
X250002Y11560D01*
X249987Y11573D01*
X249957Y11585D01*
X249884Y11625D01*
X247602Y12570D01*
X245136Y15036D01*
X243802Y18257D01*
X243802Y21743D01*
X245136Y24964D01*
X247602Y27430D01*
X250823Y28764D01*
X251515Y28764D01*
X251586Y28775D01*
X251658Y28777D01*
X251707Y28795D01*
X251758Y28803D01*
X251822Y28837D01*
X251889Y28862D01*
X251930Y28894D01*
X251976Y28919D01*
X252025Y28971D01*
X252081Y29015D01*
X252109Y29059D01*
X252145Y29097D01*
X252175Y29162D01*
X252214Y29222D01*
X252227Y29273D01*
X252249Y29320D01*
X252257Y29391D01*
X252274Y29461D01*
X252270Y29513D01*
X252276Y29564D01*
X252260Y29635D01*
X252255Y29706D01*
X252235Y29754D01*
X252223Y29805D01*
X252187Y29866D01*
X252159Y29932D01*
X252114Y29988D01*
X252097Y30016D01*
X252080Y30031D01*
X252054Y30063D01*
X251353Y30764D01*
X251279Y30818D01*
X251209Y30877D01*
X251179Y30889D01*
X251153Y30908D01*
X251066Y30935D01*
X250981Y30969D01*
X250940Y30973D01*
X250918Y30980D01*
X250886Y30979D01*
X250814Y30987D01*
X182042Y30987D01*
X114609Y98420D01*
X114535Y98473D01*
X114466Y98532D01*
X114436Y98545D01*
X114409Y98563D01*
X114323Y98590D01*
X114238Y98624D01*
X114197Y98629D01*
X114174Y98636D01*
X114142Y98635D01*
X114071Y98643D01*
X112140Y98643D01*
X109910Y99567D01*
X108203Y101274D01*
X107279Y103504D01*
X107279Y105919D01*
X108203Y108149D01*
X109910Y109856D01*
X112140Y110780D01*
X114555Y110780D01*
X116424Y110006D01*
X116519Y109984D01*
X116612Y109955D01*
X116638Y109956D01*
X116664Y109950D01*
X116761Y109959D01*
X116858Y109961D01*
X116883Y109970D01*
X116909Y109973D01*
X116997Y110012D01*
X117089Y110046D01*
X117109Y110062D01*
X117133Y110073D01*
X117205Y110139D01*
X117281Y110199D01*
X117295Y110221D01*
X117314Y110239D01*
X117361Y110325D01*
X117414Y110406D01*
X117420Y110432D01*
X117433Y110455D01*
X117450Y110551D01*
X117474Y110645D01*
X117472Y110671D01*
X117477Y110697D01*
X117463Y110793D01*
X117455Y110890D01*
X117445Y110914D01*
X117441Y110940D01*
X117397Y111027D01*
X117359Y111116D01*
X117338Y111142D01*
X117329Y111159D01*
X117306Y111183D01*
X117254Y111247D01*
X104190Y124311D01*
X104132Y124353D01*
X104080Y124402D01*
X104033Y124424D01*
X103991Y124455D01*
X103922Y124476D01*
X103857Y124506D01*
X103805Y124512D01*
X103755Y124527D01*
X103684Y124525D01*
X103613Y124533D01*
X103562Y124522D01*
X103510Y124521D01*
X103442Y124496D01*
X103372Y124481D01*
X103328Y124454D01*
X103279Y124436D01*
X103223Y124391D01*
X103161Y124354D01*
X103127Y124315D01*
X103087Y124282D01*
X103048Y124222D01*
X103001Y124168D01*
X102982Y124119D01*
X102954Y124075D01*
X102936Y124006D01*
X102909Y123939D01*
X102901Y123868D01*
X102893Y123837D01*
X102895Y123814D01*
X102891Y123773D01*
X102891Y117117D01*
X97683Y111909D01*
X90317Y111909D01*
X84986Y117241D01*
X84954Y117300D01*
X84940Y117314D01*
X84930Y117331D01*
X84851Y117398D01*
X84776Y117470D01*
X84758Y117478D01*
X84743Y117491D01*
X84647Y117530D01*
X84553Y117573D01*
X84533Y117575D01*
X84515Y117583D01*
X84348Y117601D01*
X69652Y117601D01*
X69632Y117598D01*
X69613Y117600D01*
X69511Y117578D01*
X69409Y117562D01*
X69392Y117552D01*
X69372Y117548D01*
X69283Y117495D01*
X69192Y117446D01*
X69178Y117432D01*
X69161Y117422D01*
X69094Y117343D01*
X69022Y117268D01*
X69014Y117250D01*
X69001Y117235D01*
X68996Y117223D01*
X63683Y111909D01*
X56443Y111909D01*
X56353Y111895D01*
X56262Y111887D01*
X56233Y111875D01*
X56201Y111870D01*
X56120Y111827D01*
X56036Y111791D01*
X56004Y111765D01*
X55983Y111754D01*
X55961Y111731D01*
X55905Y111686D01*
X33114Y88895D01*
X33061Y88821D01*
X33001Y88752D01*
X32989Y88721D01*
X32970Y88695D01*
X32943Y88608D01*
X32909Y88523D01*
X32905Y88482D01*
X32898Y88460D01*
X32899Y88428D01*
X32891Y88357D01*
X32891Y87517D01*
X27683Y82309D01*
X20317Y82309D01*
X15109Y87517D01*
X15109Y94883D01*
X20317Y100091D01*
X27683Y100091D01*
X30787Y96986D01*
X30803Y96975D01*
X30816Y96959D01*
X30903Y96903D01*
X30987Y96843D01*
X31006Y96837D01*
X31023Y96826D01*
X31123Y96801D01*
X31222Y96770D01*
X31242Y96771D01*
X31261Y96766D01*
X31364Y96774D01*
X31468Y96777D01*
X31487Y96784D01*
X31506Y96785D01*
X31601Y96826D01*
X31699Y96861D01*
X31714Y96874D01*
X31733Y96882D01*
X31864Y96986D01*
X51014Y116136D01*
X51025Y116153D01*
X51041Y116165D01*
X51097Y116252D01*
X51157Y116336D01*
X51163Y116355D01*
X51174Y116372D01*
X51199Y116472D01*
X51230Y116571D01*
X51229Y116591D01*
X51234Y116610D01*
X51226Y116713D01*
X51223Y116817D01*
X51216Y116836D01*
X51215Y116856D01*
X51174Y116950D01*
X51139Y117048D01*
X51126Y117064D01*
X51118Y117082D01*
X51109Y117093D01*
X51109Y124483D01*
X56317Y129691D01*
X63683Y129691D01*
X68944Y124430D01*
X69018Y124377D01*
X69087Y124317D01*
X69117Y124305D01*
X69143Y124286D01*
X69230Y124259D01*
X69315Y124225D01*
X69356Y124221D01*
X69379Y124214D01*
X69411Y124215D01*
X69482Y124207D01*
X84518Y124207D01*
X84608Y124221D01*
X84699Y124229D01*
X84729Y124241D01*
X84761Y124246D01*
X84841Y124289D01*
X84925Y124325D01*
X84957Y124351D01*
X84978Y124362D01*
X85000Y124385D01*
X85056Y124430D01*
X90317Y129691D01*
X96973Y129691D01*
X97043Y129702D01*
X97115Y129704D01*
X97164Y129722D01*
X97215Y129730D01*
X97279Y129764D01*
X97346Y129789D01*
X97387Y129821D01*
X97433Y129846D01*
X97482Y129898D01*
X97538Y129942D01*
X97566Y129986D01*
X97602Y130024D01*
X97632Y130089D01*
X97671Y130149D01*
X97684Y130200D01*
X97706Y130247D01*
X97714Y130318D01*
X97731Y130388D01*
X97727Y130440D01*
X97733Y130491D01*
X97718Y130562D01*
X97712Y130633D01*
X97692Y130681D01*
X97681Y130732D01*
X97644Y130793D01*
X97616Y130859D01*
X97571Y130915D01*
X97554Y130943D01*
X97537Y130958D01*
X97511Y130990D01*
X73340Y155161D01*
X73266Y155214D01*
X73197Y155273D01*
X73167Y155286D01*
X73141Y155304D01*
X73054Y155331D01*
X72969Y155365D01*
X72928Y155370D01*
X72906Y155377D01*
X72873Y155376D01*
X72802Y155384D01*
X69072Y155384D01*
X68982Y155369D01*
X68891Y155362D01*
X68862Y155349D01*
X68830Y155344D01*
X68749Y155301D01*
X68665Y155266D01*
X68633Y155240D01*
X68612Y155229D01*
X68590Y155206D01*
X68534Y155161D01*
X63683Y150309D01*
X56317Y150309D01*
X51109Y155517D01*
X51109Y162883D01*
X56317Y168091D01*
X63683Y168091D01*
X68891Y162883D01*
X68891Y162750D01*
X68894Y162731D01*
X68892Y162711D01*
X68914Y162610D01*
X68930Y162508D01*
X68940Y162490D01*
X68944Y162471D01*
X68997Y162382D01*
X69046Y162290D01*
X69060Y162277D01*
X69070Y162260D01*
X69149Y162192D01*
X69224Y162121D01*
X69242Y162113D01*
X69257Y162100D01*
X69353Y162061D01*
X69447Y162017D01*
X69467Y162015D01*
X69485Y162008D01*
X69652Y161989D01*
X71151Y161989D01*
X71222Y162001D01*
X71294Y162003D01*
X71343Y162021D01*
X71394Y162029D01*
X71457Y162063D01*
X71525Y162087D01*
X71565Y162120D01*
X71611Y162144D01*
X71661Y162196D01*
X71717Y162241D01*
X71745Y162285D01*
X71781Y162322D01*
X71811Y162387D01*
X71850Y162448D01*
X71862Y162498D01*
X71884Y162545D01*
X71892Y162617D01*
X71910Y162686D01*
X71906Y162738D01*
X71911Y162790D01*
X71896Y162860D01*
X71891Y162931D01*
X71870Y162979D01*
X71859Y163030D01*
X71822Y163092D01*
X71794Y163158D01*
X71750Y163214D01*
X71733Y163241D01*
X71715Y163257D01*
X71689Y163289D01*
X46353Y188625D01*
X46279Y188678D01*
X46210Y188738D01*
X46179Y188750D01*
X46153Y188769D01*
X46066Y188796D01*
X45981Y188830D01*
X45940Y188834D01*
X45918Y188841D01*
X45886Y188840D01*
X45815Y188848D01*
X32937Y188848D01*
X32847Y188834D01*
X32756Y188826D01*
X32726Y188814D01*
X32694Y188809D01*
X32614Y188766D01*
X32530Y188730D01*
X32498Y188704D01*
X32477Y188693D01*
X32455Y188670D01*
X32399Y188625D01*
X27683Y183909D01*
X20317Y183909D01*
X15109Y189117D01*
X15109Y196483D01*
X20317Y201691D01*
X27683Y201691D01*
X32891Y196483D01*
X32891Y196215D01*
X32894Y196195D01*
X32892Y196176D01*
X32914Y196074D01*
X32930Y195972D01*
X32940Y195955D01*
X32944Y195935D01*
X32997Y195846D01*
X33046Y195755D01*
X33060Y195741D01*
X33070Y195724D01*
X33149Y195657D01*
X33224Y195585D01*
X33242Y195577D01*
X33257Y195564D01*
X33353Y195525D01*
X33447Y195482D01*
X33467Y195480D01*
X33485Y195472D01*
X33652Y195454D01*
X48866Y195454D01*
X124208Y120112D01*
X124282Y120059D01*
X124351Y119999D01*
X124382Y119987D01*
X124408Y119968D01*
X124495Y119941D01*
X124580Y119907D01*
X124621Y119903D01*
X124643Y119896D01*
X124675Y119897D01*
X124746Y119889D01*
X127183Y119889D01*
X127274Y119903D01*
X127364Y119911D01*
X127394Y119923D01*
X127426Y119928D01*
X127507Y119971D01*
X127591Y120007D01*
X127623Y120033D01*
X127644Y120044D01*
X127666Y120067D01*
X127722Y120112D01*
X129341Y121731D01*
X131571Y122655D01*
X133986Y122655D01*
X136216Y121731D01*
X137923Y120024D01*
X138847Y117793D01*
X138847Y115379D01*
X137923Y113148D01*
X136216Y111441D01*
X133986Y110517D01*
X131571Y110517D01*
X129341Y111441D01*
X127722Y113060D01*
X127648Y113113D01*
X127578Y113173D01*
X127548Y113185D01*
X127522Y113204D01*
X127435Y113231D01*
X127350Y113265D01*
X127309Y113269D01*
X127287Y113276D01*
X127255Y113275D01*
X127183Y113283D01*
X126397Y113283D01*
X126327Y113272D01*
X126255Y113270D01*
X126206Y113252D01*
X126155Y113244D01*
X126091Y113210D01*
X126024Y113185D01*
X125983Y113153D01*
X125937Y113128D01*
X125888Y113076D01*
X125832Y113032D01*
X125804Y112988D01*
X125768Y112950D01*
X125738Y112885D01*
X125699Y112825D01*
X125686Y112774D01*
X125664Y112727D01*
X125656Y112656D01*
X125639Y112586D01*
X125643Y112534D01*
X125637Y112483D01*
X125652Y112412D01*
X125658Y112341D01*
X125678Y112293D01*
X125689Y112242D01*
X125726Y112181D01*
X125754Y112115D01*
X125799Y112059D01*
X125816Y112031D01*
X125833Y112016D01*
X125859Y111984D01*
X132844Y104999D01*
X132918Y104946D01*
X132987Y104886D01*
X133018Y104874D01*
X133044Y104855D01*
X133131Y104828D01*
X133216Y104794D01*
X133257Y104790D01*
X133279Y104783D01*
X133311Y104784D01*
X133382Y104776D01*
X161376Y104776D01*
X161422Y104783D01*
X161468Y104781D01*
X161542Y104803D01*
X161619Y104815D01*
X161660Y104837D01*
X161704Y104850D01*
X161768Y104894D01*
X161837Y104931D01*
X161868Y104964D01*
X161906Y104990D01*
X161952Y105052D01*
X162006Y105109D01*
X162025Y105151D01*
X162053Y105187D01*
X162077Y105261D01*
X162110Y105332D01*
X162115Y105378D01*
X162129Y105421D01*
X162128Y105499D01*
X162137Y105576D01*
X162127Y105621D01*
X162126Y105667D01*
X162088Y105798D01*
X162084Y105817D01*
X162082Y105821D01*
X162080Y105828D01*
X161254Y107822D01*
X161254Y110112D01*
X161239Y110202D01*
X161232Y110293D01*
X161219Y110323D01*
X161214Y110355D01*
X161171Y110436D01*
X161136Y110519D01*
X161110Y110552D01*
X161099Y110572D01*
X161076Y110594D01*
X161031Y110650D01*
X149986Y121695D01*
X149986Y196373D01*
X149975Y196444D01*
X149973Y196516D01*
X149955Y196565D01*
X149947Y196616D01*
X149913Y196679D01*
X149888Y196747D01*
X149856Y196787D01*
X149831Y196833D01*
X149779Y196883D01*
X149735Y196939D01*
X149691Y196967D01*
X149653Y197003D01*
X149588Y197033D01*
X149528Y197072D01*
X149477Y197084D01*
X149430Y197106D01*
X149359Y197114D01*
X149289Y197132D01*
X149237Y197128D01*
X149186Y197133D01*
X149115Y197118D01*
X149044Y197113D01*
X148996Y197092D01*
X148945Y197081D01*
X148884Y197044D01*
X148818Y197016D01*
X148762Y196972D01*
X148734Y196955D01*
X148719Y196937D01*
X148687Y196911D01*
X134145Y182370D01*
X134092Y182296D01*
X134033Y182227D01*
X134020Y182196D01*
X134002Y182170D01*
X133975Y182083D01*
X133941Y181998D01*
X133936Y181957D01*
X133929Y181935D01*
X133930Y181903D01*
X133922Y181832D01*
X133922Y163795D01*
X129250Y159123D01*
X129205Y159060D01*
X129178Y159033D01*
X129173Y159022D01*
X129137Y158980D01*
X129125Y158949D01*
X129106Y158923D01*
X129079Y158836D01*
X129045Y158751D01*
X129041Y158710D01*
X129034Y158688D01*
X129035Y158656D01*
X129027Y158585D01*
X129027Y147113D01*
X127687Y145773D01*
X112713Y145773D01*
X111373Y147113D01*
X111373Y162087D01*
X112713Y163427D01*
X123897Y163427D01*
X123987Y163441D01*
X124078Y163449D01*
X124107Y163461D01*
X124139Y163466D01*
X124220Y163509D01*
X124304Y163545D01*
X124336Y163571D01*
X124357Y163582D01*
X124379Y163605D01*
X124435Y163650D01*
X127094Y166309D01*
X127147Y166383D01*
X127206Y166452D01*
X127219Y166482D01*
X127237Y166508D01*
X127264Y166595D01*
X127298Y166680D01*
X127303Y166721D01*
X127310Y166743D01*
X127309Y166776D01*
X127317Y166847D01*
X127317Y167396D01*
X127305Y167467D01*
X127303Y167539D01*
X127285Y167587D01*
X127277Y167639D01*
X127243Y167702D01*
X127219Y167770D01*
X127186Y167810D01*
X127162Y167856D01*
X127110Y167906D01*
X127065Y167962D01*
X127021Y167990D01*
X126984Y168026D01*
X126919Y168056D01*
X126858Y168095D01*
X126808Y168107D01*
X126761Y168129D01*
X126689Y168137D01*
X126620Y168155D01*
X126568Y168151D01*
X126516Y168156D01*
X126446Y168141D01*
X126375Y168135D01*
X126327Y168115D01*
X126276Y168104D01*
X126214Y168067D01*
X126148Y168039D01*
X126092Y167994D01*
X126065Y167978D01*
X126049Y167960D01*
X126017Y167934D01*
X125200Y167117D01*
X121956Y165773D01*
X118444Y165773D01*
X115200Y167117D01*
X112717Y169600D01*
X111373Y172844D01*
X111373Y176356D01*
X112717Y179600D01*
X115200Y182083D01*
X118444Y183427D01*
X121956Y183427D01*
X125200Y182083D01*
X126017Y181266D01*
X126075Y181224D01*
X126127Y181174D01*
X126175Y181152D01*
X126217Y181122D01*
X126285Y181101D01*
X126351Y181071D01*
X126402Y181065D01*
X126452Y181050D01*
X126524Y181052D01*
X126595Y181044D01*
X126646Y181055D01*
X126698Y181056D01*
X126765Y181081D01*
X126835Y181096D01*
X126880Y181123D01*
X126929Y181141D01*
X126985Y181185D01*
X127046Y181222D01*
X127080Y181262D01*
X127121Y181294D01*
X127160Y181355D01*
X127206Y181409D01*
X127226Y181457D01*
X127254Y181501D01*
X127271Y181571D01*
X127298Y181637D01*
X127306Y181708D01*
X127314Y181740D01*
X127312Y181763D01*
X127317Y181804D01*
X127317Y184883D01*
X181069Y238635D01*
X181122Y238709D01*
X181181Y238778D01*
X181194Y238809D01*
X181212Y238835D01*
X181239Y238922D01*
X181273Y239007D01*
X181278Y239048D01*
X181285Y239070D01*
X181284Y239102D01*
X181292Y239173D01*
X181292Y248816D01*
X181284Y248861D01*
X181286Y248907D01*
X181265Y248982D01*
X181252Y249059D01*
X181231Y249099D01*
X181218Y249143D01*
X181173Y249207D01*
X181137Y249276D01*
X181104Y249308D01*
X181077Y249345D01*
X181015Y249392D01*
X180959Y249445D01*
X180917Y249465D01*
X180880Y249492D01*
X180806Y249516D01*
X180736Y249549D01*
X180690Y249554D01*
X180646Y249568D01*
X180568Y249568D01*
X180491Y249576D01*
X180446Y249566D01*
X180400Y249566D01*
X180269Y249528D01*
X180251Y249524D01*
X180246Y249521D01*
X180239Y249519D01*
X178245Y248693D01*
X175831Y248693D01*
X173600Y249617D01*
X171893Y251324D01*
X170969Y253555D01*
X170969Y255969D01*
X171893Y258200D01*
X173112Y259418D01*
X173123Y259434D01*
X173139Y259447D01*
X173195Y259534D01*
X173255Y259618D01*
X173261Y259637D01*
X173272Y259654D01*
X173297Y259754D01*
X173328Y259853D01*
X173327Y259873D01*
X173332Y259892D01*
X173324Y259995D01*
X173321Y260099D01*
X173314Y260118D01*
X173313Y260137D01*
X173272Y260232D01*
X173237Y260330D01*
X173224Y260345D01*
X173216Y260364D01*
X173112Y260495D01*
X172273Y261333D01*
X172257Y261345D01*
X172245Y261360D01*
X172157Y261416D01*
X172074Y261476D01*
X172055Y261482D01*
X172038Y261493D01*
X171937Y261518D01*
X171838Y261549D01*
X171819Y261548D01*
X171799Y261553D01*
X171696Y261545D01*
X171593Y261542D01*
X171574Y261536D01*
X171554Y261534D01*
X171459Y261494D01*
X171362Y261458D01*
X171346Y261446D01*
X171328Y261438D01*
X171197Y261333D01*
X169934Y260070D01*
X167857Y259210D01*
X167757Y259148D01*
X167657Y259088D01*
X167653Y259084D01*
X167648Y259080D01*
X167573Y258990D01*
X167497Y258901D01*
X167495Y258896D01*
X167491Y258891D01*
X167449Y258782D01*
X167405Y258673D01*
X167404Y258666D01*
X167403Y258661D01*
X167402Y258643D01*
X167387Y258507D01*
X167387Y237201D01*
X128658Y198473D01*
X128590Y198378D01*
X128520Y198284D01*
X128518Y198278D01*
X128515Y198273D01*
X128480Y198162D01*
X128444Y198051D01*
X128444Y198044D01*
X128442Y198038D01*
X128445Y197922D01*
X128447Y197805D01*
X128449Y197797D01*
X128449Y197792D01*
X128455Y197775D01*
X128493Y197643D01*
X129027Y196356D01*
X129027Y192844D01*
X127683Y189600D01*
X125200Y187117D01*
X121956Y185773D01*
X118444Y185773D01*
X115200Y187117D01*
X112717Y189600D01*
X111373Y192844D01*
X111373Y196356D01*
X112717Y199600D01*
X113991Y200874D01*
X114002Y200890D01*
X114018Y200902D01*
X114074Y200990D01*
X114134Y201073D01*
X114140Y201092D01*
X114151Y201109D01*
X114176Y201210D01*
X114207Y201308D01*
X114206Y201328D01*
X114211Y201348D01*
X114203Y201451D01*
X114200Y201554D01*
X114193Y201573D01*
X114192Y201593D01*
X114151Y201688D01*
X114116Y201785D01*
X114103Y201801D01*
X114095Y201819D01*
X113991Y201950D01*
X64254Y251686D01*
X64180Y251739D01*
X64111Y251799D01*
X64081Y251811D01*
X64055Y251830D01*
X63968Y251857D01*
X63883Y251891D01*
X63842Y251895D01*
X63820Y251902D01*
X63787Y251901D01*
X63716Y251909D01*
X56317Y251909D01*
X51109Y257117D01*
X51109Y264483D01*
X56317Y269691D01*
X63683Y269691D01*
X68891Y264483D01*
X68891Y256997D01*
X68881Y256957D01*
X68850Y256858D01*
X68851Y256838D01*
X68846Y256819D01*
X68854Y256716D01*
X68857Y256612D01*
X68863Y256593D01*
X68865Y256573D01*
X68905Y256478D01*
X68941Y256381D01*
X68953Y256366D01*
X68961Y256347D01*
X69066Y256216D01*
X109891Y215391D01*
X109987Y215322D01*
X110086Y215250D01*
X110089Y215249D01*
X110091Y215247D01*
X110204Y215213D01*
X110320Y215176D01*
X110323Y215176D01*
X110326Y215175D01*
X110447Y215178D01*
X110566Y215180D01*
X110569Y215181D01*
X110572Y215181D01*
X110685Y215223D01*
X110798Y215263D01*
X110800Y215265D01*
X110803Y215266D01*
X110897Y215341D01*
X110991Y215415D01*
X110993Y215418D01*
X110995Y215420D01*
X111060Y215521D01*
X111126Y215621D01*
X111127Y215624D01*
X111128Y215626D01*
X111131Y215637D01*
X111176Y215781D01*
X111468Y217249D01*
X112153Y218901D01*
X113147Y220389D01*
X114411Y221653D01*
X115899Y222647D01*
X117551Y223332D01*
X118677Y223556D01*
X118677Y215362D01*
X118680Y215342D01*
X118678Y215323D01*
X118700Y215221D01*
X118717Y215119D01*
X118726Y215102D01*
X118730Y215082D01*
X118783Y214993D01*
X118832Y214902D01*
X118846Y214888D01*
X118856Y214871D01*
X118935Y214804D01*
X119010Y214733D01*
X119028Y214724D01*
X119043Y214711D01*
X119139Y214673D01*
X119233Y214629D01*
X119253Y214627D01*
X119271Y214619D01*
X119438Y214601D01*
X120201Y214601D01*
X120201Y213838D01*
X120204Y213818D01*
X120202Y213799D01*
X120224Y213697D01*
X120241Y213595D01*
X120250Y213578D01*
X120254Y213558D01*
X120307Y213469D01*
X120356Y213378D01*
X120370Y213364D01*
X120380Y213347D01*
X120459Y213280D01*
X120534Y213209D01*
X120552Y213200D01*
X120567Y213187D01*
X120663Y213148D01*
X120757Y213105D01*
X120777Y213103D01*
X120795Y213095D01*
X120962Y213077D01*
X129156Y213077D01*
X128932Y211951D01*
X128247Y210299D01*
X127253Y208811D01*
X125989Y207547D01*
X124501Y206553D01*
X122849Y205868D01*
X121381Y205576D01*
X121268Y205534D01*
X121156Y205493D01*
X121153Y205491D01*
X121150Y205490D01*
X121057Y205414D01*
X120964Y205339D01*
X120962Y205337D01*
X120960Y205335D01*
X120895Y205232D01*
X120831Y205132D01*
X120830Y205129D01*
X120828Y205127D01*
X120800Y205009D01*
X120771Y204894D01*
X120771Y204891D01*
X120770Y204888D01*
X120780Y204768D01*
X120790Y204649D01*
X120791Y204646D01*
X120791Y204643D01*
X120839Y204532D01*
X120886Y204422D01*
X120888Y204419D01*
X120889Y204417D01*
X120897Y204409D01*
X120991Y204291D01*
X121678Y203605D01*
X121731Y203566D01*
X121778Y203521D01*
X121850Y203480D01*
X121877Y203461D01*
X121896Y203455D01*
X121925Y203440D01*
X123123Y202943D01*
X123237Y202917D01*
X123350Y202888D01*
X123356Y202889D01*
X123362Y202887D01*
X123479Y202898D01*
X123595Y202907D01*
X123601Y202910D01*
X123607Y202910D01*
X123714Y202958D01*
X123821Y203004D01*
X123827Y203008D01*
X123832Y203010D01*
X123845Y203023D01*
X123952Y203108D01*
X160558Y239715D01*
X160611Y239789D01*
X160671Y239858D01*
X160683Y239888D01*
X160702Y239914D01*
X160729Y240001D01*
X160763Y240086D01*
X160767Y240127D01*
X160774Y240149D01*
X160773Y240182D01*
X160781Y240253D01*
X160781Y259241D01*
X160762Y259355D01*
X160745Y259472D01*
X160743Y259477D01*
X160742Y259483D01*
X160687Y259586D01*
X160634Y259691D01*
X160629Y259695D01*
X160626Y259701D01*
X160542Y259781D01*
X160458Y259863D01*
X160452Y259867D01*
X160448Y259870D01*
X160431Y259878D01*
X160311Y259944D01*
X160006Y260070D01*
X157540Y262536D01*
X156206Y265757D01*
X156206Y269243D01*
X157540Y272464D01*
X157905Y272829D01*
X157947Y272888D01*
X157997Y272939D01*
X158019Y272987D01*
X158049Y273029D01*
X158070Y273097D01*
X158100Y273163D01*
X158106Y273214D01*
X158121Y273264D01*
X158119Y273336D01*
X158127Y273407D01*
X158116Y273458D01*
X158115Y273510D01*
X158090Y273577D01*
X158075Y273647D01*
X158048Y273692D01*
X158031Y273741D01*
X157986Y273797D01*
X157949Y273858D01*
X157909Y273892D01*
X157877Y273933D01*
X157817Y273972D01*
X157762Y274018D01*
X157714Y274038D01*
X157670Y274066D01*
X157601Y274083D01*
X157534Y274110D01*
X157463Y274118D01*
X157431Y274126D01*
X157408Y274124D01*
X157367Y274129D01*
X157131Y274129D01*
X157041Y274114D01*
X156950Y274107D01*
X156921Y274094D01*
X156889Y274089D01*
X156808Y274046D01*
X156724Y274011D01*
X156692Y273985D01*
X156671Y273974D01*
X156649Y273951D01*
X156593Y273906D01*
X153519Y270831D01*
X153451Y270737D01*
X153381Y270643D01*
X153379Y270637D01*
X153375Y270632D01*
X153341Y270521D01*
X153304Y270409D01*
X153305Y270402D01*
X153303Y270396D01*
X153306Y270280D01*
X153307Y270163D01*
X153309Y270156D01*
X153309Y270151D01*
X153315Y270133D01*
X153354Y270002D01*
X153668Y269243D01*
X153668Y265757D01*
X152334Y262536D01*
X149868Y260070D01*
X146647Y258736D01*
X143161Y258736D01*
X139940Y260070D01*
X137474Y262536D01*
X136140Y265757D01*
X136140Y269243D01*
X137474Y272464D01*
X139940Y274930D01*
X143161Y276264D01*
X146647Y276264D01*
X148272Y275591D01*
X148385Y275564D01*
X148499Y275536D01*
X148505Y275536D01*
X148511Y275535D01*
X148628Y275546D01*
X148744Y275555D01*
X148750Y275557D01*
X148756Y275558D01*
X148864Y275605D01*
X148971Y275651D01*
X148976Y275656D01*
X148981Y275658D01*
X148995Y275670D01*
X149102Y275756D01*
X151885Y278540D01*
X151927Y278598D01*
X151977Y278650D01*
X151999Y278697D01*
X152029Y278739D01*
X152050Y278808D01*
X152080Y278873D01*
X152086Y278925D01*
X152101Y278975D01*
X152100Y279046D01*
X152107Y279117D01*
X152096Y279168D01*
X152095Y279220D01*
X152070Y279288D01*
X152055Y279358D01*
X152028Y279402D01*
X152011Y279451D01*
X151966Y279507D01*
X151929Y279569D01*
X151889Y279603D01*
X151857Y279643D01*
X151797Y279682D01*
X151742Y279729D01*
X151694Y279748D01*
X151650Y279776D01*
X151580Y279794D01*
X151514Y279821D01*
X151443Y279829D01*
X151411Y279837D01*
X151388Y279835D01*
X151347Y279839D01*
X41592Y279839D01*
X41546Y279832D01*
X41500Y279834D01*
X41426Y279812D01*
X41349Y279800D01*
X41308Y279778D01*
X41264Y279765D01*
X41200Y279721D01*
X41131Y279684D01*
X41100Y279651D01*
X41062Y279625D01*
X41016Y279562D01*
X40962Y279506D01*
X40943Y279464D01*
X40915Y279428D01*
X40891Y279354D01*
X40858Y279283D01*
X40853Y279237D01*
X40839Y279194D01*
X40840Y279116D01*
X40831Y279039D01*
X40841Y278994D01*
X40841Y278948D01*
X40880Y278816D01*
X40884Y278798D01*
X40886Y278794D01*
X40888Y278787D01*
X42661Y274507D01*
X42661Y265493D01*
X39211Y257164D01*
X32836Y250789D01*
X24507Y247339D01*
X15493Y247339D01*
X11213Y249112D01*
X11169Y249122D01*
X11127Y249142D01*
X11050Y249150D01*
X10974Y249168D01*
X10928Y249164D01*
X10883Y249169D01*
X10806Y249152D01*
X10729Y249145D01*
X10687Y249126D01*
X10642Y249116D01*
X10575Y249076D01*
X10504Y249045D01*
X10470Y249014D01*
X10431Y248990D01*
X10380Y248931D01*
X10323Y248878D01*
X10301Y248838D01*
X10271Y248803D01*
X10242Y248731D01*
X10205Y248663D01*
X10196Y248618D01*
X10179Y248575D01*
X10164Y248439D01*
X10161Y248421D01*
X10162Y248416D01*
X10161Y248408D01*
X10161Y41592D01*
X10168Y41546D01*
X10166Y41500D01*
X10188Y41426D01*
X10200Y41349D01*
X10222Y41308D01*
X10235Y41264D01*
X10279Y41200D01*
X10316Y41131D01*
X10349Y41100D01*
X10375Y41062D01*
X10438Y41016D01*
X10494Y40962D01*
X10536Y40943D01*
X10572Y40915D01*
X10646Y40891D01*
X10717Y40858D01*
X10763Y40853D01*
X10806Y40839D01*
X10884Y40840D01*
X10961Y40831D01*
X11006Y40841D01*
X11052Y40841D01*
X11184Y40880D01*
X11202Y40884D01*
X11206Y40886D01*
X11213Y40888D01*
X15493Y42661D01*
X24507Y42661D01*
X32836Y39211D01*
X39211Y32836D01*
X42661Y24507D01*
X42661Y15493D01*
X40888Y11213D01*
X40878Y11169D01*
X40858Y11127D01*
X40850Y11050D01*
X40832Y10974D01*
X40836Y10928D01*
X40831Y10883D01*
X40848Y10806D01*
X40855Y10729D01*
X40874Y10687D01*
X40884Y10642D01*
X40924Y10575D01*
X40955Y10504D01*
X40986Y10470D01*
X41010Y10431D01*
X41069Y10380D01*
X41122Y10323D01*
X41162Y10301D01*
X41197Y10271D01*
X41269Y10242D01*
X41337Y10205D01*
X41382Y10196D01*
X41425Y10179D01*
X41561Y10164D01*
X41579Y10161D01*
X41584Y10162D01*
X41592Y10161D01*
X54628Y10161D01*
X54699Y10172D01*
G37*
G36*
X330032Y64837D02*
X330032Y64837D01*
X330051Y64835D01*
X330153Y64857D01*
X330255Y64874D01*
X330272Y64883D01*
X330292Y64888D01*
X330381Y64941D01*
X330472Y64989D01*
X330486Y65003D01*
X330503Y65014D01*
X330570Y65092D01*
X330642Y65167D01*
X330650Y65185D01*
X330663Y65201D01*
X330702Y65297D01*
X330745Y65390D01*
X330747Y65410D01*
X330755Y65429D01*
X330773Y65595D01*
X330773Y79787D01*
X332113Y81127D01*
X347087Y81127D01*
X348427Y79787D01*
X348427Y65595D01*
X348430Y65576D01*
X348428Y65556D01*
X348450Y65455D01*
X348466Y65353D01*
X348476Y65335D01*
X348480Y65316D01*
X348533Y65227D01*
X348582Y65135D01*
X348596Y65122D01*
X348606Y65105D01*
X348685Y65037D01*
X348760Y64966D01*
X348778Y64958D01*
X348793Y64945D01*
X348889Y64906D01*
X348983Y64862D01*
X349003Y64860D01*
X349021Y64853D01*
X349188Y64834D01*
X352386Y64834D01*
X352457Y64846D01*
X352528Y64848D01*
X352577Y64866D01*
X352629Y64874D01*
X352692Y64907D01*
X352759Y64932D01*
X352800Y64965D01*
X352846Y64989D01*
X352895Y65041D01*
X352951Y65086D01*
X352980Y65130D01*
X353015Y65167D01*
X353046Y65232D01*
X353084Y65293D01*
X353097Y65343D01*
X353119Y65390D01*
X353127Y65462D01*
X353144Y65531D01*
X353140Y65583D01*
X353146Y65635D01*
X353131Y65705D01*
X353125Y65777D01*
X353105Y65824D01*
X353094Y65875D01*
X353057Y65937D01*
X353029Y66003D01*
X352984Y66059D01*
X352968Y66086D01*
X352950Y66102D01*
X352924Y66134D01*
X352547Y66511D01*
X351553Y67999D01*
X350868Y69651D01*
X350644Y70777D01*
X358838Y70777D01*
X358858Y70780D01*
X358877Y70778D01*
X358979Y70800D01*
X359081Y70817D01*
X359098Y70826D01*
X359118Y70830D01*
X359207Y70883D01*
X359298Y70932D01*
X359312Y70946D01*
X359329Y70956D01*
X359396Y71035D01*
X359467Y71110D01*
X359476Y71128D01*
X359489Y71143D01*
X359527Y71239D01*
X359571Y71333D01*
X359573Y71353D01*
X359581Y71371D01*
X359599Y71538D01*
X359599Y72301D01*
X359601Y72301D01*
X359601Y71538D01*
X359604Y71518D01*
X359602Y71499D01*
X359624Y71397D01*
X359641Y71295D01*
X359650Y71278D01*
X359654Y71258D01*
X359707Y71169D01*
X359756Y71078D01*
X359770Y71064D01*
X359780Y71047D01*
X359859Y70980D01*
X359934Y70909D01*
X359952Y70900D01*
X359967Y70887D01*
X360063Y70848D01*
X360157Y70805D01*
X360177Y70803D01*
X360195Y70795D01*
X360362Y70777D01*
X368556Y70777D01*
X368332Y69651D01*
X367647Y67999D01*
X366653Y66511D01*
X366276Y66134D01*
X366234Y66076D01*
X366185Y66024D01*
X366163Y65976D01*
X366132Y65934D01*
X366111Y65866D01*
X366081Y65800D01*
X366075Y65749D01*
X366060Y65699D01*
X366062Y65627D01*
X366054Y65556D01*
X366065Y65505D01*
X366066Y65453D01*
X366091Y65386D01*
X366106Y65316D01*
X366133Y65271D01*
X366151Y65222D01*
X366196Y65166D01*
X366232Y65105D01*
X366272Y65071D01*
X366304Y65030D01*
X366365Y64991D01*
X366419Y64945D01*
X366468Y64925D01*
X366511Y64897D01*
X366581Y64880D01*
X366647Y64853D01*
X366719Y64845D01*
X366750Y64837D01*
X366773Y64839D01*
X366814Y64834D01*
X372745Y64834D01*
X372816Y64846D01*
X372888Y64848D01*
X372936Y64866D01*
X372988Y64874D01*
X373051Y64908D01*
X373119Y64932D01*
X373159Y64965D01*
X373205Y64989D01*
X373255Y65041D01*
X373311Y65086D01*
X373339Y65130D01*
X373375Y65167D01*
X373405Y65232D01*
X373444Y65293D01*
X373456Y65343D01*
X373478Y65390D01*
X373486Y65462D01*
X373504Y65531D01*
X373500Y65583D01*
X373505Y65635D01*
X373490Y65705D01*
X373484Y65776D01*
X373464Y65824D01*
X373453Y65875D01*
X373416Y65937D01*
X373388Y66003D01*
X373343Y66059D01*
X373327Y66086D01*
X373309Y66102D01*
X373283Y66134D01*
X372117Y67300D01*
X370773Y70544D01*
X370773Y74056D01*
X371086Y74810D01*
X371112Y74924D01*
X371141Y75037D01*
X371140Y75043D01*
X371142Y75049D01*
X371131Y75166D01*
X371122Y75282D01*
X371119Y75288D01*
X371119Y75294D01*
X371071Y75402D01*
X371025Y75509D01*
X371021Y75514D01*
X371019Y75519D01*
X371006Y75533D01*
X370921Y75640D01*
X368458Y78103D01*
X368418Y78131D01*
X368384Y78167D01*
X368318Y78203D01*
X368258Y78246D01*
X368211Y78261D01*
X368168Y78284D01*
X368094Y78297D01*
X368023Y78319D01*
X367974Y78317D01*
X367925Y78326D01*
X367852Y78314D01*
X367777Y78312D01*
X367731Y78295D01*
X367682Y78288D01*
X367616Y78253D01*
X367546Y78228D01*
X367508Y78197D01*
X367464Y78175D01*
X367412Y78121D01*
X367354Y78074D01*
X367327Y78033D01*
X367293Y77998D01*
X367261Y77930D01*
X367221Y77867D01*
X367209Y77820D01*
X367188Y77775D01*
X367179Y77701D01*
X367161Y77629D01*
X367165Y77580D01*
X367159Y77531D01*
X367174Y77458D01*
X367180Y77383D01*
X367199Y77338D01*
X367209Y77290D01*
X367267Y77179D01*
X367276Y77157D01*
X367282Y77150D01*
X367286Y77141D01*
X367647Y76601D01*
X368332Y74949D01*
X368556Y73823D01*
X361123Y73823D01*
X361123Y81256D01*
X362249Y81032D01*
X363901Y80347D01*
X364441Y79986D01*
X364486Y79966D01*
X364526Y79937D01*
X364597Y79916D01*
X364665Y79885D01*
X364714Y79880D01*
X364761Y79865D01*
X364836Y79867D01*
X364910Y79859D01*
X364958Y79870D01*
X365007Y79871D01*
X365077Y79897D01*
X365150Y79914D01*
X365192Y79939D01*
X365238Y79956D01*
X365296Y80003D01*
X365360Y80042D01*
X365392Y80079D01*
X365430Y80110D01*
X365470Y80173D01*
X365518Y80230D01*
X365536Y80275D01*
X365563Y80317D01*
X365581Y80389D01*
X365608Y80459D01*
X365611Y80508D01*
X365623Y80555D01*
X365617Y80630D01*
X365621Y80704D01*
X365608Y80752D01*
X365604Y80800D01*
X365575Y80869D01*
X365554Y80941D01*
X365527Y80982D01*
X365507Y81027D01*
X365429Y81124D01*
X365416Y81144D01*
X365408Y81150D01*
X365403Y81158D01*
X350772Y95788D01*
X350698Y95841D01*
X350629Y95901D01*
X350598Y95913D01*
X350572Y95932D01*
X350485Y95959D01*
X350400Y95993D01*
X350359Y95997D01*
X350337Y96004D01*
X350305Y96003D01*
X350234Y96011D01*
X294901Y96011D01*
X294811Y95997D01*
X294720Y95989D01*
X294690Y95977D01*
X294658Y95972D01*
X294578Y95929D01*
X294494Y95893D01*
X294462Y95867D01*
X294441Y95856D01*
X294419Y95833D01*
X294363Y95788D01*
X292744Y94169D01*
X290513Y93245D01*
X288394Y93245D01*
X288349Y93238D01*
X288303Y93240D01*
X288228Y93218D01*
X288151Y93206D01*
X288111Y93184D01*
X288067Y93171D01*
X288003Y93127D01*
X287934Y93090D01*
X287902Y93057D01*
X287865Y93031D01*
X287818Y92969D01*
X287765Y92912D01*
X287745Y92870D01*
X287718Y92834D01*
X287694Y92760D01*
X287661Y92689D01*
X287656Y92643D01*
X287642Y92600D01*
X287642Y92522D01*
X287634Y92445D01*
X287644Y92400D01*
X287644Y92354D01*
X287682Y92222D01*
X287686Y92204D01*
X287689Y92200D01*
X287691Y92193D01*
X287818Y91885D01*
X287818Y89471D01*
X286894Y87240D01*
X285136Y85482D01*
X285125Y85466D01*
X285109Y85453D01*
X285053Y85366D01*
X284993Y85282D01*
X284987Y85263D01*
X284976Y85247D01*
X284951Y85146D01*
X284920Y85047D01*
X284921Y85027D01*
X284916Y85008D01*
X284924Y84905D01*
X284927Y84801D01*
X284933Y84783D01*
X284935Y84763D01*
X284976Y84668D01*
X285011Y84570D01*
X285024Y84555D01*
X285031Y84536D01*
X285136Y84406D01*
X285275Y84267D01*
X304485Y65057D01*
X304558Y65004D01*
X304628Y64945D01*
X304658Y64932D01*
X304684Y64914D01*
X304771Y64887D01*
X304856Y64853D01*
X304897Y64848D01*
X304919Y64841D01*
X304952Y64842D01*
X305023Y64834D01*
X330012Y64834D01*
X330032Y64837D01*
G37*
%LPC*%
G36*
X377844Y183473D02*
X377844Y183473D01*
X374600Y184817D01*
X372117Y187300D01*
X370773Y190544D01*
X370773Y194056D01*
X372117Y197300D01*
X374600Y199783D01*
X377844Y201127D01*
X381356Y201127D01*
X382197Y200778D01*
X382310Y200752D01*
X382424Y200723D01*
X382430Y200724D01*
X382436Y200722D01*
X382553Y200733D01*
X382669Y200742D01*
X382675Y200745D01*
X382681Y200745D01*
X382788Y200793D01*
X382895Y200839D01*
X382901Y200843D01*
X382906Y200845D01*
X382919Y200858D01*
X383026Y200943D01*
X431511Y249429D01*
X442348Y249429D01*
X442368Y249432D01*
X442387Y249430D01*
X442489Y249452D01*
X442591Y249468D01*
X442608Y249478D01*
X442628Y249482D01*
X442717Y249535D01*
X442808Y249584D01*
X442822Y249598D01*
X442839Y249608D01*
X442906Y249687D01*
X442978Y249762D01*
X442986Y249780D01*
X442999Y249795D01*
X443038Y249891D01*
X443081Y249985D01*
X443083Y250005D01*
X443091Y250023D01*
X443109Y250190D01*
X443109Y250483D01*
X448317Y255691D01*
X455683Y255691D01*
X460891Y250483D01*
X460891Y243117D01*
X455683Y237909D01*
X448317Y237909D01*
X443626Y242600D01*
X443552Y242653D01*
X443483Y242713D01*
X443453Y242725D01*
X443427Y242744D01*
X443340Y242771D01*
X443255Y242805D01*
X443214Y242809D01*
X443191Y242816D01*
X443159Y242815D01*
X443088Y242823D01*
X434563Y242823D01*
X434473Y242809D01*
X434382Y242801D01*
X434352Y242789D01*
X434320Y242784D01*
X434239Y242741D01*
X434156Y242705D01*
X434123Y242679D01*
X434103Y242668D01*
X434081Y242645D01*
X434025Y242600D01*
X387923Y196499D01*
X387856Y196405D01*
X387785Y196310D01*
X387783Y196304D01*
X387780Y196299D01*
X387746Y196188D01*
X387709Y196077D01*
X387709Y196070D01*
X387707Y196064D01*
X387710Y195947D01*
X387712Y195831D01*
X387714Y195823D01*
X387714Y195818D01*
X387720Y195801D01*
X387758Y195669D01*
X388427Y194056D01*
X388427Y190544D01*
X387083Y187300D01*
X384600Y184817D01*
X381356Y183473D01*
X377844Y183473D01*
G37*
%LPD*%
%LPC*%
G36*
X308609Y123471D02*
X308609Y123471D01*
X306379Y124395D01*
X304672Y126102D01*
X303748Y128333D01*
X303748Y130623D01*
X303733Y130713D01*
X303726Y130804D01*
X303713Y130833D01*
X303708Y130865D01*
X303665Y130946D01*
X303630Y131030D01*
X303604Y131062D01*
X303593Y131083D01*
X303570Y131105D01*
X303525Y131161D01*
X261173Y173512D01*
X261099Y173565D01*
X261030Y173625D01*
X261000Y173637D01*
X260974Y173656D01*
X260887Y173683D01*
X260802Y173717D01*
X260761Y173721D01*
X260739Y173728D01*
X260706Y173727D01*
X260635Y173735D01*
X258198Y173735D01*
X258108Y173721D01*
X258017Y173713D01*
X257987Y173701D01*
X257955Y173696D01*
X257875Y173653D01*
X257791Y173617D01*
X257759Y173591D01*
X257738Y173580D01*
X257716Y173557D01*
X257660Y173512D01*
X256041Y171893D01*
X253810Y170969D01*
X251396Y170969D01*
X249165Y171893D01*
X247458Y173600D01*
X246534Y175831D01*
X246534Y178245D01*
X247458Y180476D01*
X249165Y182183D01*
X251396Y183107D01*
X253810Y183107D01*
X256041Y182183D01*
X257660Y180564D01*
X257734Y180511D01*
X257803Y180451D01*
X257833Y180439D01*
X257859Y180420D01*
X257947Y180393D01*
X258031Y180359D01*
X258072Y180355D01*
X258095Y180348D01*
X258127Y180349D01*
X258198Y180341D01*
X263687Y180341D01*
X308196Y135832D01*
X308270Y135779D01*
X308339Y135719D01*
X308369Y135707D01*
X308395Y135688D01*
X308482Y135661D01*
X308567Y135627D01*
X308608Y135623D01*
X308630Y135616D01*
X308663Y135617D01*
X308734Y135609D01*
X311024Y135609D01*
X313254Y134685D01*
X314961Y132978D01*
X315885Y130747D01*
X315885Y128333D01*
X314961Y126102D01*
X313254Y124395D01*
X311024Y123471D01*
X308609Y123471D01*
G37*
%LPD*%
%LPC*%
G36*
X397576Y258736D02*
X397576Y258736D01*
X396236Y260076D01*
X396236Y274924D01*
X397576Y276264D01*
X412424Y276264D01*
X413764Y274924D01*
X413764Y260076D01*
X412424Y258736D01*
X397576Y258736D01*
G37*
%LPD*%
%LPC*%
G36*
X469317Y34309D02*
X469317Y34309D01*
X464109Y39517D01*
X464109Y46883D01*
X469317Y52091D01*
X476683Y52091D01*
X481891Y46883D01*
X481891Y39517D01*
X476683Y34309D01*
X469317Y34309D01*
G37*
%LPD*%
%LPC*%
G36*
X222444Y123473D02*
X222444Y123473D01*
X219200Y124817D01*
X216717Y127300D01*
X215373Y130544D01*
X215373Y134056D01*
X216717Y137300D01*
X219200Y139783D01*
X222444Y141127D01*
X225956Y141127D01*
X229200Y139783D01*
X231683Y137300D01*
X233027Y134056D01*
X233027Y130544D01*
X231683Y127300D01*
X229200Y124817D01*
X225956Y123473D01*
X222444Y123473D01*
G37*
%LPD*%
%LPC*%
G36*
X262444Y123473D02*
X262444Y123473D01*
X259200Y124817D01*
X256717Y127300D01*
X255373Y130544D01*
X255373Y134056D01*
X256717Y137300D01*
X259200Y139783D01*
X262444Y141127D01*
X265956Y141127D01*
X269200Y139783D01*
X271683Y137300D01*
X273027Y134056D01*
X273027Y130544D01*
X271683Y127300D01*
X269200Y124817D01*
X265956Y123473D01*
X262444Y123473D01*
G37*
%LPD*%
%LPC*%
G36*
X397844Y183473D02*
X397844Y183473D01*
X394600Y184817D01*
X392117Y187300D01*
X390773Y190544D01*
X390773Y194056D01*
X392117Y197300D01*
X394600Y199783D01*
X397844Y201127D01*
X401356Y201127D01*
X404600Y199783D01*
X407083Y197300D01*
X408427Y194056D01*
X408427Y190544D01*
X407083Y187300D01*
X404600Y184817D01*
X401356Y183473D01*
X397844Y183473D01*
G37*
%LPD*%
%LPC*%
G36*
X123349Y258736D02*
X123349Y258736D01*
X120128Y260070D01*
X117662Y262536D01*
X116328Y265757D01*
X116328Y269243D01*
X117662Y272464D01*
X120128Y274930D01*
X123349Y276264D01*
X126835Y276264D01*
X130056Y274930D01*
X132522Y272464D01*
X133856Y269243D01*
X133856Y265757D01*
X132522Y262536D01*
X130056Y260070D01*
X126835Y258736D01*
X123349Y258736D01*
G37*
%LPD*%
%LPC*%
G36*
X442523Y122323D02*
X442523Y122323D01*
X442523Y129945D01*
X444788Y129945D01*
X450145Y124588D01*
X450145Y122323D01*
X442523Y122323D01*
G37*
%LPD*%
%LPC*%
G36*
X453523Y146723D02*
X453523Y146723D01*
X453523Y154345D01*
X455788Y154345D01*
X461145Y148988D01*
X461145Y146723D01*
X453523Y146723D01*
G37*
%LPD*%
%LPC*%
G36*
X474523Y146323D02*
X474523Y146323D01*
X474523Y153945D01*
X476788Y153945D01*
X482145Y148588D01*
X482145Y146323D01*
X474523Y146323D01*
G37*
%LPD*%
%LPC*%
G36*
X431855Y122323D02*
X431855Y122323D01*
X431855Y124588D01*
X437212Y129945D01*
X439477Y129945D01*
X439477Y122323D01*
X431855Y122323D01*
G37*
%LPD*%
%LPC*%
G36*
X498023Y230655D02*
X498023Y230655D01*
X498023Y238277D01*
X505645Y238277D01*
X505645Y236012D01*
X500288Y230655D01*
X498023Y230655D01*
G37*
%LPD*%
%LPC*%
G36*
X453523Y136055D02*
X453523Y136055D01*
X453523Y143677D01*
X461145Y143677D01*
X461145Y141412D01*
X455788Y136055D01*
X453523Y136055D01*
G37*
%LPD*%
%LPC*%
G36*
X463855Y146323D02*
X463855Y146323D01*
X463855Y148588D01*
X469212Y153945D01*
X471477Y153945D01*
X471477Y146323D01*
X463855Y146323D01*
G37*
%LPD*%
%LPC*%
G36*
X442855Y146723D02*
X442855Y146723D01*
X442855Y148988D01*
X448212Y154345D01*
X450477Y154345D01*
X450477Y146723D01*
X442855Y146723D01*
G37*
%LPD*%
%LPC*%
G36*
X442523Y111655D02*
X442523Y111655D01*
X442523Y119277D01*
X450145Y119277D01*
X450145Y117012D01*
X444788Y111655D01*
X442523Y111655D01*
G37*
%LPD*%
%LPC*%
G36*
X437212Y111655D02*
X437212Y111655D01*
X431855Y117012D01*
X431855Y119277D01*
X439477Y119277D01*
X439477Y111655D01*
X437212Y111655D01*
G37*
%LPD*%
%LPC*%
G36*
X492712Y230655D02*
X492712Y230655D01*
X487355Y236012D01*
X487355Y238277D01*
X494977Y238277D01*
X494977Y230655D01*
X492712Y230655D01*
G37*
%LPD*%
%LPC*%
G36*
X469212Y135655D02*
X469212Y135655D01*
X463855Y141012D01*
X463855Y143277D01*
X471477Y143277D01*
X471477Y135655D01*
X469212Y135655D01*
G37*
%LPD*%
%LPC*%
G36*
X448212Y136055D02*
X448212Y136055D01*
X442855Y141412D01*
X442855Y143677D01*
X450477Y143677D01*
X450477Y136055D01*
X448212Y136055D01*
G37*
%LPD*%
%LPC*%
G36*
X121723Y216123D02*
X121723Y216123D01*
X121723Y223556D01*
X122849Y223332D01*
X124501Y222647D01*
X125989Y221653D01*
X127253Y220389D01*
X128247Y218901D01*
X128932Y217249D01*
X129156Y216123D01*
X121723Y216123D01*
G37*
%LPD*%
%LPC*%
G36*
X361123Y193823D02*
X361123Y193823D01*
X361123Y201256D01*
X362249Y201032D01*
X363901Y200347D01*
X365389Y199353D01*
X366653Y198089D01*
X367647Y196601D01*
X368332Y194949D01*
X368556Y193823D01*
X361123Y193823D01*
G37*
%LPD*%
%LPC*%
G36*
X245723Y133823D02*
X245723Y133823D01*
X245723Y141256D01*
X246849Y141032D01*
X248501Y140347D01*
X249989Y139353D01*
X251253Y138089D01*
X252247Y136601D01*
X252932Y134949D01*
X253156Y133823D01*
X245723Y133823D01*
G37*
%LPD*%
%LPC*%
G36*
X361123Y133823D02*
X361123Y133823D01*
X361123Y141256D01*
X362249Y141032D01*
X363901Y140347D01*
X365389Y139353D01*
X366653Y138089D01*
X367647Y136601D01*
X368332Y134949D01*
X368556Y133823D01*
X361123Y133823D01*
G37*
%LPD*%
%LPC*%
G36*
X235244Y193823D02*
X235244Y193823D01*
X235468Y194949D01*
X236153Y196601D01*
X237147Y198089D01*
X238411Y199353D01*
X239899Y200347D01*
X241551Y201032D01*
X242677Y201256D01*
X242677Y193823D01*
X235244Y193823D01*
G37*
%LPD*%
%LPC*%
G36*
X350644Y133823D02*
X350644Y133823D01*
X350868Y134949D01*
X351553Y136601D01*
X352547Y138089D01*
X353811Y139353D01*
X355299Y140347D01*
X356951Y141032D01*
X358077Y141256D01*
X358077Y133823D01*
X350644Y133823D01*
G37*
%LPD*%
%LPC*%
G36*
X235244Y133823D02*
X235244Y133823D01*
X235468Y134949D01*
X236153Y136601D01*
X237147Y138089D01*
X238411Y139353D01*
X239899Y140347D01*
X241551Y141032D01*
X242677Y141256D01*
X242677Y133823D01*
X235244Y133823D01*
G37*
%LPD*%
%LPC*%
G36*
X361123Y130777D02*
X361123Y130777D01*
X368556Y130777D01*
X368332Y129651D01*
X367647Y127999D01*
X366653Y126511D01*
X365389Y125247D01*
X363901Y124253D01*
X362249Y123568D01*
X361123Y123344D01*
X361123Y130777D01*
G37*
%LPD*%
%LPC*%
G36*
X245723Y130777D02*
X245723Y130777D01*
X253156Y130777D01*
X252932Y129651D01*
X252247Y127999D01*
X251253Y126511D01*
X249989Y125247D01*
X248501Y124253D01*
X246849Y123568D01*
X245723Y123344D01*
X245723Y130777D01*
G37*
%LPD*%
%LPC*%
G36*
X245723Y190777D02*
X245723Y190777D01*
X253156Y190777D01*
X252932Y189651D01*
X252247Y187999D01*
X251253Y186511D01*
X249989Y185247D01*
X248501Y184253D01*
X246849Y183568D01*
X245723Y183344D01*
X245723Y190777D01*
G37*
%LPD*%
%LPC*%
G36*
X361123Y190777D02*
X361123Y190777D01*
X368556Y190777D01*
X368332Y189651D01*
X367647Y187999D01*
X366653Y186511D01*
X365389Y185247D01*
X363901Y184253D01*
X362249Y183568D01*
X361123Y183344D01*
X361123Y190777D01*
G37*
%LPD*%
%LPC*%
G36*
X235244Y73823D02*
X235244Y73823D01*
X235468Y74949D01*
X236153Y76601D01*
X237147Y78089D01*
X238411Y79353D01*
X239899Y80347D01*
X241551Y81032D01*
X242677Y81256D01*
X242677Y73823D01*
X235244Y73823D01*
G37*
%LPD*%
%LPC*%
G36*
X350644Y73823D02*
X350644Y73823D01*
X350868Y74949D01*
X351553Y76601D01*
X352547Y78089D01*
X353811Y79353D01*
X355299Y80347D01*
X356951Y81032D01*
X358077Y81256D01*
X358077Y73823D01*
X350644Y73823D01*
G37*
%LPD*%
%LPC*%
G36*
X245723Y70777D02*
X245723Y70777D01*
X253156Y70777D01*
X252932Y69651D01*
X252247Y67999D01*
X251253Y66511D01*
X249989Y65247D01*
X248501Y64253D01*
X246849Y63568D01*
X245723Y63344D01*
X245723Y70777D01*
G37*
%LPD*%
%LPC*%
G36*
X241551Y123568D02*
X241551Y123568D01*
X239899Y124253D01*
X238411Y125247D01*
X237147Y126511D01*
X236153Y127999D01*
X235468Y129651D01*
X235244Y130777D01*
X242677Y130777D01*
X242677Y123344D01*
X241551Y123568D01*
G37*
%LPD*%
%LPC*%
G36*
X241551Y183568D02*
X241551Y183568D01*
X239899Y184253D01*
X238411Y185247D01*
X237147Y186511D01*
X236153Y187999D01*
X235468Y189651D01*
X235244Y190777D01*
X242677Y190777D01*
X242677Y183344D01*
X241551Y183568D01*
G37*
%LPD*%
%LPC*%
G36*
X356951Y183568D02*
X356951Y183568D01*
X355299Y184253D01*
X353811Y185247D01*
X352547Y186511D01*
X351553Y187999D01*
X350868Y189651D01*
X350644Y190777D01*
X358077Y190777D01*
X358077Y183344D01*
X356951Y183568D01*
G37*
%LPD*%
%LPC*%
G36*
X241551Y63568D02*
X241551Y63568D01*
X239899Y64253D01*
X238411Y65247D01*
X237147Y66511D01*
X236153Y67999D01*
X235468Y69651D01*
X235244Y70777D01*
X242677Y70777D01*
X242677Y63344D01*
X241551Y63568D01*
G37*
%LPD*%
%LPC*%
G36*
X356951Y123568D02*
X356951Y123568D01*
X355299Y124253D01*
X353811Y125247D01*
X352547Y126511D01*
X351553Y127999D01*
X350868Y129651D01*
X350644Y130777D01*
X358077Y130777D01*
X358077Y123344D01*
X356951Y123568D01*
G37*
%LPD*%
%LPC*%
G36*
X386457Y269023D02*
X386457Y269023D01*
X386457Y276391D01*
X387564Y276171D01*
X389205Y275491D01*
X390683Y274504D01*
X391938Y273249D01*
X392925Y271771D01*
X393605Y270130D01*
X393825Y269023D01*
X386457Y269023D01*
G37*
%LPD*%
%LPC*%
G36*
X376043Y269023D02*
X376043Y269023D01*
X376263Y270130D01*
X376943Y271771D01*
X377930Y273249D01*
X379185Y274504D01*
X380663Y275491D01*
X382304Y276171D01*
X383411Y276391D01*
X383411Y269023D01*
X376043Y269023D01*
G37*
%LPD*%
%LPC*%
G36*
X386457Y265977D02*
X386457Y265977D01*
X393825Y265977D01*
X393605Y264870D01*
X392925Y263229D01*
X391938Y261751D01*
X390683Y260496D01*
X389205Y259509D01*
X387564Y258829D01*
X386457Y258609D01*
X386457Y265977D01*
G37*
%LPD*%
%LPC*%
G36*
X382304Y258829D02*
X382304Y258829D01*
X380663Y259509D01*
X379185Y260496D01*
X377930Y261751D01*
X376943Y263229D01*
X376263Y264870D01*
X376043Y265977D01*
X383411Y265977D01*
X383411Y258609D01*
X382304Y258829D01*
G37*
%LPD*%
%LPC*%
G36*
X359599Y132299D02*
X359599Y132299D01*
X359599Y132301D01*
X359601Y132301D01*
X359601Y132299D01*
X359599Y132299D01*
G37*
%LPD*%
%LPC*%
G36*
X244199Y132299D02*
X244199Y132299D01*
X244199Y132301D01*
X244201Y132301D01*
X244201Y132299D01*
X244199Y132299D01*
G37*
%LPD*%
%LPC*%
G36*
X244199Y192299D02*
X244199Y192299D01*
X244199Y192301D01*
X244201Y192301D01*
X244201Y192299D01*
X244199Y192299D01*
G37*
%LPD*%
%LPC*%
G36*
X384933Y267499D02*
X384933Y267499D01*
X384933Y267501D01*
X384935Y267501D01*
X384935Y267499D01*
X384933Y267499D01*
G37*
%LPD*%
%LPC*%
G36*
X451999Y145199D02*
X451999Y145199D01*
X451999Y145201D01*
X452001Y145201D01*
X452001Y145199D01*
X451999Y145199D01*
G37*
%LPD*%
%LPC*%
G36*
X440999Y120799D02*
X440999Y120799D01*
X440999Y120801D01*
X441001Y120801D01*
X441001Y120799D01*
X440999Y120799D01*
G37*
%LPD*%
%LPC*%
G36*
X359599Y192299D02*
X359599Y192299D01*
X359599Y192301D01*
X359601Y192301D01*
X359601Y192299D01*
X359599Y192299D01*
G37*
%LPD*%
%LPC*%
G36*
X472999Y144799D02*
X472999Y144799D01*
X472999Y144801D01*
X473001Y144801D01*
X473001Y144799D01*
X472999Y144799D01*
G37*
%LPD*%
%LPC*%
G36*
X244199Y72299D02*
X244199Y72299D01*
X244199Y72301D01*
X244201Y72301D01*
X244201Y72299D01*
X244199Y72299D01*
G37*
%LPD*%
D10*
X120200Y154600D03*
D11*
X120200Y174600D03*
X120200Y194600D03*
X120200Y214600D03*
D10*
X164200Y192300D03*
D11*
X184200Y192300D03*
X204200Y192300D03*
X224200Y192300D03*
X244200Y192300D03*
X264200Y192300D03*
D10*
X164200Y132300D03*
D11*
X184200Y132300D03*
X204200Y132300D03*
X224200Y132300D03*
X244200Y132300D03*
X264200Y132300D03*
D10*
X164200Y72300D03*
D11*
X184200Y72300D03*
X204200Y72300D03*
X224200Y72300D03*
X244200Y72300D03*
X264200Y72300D03*
D10*
X339600Y192300D03*
D11*
X359600Y192300D03*
X379600Y192300D03*
X399600Y192300D03*
D10*
X339600Y132300D03*
D11*
X359600Y132300D03*
X379600Y132300D03*
X399600Y132300D03*
D10*
X339600Y72300D03*
D11*
X359600Y72300D03*
X379600Y72300D03*
X399600Y72300D03*
D12*
X441000Y19200D03*
X441000Y120800D03*
X60000Y159200D03*
X60000Y260800D03*
X452000Y145200D03*
X452000Y246800D03*
D13*
X94000Y120800D03*
X94000Y19200D03*
X473000Y144800D03*
X473000Y43200D03*
X60000Y120800D03*
X60000Y19200D03*
X496500Y239800D03*
X496500Y138200D03*
D12*
X24000Y91200D03*
X24000Y192800D03*
D14*
X232500Y20000D03*
D15*
X252566Y20000D03*
X272378Y20000D03*
X292444Y20000D03*
X312510Y20000D03*
X332576Y20000D03*
D14*
X405000Y267500D03*
D15*
X384934Y267500D03*
X365122Y267500D03*
X345056Y267500D03*
X324990Y267500D03*
X304924Y267500D03*
X285112Y267500D03*
X265046Y267500D03*
X244980Y267500D03*
X224914Y267500D03*
X205102Y267500D03*
X185036Y267500D03*
X164970Y267500D03*
X144904Y267500D03*
X125092Y267500D03*
D16*
X184595Y131699D02*
X184595Y101473D01*
X184595Y72327D01*
X184200Y72300D01*
X184595Y131699D02*
X184200Y132300D01*
X74486Y158687D02*
X60452Y158687D01*
X74486Y158687D02*
X131699Y101473D01*
X184595Y101473D01*
X60452Y158687D02*
X60000Y159200D01*
X275273Y256921D02*
X332486Y256921D01*
X275273Y256921D02*
X223457Y205105D01*
X184595Y192151D02*
X184595Y132779D01*
X184200Y132300D01*
X184595Y192151D02*
X184200Y192300D01*
D17*
X332486Y256921D03*
X223457Y205105D03*
D16*
X245047Y131699D02*
X245047Y121984D01*
X245047Y72327D01*
X244200Y72300D01*
X245047Y131699D02*
X244200Y132300D01*
X245047Y132779D02*
X245047Y192151D01*
X244200Y192300D01*
X245047Y132779D02*
X244200Y132300D01*
X441516Y134938D02*
X441516Y120904D01*
X442055Y135477D02*
X451231Y144653D01*
X442055Y135477D02*
X441516Y134938D01*
X441516Y120904D02*
X441000Y120800D01*
X451231Y144653D02*
X452000Y145200D01*
X452311Y144653D02*
X472821Y144653D01*
X473000Y144800D01*
X452311Y144653D02*
X452000Y145200D01*
X495491Y167323D02*
X495491Y239649D01*
X495491Y167323D02*
X473901Y145733D01*
X495491Y239649D02*
X496500Y239800D01*
X473901Y145733D02*
X473000Y144800D01*
X384302Y216980D02*
X384302Y266637D01*
X384302Y216980D02*
X360553Y193231D01*
X384302Y266637D02*
X384934Y267500D01*
X360553Y193231D02*
X359600Y192300D01*
X360553Y192151D02*
X360553Y142494D01*
X360553Y132779D01*
X359600Y132300D01*
X360553Y192151D02*
X359600Y192300D01*
X410210Y136017D02*
X441516Y136017D01*
X410210Y136017D02*
X403733Y142494D01*
X360553Y142494D01*
X441516Y136017D02*
X442055Y135477D01*
X349758Y121984D02*
X245047Y121984D01*
X349758Y121984D02*
X359474Y131699D01*
X359600Y132300D01*
X359474Y267716D02*
X364871Y267716D01*
X359474Y267716D02*
X349758Y277432D01*
X280670Y277432D01*
X275273Y272034D01*
X275273Y263398D01*
X224536Y212662D01*
X220218Y212662D01*
X205105Y197549D01*
X205105Y193231D01*
X364871Y267716D02*
X365122Y267500D01*
X205105Y193231D02*
X204200Y192300D01*
X344361Y258001D02*
X344361Y266637D01*
X344361Y258001D02*
X295783Y209423D01*
X240729Y209423D01*
X224536Y193231D01*
X344361Y266637D02*
X345056Y267500D01*
X224536Y193231D02*
X224200Y192300D01*
X208344Y254762D02*
X245047Y254762D01*
X208344Y254762D02*
X153289Y199708D01*
X153289Y123063D01*
X167323Y109030D01*
D17*
X245047Y254762D03*
X167323Y109030D03*
D16*
X264478Y263398D02*
X264478Y266637D01*
X264478Y263398D02*
X204026Y202946D01*
X200787Y202946D01*
X194310Y196469D01*
X194310Y101473D01*
X223457Y72327D01*
X264478Y266637D02*
X265046Y267500D01*
X224200Y72300D02*
X223457Y72327D01*
X184595Y237490D02*
X184595Y266637D01*
X184595Y237490D02*
X130620Y183515D01*
X130620Y165164D01*
X120904Y155448D01*
X184595Y266637D02*
X185036Y267500D01*
X120904Y155448D02*
X120200Y154600D01*
X252603Y177038D02*
X262319Y177038D01*
X309817Y129540D01*
D17*
X252603Y177038D03*
X309817Y129540D03*
D16*
X164084Y238570D02*
X164084Y266637D01*
X123063Y197549D02*
X120904Y195390D01*
X123063Y197549D02*
X164084Y238570D01*
X164084Y266637D02*
X164970Y267500D01*
X120904Y195390D02*
X120200Y194600D01*
X123063Y197549D02*
X60452Y260160D01*
X60000Y260800D01*
X123063Y197549D02*
X120200Y194600D01*
X297942Y201867D02*
X331407Y201867D01*
X332486Y202946D01*
X351917Y202946D01*
X432880Y246126D02*
X451231Y246126D01*
X432880Y246126D02*
X379984Y193231D01*
X451231Y246126D02*
X452000Y246800D01*
X379984Y193231D02*
X379600Y192300D01*
D17*
X297942Y201867D03*
X351917Y202946D03*
D16*
X318453Y193231D02*
X289306Y193231D01*
D17*
X289306Y193231D03*
X318453Y193231D03*
D16*
X289306Y99314D02*
X351917Y99314D01*
X378905Y72327D01*
X379600Y72300D01*
X481457Y138176D02*
X495491Y138176D01*
X481457Y138176D02*
X426403Y83122D01*
X390779Y83122D01*
X379984Y72327D01*
X495491Y138176D02*
X496500Y138200D01*
X379984Y72327D02*
X379600Y72300D01*
D17*
X289306Y99314D03*
D18*
X164084Y158687D02*
X164084Y192151D01*
X164200Y192300D01*
D17*
X164084Y158687D03*
D18*
X279591Y47498D02*
X300101Y47498D01*
X302260Y154369D02*
X264478Y192151D01*
X264200Y192300D01*
D17*
X279591Y47498D03*
X300101Y47498D03*
X302260Y154369D03*
D18*
X272034Y20511D02*
X266637Y20511D01*
X252603Y34544D01*
X183515Y34544D01*
X113348Y104712D01*
X272034Y20511D02*
X272378Y20000D01*
D17*
X113348Y104712D03*
D18*
X306578Y20511D02*
X311976Y20511D01*
X306578Y20511D02*
X287147Y39942D01*
X196469Y39942D01*
X165164Y71247D01*
X311976Y20511D02*
X312510Y20000D01*
X165164Y71247D02*
X164200Y72300D01*
X332486Y25908D02*
X332486Y20511D01*
X332486Y25908D02*
X287147Y71247D01*
X264478Y71247D01*
X332486Y20511D02*
X332576Y20000D01*
X264478Y71247D02*
X264200Y72300D01*
D16*
X392938Y131699D02*
X399415Y131699D01*
X392938Y131699D02*
X368110Y106871D01*
X286068Y106871D01*
X281750Y102553D01*
X281750Y90678D01*
X128461Y61532D02*
X102553Y61532D01*
X60452Y19431D01*
X399415Y131699D02*
X399600Y132300D01*
X60452Y19431D02*
X60000Y19200D01*
D17*
X281750Y90678D03*
X128461Y61532D03*
D16*
X392938Y71247D02*
X399415Y71247D01*
X392938Y71247D02*
X383223Y61532D01*
X303340Y61532D01*
X281750Y83122D01*
X252603Y83122D01*
X132779Y116586D02*
X123063Y116586D01*
X47498Y192151D01*
X24829Y192151D01*
X399600Y72300D02*
X399415Y71247D01*
X24829Y192151D02*
X24000Y192800D01*
D17*
X252603Y83122D03*
X132779Y116586D03*
D16*
X340043Y132779D02*
X340043Y185674D01*
X340043Y192151D01*
X339600Y192300D01*
X340043Y132779D02*
X339600Y132300D01*
X31306Y91758D02*
X24829Y91758D01*
X31306Y91758D02*
X59373Y119825D01*
X24829Y91758D02*
X24000Y91200D01*
X59373Y119825D02*
X60000Y120800D01*
X60452Y120904D02*
X93917Y120904D01*
X60452Y120904D02*
X60000Y120800D01*
X93917Y120904D02*
X94000Y120800D01*
X284988Y185674D02*
X340043Y185674D01*
X284988Y185674D02*
X267716Y202946D01*
X253683Y202946D01*
X252603Y201867D01*
X177038Y254762D02*
X177038Y261239D01*
X174879Y263398D01*
X174879Y272034D01*
X169482Y277432D01*
X155448Y277432D01*
X145733Y267716D01*
X144904Y267500D01*
D17*
X252603Y201867D03*
X177038Y254762D03*
M02*
