G04 EAGLE Gerber RS-274X export*
G75*
%MOMM*%
%FSLAX34Y34*%
%LPD*%
%INSoldermask Top*%
%IPPOS*%
%AMOC8*
5,1,8,0,0,1.08239X$1,22.5*%
G01*
%ADD10C,2.703200*%
%ADD11R,1.511200X1.511200*%
%ADD12C,1.511200*%
%ADD13P,1.649562X8X112.500000*%
%ADD14P,1.649562X8X292.500000*%
%ADD15R,1.498600X1.498600*%
%ADD16C,1.498600*%
%ADD17C,0.959600*%


D10*
X20000Y20000D03*
X20000Y270000D03*
X500000Y270000D03*
X500000Y20000D03*
D11*
X120200Y154600D03*
D12*
X120200Y174600D03*
X120200Y194600D03*
X120200Y214600D03*
D11*
X164200Y192300D03*
D12*
X184200Y192300D03*
X204200Y192300D03*
X224200Y192300D03*
X244200Y192300D03*
X264200Y192300D03*
D11*
X164200Y132300D03*
D12*
X184200Y132300D03*
X204200Y132300D03*
X224200Y132300D03*
X244200Y132300D03*
X264200Y132300D03*
D11*
X164200Y72300D03*
D12*
X184200Y72300D03*
X204200Y72300D03*
X224200Y72300D03*
X244200Y72300D03*
X264200Y72300D03*
D11*
X339600Y192300D03*
D12*
X359600Y192300D03*
X379600Y192300D03*
X399600Y192300D03*
D11*
X339600Y132300D03*
D12*
X359600Y132300D03*
X379600Y132300D03*
X399600Y132300D03*
D11*
X339600Y72300D03*
D12*
X359600Y72300D03*
X379600Y72300D03*
X399600Y72300D03*
D13*
X441000Y19200D03*
X441000Y120800D03*
X60000Y159200D03*
X60000Y260800D03*
X452000Y145200D03*
X452000Y246800D03*
D14*
X94000Y120800D03*
X94000Y19200D03*
X473000Y144800D03*
X473000Y43200D03*
X60000Y120800D03*
X60000Y19200D03*
X496500Y239800D03*
X496500Y138200D03*
D13*
X24000Y91200D03*
X24000Y192800D03*
D15*
X232500Y20000D03*
D16*
X252566Y20000D03*
X272378Y20000D03*
X292444Y20000D03*
X312510Y20000D03*
X332576Y20000D03*
D15*
X405000Y267500D03*
D16*
X384934Y267500D03*
X365122Y267500D03*
X345056Y267500D03*
X324990Y267500D03*
X304924Y267500D03*
X285112Y267500D03*
X265046Y267500D03*
X244980Y267500D03*
X224914Y267500D03*
X205102Y267500D03*
X185036Y267500D03*
X164970Y267500D03*
X144904Y267500D03*
X125092Y267500D03*
D17*
X332486Y256921D03*
X223457Y205105D03*
X245047Y254762D03*
X167323Y109030D03*
X252603Y177038D03*
X309817Y129540D03*
X297942Y201867D03*
X351917Y202946D03*
X289306Y193231D03*
X318453Y193231D03*
X289306Y99314D03*
X164084Y158687D03*
X279591Y47498D03*
X300101Y47498D03*
X302260Y154369D03*
X113348Y104712D03*
X281750Y90678D03*
X128461Y61532D03*
X252603Y83122D03*
X132779Y116586D03*
X252603Y201867D03*
X177038Y254762D03*
M02*
