G04 EAGLE Gerber RS-274X export*
G75*
%MOMM*%
%FSLAX34Y34*%
%LPD*%
%INTop Copper*%
%IPPOS*%
%AMOC8*
5,1,8,0,0,1.08239X$1,22.5*%
G01*
%ADD10R,1.295400X1.295400*%
%ADD11C,1.295400*%
%ADD12C,0.203200*%
%ADD13C,0.756400*%
%ADD14C,0.254000*%

G36*
X98977Y10165D02*
X98977Y10165D01*
X99006Y10162D01*
X99117Y10185D01*
X99230Y10201D01*
X99256Y10213D01*
X99285Y10218D01*
X99386Y10270D01*
X99489Y10317D01*
X99511Y10336D01*
X99537Y10349D01*
X99619Y10427D01*
X99706Y10500D01*
X99722Y10525D01*
X99743Y10545D01*
X99801Y10643D01*
X99864Y10737D01*
X99872Y10765D01*
X99887Y10790D01*
X99915Y10900D01*
X99949Y11008D01*
X99950Y11038D01*
X99957Y11066D01*
X99954Y11179D01*
X99957Y11292D01*
X99949Y11321D01*
X99948Y11350D01*
X99913Y11458D01*
X99885Y11567D01*
X99870Y11593D01*
X99861Y11621D01*
X99815Y11684D01*
X99740Y11812D01*
X99694Y11855D01*
X99666Y11894D01*
X94056Y17503D01*
X94055Y17504D01*
X94054Y17506D01*
X93939Y17592D01*
X93829Y17674D01*
X93828Y17675D01*
X93826Y17676D01*
X93693Y17726D01*
X93563Y17776D01*
X93562Y17776D01*
X93560Y17776D01*
X93416Y17788D01*
X93280Y17799D01*
X93279Y17799D01*
X93277Y17799D01*
X93261Y17795D01*
X93001Y17743D01*
X92974Y17729D01*
X92950Y17723D01*
X91159Y16982D01*
X88038Y16982D01*
X85154Y18176D01*
X82946Y20384D01*
X81752Y23268D01*
X81752Y26389D01*
X82946Y29273D01*
X85142Y31469D01*
X85143Y31470D01*
X85144Y31471D01*
X85229Y31584D01*
X85313Y31696D01*
X85313Y31697D01*
X85314Y31699D01*
X85364Y31831D01*
X85414Y31962D01*
X85414Y31963D01*
X85415Y31965D01*
X85426Y32104D01*
X85437Y32245D01*
X85437Y32246D01*
X85437Y32248D01*
X85434Y32263D01*
X85382Y32524D01*
X85367Y32551D01*
X85362Y32575D01*
X84518Y34613D01*
X84518Y151061D01*
X85291Y152929D01*
X89168Y156806D01*
X89169Y156807D01*
X89171Y156808D01*
X89260Y156928D01*
X89339Y157033D01*
X89340Y157034D01*
X89341Y157036D01*
X89391Y157169D01*
X89441Y157299D01*
X89441Y157300D01*
X89441Y157302D01*
X89452Y157439D01*
X89464Y157582D01*
X89464Y157583D01*
X89464Y157585D01*
X89460Y157600D01*
X89408Y157861D01*
X89394Y157888D01*
X89392Y157896D01*
X89392Y162097D01*
X90997Y165971D01*
X93963Y168937D01*
X97837Y170542D01*
X102031Y170542D01*
X103624Y169882D01*
X103736Y169853D01*
X103845Y169818D01*
X103873Y169818D01*
X103900Y169811D01*
X104014Y169814D01*
X104129Y169811D01*
X104156Y169818D01*
X104184Y169819D01*
X104293Y169854D01*
X104404Y169883D01*
X104428Y169897D01*
X104455Y169905D01*
X104550Y169969D01*
X104649Y170028D01*
X104668Y170048D01*
X104691Y170064D01*
X104765Y170152D01*
X104843Y170235D01*
X104856Y170260D01*
X104874Y170281D01*
X104920Y170386D01*
X104973Y170489D01*
X104977Y170513D01*
X104989Y170541D01*
X105026Y170805D01*
X105028Y170820D01*
X105028Y209180D01*
X105021Y209234D01*
X105022Y209266D01*
X105011Y209306D01*
X105002Y209408D01*
X104992Y209434D01*
X104988Y209462D01*
X104942Y209567D01*
X104900Y209674D01*
X104884Y209696D01*
X104872Y209721D01*
X104798Y209809D01*
X104729Y209900D01*
X104706Y209917D01*
X104689Y209938D01*
X104593Y210002D01*
X104501Y210071D01*
X104475Y210080D01*
X104452Y210096D01*
X104342Y210131D01*
X104235Y210171D01*
X104207Y210173D01*
X104181Y210182D01*
X104066Y210185D01*
X103952Y210194D01*
X103927Y210188D01*
X103897Y210189D01*
X103640Y210122D01*
X103624Y210118D01*
X102031Y209458D01*
X97837Y209458D01*
X93963Y211063D01*
X90997Y214029D01*
X89392Y217903D01*
X89392Y222108D01*
X89419Y222215D01*
X89455Y222352D01*
X89455Y222353D01*
X89455Y222355D01*
X89451Y222496D01*
X89447Y222636D01*
X89446Y222637D01*
X89446Y222639D01*
X89403Y222773D01*
X89360Y222907D01*
X89359Y222908D01*
X89359Y222910D01*
X89350Y222922D01*
X89202Y223143D01*
X89178Y223163D01*
X89164Y223183D01*
X85291Y227055D01*
X84518Y228923D01*
X84518Y345371D01*
X85291Y347239D01*
X121264Y383212D01*
X123132Y383985D01*
X719958Y383985D01*
X721825Y383212D01*
X722750Y382286D01*
X722797Y382251D01*
X722837Y382209D01*
X722910Y382166D01*
X722977Y382116D01*
X723032Y382095D01*
X723083Y382065D01*
X723164Y382044D01*
X723243Y382014D01*
X723301Y382010D01*
X723358Y381995D01*
X723442Y381998D01*
X723526Y381991D01*
X723584Y382002D01*
X723642Y382004D01*
X723722Y382030D01*
X723805Y382047D01*
X723857Y382074D01*
X723913Y382092D01*
X723969Y382132D01*
X724057Y382178D01*
X724130Y382246D01*
X724186Y382286D01*
X726377Y384477D01*
X729261Y385672D01*
X732382Y385672D01*
X735266Y384477D01*
X737474Y382270D01*
X738668Y379386D01*
X738668Y377584D01*
X738680Y377497D01*
X738683Y377410D01*
X738700Y377357D01*
X738708Y377303D01*
X738744Y377223D01*
X738771Y377140D01*
X738799Y377100D01*
X738824Y377043D01*
X738920Y376930D01*
X738966Y376866D01*
X793254Y322577D01*
X793301Y322542D01*
X793341Y322500D01*
X793414Y322457D01*
X793482Y322406D01*
X793536Y322386D01*
X793587Y322356D01*
X793668Y322335D01*
X793747Y322305D01*
X793806Y322300D01*
X793862Y322286D01*
X793946Y322289D01*
X794031Y322282D01*
X794088Y322293D01*
X794146Y322295D01*
X794227Y322321D01*
X794309Y322338D01*
X794361Y322365D01*
X794417Y322383D01*
X794473Y322423D01*
X794562Y322469D01*
X794634Y322537D01*
X794690Y322577D01*
X797031Y324919D01*
X798899Y325692D01*
X878644Y325692D01*
X880512Y324919D01*
X884100Y321331D01*
X884873Y319463D01*
X884873Y78763D01*
X884885Y78677D01*
X884888Y78589D01*
X884905Y78537D01*
X884913Y78482D01*
X884949Y78402D01*
X884976Y78319D01*
X885004Y78279D01*
X885029Y78222D01*
X885125Y78109D01*
X885171Y78045D01*
X886445Y76771D01*
X887639Y73887D01*
X887639Y70766D01*
X886445Y67882D01*
X884237Y65674D01*
X881353Y64480D01*
X878232Y64480D01*
X875348Y65674D01*
X873140Y67882D01*
X871946Y70766D01*
X871946Y73887D01*
X873140Y76771D01*
X874414Y78045D01*
X874467Y78115D01*
X874527Y78179D01*
X874552Y78228D01*
X874585Y78273D01*
X874616Y78354D01*
X874656Y78432D01*
X874664Y78480D01*
X874687Y78538D01*
X874699Y78686D01*
X874712Y78763D01*
X874712Y188443D01*
X874704Y188501D01*
X874705Y188559D01*
X874684Y188641D01*
X874672Y188725D01*
X874648Y188778D01*
X874633Y188834D01*
X874590Y188907D01*
X874556Y188984D01*
X874518Y189029D01*
X874488Y189079D01*
X874426Y189137D01*
X874372Y189201D01*
X874323Y189233D01*
X874281Y189273D01*
X874206Y189312D01*
X874135Y189359D01*
X874080Y189376D01*
X874028Y189403D01*
X873960Y189414D01*
X873864Y189444D01*
X873765Y189447D01*
X873697Y189458D01*
X861839Y189458D01*
X859458Y191839D01*
X859458Y194676D01*
X859440Y194803D01*
X859426Y194931D01*
X859420Y194943D01*
X859418Y194957D01*
X859366Y195075D01*
X859317Y195193D01*
X859308Y195204D01*
X859302Y195217D01*
X859219Y195315D01*
X859139Y195415D01*
X859127Y195423D01*
X859119Y195434D01*
X859012Y195505D01*
X858907Y195579D01*
X858893Y195584D01*
X858882Y195591D01*
X858759Y195630D01*
X858638Y195672D01*
X858624Y195673D01*
X858611Y195677D01*
X858482Y195680D01*
X858354Y195687D01*
X858341Y195684D01*
X858327Y195684D01*
X858202Y195652D01*
X858077Y195623D01*
X858065Y195616D01*
X858052Y195613D01*
X857941Y195547D01*
X857829Y195484D01*
X857820Y195475D01*
X857807Y195467D01*
X857613Y195260D01*
X857607Y195248D01*
X857599Y195240D01*
X856938Y194251D01*
X855683Y192996D01*
X854206Y192009D01*
X852564Y191329D01*
X851902Y191197D01*
X851902Y199047D01*
X851895Y199097D01*
X851895Y199114D01*
X851894Y199118D01*
X851895Y199164D01*
X851874Y199245D01*
X851862Y199329D01*
X851838Y199382D01*
X851823Y199439D01*
X851780Y199511D01*
X851746Y199588D01*
X851708Y199633D01*
X851678Y199683D01*
X851616Y199741D01*
X851562Y199805D01*
X851513Y199838D01*
X851471Y199878D01*
X851396Y199916D01*
X851325Y199963D01*
X851270Y199980D01*
X851226Y200003D01*
X851278Y200016D01*
X851350Y200059D01*
X851427Y200094D01*
X851472Y200131D01*
X851522Y200161D01*
X851580Y200223D01*
X851644Y200277D01*
X851677Y200326D01*
X851717Y200369D01*
X851755Y200444D01*
X851802Y200514D01*
X851820Y200570D01*
X851846Y200622D01*
X851858Y200690D01*
X851888Y200785D01*
X851890Y200885D01*
X851902Y200953D01*
X851902Y208803D01*
X852564Y208671D01*
X854206Y207991D01*
X855683Y207004D01*
X856938Y205749D01*
X857599Y204760D01*
X857685Y204664D01*
X857768Y204566D01*
X857779Y204559D01*
X857788Y204548D01*
X857897Y204480D01*
X858004Y204409D01*
X858017Y204405D01*
X858029Y204397D01*
X858153Y204362D01*
X858275Y204323D01*
X858289Y204323D01*
X858302Y204319D01*
X858431Y204319D01*
X858559Y204316D01*
X858573Y204319D01*
X858587Y204319D01*
X858710Y204355D01*
X858834Y204387D01*
X858846Y204395D01*
X858860Y204398D01*
X858969Y204467D01*
X859079Y204533D01*
X859088Y204543D01*
X859100Y204550D01*
X859185Y204646D01*
X859273Y204740D01*
X859280Y204752D01*
X859289Y204763D01*
X859344Y204879D01*
X859403Y204993D01*
X859405Y205006D01*
X859411Y205019D01*
X859458Y205300D01*
X859456Y205313D01*
X859458Y205324D01*
X859458Y208161D01*
X861839Y210542D01*
X863981Y210542D01*
X864039Y210550D01*
X864097Y210548D01*
X864179Y210570D01*
X864263Y210582D01*
X864316Y210605D01*
X864372Y210620D01*
X864445Y210663D01*
X864522Y210698D01*
X864567Y210736D01*
X864617Y210765D01*
X864675Y210827D01*
X864739Y210881D01*
X864771Y210930D01*
X864811Y210973D01*
X864850Y211048D01*
X864897Y211118D01*
X864914Y211174D01*
X864941Y211226D01*
X864952Y211294D01*
X864982Y211389D01*
X864985Y211489D01*
X864996Y211557D01*
X864996Y298443D01*
X864988Y298501D01*
X864990Y298559D01*
X864968Y298641D01*
X864956Y298725D01*
X864933Y298778D01*
X864918Y298834D01*
X864875Y298907D01*
X864840Y298984D01*
X864802Y299029D01*
X864773Y299079D01*
X864711Y299137D01*
X864657Y299201D01*
X864608Y299233D01*
X864565Y299273D01*
X864490Y299312D01*
X864420Y299359D01*
X864364Y299376D01*
X864312Y299403D01*
X864244Y299414D01*
X864149Y299444D01*
X864049Y299447D01*
X863981Y299458D01*
X861839Y299458D01*
X859458Y301839D01*
X859458Y304676D01*
X859440Y304803D01*
X859426Y304931D01*
X859420Y304943D01*
X859418Y304957D01*
X859366Y305075D01*
X859317Y305193D01*
X859308Y305204D01*
X859302Y305217D01*
X859219Y305315D01*
X859139Y305415D01*
X859127Y305423D01*
X859119Y305434D01*
X859012Y305505D01*
X858907Y305579D01*
X858893Y305584D01*
X858882Y305591D01*
X858759Y305630D01*
X858638Y305672D01*
X858624Y305673D01*
X858611Y305677D01*
X858482Y305680D01*
X858354Y305687D01*
X858341Y305684D01*
X858327Y305684D01*
X858202Y305652D01*
X858077Y305623D01*
X858065Y305616D01*
X858052Y305613D01*
X857941Y305547D01*
X857829Y305484D01*
X857820Y305475D01*
X857807Y305467D01*
X857613Y305260D01*
X857607Y305248D01*
X857599Y305240D01*
X856938Y304251D01*
X855683Y302996D01*
X854206Y302009D01*
X852564Y301329D01*
X851902Y301197D01*
X851902Y309047D01*
X851894Y309105D01*
X851895Y309164D01*
X851874Y309245D01*
X851862Y309329D01*
X851838Y309382D01*
X851823Y309439D01*
X851780Y309511D01*
X851746Y309588D01*
X851708Y309633D01*
X851678Y309683D01*
X851616Y309741D01*
X851562Y309805D01*
X851513Y309838D01*
X851471Y309878D01*
X851396Y309916D01*
X851325Y309963D01*
X851270Y309980D01*
X851218Y310007D01*
X851150Y310018D01*
X851054Y310049D01*
X850955Y310051D01*
X850887Y310063D01*
X848981Y310063D01*
X848924Y310054D01*
X848865Y310056D01*
X848783Y310035D01*
X848700Y310023D01*
X848647Y309999D01*
X848590Y309984D01*
X848518Y309941D01*
X848441Y309906D01*
X848396Y309869D01*
X848346Y309839D01*
X848288Y309777D01*
X848224Y309723D01*
X848191Y309674D01*
X848151Y309631D01*
X848113Y309556D01*
X848066Y309486D01*
X848048Y309430D01*
X848022Y309378D01*
X848010Y309310D01*
X847980Y309215D01*
X847978Y309115D01*
X847966Y309047D01*
X847966Y301197D01*
X847304Y301329D01*
X845662Y302009D01*
X844185Y302996D01*
X842930Y304251D01*
X841943Y305728D01*
X841791Y306095D01*
X841776Y306120D01*
X841767Y306148D01*
X841704Y306242D01*
X841646Y306340D01*
X841625Y306360D01*
X841609Y306384D01*
X841522Y306457D01*
X841440Y306535D01*
X841414Y306548D01*
X841391Y306567D01*
X841287Y306614D01*
X841187Y306665D01*
X841158Y306671D01*
X841131Y306683D01*
X841019Y306698D01*
X840908Y306720D01*
X840879Y306718D01*
X840850Y306722D01*
X840738Y306706D01*
X840625Y306696D01*
X840597Y306685D01*
X840568Y306681D01*
X840465Y306635D01*
X840359Y306594D01*
X840336Y306576D01*
X840309Y306564D01*
X840223Y306491D01*
X840133Y306422D01*
X840115Y306399D01*
X840093Y306380D01*
X840051Y306313D01*
X839963Y306195D01*
X839940Y306136D01*
X839915Y306095D01*
X839059Y304029D01*
X836093Y301063D01*
X832219Y299458D01*
X828025Y299458D01*
X824151Y301063D01*
X821185Y304028D01*
X821027Y304410D01*
X821012Y304436D01*
X821003Y304464D01*
X820940Y304558D01*
X820883Y304655D01*
X820861Y304675D01*
X820845Y304700D01*
X820758Y304773D01*
X820676Y304850D01*
X820650Y304864D01*
X820627Y304883D01*
X820524Y304929D01*
X820423Y304981D01*
X820394Y304986D01*
X820367Y304998D01*
X820255Y305014D01*
X820144Y305036D01*
X820115Y305033D01*
X820086Y305037D01*
X819974Y305021D01*
X819861Y305011D01*
X819833Y305001D01*
X819805Y304997D01*
X819701Y304950D01*
X819596Y304909D01*
X819572Y304892D01*
X819545Y304879D01*
X819459Y304806D01*
X819369Y304738D01*
X819351Y304714D01*
X819329Y304695D01*
X819287Y304629D01*
X819199Y304510D01*
X819177Y304451D01*
X819151Y304410D01*
X818993Y304029D01*
X816027Y301063D01*
X812153Y299458D01*
X807959Y299458D01*
X804085Y301063D01*
X801119Y304028D01*
X800961Y304410D01*
X800946Y304436D01*
X800937Y304464D01*
X800874Y304558D01*
X800817Y304655D01*
X800795Y304675D01*
X800779Y304700D01*
X800692Y304773D01*
X800610Y304850D01*
X800584Y304864D01*
X800561Y304883D01*
X800458Y304929D01*
X800357Y304981D01*
X800328Y304986D01*
X800301Y304998D01*
X800189Y305014D01*
X800078Y305036D01*
X800049Y305033D01*
X800020Y305037D01*
X799908Y305021D01*
X799795Y305011D01*
X799767Y305001D01*
X799739Y304997D01*
X799635Y304950D01*
X799530Y304909D01*
X799506Y304892D01*
X799479Y304879D01*
X799393Y304806D01*
X799303Y304738D01*
X799285Y304714D01*
X799263Y304695D01*
X799221Y304629D01*
X799133Y304510D01*
X799111Y304451D01*
X799085Y304410D01*
X798927Y304029D01*
X795961Y301063D01*
X792087Y299458D01*
X790757Y299458D01*
X790728Y299454D01*
X790699Y299457D01*
X790588Y299434D01*
X790476Y299418D01*
X790449Y299406D01*
X790420Y299401D01*
X790320Y299349D01*
X790217Y299302D01*
X790194Y299283D01*
X790168Y299270D01*
X790086Y299192D01*
X790000Y299119D01*
X789983Y299094D01*
X789962Y299074D01*
X789905Y298976D01*
X789842Y298882D01*
X789833Y298854D01*
X789818Y298829D01*
X789790Y298719D01*
X789756Y298611D01*
X789755Y298581D01*
X789748Y298553D01*
X789752Y298440D01*
X789749Y298327D01*
X789756Y298298D01*
X789757Y298269D01*
X789792Y298161D01*
X789821Y298052D01*
X789836Y298026D01*
X789845Y297998D01*
X789890Y297935D01*
X789966Y297807D01*
X790012Y297764D01*
X790040Y297725D01*
X804217Y283548D01*
X804990Y281681D01*
X804990Y210831D01*
X805006Y210718D01*
X805016Y210603D01*
X805026Y210577D01*
X805030Y210550D01*
X805077Y210445D01*
X805118Y210338D01*
X805135Y210316D01*
X805146Y210290D01*
X805220Y210203D01*
X805290Y210111D01*
X805312Y210095D01*
X805330Y210073D01*
X805425Y210010D01*
X805518Y209941D01*
X805543Y209931D01*
X805567Y209916D01*
X805676Y209881D01*
X805784Y209841D01*
X805811Y209838D01*
X805838Y209830D01*
X805952Y209827D01*
X806067Y209818D01*
X806091Y209824D01*
X806122Y209823D01*
X806379Y209890D01*
X806394Y209893D01*
X807959Y210542D01*
X812153Y210542D01*
X816027Y208937D01*
X818993Y205971D01*
X819151Y205590D01*
X819166Y205564D01*
X819175Y205536D01*
X819238Y205442D01*
X819296Y205345D01*
X819317Y205325D01*
X819333Y205300D01*
X819420Y205227D01*
X819502Y205150D01*
X819528Y205136D01*
X819551Y205117D01*
X819654Y205071D01*
X819755Y205019D01*
X819784Y205014D01*
X819811Y205002D01*
X819923Y204986D01*
X820034Y204964D01*
X820063Y204967D01*
X820092Y204963D01*
X820205Y204979D01*
X820317Y204989D01*
X820344Y204999D01*
X820374Y205003D01*
X820477Y205050D01*
X820582Y205091D01*
X820606Y205108D01*
X820633Y205121D01*
X820719Y205194D01*
X820809Y205262D01*
X820827Y205286D01*
X820849Y205305D01*
X820891Y205372D01*
X820979Y205490D01*
X821001Y205549D01*
X821027Y205590D01*
X821185Y205972D01*
X824151Y208937D01*
X828025Y210542D01*
X832219Y210542D01*
X836093Y208937D01*
X839059Y205971D01*
X839915Y203905D01*
X839930Y203880D01*
X839939Y203852D01*
X840002Y203758D01*
X840059Y203660D01*
X840081Y203640D01*
X840097Y203616D01*
X840184Y203543D01*
X840266Y203465D01*
X840292Y203451D01*
X840315Y203433D01*
X840418Y203387D01*
X840519Y203335D01*
X840548Y203329D01*
X840574Y203317D01*
X840687Y203302D01*
X840798Y203280D01*
X840827Y203282D01*
X840856Y203278D01*
X840968Y203294D01*
X841081Y203304D01*
X841108Y203315D01*
X841137Y203319D01*
X841240Y203365D01*
X841346Y203406D01*
X841370Y203424D01*
X841396Y203436D01*
X841483Y203509D01*
X841573Y203578D01*
X841590Y203601D01*
X841613Y203620D01*
X841654Y203687D01*
X841743Y203805D01*
X841765Y203864D01*
X841791Y203905D01*
X841943Y204272D01*
X842930Y205749D01*
X844185Y207004D01*
X845662Y207991D01*
X847304Y208671D01*
X847966Y208803D01*
X847966Y200953D01*
X847974Y200895D01*
X847973Y200836D01*
X847994Y200755D01*
X848006Y200671D01*
X848030Y200618D01*
X848045Y200561D01*
X848088Y200489D01*
X848122Y200412D01*
X848160Y200367D01*
X848190Y200317D01*
X848251Y200259D01*
X848306Y200195D01*
X848355Y200162D01*
X848397Y200122D01*
X848472Y200084D01*
X848543Y200037D01*
X848598Y200020D01*
X848642Y199997D01*
X848590Y199984D01*
X848518Y199941D01*
X848441Y199906D01*
X848396Y199869D01*
X848346Y199839D01*
X848288Y199777D01*
X848224Y199723D01*
X848191Y199674D01*
X848151Y199631D01*
X848113Y199556D01*
X848066Y199486D01*
X848048Y199430D01*
X848022Y199378D01*
X848010Y199310D01*
X847980Y199215D01*
X847978Y199115D01*
X847966Y199047D01*
X847966Y191197D01*
X847304Y191329D01*
X845662Y192009D01*
X844185Y192996D01*
X842930Y194251D01*
X841943Y195728D01*
X841791Y196095D01*
X841776Y196120D01*
X841767Y196148D01*
X841704Y196242D01*
X841646Y196340D01*
X841625Y196360D01*
X841609Y196384D01*
X841522Y196457D01*
X841440Y196535D01*
X841414Y196548D01*
X841391Y196567D01*
X841287Y196614D01*
X841187Y196665D01*
X841158Y196671D01*
X841131Y196683D01*
X841019Y196698D01*
X840908Y196720D01*
X840879Y196718D01*
X840850Y196722D01*
X840738Y196706D01*
X840625Y196696D01*
X840597Y196685D01*
X840568Y196681D01*
X840465Y196635D01*
X840359Y196594D01*
X840336Y196576D01*
X840309Y196564D01*
X840223Y196491D01*
X840133Y196422D01*
X840115Y196399D01*
X840093Y196380D01*
X840051Y196313D01*
X839963Y196195D01*
X839940Y196136D01*
X839915Y196095D01*
X839059Y194029D01*
X836094Y191063D01*
X835843Y190959D01*
X835842Y190959D01*
X835840Y190958D01*
X835723Y190889D01*
X835598Y190815D01*
X835597Y190814D01*
X835596Y190813D01*
X835497Y190707D01*
X835403Y190608D01*
X835402Y190607D01*
X835401Y190606D01*
X835338Y190482D01*
X835273Y190356D01*
X835272Y190354D01*
X835272Y190353D01*
X835269Y190338D01*
X835218Y190077D01*
X835220Y190046D01*
X835216Y190021D01*
X835216Y148117D01*
X835224Y148060D01*
X835223Y148001D01*
X835244Y147920D01*
X835256Y147836D01*
X835280Y147783D01*
X835295Y147726D01*
X835338Y147654D01*
X835372Y147577D01*
X835410Y147532D01*
X835440Y147482D01*
X835502Y147424D01*
X835556Y147360D01*
X835605Y147327D01*
X835647Y147287D01*
X835722Y147249D01*
X835793Y147202D01*
X835848Y147184D01*
X835900Y147158D01*
X835968Y147146D01*
X836064Y147116D01*
X836163Y147114D01*
X836231Y147102D01*
X839253Y147102D01*
X842137Y145908D01*
X844344Y143700D01*
X845539Y140816D01*
X845539Y137695D01*
X844344Y134811D01*
X843070Y133537D01*
X843018Y133467D01*
X842958Y133403D01*
X842932Y133354D01*
X842899Y133309D01*
X842868Y133228D01*
X842828Y133150D01*
X842820Y133102D01*
X842798Y133044D01*
X842786Y132896D01*
X842773Y132819D01*
X842773Y124509D01*
X842785Y124422D01*
X842788Y124335D01*
X842805Y124282D01*
X842813Y124227D01*
X842848Y124147D01*
X842875Y124064D01*
X842903Y124025D01*
X842929Y123968D01*
X843025Y123854D01*
X843070Y123791D01*
X847397Y119464D01*
X848170Y117597D01*
X848170Y38931D01*
X847397Y37063D01*
X845825Y35492D01*
X845825Y35491D01*
X822227Y11894D01*
X822209Y11870D01*
X822187Y11851D01*
X822124Y11757D01*
X822056Y11667D01*
X822046Y11639D01*
X822029Y11615D01*
X821995Y11507D01*
X821955Y11401D01*
X821953Y11372D01*
X821944Y11344D01*
X821941Y11230D01*
X821931Y11118D01*
X821937Y11089D01*
X821936Y11060D01*
X821965Y10950D01*
X821987Y10839D01*
X822001Y10813D01*
X822008Y10785D01*
X822066Y10687D01*
X822118Y10587D01*
X822138Y10565D01*
X822153Y10540D01*
X822236Y10463D01*
X822314Y10381D01*
X822339Y10366D01*
X822361Y10346D01*
X822462Y10294D01*
X822559Y10237D01*
X822588Y10230D01*
X822614Y10216D01*
X822691Y10203D01*
X822835Y10167D01*
X822897Y10169D01*
X822945Y10161D01*
X931806Y10161D01*
X931835Y10165D01*
X931864Y10162D01*
X931975Y10185D01*
X932087Y10201D01*
X932114Y10213D01*
X932143Y10218D01*
X932243Y10271D01*
X932346Y10317D01*
X932369Y10336D01*
X932395Y10349D01*
X932477Y10427D01*
X932563Y10500D01*
X932580Y10525D01*
X932601Y10545D01*
X932658Y10643D01*
X932721Y10737D01*
X932730Y10765D01*
X932745Y10790D01*
X932773Y10900D01*
X932807Y11008D01*
X932808Y11038D01*
X932815Y11066D01*
X932811Y11179D01*
X932814Y11292D01*
X932807Y11321D01*
X932806Y11350D01*
X932771Y11458D01*
X932742Y11567D01*
X932727Y11593D01*
X932718Y11621D01*
X932673Y11684D01*
X932597Y11812D01*
X932551Y11855D01*
X932523Y11894D01*
X929866Y14551D01*
X926554Y20288D01*
X924839Y26688D01*
X924839Y33312D01*
X926554Y39712D01*
X929866Y45449D01*
X934551Y50134D01*
X940288Y53446D01*
X946688Y55161D01*
X953312Y55161D01*
X959712Y53446D01*
X965449Y50134D01*
X968106Y47477D01*
X968130Y47459D01*
X968149Y47437D01*
X968243Y47374D01*
X968333Y47306D01*
X968361Y47295D01*
X968385Y47279D01*
X968493Y47245D01*
X968599Y47204D01*
X968628Y47202D01*
X968656Y47193D01*
X968770Y47190D01*
X968882Y47181D01*
X968911Y47187D01*
X968940Y47186D01*
X969050Y47214D01*
X969161Y47237D01*
X969187Y47250D01*
X969215Y47258D01*
X969313Y47316D01*
X969413Y47368D01*
X969435Y47388D01*
X969460Y47403D01*
X969537Y47485D01*
X969619Y47564D01*
X969634Y47589D01*
X969654Y47610D01*
X969706Y47711D01*
X969763Y47809D01*
X969770Y47837D01*
X969784Y47863D01*
X969797Y47941D01*
X969833Y48084D01*
X969831Y48147D01*
X969839Y48194D01*
X969839Y351806D01*
X969835Y351835D01*
X969838Y351864D01*
X969815Y351975D01*
X969799Y352087D01*
X969787Y352114D01*
X969782Y352143D01*
X969729Y352243D01*
X969683Y352346D01*
X969664Y352369D01*
X969651Y352395D01*
X969573Y352477D01*
X969500Y352563D01*
X969475Y352580D01*
X969455Y352601D01*
X969357Y352658D01*
X969263Y352721D01*
X969235Y352730D01*
X969210Y352745D01*
X969100Y352773D01*
X968992Y352807D01*
X968962Y352808D01*
X968934Y352815D01*
X968821Y352811D01*
X968708Y352814D01*
X968679Y352807D01*
X968650Y352806D01*
X968542Y352771D01*
X968433Y352742D01*
X968407Y352727D01*
X968379Y352718D01*
X968316Y352673D01*
X968188Y352597D01*
X968145Y352551D01*
X968106Y352523D01*
X965449Y349866D01*
X959712Y346554D01*
X953312Y344839D01*
X946688Y344839D01*
X940288Y346554D01*
X934551Y349866D01*
X929866Y354551D01*
X926554Y360288D01*
X924839Y366688D01*
X924839Y373312D01*
X926554Y379712D01*
X929866Y385449D01*
X932523Y388106D01*
X932541Y388130D01*
X932563Y388149D01*
X932626Y388243D01*
X932694Y388333D01*
X932705Y388361D01*
X932721Y388385D01*
X932755Y388493D01*
X932796Y388599D01*
X932798Y388628D01*
X932807Y388656D01*
X932810Y388770D01*
X932819Y388882D01*
X932813Y388911D01*
X932814Y388940D01*
X932786Y389050D01*
X932763Y389161D01*
X932750Y389187D01*
X932742Y389215D01*
X932684Y389313D01*
X932632Y389413D01*
X932612Y389435D01*
X932597Y389460D01*
X932515Y389537D01*
X932436Y389619D01*
X932411Y389634D01*
X932390Y389654D01*
X932289Y389706D01*
X932191Y389763D01*
X932163Y389770D01*
X932137Y389784D01*
X932059Y389797D01*
X931916Y389833D01*
X931853Y389831D01*
X931806Y389839D01*
X48194Y389839D01*
X48165Y389835D01*
X48136Y389838D01*
X48025Y389815D01*
X47913Y389799D01*
X47886Y389787D01*
X47857Y389782D01*
X47757Y389729D01*
X47654Y389683D01*
X47631Y389664D01*
X47605Y389651D01*
X47523Y389573D01*
X47437Y389500D01*
X47420Y389475D01*
X47399Y389455D01*
X47342Y389357D01*
X47279Y389263D01*
X47270Y389235D01*
X47255Y389210D01*
X47227Y389100D01*
X47193Y388992D01*
X47192Y388962D01*
X47185Y388934D01*
X47189Y388821D01*
X47186Y388708D01*
X47193Y388679D01*
X47194Y388650D01*
X47229Y388542D01*
X47258Y388433D01*
X47273Y388407D01*
X47282Y388379D01*
X47327Y388316D01*
X47403Y388188D01*
X47449Y388145D01*
X47477Y388106D01*
X50134Y385449D01*
X53446Y379712D01*
X55161Y373312D01*
X55161Y366688D01*
X53446Y360288D01*
X50134Y354551D01*
X45449Y349866D01*
X39712Y346554D01*
X33312Y344839D01*
X26688Y344839D01*
X20288Y346554D01*
X14551Y349866D01*
X11894Y352523D01*
X11870Y352541D01*
X11851Y352563D01*
X11757Y352626D01*
X11667Y352694D01*
X11639Y352705D01*
X11615Y352721D01*
X11507Y352755D01*
X11401Y352796D01*
X11372Y352798D01*
X11344Y352807D01*
X11230Y352810D01*
X11118Y352819D01*
X11089Y352813D01*
X11060Y352814D01*
X10950Y352786D01*
X10839Y352763D01*
X10813Y352750D01*
X10785Y352742D01*
X10687Y352684D01*
X10587Y352632D01*
X10565Y352612D01*
X10540Y352597D01*
X10463Y352515D01*
X10381Y352436D01*
X10366Y352411D01*
X10346Y352390D01*
X10294Y352289D01*
X10237Y352191D01*
X10230Y352163D01*
X10216Y352137D01*
X10203Y352059D01*
X10167Y351916D01*
X10169Y351853D01*
X10161Y351806D01*
X10161Y48194D01*
X10165Y48165D01*
X10162Y48136D01*
X10185Y48025D01*
X10201Y47913D01*
X10213Y47886D01*
X10218Y47857D01*
X10271Y47757D01*
X10317Y47654D01*
X10336Y47631D01*
X10349Y47605D01*
X10427Y47523D01*
X10500Y47437D01*
X10525Y47420D01*
X10545Y47399D01*
X10643Y47342D01*
X10737Y47279D01*
X10765Y47270D01*
X10790Y47255D01*
X10900Y47227D01*
X11008Y47193D01*
X11038Y47192D01*
X11066Y47185D01*
X11179Y47189D01*
X11292Y47186D01*
X11321Y47193D01*
X11350Y47194D01*
X11458Y47229D01*
X11567Y47258D01*
X11593Y47273D01*
X11621Y47282D01*
X11684Y47327D01*
X11812Y47403D01*
X11855Y47449D01*
X11894Y47477D01*
X14551Y50134D01*
X20288Y53446D01*
X26688Y55161D01*
X33312Y55161D01*
X39712Y53446D01*
X45449Y50134D01*
X50134Y45449D01*
X53446Y39712D01*
X55161Y33312D01*
X55161Y26688D01*
X53446Y20288D01*
X50134Y14551D01*
X47477Y11894D01*
X47459Y11870D01*
X47437Y11851D01*
X47374Y11757D01*
X47306Y11667D01*
X47295Y11639D01*
X47279Y11615D01*
X47245Y11507D01*
X47204Y11401D01*
X47202Y11372D01*
X47193Y11344D01*
X47190Y11230D01*
X47181Y11118D01*
X47187Y11089D01*
X47186Y11060D01*
X47214Y10950D01*
X47237Y10839D01*
X47250Y10813D01*
X47258Y10785D01*
X47316Y10687D01*
X47368Y10587D01*
X47388Y10565D01*
X47403Y10540D01*
X47485Y10463D01*
X47564Y10381D01*
X47589Y10366D01*
X47610Y10346D01*
X47711Y10294D01*
X47809Y10237D01*
X47837Y10230D01*
X47863Y10216D01*
X47941Y10203D01*
X48084Y10167D01*
X48147Y10169D01*
X48194Y10161D01*
X98948Y10161D01*
X98977Y10165D01*
G37*
G36*
X832733Y48040D02*
X832733Y48040D01*
X832792Y48039D01*
X832873Y48060D01*
X832957Y48072D01*
X833010Y48096D01*
X833067Y48111D01*
X833139Y48154D01*
X833216Y48188D01*
X833261Y48226D01*
X833311Y48256D01*
X833369Y48317D01*
X833433Y48372D01*
X833466Y48421D01*
X833506Y48463D01*
X833544Y48538D01*
X833591Y48609D01*
X833609Y48664D01*
X833635Y48716D01*
X833647Y48784D01*
X833677Y48880D01*
X833679Y48979D01*
X833691Y49047D01*
X833691Y50953D01*
X833683Y51010D01*
X833684Y51069D01*
X833663Y51150D01*
X833651Y51234D01*
X833627Y51287D01*
X833612Y51344D01*
X833569Y51416D01*
X833535Y51493D01*
X833497Y51538D01*
X833467Y51588D01*
X833405Y51646D01*
X833351Y51710D01*
X833302Y51743D01*
X833260Y51783D01*
X833185Y51821D01*
X833114Y51868D01*
X833059Y51886D01*
X833007Y51912D01*
X832939Y51924D01*
X832843Y51954D01*
X832744Y51956D01*
X832676Y51968D01*
X830068Y51968D01*
X830068Y59018D01*
X832676Y59018D01*
X832733Y59026D01*
X832792Y59024D01*
X832873Y59046D01*
X832957Y59058D01*
X833010Y59081D01*
X833067Y59096D01*
X833139Y59139D01*
X833216Y59174D01*
X833261Y59212D01*
X833311Y59241D01*
X833369Y59303D01*
X833433Y59357D01*
X833466Y59406D01*
X833506Y59449D01*
X833544Y59524D01*
X833591Y59594D01*
X833609Y59650D01*
X833635Y59702D01*
X833647Y59770D01*
X833677Y59865D01*
X833679Y59965D01*
X833691Y60033D01*
X833691Y91074D01*
X833675Y91187D01*
X833665Y91302D01*
X833655Y91328D01*
X833651Y91355D01*
X833604Y91460D01*
X833563Y91567D01*
X833546Y91589D01*
X833535Y91615D01*
X833461Y91702D01*
X833391Y91794D01*
X833369Y91810D01*
X833351Y91832D01*
X833256Y91895D01*
X833163Y91964D01*
X833138Y91974D01*
X833114Y91989D01*
X833005Y92024D01*
X832897Y92064D01*
X832870Y92067D01*
X832843Y92075D01*
X832728Y92078D01*
X832614Y92087D01*
X832590Y92081D01*
X832559Y92082D01*
X832302Y92015D01*
X832287Y92012D01*
X830730Y91367D01*
X830068Y91235D01*
X830068Y98070D01*
X832676Y98070D01*
X832733Y98078D01*
X832792Y98077D01*
X832873Y98098D01*
X832957Y98110D01*
X833010Y98134D01*
X833067Y98149D01*
X833139Y98192D01*
X833216Y98226D01*
X833261Y98264D01*
X833311Y98294D01*
X833369Y98355D01*
X833433Y98410D01*
X833466Y98459D01*
X833506Y98501D01*
X833544Y98576D01*
X833591Y98647D01*
X833609Y98702D01*
X833635Y98754D01*
X833647Y98822D01*
X833677Y98918D01*
X833679Y99017D01*
X833691Y99085D01*
X833691Y100991D01*
X833683Y101048D01*
X833684Y101107D01*
X833663Y101188D01*
X833651Y101272D01*
X833627Y101325D01*
X833612Y101382D01*
X833569Y101454D01*
X833535Y101531D01*
X833497Y101576D01*
X833467Y101626D01*
X833405Y101684D01*
X833351Y101748D01*
X833302Y101781D01*
X833260Y101821D01*
X833185Y101859D01*
X833114Y101906D01*
X833059Y101924D01*
X833007Y101950D01*
X832939Y101962D01*
X832843Y101992D01*
X832744Y101994D01*
X832676Y102006D01*
X829053Y102006D01*
X828995Y101998D01*
X828936Y101999D01*
X828855Y101978D01*
X828771Y101966D01*
X828718Y101942D01*
X828661Y101927D01*
X828589Y101884D01*
X828512Y101850D01*
X828467Y101812D01*
X828417Y101782D01*
X828359Y101720D01*
X828295Y101666D01*
X828262Y101617D01*
X828222Y101575D01*
X828184Y101500D01*
X828137Y101429D01*
X828120Y101374D01*
X828093Y101322D01*
X828082Y101254D01*
X828051Y101158D01*
X828049Y101059D01*
X828037Y100991D01*
X828037Y100101D01*
X827147Y100101D01*
X827090Y100092D01*
X827031Y100094D01*
X826949Y100073D01*
X826866Y100061D01*
X826813Y100037D01*
X826756Y100022D01*
X826684Y99979D01*
X826607Y99944D01*
X826562Y99907D01*
X826512Y99877D01*
X826454Y99815D01*
X826390Y99761D01*
X826357Y99712D01*
X826317Y99669D01*
X826279Y99594D01*
X826232Y99524D01*
X826214Y99468D01*
X826188Y99416D01*
X826176Y99348D01*
X826146Y99253D01*
X826144Y99153D01*
X826132Y99085D01*
X826132Y91235D01*
X825470Y91367D01*
X823829Y92047D01*
X823076Y92549D01*
X822985Y92593D01*
X822897Y92645D01*
X822857Y92655D01*
X822820Y92673D01*
X822720Y92690D01*
X822622Y92715D01*
X822580Y92713D01*
X822539Y92720D01*
X822439Y92709D01*
X822338Y92706D01*
X822298Y92693D01*
X822257Y92688D01*
X822164Y92649D01*
X822067Y92618D01*
X822037Y92597D01*
X821994Y92579D01*
X821850Y92463D01*
X821794Y92423D01*
X820996Y91625D01*
X814662Y85291D01*
X812701Y84479D01*
X812700Y84478D01*
X812698Y84478D01*
X812578Y84406D01*
X812456Y84334D01*
X812455Y84333D01*
X812454Y84333D01*
X812356Y84228D01*
X812261Y84128D01*
X812260Y84126D01*
X812259Y84125D01*
X812195Y84000D01*
X812131Y83875D01*
X812130Y83873D01*
X812130Y83872D01*
X812127Y83857D01*
X812076Y83596D01*
X812078Y83566D01*
X812074Y83541D01*
X812074Y80481D01*
X810880Y77597D01*
X808672Y75390D01*
X805788Y74195D01*
X803987Y74195D01*
X803900Y74183D01*
X803813Y74180D01*
X803760Y74163D01*
X803705Y74155D01*
X803625Y74120D01*
X803542Y74093D01*
X803503Y74065D01*
X803446Y74039D01*
X803332Y73943D01*
X803269Y73898D01*
X797259Y67888D01*
X797206Y67818D01*
X797146Y67754D01*
X797121Y67705D01*
X797088Y67661D01*
X797057Y67579D01*
X797017Y67501D01*
X797009Y67453D01*
X796986Y67395D01*
X796974Y67247D01*
X796961Y67170D01*
X796961Y65368D01*
X795767Y62484D01*
X793872Y60589D01*
X793803Y60498D01*
X793729Y60410D01*
X793718Y60385D01*
X793701Y60362D01*
X793660Y60255D01*
X793613Y60150D01*
X793610Y60123D01*
X793600Y60097D01*
X793590Y59982D01*
X793575Y59868D01*
X793579Y59841D01*
X793576Y59813D01*
X793599Y59701D01*
X793615Y59587D01*
X793627Y59562D01*
X793632Y59535D01*
X793685Y59433D01*
X793732Y59328D01*
X793750Y59307D01*
X793763Y59282D01*
X793842Y59199D01*
X793917Y59112D01*
X793938Y59098D01*
X793959Y59076D01*
X794188Y58942D01*
X794189Y58941D01*
X797159Y55971D01*
X797190Y55896D01*
X797205Y55871D01*
X797214Y55843D01*
X797277Y55749D01*
X797335Y55651D01*
X797356Y55631D01*
X797372Y55607D01*
X797459Y55534D01*
X797541Y55456D01*
X797567Y55443D01*
X797590Y55424D01*
X797693Y55378D01*
X797794Y55326D01*
X797823Y55320D01*
X797850Y55308D01*
X797962Y55293D01*
X798073Y55271D01*
X798102Y55273D01*
X798131Y55269D01*
X798243Y55286D01*
X798356Y55295D01*
X798384Y55306D01*
X798413Y55310D01*
X798516Y55357D01*
X798621Y55397D01*
X798645Y55415D01*
X798672Y55427D01*
X798758Y55500D01*
X798848Y55569D01*
X798866Y55593D01*
X798888Y55612D01*
X798930Y55678D01*
X799018Y55797D01*
X799040Y55855D01*
X799066Y55896D01*
X799097Y55971D01*
X802063Y58937D01*
X805937Y60542D01*
X810131Y60542D01*
X814005Y58937D01*
X816971Y55971D01*
X817129Y55589D01*
X817173Y55516D01*
X817208Y55437D01*
X817245Y55394D01*
X817274Y55345D01*
X817336Y55286D01*
X817392Y55220D01*
X817439Y55189D01*
X817480Y55149D01*
X817557Y55110D01*
X817628Y55062D01*
X817682Y55045D01*
X817733Y55019D01*
X817817Y55003D01*
X817899Y54977D01*
X817956Y54975D01*
X818012Y54964D01*
X818097Y54972D01*
X818183Y54969D01*
X818238Y54984D01*
X818295Y54989D01*
X818375Y55020D01*
X818458Y55041D01*
X818507Y55070D01*
X818560Y55091D01*
X818629Y55143D01*
X818703Y55186D01*
X818742Y55228D01*
X818787Y55262D01*
X818839Y55331D01*
X818897Y55394D01*
X818923Y55445D01*
X818957Y55490D01*
X818988Y55570D01*
X819027Y55647D01*
X819035Y55696D01*
X819058Y55756D01*
X819069Y55901D01*
X819082Y55978D01*
X819082Y56811D01*
X819255Y57458D01*
X819590Y58037D01*
X820063Y58510D01*
X820642Y58845D01*
X821289Y59018D01*
X826132Y59018D01*
X826132Y50953D01*
X826140Y50895D01*
X826139Y50836D01*
X826160Y50755D01*
X826172Y50671D01*
X826196Y50618D01*
X826211Y50561D01*
X826254Y50489D01*
X826288Y50412D01*
X826326Y50367D01*
X826356Y50317D01*
X826417Y50259D01*
X826472Y50195D01*
X826521Y50162D01*
X826563Y50122D01*
X826638Y50084D01*
X826709Y50037D01*
X826764Y50020D01*
X826816Y49993D01*
X826884Y49982D01*
X826980Y49951D01*
X827079Y49949D01*
X827147Y49937D01*
X828037Y49937D01*
X828037Y49047D01*
X828046Y48990D01*
X828044Y48931D01*
X828065Y48849D01*
X828077Y48766D01*
X828101Y48713D01*
X828116Y48656D01*
X828159Y48584D01*
X828194Y48507D01*
X828231Y48462D01*
X828261Y48412D01*
X828323Y48354D01*
X828377Y48290D01*
X828426Y48257D01*
X828469Y48217D01*
X828544Y48179D01*
X828614Y48132D01*
X828670Y48114D01*
X828722Y48088D01*
X828790Y48076D01*
X828885Y48046D01*
X828985Y48044D01*
X829053Y48032D01*
X832676Y48032D01*
X832733Y48040D01*
G37*
D10*
X870000Y310000D03*
D11*
X849934Y310000D03*
X830122Y310000D03*
X810056Y310000D03*
X789990Y310000D03*
X769924Y310000D03*
X750112Y310000D03*
X730046Y310000D03*
X709980Y310000D03*
X689914Y310000D03*
X670102Y310000D03*
X650036Y310000D03*
X629970Y310000D03*
X609904Y310000D03*
X590092Y310000D03*
D10*
X270000Y40000D03*
D11*
X249934Y40000D03*
X230122Y40000D03*
X210056Y40000D03*
D10*
X120000Y340000D03*
D11*
X99934Y340000D03*
D10*
X120000Y280000D03*
D11*
X99934Y280000D03*
D10*
X120000Y220000D03*
D11*
X99934Y220000D03*
D10*
X120000Y160000D03*
D11*
X99934Y160000D03*
D10*
X120000Y100000D03*
D11*
X99934Y100000D03*
D10*
X120000Y40000D03*
D11*
X99934Y40000D03*
D10*
X828100Y50000D03*
D11*
X828100Y100038D03*
X808034Y50000D03*
X808034Y100038D03*
X788222Y50000D03*
X788222Y100038D03*
X768156Y50000D03*
X768156Y100038D03*
X748090Y50000D03*
X748090Y100038D03*
X728024Y50000D03*
X728024Y100038D03*
X708212Y50000D03*
X708212Y100038D03*
X688146Y50000D03*
X688146Y100038D03*
X668080Y50000D03*
X668080Y100038D03*
X648014Y50000D03*
X648014Y100038D03*
X628202Y50000D03*
X628202Y100038D03*
X608136Y50000D03*
X608136Y100038D03*
X588070Y50000D03*
X588070Y100038D03*
X568004Y50000D03*
X568004Y100038D03*
X548192Y50000D03*
X548192Y100038D03*
X528126Y50000D03*
X528126Y100038D03*
X508060Y50000D03*
X508060Y100038D03*
X487994Y50000D03*
X487994Y100038D03*
X468182Y50000D03*
X468182Y100038D03*
X448116Y50000D03*
X448116Y100038D03*
D10*
X870000Y200000D03*
D11*
X849934Y200000D03*
X830122Y200000D03*
X810056Y200000D03*
X789990Y200000D03*
X769924Y200000D03*
X750112Y200000D03*
X730046Y200000D03*
X709980Y200000D03*
X689914Y200000D03*
X670102Y200000D03*
X650036Y200000D03*
X629970Y200000D03*
X609904Y200000D03*
X590092Y200000D03*
D10*
X510000Y310000D03*
D11*
X489934Y310000D03*
X470122Y310000D03*
X450056Y310000D03*
X429990Y310000D03*
X409924Y310000D03*
D10*
X510000Y200000D03*
D11*
X489934Y200000D03*
X470122Y200000D03*
X450056Y200000D03*
X429990Y200000D03*
X409924Y200000D03*
D10*
X270000Y340000D03*
D11*
X249934Y340000D03*
X230122Y340000D03*
X210056Y340000D03*
D10*
X270000Y280000D03*
D11*
X249934Y280000D03*
X230122Y280000D03*
X210056Y280000D03*
D10*
X270000Y220000D03*
D11*
X249934Y220000D03*
X230122Y220000D03*
X210056Y220000D03*
D10*
X270000Y160000D03*
D11*
X249934Y160000D03*
X230122Y160000D03*
X210056Y160000D03*
D10*
X270000Y100000D03*
D11*
X249934Y100000D03*
X230122Y100000D03*
X210056Y100000D03*
D12*
X789115Y66929D02*
X804228Y82042D01*
X870077Y200787D02*
X870077Y309817D01*
X870000Y310000D01*
X870077Y200787D02*
X870000Y200000D01*
D13*
X789115Y66929D03*
X804228Y82042D03*
D12*
X829056Y99314D02*
X829056Y50737D01*
X828100Y50000D01*
X829056Y99314D02*
X828100Y100038D01*
X850646Y200787D02*
X850646Y309817D01*
X850646Y200787D02*
X849934Y200000D01*
X850646Y309817D02*
X849934Y310000D01*
X849567Y199708D02*
X849567Y120904D01*
X849567Y199708D02*
X849934Y200000D01*
D13*
X849567Y120904D03*
D12*
X215900Y340043D02*
X210503Y340043D01*
X215900Y340043D02*
X234252Y358394D01*
X626110Y358394D01*
X210503Y340043D02*
X210056Y340000D01*
D13*
X626110Y358394D03*
D12*
X879793Y318453D02*
X879793Y72327D01*
X879793Y318453D02*
X877634Y320612D01*
X799910Y320612D01*
X790194Y310896D01*
X789990Y310000D01*
X793433Y315214D02*
X730822Y377825D01*
X793433Y315214D02*
X789990Y310000D01*
D13*
X879793Y72327D03*
X730822Y377825D03*
D12*
X748094Y50737D02*
X754571Y50737D01*
X793433Y89599D01*
X811784Y89599D01*
X818261Y96076D01*
X818261Y177038D01*
X799910Y195390D01*
X799910Y280670D01*
X770763Y309817D01*
X748094Y50737D02*
X748090Y50000D01*
X770763Y309817D02*
X769924Y310000D01*
X210503Y286068D02*
X210503Y280670D01*
X210503Y286068D02*
X260160Y335725D01*
X260160Y348679D01*
X262319Y350838D01*
X632587Y350838D01*
X210503Y280670D02*
X210056Y280000D01*
D13*
X632587Y350838D03*
D12*
X236411Y219139D02*
X231013Y219139D01*
X236411Y219139D02*
X246126Y209423D01*
X371348Y209423D01*
X457708Y295783D01*
X561340Y295783D01*
X716788Y320612D02*
X739458Y320612D01*
X716788Y320612D02*
X702755Y320612D01*
X739458Y320612D02*
X749173Y310896D01*
X231013Y219139D02*
X230122Y220000D01*
X749173Y310896D02*
X750112Y310000D01*
X716788Y320612D02*
X716788Y370269D01*
D13*
X561340Y295783D03*
X702755Y320612D03*
X716788Y370269D03*
D12*
X729742Y309817D02*
X729742Y265557D01*
X759968Y116586D02*
X766445Y116586D01*
X778320Y104712D01*
X778320Y96076D01*
X742696Y60452D01*
X718947Y60452D01*
X709232Y50737D01*
X729742Y309817D02*
X730046Y310000D01*
X709232Y50737D02*
X708212Y50000D01*
D13*
X729742Y265557D03*
X759968Y116586D03*
D12*
X574294Y50737D02*
X568897Y50737D01*
X574294Y50737D02*
X608838Y85281D01*
X662813Y85281D01*
X667131Y89599D01*
X672529Y89599D01*
X677926Y94996D01*
X677926Y123063D01*
X663893Y137097D01*
X663893Y168402D01*
X680085Y184595D01*
X680085Y242888D01*
X687642Y250444D01*
X568897Y50737D02*
X568004Y50000D01*
D13*
X687642Y250444D03*
D12*
X554863Y50737D02*
X548386Y50737D01*
X554863Y50737D02*
X579692Y75565D01*
X592646Y75565D01*
X606679Y89599D01*
X632587Y89599D01*
X637985Y94996D01*
X637985Y153289D01*
X671449Y186754D01*
X548386Y50737D02*
X548192Y50000D01*
D13*
X671449Y186754D03*
D12*
X534353Y50737D02*
X528955Y50737D01*
X534353Y50737D02*
X563499Y79883D01*
X588328Y79883D01*
X598043Y89599D01*
X598043Y137097D01*
X602361Y141415D01*
X621792Y265557D02*
X643382Y287147D01*
X528955Y50737D02*
X528126Y50000D01*
D13*
X602361Y141415D03*
X621792Y265557D03*
X643382Y287147D03*
D12*
X602361Y261239D02*
X569976Y228854D01*
X602361Y261239D02*
X602361Y272034D01*
D13*
X569976Y228854D03*
X602361Y272034D03*
D12*
X494411Y100394D02*
X489014Y100394D01*
X494411Y100394D02*
X518160Y124143D01*
X555943Y124143D01*
X608838Y177038D01*
X608838Y199708D01*
X489014Y100394D02*
X487994Y100038D01*
X608838Y199708D02*
X609904Y200000D01*
X609918Y200787D02*
X609918Y309817D01*
X609904Y310000D01*
X609918Y200787D02*
X609904Y200000D01*
D14*
X509524Y310896D02*
X504127Y310896D01*
X476060Y338963D01*
X270955Y338963D01*
X509524Y310896D02*
X510000Y310000D01*
X270955Y338963D02*
X270000Y340000D01*
X270955Y220218D02*
X340043Y220218D01*
X429641Y309817D01*
X270955Y220218D02*
X270000Y220000D01*
X429641Y309817D02*
X429990Y310000D01*
X340043Y309817D02*
X250444Y220218D01*
X340043Y309817D02*
X409131Y309817D01*
X250444Y220218D02*
X249934Y220000D01*
X409131Y309817D02*
X409924Y310000D01*
D12*
X830136Y199708D02*
X830136Y112268D01*
X838772Y103632D01*
X838772Y42101D01*
X836613Y39942D01*
X698437Y39942D01*
X688721Y49657D01*
X830136Y199708D02*
X830122Y200000D01*
X688721Y49657D02*
X688146Y50000D01*
X210503Y160846D02*
X210503Y206185D01*
X220218Y215900D01*
X220218Y224536D01*
X265557Y269875D01*
X293624Y269875D01*
X344361Y320612D01*
X453390Y320612D01*
X459867Y314135D01*
X459867Y305499D01*
X465265Y300101D01*
X554863Y300101D01*
X590487Y335725D01*
X210503Y160846D02*
X210056Y160000D01*
D13*
X590487Y335725D03*
D12*
X648780Y49657D02*
X623951Y24829D01*
X648014Y50000D02*
X648780Y49657D01*
D13*
X623951Y24829D03*
D12*
X627190Y50737D02*
X606679Y71247D01*
X627190Y50737D02*
X628202Y50000D01*
X769684Y196469D02*
X769684Y199708D01*
X769684Y196469D02*
X747014Y173800D01*
X704914Y173800D02*
X671449Y140335D01*
X769684Y199708D02*
X769924Y200000D01*
D13*
X606679Y71247D03*
X747014Y173800D03*
X704914Y173800D03*
X671449Y140335D03*
D12*
X749173Y200787D02*
X749173Y218059D01*
X677926Y289306D01*
X587248Y226695D02*
X578612Y226695D01*
X551625Y199708D01*
X527876Y199708D01*
X504127Y175959D01*
X490093Y175959D01*
X749173Y200787D02*
X750112Y200000D01*
D13*
X677926Y289306D03*
X587248Y226695D03*
X490093Y175959D03*
D12*
X215900Y39942D02*
X210503Y39942D01*
X215900Y39942D02*
X226695Y29147D01*
X566738Y29147D01*
X587248Y49657D01*
X210503Y39942D02*
X210056Y40000D01*
X587248Y49657D02*
X588070Y50000D01*
X729742Y200787D02*
X729742Y225616D01*
X669290Y286068D01*
X667131Y286068D01*
X569976Y239649D02*
X408051Y239649D01*
X373507Y205105D01*
X296863Y205105D01*
X260160Y168402D01*
X260160Y140335D01*
X241808Y121984D01*
X729742Y200787D02*
X730046Y200000D01*
D13*
X667131Y286068D03*
X569976Y239649D03*
X241808Y121984D03*
D12*
X489014Y50737D02*
X494411Y50737D01*
X528955Y85281D01*
X582930Y85281D01*
X585089Y87440D01*
X671449Y151130D02*
X671449Y169482D01*
X689801Y187833D01*
X689801Y199708D01*
X489014Y50737D02*
X487994Y50000D01*
X689801Y199708D02*
X689914Y200000D01*
D13*
X585089Y87440D03*
X671449Y151130D03*
D12*
X467424Y50737D02*
X462026Y50737D01*
X437198Y75565D01*
X430721Y75565D01*
X483616Y168402D02*
X514922Y168402D01*
X541909Y195390D01*
X571056Y195390D01*
X586169Y210503D01*
X602361Y210503D01*
X467424Y50737D02*
X468182Y50000D01*
D13*
X430721Y75565D03*
X483616Y168402D03*
X602361Y210503D03*
D12*
X550545Y100394D02*
X548386Y100394D01*
X550545Y100394D02*
X649859Y199708D01*
X548386Y100394D02*
X548192Y100038D01*
X649859Y199708D02*
X650036Y200000D01*
X513842Y100394D02*
X508445Y100394D01*
X513842Y100394D02*
X533273Y119825D01*
X558102Y119825D01*
X629349Y191072D01*
X629349Y199708D01*
X508445Y100394D02*
X508060Y100038D01*
X629349Y199708D02*
X629970Y200000D01*
D14*
X303340Y160846D02*
X270955Y160846D01*
X303340Y160846D02*
X342202Y199708D01*
X395097Y199708D01*
X405892Y210503D01*
X499809Y210503D01*
X509524Y200787D01*
X270955Y160846D02*
X270000Y160000D01*
X509524Y200787D02*
X510000Y200000D01*
X275273Y100394D02*
X270955Y100394D01*
X275273Y100394D02*
X358394Y183515D01*
X453390Y183515D01*
X469583Y199708D01*
X270955Y100394D02*
X270000Y100000D01*
X469583Y199708D02*
X470122Y200000D01*
X338963Y188913D02*
X250444Y100394D01*
X338963Y188913D02*
X438277Y188913D01*
X449072Y199708D01*
X250444Y100394D02*
X249934Y100000D01*
X449072Y199708D02*
X450056Y200000D01*
D12*
X195390Y340043D02*
X120904Y340043D01*
X195390Y340043D02*
X221298Y365951D01*
X629349Y365951D01*
X640144Y355156D01*
X640144Y302260D01*
X684403Y258001D01*
X690880Y258001D01*
X720027Y228854D01*
X720027Y131699D01*
X688721Y100394D01*
X120904Y340043D02*
X120000Y340000D01*
X688146Y100038D02*
X688721Y100394D01*
X807466Y100394D02*
X807466Y123063D01*
X764286Y166243D01*
X743776Y166243D01*
X739458Y170561D01*
X739458Y177038D01*
X752412Y189992D01*
X754571Y189992D01*
X759968Y195390D01*
X759968Y224536D01*
X680085Y304419D01*
X680085Y321691D01*
X631508Y370269D01*
X130620Y370269D01*
X100394Y340043D01*
X807466Y100394D02*
X808034Y100038D01*
X100394Y340043D02*
X99934Y340000D01*
X542989Y185674D02*
X598043Y185674D01*
D13*
X598043Y185674D03*
X542989Y185674D03*
D12*
X450152Y87440D02*
X114427Y87440D01*
X110109Y91758D01*
X110109Y209423D01*
X119825Y219139D01*
X120000Y220000D01*
D13*
X450152Y87440D03*
D12*
X766445Y228854D02*
X766445Y299022D01*
X759968Y305499D01*
X759968Y337884D01*
X718947Y378905D01*
X124143Y378905D01*
X89599Y344361D01*
X89599Y229934D01*
X99314Y220218D01*
X99934Y220000D01*
D13*
X766445Y228854D03*
D12*
X470662Y170561D02*
X356235Y170561D01*
X470662Y170561D02*
X485775Y155448D01*
X576453Y155448D01*
X612077Y119825D02*
X612077Y115507D01*
X627190Y100394D01*
X628202Y100038D01*
D13*
X356235Y170561D03*
X576453Y155448D03*
X612077Y119825D03*
D12*
X741617Y99314D02*
X747014Y99314D01*
X741617Y99314D02*
X702755Y60452D01*
X684403Y60452D01*
X677926Y53975D01*
X677926Y45339D01*
X649859Y17272D01*
X107950Y17272D01*
X89599Y35624D01*
X89599Y150051D01*
X99314Y159766D01*
X747014Y99314D02*
X748090Y100038D01*
X99934Y160000D02*
X99314Y159766D01*
X120904Y100394D02*
X196469Y100394D01*
X210503Y114427D01*
X253683Y114427D01*
X313055Y114427D02*
X501968Y114427D01*
X519240Y131699D01*
X535432Y131699D01*
X120904Y100394D02*
X120000Y100000D01*
D13*
X253683Y114427D03*
X313055Y114427D03*
X535432Y131699D03*
D12*
X93917Y24829D02*
X89599Y24829D01*
X93917Y24829D02*
X105791Y12954D01*
X816102Y12954D01*
X843090Y39942D01*
X843090Y116586D01*
X837692Y121984D01*
X837692Y139256D01*
X795592Y124143D02*
X752412Y124143D01*
X728663Y100394D01*
X728024Y100038D01*
D13*
X89599Y24829D03*
X837692Y139256D03*
X795592Y124143D03*
D12*
X196469Y41021D02*
X120904Y41021D01*
X196469Y41021D02*
X238570Y83122D01*
X443675Y83122D01*
X446913Y79883D01*
X517081Y79883D01*
X526796Y89599D01*
X576453Y89599D01*
X587248Y100394D01*
X120904Y41021D02*
X120000Y40000D01*
X587248Y100394D02*
X588070Y100038D01*
X115507Y24829D02*
X100394Y39942D01*
X115507Y24829D02*
X613156Y24829D01*
X628269Y39942D01*
X632587Y39942D01*
X637985Y45339D01*
X637985Y53975D01*
X669290Y85281D01*
X694119Y85281D01*
X708152Y99314D01*
X100394Y39942D02*
X99934Y40000D01*
X708152Y99314D02*
X708212Y100038D01*
M02*
