M48
;GenerationSoftware,Autodesk,EAGLE,9.6.2*%
;CreationDate,2022-06-17T10:15:18Z*%
FMAT,2
ICI,OFF
METRIC,TZ,000.000
T3C0.350
T2C0.787
T1C3.000
%
G90
M71
T1
X3000Y37000
X95000Y37000
X95000Y3000
X3000Y3000
T2
X44812Y5000
X44812Y10004
X87000Y20000
X84993Y20000
X83012Y20000
X81006Y20000
X78999Y20000
X76992Y20000
X75011Y20000
X73005Y20000
X70998Y20000
X68991Y20000
X67010Y20000
X65004Y20000
X62997Y20000
X60990Y20000
X59009Y20000
X51000Y31000
X48993Y31000
X47012Y31000
X45006Y31000
X82810Y10004
X42999Y31000
X40992Y31000
X51000Y20000
X48993Y20000
X47012Y20000
X45006Y20000
X40992Y20000
X27000Y34000
X24993Y34000
X23012Y34000
X21006Y34000
X27000Y28000
X24993Y28000
X23012Y28000
X21006Y28000
X27000Y22000
X24993Y22000
X23012Y22000
X21006Y22000
X27000Y16000
X24993Y16000
X23012Y16000
X21006Y16000
X27000Y10000
X24993Y10000
X23012Y10000
X21006Y10000
X87000Y31000
X84993Y31000
X83012Y31000
X81006Y31000
X78999Y31000
X76992Y31000
X75011Y31000
X73005Y31000
X70998Y31000
X68991Y31000
X67010Y31000
X65004Y31000
X62997Y31000
X60990Y31000
X59009Y31000
X27000Y4000
X24993Y4000
X23012Y4000
X21006Y4000
X12000Y34000
X9993Y34000
X12000Y28000
X9993Y28000
X12000Y22000
X9993Y22000
X12000Y16000
X9993Y16000
X12000Y10000
X9993Y10000
X12000Y4000
X9993Y4000
X82810Y5000
X42999Y20000
X80803Y5000
X80803Y10004
X78822Y5000
X78822Y10004
X76816Y5000
X76816Y10004
X74809Y5000
X74809Y10004
X72802Y5000
X72802Y10004
X70821Y5000
X70821Y10004
X68815Y5000
X68815Y10004
X66808Y5000
X66808Y10004
X64801Y5000
X64801Y10004
X62820Y5000
X62820Y10004
X60814Y5000
X60814Y10004
X58807Y5000
X58807Y10004
X56800Y5000
X56800Y10004
X54819Y5000
X54819Y10004
X52813Y5000
X52813Y10004
X50806Y5000
X50806Y10004
X48799Y5000
X48799Y10004
X46818Y5000
X46818Y10004
T3
X78911Y6693
X80423Y8204
X84957Y12090
X62611Y35839
X87979Y7233
X73082Y37783
X63259Y35084
X56134Y29578
X70275Y32061
X71679Y37027
X72974Y26556
X75997Y11659
X68764Y25044
X67145Y18675
X60236Y14141
X62179Y26556
X64338Y28715
X56998Y22885
X60236Y27203
X59049Y33572
X62395Y2483
X74701Y17380
X70491Y17380
X67145Y14033
X67793Y28931
X58725Y22669
X49009Y17596
X66713Y28607
X56998Y23965
X24181Y12198
X58509Y8744
X67145Y15113
X43072Y7556
X48362Y16840
X60236Y21050
X59804Y18567
X54299Y18567
X45015Y8744
X76645Y22885
X35624Y17056
X57645Y15545
X61208Y11982
X25368Y11443
X31305Y11443
X53543Y13170
X8960Y2483
X83769Y13926
X79559Y12414
X60668Y7125
M30