G04 EAGLE Gerber RS-274X export*
G75*
%MOMM*%
%FSLAX34Y34*%
%LPD*%
%INSoldermask Top*%
%IPPOS*%
%AMOC8*
5,1,8,0,0,1.08239X$1,22.5*%
G01*
%ADD10C,3.203200*%
%ADD11R,1.498600X1.498600*%
%ADD12C,1.498600*%
%ADD13C,0.959600*%


D10*
X950000Y370000D03*
X950000Y30000D03*
X30000Y30000D03*
X30000Y370000D03*
D11*
X870000Y310000D03*
D12*
X849934Y310000D03*
X830122Y310000D03*
X810056Y310000D03*
X789990Y310000D03*
X769924Y310000D03*
X750112Y310000D03*
X730046Y310000D03*
X709980Y310000D03*
X689914Y310000D03*
X670102Y310000D03*
X650036Y310000D03*
X629970Y310000D03*
X609904Y310000D03*
X590092Y310000D03*
D11*
X270000Y40000D03*
D12*
X249934Y40000D03*
X230122Y40000D03*
X210056Y40000D03*
D11*
X120000Y340000D03*
D12*
X99934Y340000D03*
D11*
X120000Y280000D03*
D12*
X99934Y280000D03*
D11*
X120000Y220000D03*
D12*
X99934Y220000D03*
D11*
X120000Y160000D03*
D12*
X99934Y160000D03*
D11*
X120000Y100000D03*
D12*
X99934Y100000D03*
D11*
X120000Y40000D03*
D12*
X99934Y40000D03*
D11*
X828100Y50000D03*
D12*
X828100Y100038D03*
X808034Y50000D03*
X808034Y100038D03*
X788222Y50000D03*
X788222Y100038D03*
X768156Y50000D03*
X768156Y100038D03*
X748090Y50000D03*
X748090Y100038D03*
X728024Y50000D03*
X728024Y100038D03*
X708212Y50000D03*
X708212Y100038D03*
X688146Y50000D03*
X688146Y100038D03*
X668080Y50000D03*
X668080Y100038D03*
X648014Y50000D03*
X648014Y100038D03*
X628202Y50000D03*
X628202Y100038D03*
X608136Y50000D03*
X608136Y100038D03*
X588070Y50000D03*
X588070Y100038D03*
X568004Y50000D03*
X568004Y100038D03*
X548192Y50000D03*
X548192Y100038D03*
X528126Y50000D03*
X528126Y100038D03*
X508060Y50000D03*
X508060Y100038D03*
X487994Y50000D03*
X487994Y100038D03*
X468182Y50000D03*
X468182Y100038D03*
X448116Y50000D03*
X448116Y100038D03*
D11*
X870000Y200000D03*
D12*
X849934Y200000D03*
X830122Y200000D03*
X810056Y200000D03*
X789990Y200000D03*
X769924Y200000D03*
X750112Y200000D03*
X730046Y200000D03*
X709980Y200000D03*
X689914Y200000D03*
X670102Y200000D03*
X650036Y200000D03*
X629970Y200000D03*
X609904Y200000D03*
X590092Y200000D03*
D11*
X510000Y310000D03*
D12*
X489934Y310000D03*
X470122Y310000D03*
X450056Y310000D03*
X429990Y310000D03*
X409924Y310000D03*
D11*
X510000Y200000D03*
D12*
X489934Y200000D03*
X470122Y200000D03*
X450056Y200000D03*
X429990Y200000D03*
X409924Y200000D03*
D11*
X270000Y340000D03*
D12*
X249934Y340000D03*
X230122Y340000D03*
X210056Y340000D03*
D11*
X270000Y280000D03*
D12*
X249934Y280000D03*
X230122Y280000D03*
X210056Y280000D03*
D11*
X270000Y220000D03*
D12*
X249934Y220000D03*
X230122Y220000D03*
X210056Y220000D03*
D11*
X270000Y160000D03*
D12*
X249934Y160000D03*
X230122Y160000D03*
X210056Y160000D03*
D11*
X270000Y100000D03*
D12*
X249934Y100000D03*
X230122Y100000D03*
X210056Y100000D03*
D13*
X789115Y66929D03*
X804228Y82042D03*
X849567Y120904D03*
X626110Y358394D03*
X879793Y72327D03*
X730822Y377825D03*
X632587Y350838D03*
X561340Y295783D03*
X702755Y320612D03*
X716788Y370269D03*
X729742Y265557D03*
X759968Y116586D03*
X687642Y250444D03*
X671449Y186754D03*
X602361Y141415D03*
X621792Y265557D03*
X643382Y287147D03*
X569976Y228854D03*
X602361Y272034D03*
X590487Y335725D03*
X623951Y24829D03*
X606679Y71247D03*
X747014Y173800D03*
X704914Y173800D03*
X671449Y140335D03*
X677926Y289306D03*
X587248Y226695D03*
X490093Y175959D03*
X667131Y286068D03*
X569976Y239649D03*
X241808Y121984D03*
X585089Y87440D03*
X671449Y151130D03*
X430721Y75565D03*
X483616Y168402D03*
X602361Y210503D03*
X598043Y185674D03*
X542989Y185674D03*
X450152Y87440D03*
X766445Y228854D03*
X356235Y170561D03*
X576453Y155448D03*
X612077Y119825D03*
X253683Y114427D03*
X313055Y114427D03*
X535432Y131699D03*
X89599Y24829D03*
X837692Y139256D03*
X795592Y124143D03*
M02*
