M48
;GenerationSoftware,Autodesk,EAGLE,9.6.2*%
;CreationDate,2022-06-17T10:54:03Z*%
FMAT,2
ICI,OFF
METRIC,TZ,000.000
T5C0.350
T4C0.787
T3C0.800
T2C0.813
T1C2.500
%
G90
M71
T1
X50000Y27000
X2000Y2000
X2000Y27000
X50000Y2000
T2
X47300Y4320
X47300Y14480
X9400Y1920
X9400Y12080
X45200Y24680
X45200Y14520
X6000Y26080
X6000Y15920
X44100Y12080
X44100Y1920
X2400Y19280
X6000Y12080
X6000Y1920
X49650Y23980
X49650Y13820
X2400Y9120
T3
X37960Y13230
X35960Y13230
X33960Y13230
X39960Y19230
X37960Y19230
X35960Y19230
X12020Y15460
X12020Y17460
X12020Y19460
X12020Y21460
X16420Y19230
X18420Y19230
X20420Y19230
X22420Y19230
X24420Y19230
X26420Y19230
X33960Y19230
X18420Y13230
X20420Y13230
X22420Y13230
X24420Y13230
X39960Y7230
X16420Y7230
X18420Y7230
X20420Y7230
X22420Y7230
X24420Y7230
X26420Y13230
X16420Y13230
X37960Y7230
X35960Y7230
X33960Y7230
X39960Y13230
X26420Y7230
T4
X36512Y26750
X23250Y2000
X25257Y2000
X27238Y2000
X29244Y2000
X31251Y2000
X33258Y2000
X40500Y26750
X38493Y26750
X34506Y26750
X32499Y26750
X30492Y26750
X28511Y26750
X26505Y26750
X24498Y26750
X22491Y26750
X20510Y26750
X18504Y26750
X16497Y26750
X14490Y26750
X12509Y26750
T5
X12846Y6153
X28175Y9068
X11335Y10471
X30226Y15437
X30010Y4750
X16408Y15869
X28931Y9931
X31845Y19323
X28931Y19323
X33249Y25692
X35192Y20295
X29794Y20187
X30982Y12954
X25260Y17704
X16732Y10903
X24505Y25476
X22346Y20511
X27959Y4750
X17704Y25476
X25260Y20187
X13278Y11659
X25260Y8312
M30