G04 EAGLE Gerber RS-274X export*
G75*
%MOMM*%
%FSLAX34Y34*%
%LPD*%
%IN*%
%IPPOS*%
%AMOC8*
5,1,8,0,0,1.08239X$1,22.5*%
G01*
%ADD10C,0.254000*%


D10*
X0Y0D02*
X520000Y0D01*
X520000Y290000D01*
X0Y290000D01*
X0Y0D01*
X32500Y19509D02*
X32423Y18530D01*
X32269Y17560D01*
X32040Y16604D01*
X31736Y15670D01*
X31361Y14763D01*
X30915Y13888D01*
X30401Y13050D01*
X29824Y12255D01*
X29186Y11508D01*
X28492Y10814D01*
X27745Y10176D01*
X26950Y9599D01*
X26112Y9085D01*
X25237Y8639D01*
X24330Y8264D01*
X23396Y7960D01*
X22441Y7731D01*
X21470Y7577D01*
X20491Y7500D01*
X19509Y7500D01*
X18530Y7577D01*
X17560Y7731D01*
X16604Y7960D01*
X15670Y8264D01*
X14763Y8639D01*
X13888Y9085D01*
X13050Y9599D01*
X12255Y10176D01*
X11508Y10814D01*
X10814Y11508D01*
X10176Y12255D01*
X9599Y13050D01*
X9085Y13888D01*
X8639Y14763D01*
X8264Y15670D01*
X7960Y16604D01*
X7731Y17560D01*
X7577Y18530D01*
X7500Y19509D01*
X7500Y20491D01*
X7577Y21470D01*
X7731Y22441D01*
X7960Y23396D01*
X8264Y24330D01*
X8639Y25237D01*
X9085Y26112D01*
X9599Y26950D01*
X10176Y27745D01*
X10814Y28492D01*
X11508Y29186D01*
X12255Y29824D01*
X13050Y30401D01*
X13888Y30915D01*
X14763Y31361D01*
X15670Y31736D01*
X16604Y32040D01*
X17560Y32269D01*
X18530Y32423D01*
X19509Y32500D01*
X20491Y32500D01*
X21470Y32423D01*
X22441Y32269D01*
X23396Y32040D01*
X24330Y31736D01*
X25237Y31361D01*
X26112Y30915D01*
X26950Y30401D01*
X27745Y29824D01*
X28492Y29186D01*
X29186Y28492D01*
X29824Y27745D01*
X30401Y26950D01*
X30915Y26112D01*
X31361Y25237D01*
X31736Y24330D01*
X32040Y23396D01*
X32269Y22441D01*
X32423Y21470D01*
X32500Y20491D01*
X32500Y19509D01*
X32500Y269509D02*
X32423Y268530D01*
X32269Y267560D01*
X32040Y266604D01*
X31736Y265670D01*
X31361Y264763D01*
X30915Y263888D01*
X30401Y263050D01*
X29824Y262255D01*
X29186Y261508D01*
X28492Y260814D01*
X27745Y260176D01*
X26950Y259599D01*
X26112Y259085D01*
X25237Y258639D01*
X24330Y258264D01*
X23396Y257960D01*
X22441Y257731D01*
X21470Y257577D01*
X20491Y257500D01*
X19509Y257500D01*
X18530Y257577D01*
X17560Y257731D01*
X16604Y257960D01*
X15670Y258264D01*
X14763Y258639D01*
X13888Y259085D01*
X13050Y259599D01*
X12255Y260176D01*
X11508Y260814D01*
X10814Y261508D01*
X10176Y262255D01*
X9599Y263050D01*
X9085Y263888D01*
X8639Y264763D01*
X8264Y265670D01*
X7960Y266604D01*
X7731Y267560D01*
X7577Y268530D01*
X7500Y269509D01*
X7500Y270491D01*
X7577Y271470D01*
X7731Y272441D01*
X7960Y273396D01*
X8264Y274330D01*
X8639Y275237D01*
X9085Y276112D01*
X9599Y276950D01*
X10176Y277745D01*
X10814Y278492D01*
X11508Y279186D01*
X12255Y279824D01*
X13050Y280401D01*
X13888Y280915D01*
X14763Y281361D01*
X15670Y281736D01*
X16604Y282040D01*
X17560Y282269D01*
X18530Y282423D01*
X19509Y282500D01*
X20491Y282500D01*
X21470Y282423D01*
X22441Y282269D01*
X23396Y282040D01*
X24330Y281736D01*
X25237Y281361D01*
X26112Y280915D01*
X26950Y280401D01*
X27745Y279824D01*
X28492Y279186D01*
X29186Y278492D01*
X29824Y277745D01*
X30401Y276950D01*
X30915Y276112D01*
X31361Y275237D01*
X31736Y274330D01*
X32040Y273396D01*
X32269Y272441D01*
X32423Y271470D01*
X32500Y270491D01*
X32500Y269509D01*
X512500Y269509D02*
X512423Y268530D01*
X512269Y267560D01*
X512040Y266604D01*
X511736Y265670D01*
X511361Y264763D01*
X510915Y263888D01*
X510401Y263050D01*
X509824Y262255D01*
X509186Y261508D01*
X508492Y260814D01*
X507745Y260176D01*
X506950Y259599D01*
X506112Y259085D01*
X505237Y258639D01*
X504330Y258264D01*
X503396Y257960D01*
X502441Y257731D01*
X501470Y257577D01*
X500491Y257500D01*
X499509Y257500D01*
X498530Y257577D01*
X497560Y257731D01*
X496604Y257960D01*
X495670Y258264D01*
X494763Y258639D01*
X493888Y259085D01*
X493050Y259599D01*
X492255Y260176D01*
X491508Y260814D01*
X490814Y261508D01*
X490176Y262255D01*
X489599Y263050D01*
X489085Y263888D01*
X488639Y264763D01*
X488264Y265670D01*
X487960Y266604D01*
X487731Y267560D01*
X487577Y268530D01*
X487500Y269509D01*
X487500Y270491D01*
X487577Y271470D01*
X487731Y272441D01*
X487960Y273396D01*
X488264Y274330D01*
X488639Y275237D01*
X489085Y276112D01*
X489599Y276950D01*
X490176Y277745D01*
X490814Y278492D01*
X491508Y279186D01*
X492255Y279824D01*
X493050Y280401D01*
X493888Y280915D01*
X494763Y281361D01*
X495670Y281736D01*
X496604Y282040D01*
X497560Y282269D01*
X498530Y282423D01*
X499509Y282500D01*
X500491Y282500D01*
X501470Y282423D01*
X502441Y282269D01*
X503396Y282040D01*
X504330Y281736D01*
X505237Y281361D01*
X506112Y280915D01*
X506950Y280401D01*
X507745Y279824D01*
X508492Y279186D01*
X509186Y278492D01*
X509824Y277745D01*
X510401Y276950D01*
X510915Y276112D01*
X511361Y275237D01*
X511736Y274330D01*
X512040Y273396D01*
X512269Y272441D01*
X512423Y271470D01*
X512500Y270491D01*
X512500Y269509D01*
X512500Y19509D02*
X512423Y18530D01*
X512269Y17560D01*
X512040Y16604D01*
X511736Y15670D01*
X511361Y14763D01*
X510915Y13888D01*
X510401Y13050D01*
X509824Y12255D01*
X509186Y11508D01*
X508492Y10814D01*
X507745Y10176D01*
X506950Y9599D01*
X506112Y9085D01*
X505237Y8639D01*
X504330Y8264D01*
X503396Y7960D01*
X502441Y7731D01*
X501470Y7577D01*
X500491Y7500D01*
X499509Y7500D01*
X498530Y7577D01*
X497560Y7731D01*
X496604Y7960D01*
X495670Y8264D01*
X494763Y8639D01*
X493888Y9085D01*
X493050Y9599D01*
X492255Y10176D01*
X491508Y10814D01*
X490814Y11508D01*
X490176Y12255D01*
X489599Y13050D01*
X489085Y13888D01*
X488639Y14763D01*
X488264Y15670D01*
X487960Y16604D01*
X487731Y17560D01*
X487577Y18530D01*
X487500Y19509D01*
X487500Y20491D01*
X487577Y21470D01*
X487731Y22441D01*
X487960Y23396D01*
X488264Y24330D01*
X488639Y25237D01*
X489085Y26112D01*
X489599Y26950D01*
X490176Y27745D01*
X490814Y28492D01*
X491508Y29186D01*
X492255Y29824D01*
X493050Y30401D01*
X493888Y30915D01*
X494763Y31361D01*
X495670Y31736D01*
X496604Y32040D01*
X497560Y32269D01*
X498530Y32423D01*
X499509Y32500D01*
X500491Y32500D01*
X501470Y32423D01*
X502441Y32269D01*
X503396Y32040D01*
X504330Y31736D01*
X505237Y31361D01*
X506112Y30915D01*
X506950Y30401D01*
X507745Y29824D01*
X508492Y29186D01*
X509186Y28492D01*
X509824Y27745D01*
X510401Y26950D01*
X510915Y26112D01*
X511361Y25237D01*
X511736Y24330D01*
X512040Y23396D01*
X512269Y22441D01*
X512423Y21470D01*
X512500Y20491D01*
X512500Y19509D01*
M02*
