G04 EAGLE Gerber RS-274X export*
G75*
%MOMM*%
%FSLAX34Y34*%
%LPD*%
%IN*%
%IPPOS*%
%AMOC8*
5,1,8,0,0,1.08239X$1,22.5*%
G01*
%ADD10C,0.254000*%


D10*
X0Y0D02*
X980000Y0D01*
X980000Y400000D01*
X0Y400000D01*
X0Y0D01*
X965000Y369464D02*
X964924Y368396D01*
X964771Y367335D01*
X964543Y366288D01*
X964241Y365260D01*
X963867Y364256D01*
X963422Y363281D01*
X962908Y362341D01*
X962329Y361440D01*
X961687Y360582D01*
X960985Y359772D01*
X960228Y359015D01*
X959418Y358313D01*
X958560Y357671D01*
X957659Y357092D01*
X956719Y356578D01*
X955744Y356133D01*
X954740Y355759D01*
X953712Y355457D01*
X952665Y355229D01*
X951604Y355076D01*
X950536Y355000D01*
X949464Y355000D01*
X948396Y355076D01*
X947335Y355229D01*
X946288Y355457D01*
X945260Y355759D01*
X944256Y356133D01*
X943281Y356578D01*
X942341Y357092D01*
X941440Y357671D01*
X940582Y358313D01*
X939772Y359015D01*
X939015Y359772D01*
X938313Y360582D01*
X937671Y361440D01*
X937092Y362341D01*
X936578Y363281D01*
X936133Y364256D01*
X935759Y365260D01*
X935457Y366288D01*
X935229Y367335D01*
X935076Y368396D01*
X935000Y369464D01*
X935000Y370536D01*
X935076Y371604D01*
X935229Y372665D01*
X935457Y373712D01*
X935759Y374740D01*
X936133Y375744D01*
X936578Y376719D01*
X937092Y377659D01*
X937671Y378560D01*
X938313Y379418D01*
X939015Y380228D01*
X939772Y380985D01*
X940582Y381687D01*
X941440Y382329D01*
X942341Y382908D01*
X943281Y383422D01*
X944256Y383867D01*
X945260Y384241D01*
X946288Y384543D01*
X947335Y384771D01*
X948396Y384924D01*
X949464Y385000D01*
X950536Y385000D01*
X951604Y384924D01*
X952665Y384771D01*
X953712Y384543D01*
X954740Y384241D01*
X955744Y383867D01*
X956719Y383422D01*
X957659Y382908D01*
X958560Y382329D01*
X959418Y381687D01*
X960228Y380985D01*
X960985Y380228D01*
X961687Y379418D01*
X962329Y378560D01*
X962908Y377659D01*
X963422Y376719D01*
X963867Y375744D01*
X964241Y374740D01*
X964543Y373712D01*
X964771Y372665D01*
X964924Y371604D01*
X965000Y370536D01*
X965000Y369464D01*
X965000Y29464D02*
X964924Y28396D01*
X964771Y27335D01*
X964543Y26288D01*
X964241Y25260D01*
X963867Y24256D01*
X963422Y23281D01*
X962908Y22341D01*
X962329Y21440D01*
X961687Y20582D01*
X960985Y19772D01*
X960228Y19015D01*
X959418Y18313D01*
X958560Y17671D01*
X957659Y17092D01*
X956719Y16578D01*
X955744Y16133D01*
X954740Y15759D01*
X953712Y15457D01*
X952665Y15229D01*
X951604Y15076D01*
X950536Y15000D01*
X949464Y15000D01*
X948396Y15076D01*
X947335Y15229D01*
X946288Y15457D01*
X945260Y15759D01*
X944256Y16133D01*
X943281Y16578D01*
X942341Y17092D01*
X941440Y17671D01*
X940582Y18313D01*
X939772Y19015D01*
X939015Y19772D01*
X938313Y20582D01*
X937671Y21440D01*
X937092Y22341D01*
X936578Y23281D01*
X936133Y24256D01*
X935759Y25260D01*
X935457Y26288D01*
X935229Y27335D01*
X935076Y28396D01*
X935000Y29464D01*
X935000Y30536D01*
X935076Y31604D01*
X935229Y32665D01*
X935457Y33712D01*
X935759Y34740D01*
X936133Y35744D01*
X936578Y36719D01*
X937092Y37659D01*
X937671Y38560D01*
X938313Y39418D01*
X939015Y40228D01*
X939772Y40985D01*
X940582Y41687D01*
X941440Y42329D01*
X942341Y42908D01*
X943281Y43422D01*
X944256Y43867D01*
X945260Y44241D01*
X946288Y44543D01*
X947335Y44771D01*
X948396Y44924D01*
X949464Y45000D01*
X950536Y45000D01*
X951604Y44924D01*
X952665Y44771D01*
X953712Y44543D01*
X954740Y44241D01*
X955744Y43867D01*
X956719Y43422D01*
X957659Y42908D01*
X958560Y42329D01*
X959418Y41687D01*
X960228Y40985D01*
X960985Y40228D01*
X961687Y39418D01*
X962329Y38560D01*
X962908Y37659D01*
X963422Y36719D01*
X963867Y35744D01*
X964241Y34740D01*
X964543Y33712D01*
X964771Y32665D01*
X964924Y31604D01*
X965000Y30536D01*
X965000Y29464D01*
X45000Y29464D02*
X44924Y28396D01*
X44771Y27335D01*
X44543Y26288D01*
X44241Y25260D01*
X43867Y24256D01*
X43422Y23281D01*
X42908Y22341D01*
X42329Y21440D01*
X41687Y20582D01*
X40985Y19772D01*
X40228Y19015D01*
X39418Y18313D01*
X38560Y17671D01*
X37659Y17092D01*
X36719Y16578D01*
X35744Y16133D01*
X34740Y15759D01*
X33712Y15457D01*
X32665Y15229D01*
X31604Y15076D01*
X30536Y15000D01*
X29464Y15000D01*
X28396Y15076D01*
X27335Y15229D01*
X26288Y15457D01*
X25260Y15759D01*
X24256Y16133D01*
X23281Y16578D01*
X22341Y17092D01*
X21440Y17671D01*
X20582Y18313D01*
X19772Y19015D01*
X19015Y19772D01*
X18313Y20582D01*
X17671Y21440D01*
X17092Y22341D01*
X16578Y23281D01*
X16133Y24256D01*
X15759Y25260D01*
X15457Y26288D01*
X15229Y27335D01*
X15076Y28396D01*
X15000Y29464D01*
X15000Y30536D01*
X15076Y31604D01*
X15229Y32665D01*
X15457Y33712D01*
X15759Y34740D01*
X16133Y35744D01*
X16578Y36719D01*
X17092Y37659D01*
X17671Y38560D01*
X18313Y39418D01*
X19015Y40228D01*
X19772Y40985D01*
X20582Y41687D01*
X21440Y42329D01*
X22341Y42908D01*
X23281Y43422D01*
X24256Y43867D01*
X25260Y44241D01*
X26288Y44543D01*
X27335Y44771D01*
X28396Y44924D01*
X29464Y45000D01*
X30536Y45000D01*
X31604Y44924D01*
X32665Y44771D01*
X33712Y44543D01*
X34740Y44241D01*
X35744Y43867D01*
X36719Y43422D01*
X37659Y42908D01*
X38560Y42329D01*
X39418Y41687D01*
X40228Y40985D01*
X40985Y40228D01*
X41687Y39418D01*
X42329Y38560D01*
X42908Y37659D01*
X43422Y36719D01*
X43867Y35744D01*
X44241Y34740D01*
X44543Y33712D01*
X44771Y32665D01*
X44924Y31604D01*
X45000Y30536D01*
X45000Y29464D01*
X45000Y369464D02*
X44924Y368396D01*
X44771Y367335D01*
X44543Y366288D01*
X44241Y365260D01*
X43867Y364256D01*
X43422Y363281D01*
X42908Y362341D01*
X42329Y361440D01*
X41687Y360582D01*
X40985Y359772D01*
X40228Y359015D01*
X39418Y358313D01*
X38560Y357671D01*
X37659Y357092D01*
X36719Y356578D01*
X35744Y356133D01*
X34740Y355759D01*
X33712Y355457D01*
X32665Y355229D01*
X31604Y355076D01*
X30536Y355000D01*
X29464Y355000D01*
X28396Y355076D01*
X27335Y355229D01*
X26288Y355457D01*
X25260Y355759D01*
X24256Y356133D01*
X23281Y356578D01*
X22341Y357092D01*
X21440Y357671D01*
X20582Y358313D01*
X19772Y359015D01*
X19015Y359772D01*
X18313Y360582D01*
X17671Y361440D01*
X17092Y362341D01*
X16578Y363281D01*
X16133Y364256D01*
X15759Y365260D01*
X15457Y366288D01*
X15229Y367335D01*
X15076Y368396D01*
X15000Y369464D01*
X15000Y370536D01*
X15076Y371604D01*
X15229Y372665D01*
X15457Y373712D01*
X15759Y374740D01*
X16133Y375744D01*
X16578Y376719D01*
X17092Y377659D01*
X17671Y378560D01*
X18313Y379418D01*
X19015Y380228D01*
X19772Y380985D01*
X20582Y381687D01*
X21440Y382329D01*
X22341Y382908D01*
X23281Y383422D01*
X24256Y383867D01*
X25260Y384241D01*
X26288Y384543D01*
X27335Y384771D01*
X28396Y384924D01*
X29464Y385000D01*
X30536Y385000D01*
X31604Y384924D01*
X32665Y384771D01*
X33712Y384543D01*
X34740Y384241D01*
X35744Y383867D01*
X36719Y383422D01*
X37659Y382908D01*
X38560Y382329D01*
X39418Y381687D01*
X40228Y380985D01*
X40985Y380228D01*
X41687Y379418D01*
X42329Y378560D01*
X42908Y377659D01*
X43422Y376719D01*
X43867Y375744D01*
X44241Y374740D01*
X44543Y373712D01*
X44771Y372665D01*
X44924Y371604D01*
X45000Y370536D01*
X45000Y369464D01*
M02*
