G04 EAGLE Gerber RS-274X export*
G75*
%MOMM*%
%FSLAX34Y34*%
%LPD*%
%INSilkscreen Top*%
%IPPOS*%
%AMOC8*
5,1,8,0,0,1.08239X$1,22.5*%
G01*
%ADD10C,0.152400*%
%ADD11C,0.177800*%


D10*
X360000Y370000D02*
X916000Y370000D01*
X916000Y275000D01*
X360000Y275000D01*
X360000Y370000D01*
X360000Y260000D02*
X916000Y260000D01*
X916000Y165000D01*
X360000Y165000D01*
X360000Y260000D01*
D11*
X365889Y350889D02*
X365889Y366891D01*
X373001Y366891D01*
X373001Y359779D02*
X365889Y359779D01*
X378729Y358001D02*
X378729Y354445D01*
X378729Y358001D02*
X378731Y358119D01*
X378737Y358236D01*
X378746Y358353D01*
X378760Y358470D01*
X378777Y358586D01*
X378799Y358702D01*
X378824Y358817D01*
X378853Y358931D01*
X378885Y359044D01*
X378922Y359156D01*
X378962Y359266D01*
X379005Y359375D01*
X379053Y359483D01*
X379103Y359589D01*
X379158Y359693D01*
X379215Y359796D01*
X379276Y359896D01*
X379341Y359995D01*
X379408Y360091D01*
X379479Y360185D01*
X379553Y360277D01*
X379629Y360366D01*
X379709Y360452D01*
X379791Y360536D01*
X379877Y360617D01*
X379964Y360695D01*
X380055Y360771D01*
X380148Y360843D01*
X380243Y360912D01*
X380340Y360978D01*
X380440Y361041D01*
X380541Y361100D01*
X380644Y361156D01*
X380750Y361208D01*
X380857Y361257D01*
X380965Y361303D01*
X381075Y361345D01*
X381186Y361383D01*
X381299Y361417D01*
X381412Y361448D01*
X381527Y361475D01*
X381642Y361498D01*
X381758Y361518D01*
X381874Y361533D01*
X381991Y361545D01*
X382109Y361553D01*
X382226Y361557D01*
X382344Y361557D01*
X382461Y361553D01*
X382579Y361545D01*
X382696Y361533D01*
X382812Y361518D01*
X382928Y361498D01*
X383043Y361475D01*
X383158Y361448D01*
X383271Y361417D01*
X383384Y361383D01*
X383495Y361345D01*
X383605Y361303D01*
X383713Y361257D01*
X383820Y361208D01*
X383926Y361156D01*
X384029Y361100D01*
X384130Y361041D01*
X384230Y360978D01*
X384327Y360912D01*
X384422Y360843D01*
X384515Y360771D01*
X384606Y360695D01*
X384693Y360617D01*
X384779Y360536D01*
X384861Y360452D01*
X384941Y360366D01*
X385017Y360277D01*
X385091Y360185D01*
X385162Y360091D01*
X385229Y359995D01*
X385294Y359896D01*
X385355Y359796D01*
X385412Y359693D01*
X385467Y359589D01*
X385517Y359483D01*
X385565Y359375D01*
X385608Y359266D01*
X385648Y359156D01*
X385685Y359044D01*
X385717Y358931D01*
X385746Y358817D01*
X385771Y358702D01*
X385793Y358586D01*
X385810Y358470D01*
X385824Y358353D01*
X385833Y358236D01*
X385839Y358119D01*
X385841Y358001D01*
X385841Y354445D01*
X385839Y354327D01*
X385833Y354210D01*
X385824Y354093D01*
X385810Y353976D01*
X385793Y353860D01*
X385771Y353744D01*
X385746Y353629D01*
X385717Y353515D01*
X385685Y353402D01*
X385648Y353290D01*
X385608Y353180D01*
X385565Y353071D01*
X385517Y352963D01*
X385467Y352857D01*
X385412Y352753D01*
X385355Y352650D01*
X385294Y352550D01*
X385229Y352451D01*
X385162Y352355D01*
X385091Y352261D01*
X385017Y352169D01*
X384941Y352080D01*
X384861Y351994D01*
X384779Y351910D01*
X384693Y351829D01*
X384606Y351751D01*
X384515Y351675D01*
X384422Y351603D01*
X384327Y351534D01*
X384230Y351468D01*
X384130Y351405D01*
X384029Y351346D01*
X383926Y351290D01*
X383820Y351238D01*
X383713Y351189D01*
X383605Y351143D01*
X383495Y351101D01*
X383384Y351063D01*
X383271Y351029D01*
X383158Y350998D01*
X383043Y350971D01*
X382928Y350948D01*
X382812Y350928D01*
X382696Y350913D01*
X382579Y350901D01*
X382461Y350893D01*
X382344Y350889D01*
X382226Y350889D01*
X382109Y350893D01*
X381991Y350901D01*
X381874Y350913D01*
X381758Y350928D01*
X381642Y350948D01*
X381527Y350971D01*
X381412Y350998D01*
X381299Y351029D01*
X381186Y351063D01*
X381075Y351101D01*
X380965Y351143D01*
X380857Y351189D01*
X380750Y351238D01*
X380644Y351290D01*
X380541Y351346D01*
X380440Y351405D01*
X380340Y351468D01*
X380243Y351534D01*
X380148Y351603D01*
X380055Y351675D01*
X379964Y351751D01*
X379877Y351829D01*
X379791Y351910D01*
X379709Y351994D01*
X379629Y352080D01*
X379553Y352169D01*
X379479Y352261D01*
X379408Y352355D01*
X379341Y352451D01*
X379276Y352550D01*
X379215Y352650D01*
X379158Y352753D01*
X379103Y352857D01*
X379053Y352963D01*
X379005Y353071D01*
X378962Y353180D01*
X378922Y353290D01*
X378885Y353402D01*
X378853Y353515D01*
X378824Y353629D01*
X378799Y353744D01*
X378777Y353860D01*
X378760Y353976D01*
X378746Y354093D01*
X378737Y354210D01*
X378731Y354327D01*
X378729Y354445D01*
X392891Y350889D02*
X392891Y361557D01*
X398225Y361557D01*
X398225Y359779D01*
X405904Y350889D02*
X409460Y350889D01*
X405904Y350889D02*
X405802Y350891D01*
X405700Y350897D01*
X405598Y350907D01*
X405497Y350920D01*
X405396Y350938D01*
X405296Y350959D01*
X405197Y350984D01*
X405099Y351013D01*
X405003Y351046D01*
X404907Y351082D01*
X404813Y351122D01*
X404721Y351166D01*
X404630Y351213D01*
X404541Y351264D01*
X404454Y351317D01*
X404370Y351375D01*
X404287Y351435D01*
X404207Y351498D01*
X404130Y351565D01*
X404055Y351634D01*
X403982Y351707D01*
X403913Y351782D01*
X403846Y351859D01*
X403783Y351939D01*
X403723Y352022D01*
X403665Y352106D01*
X403612Y352193D01*
X403561Y352282D01*
X403514Y352373D01*
X403470Y352465D01*
X403430Y352559D01*
X403394Y352655D01*
X403361Y352751D01*
X403332Y352849D01*
X403307Y352948D01*
X403286Y353048D01*
X403268Y353149D01*
X403255Y353250D01*
X403245Y353352D01*
X403239Y353454D01*
X403237Y353556D01*
X403237Y358890D01*
X403239Y358992D01*
X403245Y359094D01*
X403255Y359196D01*
X403268Y359297D01*
X403286Y359398D01*
X403307Y359498D01*
X403332Y359597D01*
X403361Y359695D01*
X403394Y359791D01*
X403430Y359887D01*
X403470Y359981D01*
X403514Y360073D01*
X403561Y360164D01*
X403612Y360253D01*
X403665Y360340D01*
X403723Y360424D01*
X403783Y360507D01*
X403846Y360587D01*
X403913Y360664D01*
X403982Y360739D01*
X404055Y360812D01*
X404130Y360881D01*
X404207Y360948D01*
X404287Y361011D01*
X404370Y361071D01*
X404454Y361129D01*
X404541Y361182D01*
X404630Y361233D01*
X404721Y361280D01*
X404813Y361324D01*
X404907Y361364D01*
X405003Y361400D01*
X405099Y361433D01*
X405197Y361462D01*
X405296Y361487D01*
X405396Y361508D01*
X405497Y361526D01*
X405598Y361539D01*
X405700Y361549D01*
X405802Y361555D01*
X405904Y361557D01*
X409460Y361557D01*
X417869Y350889D02*
X422314Y350889D01*
X417869Y350889D02*
X417767Y350891D01*
X417665Y350897D01*
X417563Y350907D01*
X417462Y350920D01*
X417361Y350938D01*
X417261Y350959D01*
X417162Y350984D01*
X417064Y351013D01*
X416968Y351046D01*
X416872Y351082D01*
X416778Y351122D01*
X416686Y351166D01*
X416595Y351213D01*
X416506Y351264D01*
X416419Y351317D01*
X416335Y351375D01*
X416252Y351435D01*
X416172Y351498D01*
X416095Y351565D01*
X416020Y351634D01*
X415947Y351707D01*
X415878Y351782D01*
X415811Y351859D01*
X415748Y351939D01*
X415688Y352022D01*
X415630Y352106D01*
X415577Y352193D01*
X415526Y352282D01*
X415479Y352373D01*
X415435Y352465D01*
X415395Y352559D01*
X415359Y352655D01*
X415326Y352751D01*
X415297Y352849D01*
X415272Y352948D01*
X415251Y353048D01*
X415233Y353149D01*
X415220Y353250D01*
X415210Y353352D01*
X415204Y353454D01*
X415202Y353556D01*
X415202Y358001D01*
X415204Y358119D01*
X415210Y358236D01*
X415219Y358353D01*
X415233Y358470D01*
X415250Y358586D01*
X415272Y358702D01*
X415297Y358817D01*
X415326Y358931D01*
X415358Y359044D01*
X415395Y359156D01*
X415435Y359266D01*
X415478Y359375D01*
X415526Y359483D01*
X415576Y359589D01*
X415631Y359693D01*
X415688Y359796D01*
X415749Y359896D01*
X415814Y359995D01*
X415881Y360091D01*
X415952Y360185D01*
X416026Y360277D01*
X416102Y360366D01*
X416182Y360452D01*
X416264Y360536D01*
X416350Y360617D01*
X416437Y360695D01*
X416528Y360771D01*
X416621Y360843D01*
X416716Y360912D01*
X416813Y360978D01*
X416913Y361041D01*
X417014Y361100D01*
X417117Y361156D01*
X417223Y361208D01*
X417330Y361257D01*
X417438Y361303D01*
X417548Y361345D01*
X417659Y361383D01*
X417772Y361417D01*
X417885Y361448D01*
X418000Y361475D01*
X418115Y361498D01*
X418231Y361518D01*
X418347Y361533D01*
X418464Y361545D01*
X418582Y361553D01*
X418699Y361557D01*
X418817Y361557D01*
X418934Y361553D01*
X419052Y361545D01*
X419169Y361533D01*
X419285Y361518D01*
X419401Y361498D01*
X419516Y361475D01*
X419631Y361448D01*
X419744Y361417D01*
X419857Y361383D01*
X419968Y361345D01*
X420078Y361303D01*
X420186Y361257D01*
X420293Y361208D01*
X420399Y361156D01*
X420502Y361100D01*
X420603Y361041D01*
X420703Y360978D01*
X420800Y360912D01*
X420895Y360843D01*
X420988Y360771D01*
X421079Y360695D01*
X421166Y360617D01*
X421252Y360536D01*
X421334Y360452D01*
X421414Y360366D01*
X421490Y360277D01*
X421564Y360185D01*
X421635Y360091D01*
X421702Y359995D01*
X421767Y359896D01*
X421828Y359796D01*
X421885Y359693D01*
X421940Y359589D01*
X421990Y359483D01*
X422038Y359375D01*
X422081Y359266D01*
X422121Y359156D01*
X422158Y359044D01*
X422190Y358931D01*
X422219Y358817D01*
X422244Y358702D01*
X422266Y358586D01*
X422283Y358470D01*
X422297Y358353D01*
X422306Y358236D01*
X422312Y358119D01*
X422314Y358001D01*
X422314Y356223D01*
X415202Y356223D01*
X429351Y361557D02*
X429351Y345555D01*
X429351Y361557D02*
X433796Y361557D01*
X433898Y361555D01*
X434000Y361549D01*
X434102Y361539D01*
X434203Y361526D01*
X434304Y361508D01*
X434404Y361487D01*
X434503Y361462D01*
X434601Y361433D01*
X434697Y361400D01*
X434793Y361364D01*
X434887Y361324D01*
X434979Y361280D01*
X435070Y361233D01*
X435159Y361182D01*
X435246Y361129D01*
X435330Y361071D01*
X435413Y361011D01*
X435493Y360948D01*
X435570Y360881D01*
X435645Y360812D01*
X435718Y360739D01*
X435787Y360664D01*
X435854Y360587D01*
X435917Y360507D01*
X435977Y360424D01*
X436035Y360340D01*
X436088Y360253D01*
X436139Y360164D01*
X436186Y360073D01*
X436230Y359981D01*
X436270Y359887D01*
X436306Y359791D01*
X436339Y359695D01*
X436368Y359597D01*
X436393Y359498D01*
X436414Y359398D01*
X436432Y359297D01*
X436445Y359196D01*
X436455Y359094D01*
X436461Y358992D01*
X436463Y358890D01*
X436463Y353556D01*
X436461Y353454D01*
X436455Y353352D01*
X436445Y353250D01*
X436432Y353149D01*
X436414Y353048D01*
X436393Y352948D01*
X436368Y352849D01*
X436339Y352751D01*
X436306Y352655D01*
X436270Y352559D01*
X436230Y352465D01*
X436186Y352373D01*
X436139Y352282D01*
X436088Y352193D01*
X436035Y352106D01*
X435977Y352022D01*
X435917Y351939D01*
X435854Y351859D01*
X435787Y351782D01*
X435718Y351707D01*
X435645Y351634D01*
X435570Y351565D01*
X435493Y351498D01*
X435413Y351435D01*
X435330Y351375D01*
X435246Y351317D01*
X435159Y351264D01*
X435070Y351213D01*
X434979Y351166D01*
X434887Y351122D01*
X434793Y351082D01*
X434697Y351046D01*
X434601Y351013D01*
X434503Y350984D01*
X434404Y350959D01*
X434304Y350938D01*
X434203Y350920D01*
X434102Y350907D01*
X434000Y350897D01*
X433898Y350891D01*
X433796Y350889D01*
X429351Y350889D01*
X444151Y357112D02*
X448596Y355334D01*
X444151Y357112D02*
X444063Y357149D01*
X443977Y357190D01*
X443892Y357234D01*
X443810Y357282D01*
X443729Y357334D01*
X443651Y357388D01*
X443575Y357446D01*
X443501Y357507D01*
X443430Y357571D01*
X443362Y357637D01*
X443297Y357707D01*
X443234Y357779D01*
X443175Y357854D01*
X443118Y357931D01*
X443065Y358010D01*
X443015Y358092D01*
X442969Y358175D01*
X442926Y358260D01*
X442887Y358348D01*
X442851Y358436D01*
X442819Y358526D01*
X442791Y358617D01*
X442767Y358710D01*
X442746Y358803D01*
X442730Y358897D01*
X442717Y358991D01*
X442708Y359087D01*
X442703Y359182D01*
X442702Y359277D01*
X442705Y359373D01*
X442712Y359468D01*
X442723Y359563D01*
X442738Y359657D01*
X442757Y359751D01*
X442779Y359844D01*
X442806Y359935D01*
X442836Y360026D01*
X442870Y360115D01*
X442907Y360203D01*
X442948Y360289D01*
X442993Y360373D01*
X443041Y360456D01*
X443093Y360536D01*
X443148Y360614D01*
X443206Y360690D01*
X443267Y360764D01*
X443331Y360834D01*
X443398Y360902D01*
X443468Y360968D01*
X443540Y361030D01*
X443615Y361089D01*
X443692Y361145D01*
X443772Y361198D01*
X443853Y361247D01*
X443937Y361294D01*
X444022Y361336D01*
X444110Y361375D01*
X444198Y361410D01*
X444288Y361442D01*
X444380Y361470D01*
X444472Y361494D01*
X444565Y361514D01*
X444659Y361531D01*
X444754Y361543D01*
X444849Y361552D01*
X444944Y361556D01*
X445040Y361557D01*
X445039Y361557D02*
X445282Y361551D01*
X445524Y361538D01*
X445766Y361520D01*
X446008Y361496D01*
X446249Y361467D01*
X446489Y361431D01*
X446728Y361390D01*
X446966Y361343D01*
X447203Y361291D01*
X447439Y361232D01*
X447673Y361168D01*
X447906Y361099D01*
X448137Y361023D01*
X448366Y360943D01*
X448592Y360857D01*
X448817Y360765D01*
X449040Y360668D01*
X448596Y355334D02*
X448684Y355297D01*
X448770Y355256D01*
X448855Y355212D01*
X448937Y355164D01*
X449018Y355112D01*
X449096Y355058D01*
X449172Y355000D01*
X449246Y354939D01*
X449317Y354875D01*
X449385Y354809D01*
X449450Y354739D01*
X449513Y354667D01*
X449572Y354592D01*
X449629Y354515D01*
X449682Y354436D01*
X449732Y354354D01*
X449778Y354271D01*
X449821Y354186D01*
X449860Y354098D01*
X449896Y354010D01*
X449928Y353920D01*
X449956Y353829D01*
X449980Y353736D01*
X450001Y353643D01*
X450017Y353549D01*
X450030Y353455D01*
X450039Y353359D01*
X450044Y353264D01*
X450045Y353169D01*
X450042Y353073D01*
X450035Y352978D01*
X450024Y352883D01*
X450009Y352789D01*
X449990Y352695D01*
X449968Y352602D01*
X449941Y352511D01*
X449911Y352420D01*
X449877Y352331D01*
X449840Y352243D01*
X449799Y352157D01*
X449754Y352073D01*
X449706Y351990D01*
X449654Y351910D01*
X449599Y351832D01*
X449541Y351756D01*
X449480Y351682D01*
X449416Y351612D01*
X449349Y351544D01*
X449279Y351478D01*
X449207Y351416D01*
X449132Y351357D01*
X449055Y351301D01*
X448975Y351248D01*
X448894Y351199D01*
X448810Y351152D01*
X448725Y351110D01*
X448637Y351071D01*
X448549Y351036D01*
X448459Y351004D01*
X448367Y350976D01*
X448275Y350952D01*
X448182Y350932D01*
X448088Y350915D01*
X447993Y350903D01*
X447898Y350894D01*
X447803Y350890D01*
X447707Y350889D01*
X447707Y350890D02*
X447350Y350899D01*
X446994Y350917D01*
X446638Y350943D01*
X446283Y350977D01*
X445929Y351020D01*
X445577Y351072D01*
X445225Y351131D01*
X444875Y351199D01*
X444527Y351275D01*
X444180Y351360D01*
X443836Y351452D01*
X443494Y351553D01*
X443154Y351662D01*
X442817Y351779D01*
X456517Y358890D02*
X456521Y359205D01*
X456532Y359519D01*
X456551Y359834D01*
X456577Y360147D01*
X456611Y360460D01*
X456652Y360772D01*
X456701Y361083D01*
X456757Y361393D01*
X456820Y361702D01*
X456891Y362008D01*
X456969Y362313D01*
X457054Y362616D01*
X457147Y362917D01*
X457247Y363216D01*
X457354Y363512D01*
X457467Y363806D01*
X457588Y364096D01*
X457716Y364384D01*
X457851Y364669D01*
X457889Y364775D01*
X457932Y364880D01*
X457977Y364984D01*
X458027Y365086D01*
X458080Y365186D01*
X458136Y365285D01*
X458196Y365381D01*
X458259Y365475D01*
X458325Y365567D01*
X458394Y365657D01*
X458466Y365744D01*
X458542Y365829D01*
X458620Y365911D01*
X458701Y365990D01*
X458784Y366067D01*
X458871Y366140D01*
X458959Y366211D01*
X459050Y366278D01*
X459144Y366343D01*
X459239Y366404D01*
X459337Y366461D01*
X459436Y366516D01*
X459537Y366566D01*
X459640Y366614D01*
X459745Y366658D01*
X459851Y366698D01*
X459958Y366734D01*
X460067Y366767D01*
X460176Y366796D01*
X460287Y366821D01*
X460398Y366842D01*
X460510Y366860D01*
X460623Y366873D01*
X460736Y366883D01*
X460849Y366889D01*
X460962Y366891D01*
X461075Y366889D01*
X461188Y366883D01*
X461301Y366873D01*
X461414Y366860D01*
X461526Y366842D01*
X461637Y366821D01*
X461748Y366796D01*
X461857Y366767D01*
X461966Y366734D01*
X462073Y366698D01*
X462179Y366658D01*
X462284Y366614D01*
X462387Y366566D01*
X462488Y366516D01*
X462587Y366461D01*
X462685Y366404D01*
X462780Y366343D01*
X462874Y366278D01*
X462965Y366211D01*
X463053Y366140D01*
X463140Y366067D01*
X463223Y365990D01*
X463304Y365911D01*
X463382Y365829D01*
X463458Y365744D01*
X463530Y365657D01*
X463599Y365567D01*
X463665Y365475D01*
X463728Y365381D01*
X463788Y365285D01*
X463844Y365186D01*
X463897Y365086D01*
X463947Y364984D01*
X463992Y364880D01*
X464035Y364775D01*
X464073Y364669D01*
X464208Y364384D01*
X464336Y364096D01*
X464457Y363806D01*
X464570Y363512D01*
X464677Y363216D01*
X464777Y362917D01*
X464870Y362616D01*
X464955Y362313D01*
X465033Y362008D01*
X465104Y361702D01*
X465167Y361393D01*
X465223Y361083D01*
X465272Y360772D01*
X465313Y360460D01*
X465347Y360147D01*
X465373Y359834D01*
X465392Y359519D01*
X465403Y359205D01*
X465407Y358890D01*
X456517Y358890D02*
X456521Y358575D01*
X456532Y358261D01*
X456551Y357946D01*
X456577Y357633D01*
X456611Y357320D01*
X456652Y357008D01*
X456701Y356697D01*
X456757Y356387D01*
X456820Y356078D01*
X456891Y355772D01*
X456969Y355467D01*
X457054Y355164D01*
X457147Y354863D01*
X457247Y354564D01*
X457354Y354268D01*
X457467Y353974D01*
X457588Y353684D01*
X457716Y353396D01*
X457851Y353111D01*
X457889Y353005D01*
X457932Y352900D01*
X457977Y352796D01*
X458027Y352694D01*
X458080Y352594D01*
X458136Y352495D01*
X458196Y352399D01*
X458259Y352305D01*
X458325Y352213D01*
X458394Y352123D01*
X458466Y352036D01*
X458542Y351951D01*
X458620Y351869D01*
X458701Y351790D01*
X458784Y351713D01*
X458871Y351640D01*
X458959Y351569D01*
X459050Y351502D01*
X459144Y351437D01*
X459239Y351376D01*
X459337Y351319D01*
X459436Y351264D01*
X459537Y351214D01*
X459640Y351166D01*
X459745Y351122D01*
X459851Y351082D01*
X459958Y351046D01*
X460067Y351013D01*
X460176Y350984D01*
X460287Y350959D01*
X460398Y350938D01*
X460510Y350920D01*
X460623Y350907D01*
X460736Y350897D01*
X460849Y350891D01*
X460962Y350889D01*
X464073Y353111D02*
X464208Y353396D01*
X464336Y353684D01*
X464457Y353974D01*
X464570Y354268D01*
X464677Y354564D01*
X464777Y354863D01*
X464870Y355164D01*
X464955Y355467D01*
X465033Y355772D01*
X465104Y356078D01*
X465167Y356387D01*
X465223Y356697D01*
X465272Y357008D01*
X465313Y357320D01*
X465347Y357633D01*
X465373Y357946D01*
X465392Y358261D01*
X465403Y358575D01*
X465407Y358890D01*
X464073Y353111D02*
X464035Y353005D01*
X463992Y352900D01*
X463947Y352796D01*
X463897Y352694D01*
X463844Y352594D01*
X463788Y352495D01*
X463728Y352399D01*
X463665Y352305D01*
X463599Y352213D01*
X463530Y352123D01*
X463458Y352036D01*
X463382Y351951D01*
X463304Y351869D01*
X463223Y351790D01*
X463140Y351713D01*
X463053Y351640D01*
X462965Y351569D01*
X462874Y351502D01*
X462780Y351437D01*
X462685Y351376D01*
X462587Y351319D01*
X462488Y351264D01*
X462387Y351214D01*
X462284Y351166D01*
X462179Y351122D01*
X462073Y351082D01*
X461966Y351046D01*
X461857Y351013D01*
X461748Y350984D01*
X461637Y350959D01*
X461526Y350938D01*
X461414Y350920D01*
X461301Y350907D01*
X461188Y350897D01*
X461075Y350891D01*
X460962Y350889D01*
X457406Y354445D02*
X464518Y363335D01*
X365889Y256891D02*
X365889Y240889D01*
X365889Y256891D02*
X373001Y256891D01*
X373001Y249779D02*
X365889Y249779D01*
X378729Y248001D02*
X378729Y244445D01*
X378729Y248001D02*
X378731Y248119D01*
X378737Y248236D01*
X378746Y248353D01*
X378760Y248470D01*
X378777Y248586D01*
X378799Y248702D01*
X378824Y248817D01*
X378853Y248931D01*
X378885Y249044D01*
X378922Y249156D01*
X378962Y249266D01*
X379005Y249375D01*
X379053Y249483D01*
X379103Y249589D01*
X379158Y249693D01*
X379215Y249796D01*
X379276Y249896D01*
X379341Y249995D01*
X379408Y250091D01*
X379479Y250185D01*
X379553Y250277D01*
X379629Y250366D01*
X379709Y250452D01*
X379791Y250536D01*
X379877Y250617D01*
X379964Y250695D01*
X380055Y250771D01*
X380148Y250843D01*
X380243Y250912D01*
X380340Y250978D01*
X380440Y251041D01*
X380541Y251100D01*
X380644Y251156D01*
X380750Y251208D01*
X380857Y251257D01*
X380965Y251303D01*
X381075Y251345D01*
X381186Y251383D01*
X381299Y251417D01*
X381412Y251448D01*
X381527Y251475D01*
X381642Y251498D01*
X381758Y251518D01*
X381874Y251533D01*
X381991Y251545D01*
X382109Y251553D01*
X382226Y251557D01*
X382344Y251557D01*
X382461Y251553D01*
X382579Y251545D01*
X382696Y251533D01*
X382812Y251518D01*
X382928Y251498D01*
X383043Y251475D01*
X383158Y251448D01*
X383271Y251417D01*
X383384Y251383D01*
X383495Y251345D01*
X383605Y251303D01*
X383713Y251257D01*
X383820Y251208D01*
X383926Y251156D01*
X384029Y251100D01*
X384130Y251041D01*
X384230Y250978D01*
X384327Y250912D01*
X384422Y250843D01*
X384515Y250771D01*
X384606Y250695D01*
X384693Y250617D01*
X384779Y250536D01*
X384861Y250452D01*
X384941Y250366D01*
X385017Y250277D01*
X385091Y250185D01*
X385162Y250091D01*
X385229Y249995D01*
X385294Y249896D01*
X385355Y249796D01*
X385412Y249693D01*
X385467Y249589D01*
X385517Y249483D01*
X385565Y249375D01*
X385608Y249266D01*
X385648Y249156D01*
X385685Y249044D01*
X385717Y248931D01*
X385746Y248817D01*
X385771Y248702D01*
X385793Y248586D01*
X385810Y248470D01*
X385824Y248353D01*
X385833Y248236D01*
X385839Y248119D01*
X385841Y248001D01*
X385841Y244445D01*
X385839Y244327D01*
X385833Y244210D01*
X385824Y244093D01*
X385810Y243976D01*
X385793Y243860D01*
X385771Y243744D01*
X385746Y243629D01*
X385717Y243515D01*
X385685Y243402D01*
X385648Y243290D01*
X385608Y243180D01*
X385565Y243071D01*
X385517Y242963D01*
X385467Y242857D01*
X385412Y242753D01*
X385355Y242650D01*
X385294Y242550D01*
X385229Y242451D01*
X385162Y242355D01*
X385091Y242261D01*
X385017Y242169D01*
X384941Y242080D01*
X384861Y241994D01*
X384779Y241910D01*
X384693Y241829D01*
X384606Y241751D01*
X384515Y241675D01*
X384422Y241603D01*
X384327Y241534D01*
X384230Y241468D01*
X384130Y241405D01*
X384029Y241346D01*
X383926Y241290D01*
X383820Y241238D01*
X383713Y241189D01*
X383605Y241143D01*
X383495Y241101D01*
X383384Y241063D01*
X383271Y241029D01*
X383158Y240998D01*
X383043Y240971D01*
X382928Y240948D01*
X382812Y240928D01*
X382696Y240913D01*
X382579Y240901D01*
X382461Y240893D01*
X382344Y240889D01*
X382226Y240889D01*
X382109Y240893D01*
X381991Y240901D01*
X381874Y240913D01*
X381758Y240928D01*
X381642Y240948D01*
X381527Y240971D01*
X381412Y240998D01*
X381299Y241029D01*
X381186Y241063D01*
X381075Y241101D01*
X380965Y241143D01*
X380857Y241189D01*
X380750Y241238D01*
X380644Y241290D01*
X380541Y241346D01*
X380440Y241405D01*
X380340Y241468D01*
X380243Y241534D01*
X380148Y241603D01*
X380055Y241675D01*
X379964Y241751D01*
X379877Y241829D01*
X379791Y241910D01*
X379709Y241994D01*
X379629Y242080D01*
X379553Y242169D01*
X379479Y242261D01*
X379408Y242355D01*
X379341Y242451D01*
X379276Y242550D01*
X379215Y242650D01*
X379158Y242753D01*
X379103Y242857D01*
X379053Y242963D01*
X379005Y243071D01*
X378962Y243180D01*
X378922Y243290D01*
X378885Y243402D01*
X378853Y243515D01*
X378824Y243629D01*
X378799Y243744D01*
X378777Y243860D01*
X378760Y243976D01*
X378746Y244093D01*
X378737Y244210D01*
X378731Y244327D01*
X378729Y244445D01*
X392891Y240889D02*
X392891Y251557D01*
X398225Y251557D01*
X398225Y249779D01*
X405904Y240889D02*
X409460Y240889D01*
X405904Y240889D02*
X405802Y240891D01*
X405700Y240897D01*
X405598Y240907D01*
X405497Y240920D01*
X405396Y240938D01*
X405296Y240959D01*
X405197Y240984D01*
X405099Y241013D01*
X405003Y241046D01*
X404907Y241082D01*
X404813Y241122D01*
X404721Y241166D01*
X404630Y241213D01*
X404541Y241264D01*
X404454Y241317D01*
X404370Y241375D01*
X404287Y241435D01*
X404207Y241498D01*
X404130Y241565D01*
X404055Y241634D01*
X403982Y241707D01*
X403913Y241782D01*
X403846Y241859D01*
X403783Y241939D01*
X403723Y242022D01*
X403665Y242106D01*
X403612Y242193D01*
X403561Y242282D01*
X403514Y242373D01*
X403470Y242465D01*
X403430Y242559D01*
X403394Y242655D01*
X403361Y242751D01*
X403332Y242849D01*
X403307Y242948D01*
X403286Y243048D01*
X403268Y243149D01*
X403255Y243250D01*
X403245Y243352D01*
X403239Y243454D01*
X403237Y243556D01*
X403237Y248890D01*
X403239Y248992D01*
X403245Y249094D01*
X403255Y249196D01*
X403268Y249297D01*
X403286Y249398D01*
X403307Y249498D01*
X403332Y249597D01*
X403361Y249695D01*
X403394Y249791D01*
X403430Y249887D01*
X403470Y249981D01*
X403514Y250073D01*
X403561Y250164D01*
X403612Y250253D01*
X403665Y250340D01*
X403723Y250424D01*
X403783Y250507D01*
X403846Y250587D01*
X403913Y250664D01*
X403982Y250739D01*
X404055Y250812D01*
X404130Y250881D01*
X404207Y250948D01*
X404287Y251011D01*
X404370Y251071D01*
X404454Y251129D01*
X404541Y251182D01*
X404630Y251233D01*
X404721Y251280D01*
X404813Y251324D01*
X404907Y251364D01*
X405003Y251400D01*
X405099Y251433D01*
X405197Y251462D01*
X405296Y251487D01*
X405396Y251508D01*
X405497Y251526D01*
X405598Y251539D01*
X405700Y251549D01*
X405802Y251555D01*
X405904Y251557D01*
X409460Y251557D01*
X417869Y240889D02*
X422314Y240889D01*
X417869Y240889D02*
X417767Y240891D01*
X417665Y240897D01*
X417563Y240907D01*
X417462Y240920D01*
X417361Y240938D01*
X417261Y240959D01*
X417162Y240984D01*
X417064Y241013D01*
X416968Y241046D01*
X416872Y241082D01*
X416778Y241122D01*
X416686Y241166D01*
X416595Y241213D01*
X416506Y241264D01*
X416419Y241317D01*
X416335Y241375D01*
X416252Y241435D01*
X416172Y241498D01*
X416095Y241565D01*
X416020Y241634D01*
X415947Y241707D01*
X415878Y241782D01*
X415811Y241859D01*
X415748Y241939D01*
X415688Y242022D01*
X415630Y242106D01*
X415577Y242193D01*
X415526Y242282D01*
X415479Y242373D01*
X415435Y242465D01*
X415395Y242559D01*
X415359Y242655D01*
X415326Y242751D01*
X415297Y242849D01*
X415272Y242948D01*
X415251Y243048D01*
X415233Y243149D01*
X415220Y243250D01*
X415210Y243352D01*
X415204Y243454D01*
X415202Y243556D01*
X415202Y248001D01*
X415204Y248119D01*
X415210Y248236D01*
X415219Y248353D01*
X415233Y248470D01*
X415250Y248586D01*
X415272Y248702D01*
X415297Y248817D01*
X415326Y248931D01*
X415358Y249044D01*
X415395Y249156D01*
X415435Y249266D01*
X415478Y249375D01*
X415526Y249483D01*
X415576Y249589D01*
X415631Y249693D01*
X415688Y249796D01*
X415749Y249896D01*
X415814Y249995D01*
X415881Y250091D01*
X415952Y250185D01*
X416026Y250277D01*
X416102Y250366D01*
X416182Y250452D01*
X416264Y250536D01*
X416350Y250617D01*
X416437Y250695D01*
X416528Y250771D01*
X416621Y250843D01*
X416716Y250912D01*
X416813Y250978D01*
X416913Y251041D01*
X417014Y251100D01*
X417117Y251156D01*
X417223Y251208D01*
X417330Y251257D01*
X417438Y251303D01*
X417548Y251345D01*
X417659Y251383D01*
X417772Y251417D01*
X417885Y251448D01*
X418000Y251475D01*
X418115Y251498D01*
X418231Y251518D01*
X418347Y251533D01*
X418464Y251545D01*
X418582Y251553D01*
X418699Y251557D01*
X418817Y251557D01*
X418934Y251553D01*
X419052Y251545D01*
X419169Y251533D01*
X419285Y251518D01*
X419401Y251498D01*
X419516Y251475D01*
X419631Y251448D01*
X419744Y251417D01*
X419857Y251383D01*
X419968Y251345D01*
X420078Y251303D01*
X420186Y251257D01*
X420293Y251208D01*
X420399Y251156D01*
X420502Y251100D01*
X420603Y251041D01*
X420703Y250978D01*
X420800Y250912D01*
X420895Y250843D01*
X420988Y250771D01*
X421079Y250695D01*
X421166Y250617D01*
X421252Y250536D01*
X421334Y250452D01*
X421414Y250366D01*
X421490Y250277D01*
X421564Y250185D01*
X421635Y250091D01*
X421702Y249995D01*
X421767Y249896D01*
X421828Y249796D01*
X421885Y249693D01*
X421940Y249589D01*
X421990Y249483D01*
X422038Y249375D01*
X422081Y249266D01*
X422121Y249156D01*
X422158Y249044D01*
X422190Y248931D01*
X422219Y248817D01*
X422244Y248702D01*
X422266Y248586D01*
X422283Y248470D01*
X422297Y248353D01*
X422306Y248236D01*
X422312Y248119D01*
X422314Y248001D01*
X422314Y246223D01*
X415202Y246223D01*
X429351Y251557D02*
X429351Y235555D01*
X429351Y251557D02*
X433796Y251557D01*
X433898Y251555D01*
X434000Y251549D01*
X434102Y251539D01*
X434203Y251526D01*
X434304Y251508D01*
X434404Y251487D01*
X434503Y251462D01*
X434601Y251433D01*
X434697Y251400D01*
X434793Y251364D01*
X434887Y251324D01*
X434979Y251280D01*
X435070Y251233D01*
X435159Y251182D01*
X435246Y251129D01*
X435330Y251071D01*
X435413Y251011D01*
X435493Y250948D01*
X435570Y250881D01*
X435645Y250812D01*
X435718Y250739D01*
X435787Y250664D01*
X435854Y250587D01*
X435917Y250507D01*
X435977Y250424D01*
X436035Y250340D01*
X436088Y250253D01*
X436139Y250164D01*
X436186Y250073D01*
X436230Y249981D01*
X436270Y249887D01*
X436306Y249791D01*
X436339Y249695D01*
X436368Y249597D01*
X436393Y249498D01*
X436414Y249398D01*
X436432Y249297D01*
X436445Y249196D01*
X436455Y249094D01*
X436461Y248992D01*
X436463Y248890D01*
X436463Y243556D01*
X436461Y243454D01*
X436455Y243352D01*
X436445Y243250D01*
X436432Y243149D01*
X436414Y243048D01*
X436393Y242948D01*
X436368Y242849D01*
X436339Y242751D01*
X436306Y242655D01*
X436270Y242559D01*
X436230Y242465D01*
X436186Y242373D01*
X436139Y242282D01*
X436088Y242193D01*
X436035Y242106D01*
X435977Y242022D01*
X435917Y241939D01*
X435854Y241859D01*
X435787Y241782D01*
X435718Y241707D01*
X435645Y241634D01*
X435570Y241565D01*
X435493Y241498D01*
X435413Y241435D01*
X435330Y241375D01*
X435246Y241317D01*
X435159Y241264D01*
X435070Y241213D01*
X434979Y241166D01*
X434887Y241122D01*
X434793Y241082D01*
X434697Y241046D01*
X434601Y241013D01*
X434503Y240984D01*
X434404Y240959D01*
X434304Y240938D01*
X434203Y240920D01*
X434102Y240907D01*
X434000Y240897D01*
X433898Y240891D01*
X433796Y240889D01*
X429351Y240889D01*
X444151Y247112D02*
X448596Y245334D01*
X444151Y247112D02*
X444063Y247149D01*
X443977Y247190D01*
X443892Y247234D01*
X443810Y247282D01*
X443729Y247334D01*
X443651Y247388D01*
X443575Y247446D01*
X443501Y247507D01*
X443430Y247571D01*
X443362Y247637D01*
X443297Y247707D01*
X443234Y247779D01*
X443175Y247854D01*
X443118Y247931D01*
X443065Y248010D01*
X443015Y248092D01*
X442969Y248175D01*
X442926Y248260D01*
X442887Y248348D01*
X442851Y248436D01*
X442819Y248526D01*
X442791Y248617D01*
X442767Y248710D01*
X442746Y248803D01*
X442730Y248897D01*
X442717Y248991D01*
X442708Y249087D01*
X442703Y249182D01*
X442702Y249277D01*
X442705Y249373D01*
X442712Y249468D01*
X442723Y249563D01*
X442738Y249657D01*
X442757Y249751D01*
X442779Y249844D01*
X442806Y249935D01*
X442836Y250026D01*
X442870Y250115D01*
X442907Y250203D01*
X442948Y250289D01*
X442993Y250373D01*
X443041Y250456D01*
X443093Y250536D01*
X443148Y250614D01*
X443206Y250690D01*
X443267Y250764D01*
X443331Y250834D01*
X443398Y250902D01*
X443468Y250968D01*
X443540Y251030D01*
X443615Y251089D01*
X443692Y251145D01*
X443772Y251198D01*
X443853Y251247D01*
X443937Y251294D01*
X444022Y251336D01*
X444110Y251375D01*
X444198Y251410D01*
X444288Y251442D01*
X444380Y251470D01*
X444472Y251494D01*
X444565Y251514D01*
X444659Y251531D01*
X444754Y251543D01*
X444849Y251552D01*
X444944Y251556D01*
X445040Y251557D01*
X445039Y251557D02*
X445282Y251551D01*
X445524Y251538D01*
X445766Y251520D01*
X446008Y251496D01*
X446249Y251467D01*
X446489Y251431D01*
X446728Y251390D01*
X446966Y251343D01*
X447203Y251291D01*
X447439Y251232D01*
X447673Y251168D01*
X447906Y251099D01*
X448137Y251023D01*
X448366Y250943D01*
X448592Y250857D01*
X448817Y250765D01*
X449040Y250668D01*
X448596Y245334D02*
X448684Y245297D01*
X448770Y245256D01*
X448855Y245212D01*
X448937Y245164D01*
X449018Y245112D01*
X449096Y245058D01*
X449172Y245000D01*
X449246Y244939D01*
X449317Y244875D01*
X449385Y244809D01*
X449450Y244739D01*
X449513Y244667D01*
X449572Y244592D01*
X449629Y244515D01*
X449682Y244436D01*
X449732Y244354D01*
X449778Y244271D01*
X449821Y244186D01*
X449860Y244098D01*
X449896Y244010D01*
X449928Y243920D01*
X449956Y243829D01*
X449980Y243736D01*
X450001Y243643D01*
X450017Y243549D01*
X450030Y243455D01*
X450039Y243359D01*
X450044Y243264D01*
X450045Y243169D01*
X450042Y243073D01*
X450035Y242978D01*
X450024Y242883D01*
X450009Y242789D01*
X449990Y242695D01*
X449968Y242602D01*
X449941Y242511D01*
X449911Y242420D01*
X449877Y242331D01*
X449840Y242243D01*
X449799Y242157D01*
X449754Y242073D01*
X449706Y241990D01*
X449654Y241910D01*
X449599Y241832D01*
X449541Y241756D01*
X449480Y241682D01*
X449416Y241612D01*
X449349Y241544D01*
X449279Y241478D01*
X449207Y241416D01*
X449132Y241357D01*
X449055Y241301D01*
X448975Y241248D01*
X448894Y241199D01*
X448810Y241152D01*
X448725Y241110D01*
X448637Y241071D01*
X448549Y241036D01*
X448459Y241004D01*
X448367Y240976D01*
X448275Y240952D01*
X448182Y240932D01*
X448088Y240915D01*
X447993Y240903D01*
X447898Y240894D01*
X447803Y240890D01*
X447707Y240889D01*
X447707Y240890D02*
X447350Y240899D01*
X446994Y240917D01*
X446638Y240943D01*
X446283Y240977D01*
X445929Y241020D01*
X445577Y241072D01*
X445225Y241131D01*
X444875Y241199D01*
X444527Y241275D01*
X444180Y241360D01*
X443836Y241452D01*
X443494Y241553D01*
X443154Y241662D01*
X442817Y241779D01*
X456517Y253335D02*
X460962Y256891D01*
X460962Y240889D01*
X456517Y240889D02*
X465407Y240889D01*
X568334Y22891D02*
X568334Y6889D01*
X563889Y22891D02*
X572779Y22891D01*
X578325Y14001D02*
X578325Y10445D01*
X578325Y14001D02*
X578327Y14119D01*
X578333Y14236D01*
X578342Y14353D01*
X578356Y14470D01*
X578373Y14586D01*
X578395Y14702D01*
X578420Y14817D01*
X578449Y14931D01*
X578481Y15044D01*
X578518Y15156D01*
X578558Y15266D01*
X578601Y15375D01*
X578649Y15483D01*
X578699Y15589D01*
X578754Y15693D01*
X578811Y15796D01*
X578872Y15896D01*
X578937Y15995D01*
X579004Y16091D01*
X579075Y16185D01*
X579149Y16277D01*
X579225Y16366D01*
X579305Y16452D01*
X579387Y16536D01*
X579473Y16617D01*
X579560Y16695D01*
X579651Y16771D01*
X579744Y16843D01*
X579839Y16912D01*
X579936Y16978D01*
X580036Y17041D01*
X580137Y17100D01*
X580240Y17156D01*
X580346Y17208D01*
X580453Y17257D01*
X580561Y17303D01*
X580671Y17345D01*
X580782Y17383D01*
X580895Y17417D01*
X581008Y17448D01*
X581123Y17475D01*
X581238Y17498D01*
X581354Y17518D01*
X581470Y17533D01*
X581587Y17545D01*
X581705Y17553D01*
X581822Y17557D01*
X581940Y17557D01*
X582057Y17553D01*
X582175Y17545D01*
X582292Y17533D01*
X582408Y17518D01*
X582524Y17498D01*
X582639Y17475D01*
X582754Y17448D01*
X582867Y17417D01*
X582980Y17383D01*
X583091Y17345D01*
X583201Y17303D01*
X583309Y17257D01*
X583416Y17208D01*
X583522Y17156D01*
X583625Y17100D01*
X583726Y17041D01*
X583826Y16978D01*
X583923Y16912D01*
X584018Y16843D01*
X584111Y16771D01*
X584202Y16695D01*
X584289Y16617D01*
X584375Y16536D01*
X584457Y16452D01*
X584537Y16366D01*
X584613Y16277D01*
X584687Y16185D01*
X584758Y16091D01*
X584825Y15995D01*
X584890Y15896D01*
X584951Y15796D01*
X585008Y15693D01*
X585063Y15589D01*
X585113Y15483D01*
X585161Y15375D01*
X585204Y15266D01*
X585244Y15156D01*
X585281Y15044D01*
X585313Y14931D01*
X585342Y14817D01*
X585367Y14702D01*
X585389Y14586D01*
X585406Y14470D01*
X585420Y14353D01*
X585429Y14236D01*
X585435Y14119D01*
X585437Y14001D01*
X585437Y10445D01*
X585435Y10327D01*
X585429Y10210D01*
X585420Y10093D01*
X585406Y9976D01*
X585389Y9860D01*
X585367Y9744D01*
X585342Y9629D01*
X585313Y9515D01*
X585281Y9402D01*
X585244Y9290D01*
X585204Y9180D01*
X585161Y9071D01*
X585113Y8963D01*
X585063Y8857D01*
X585008Y8753D01*
X584951Y8650D01*
X584890Y8550D01*
X584825Y8451D01*
X584758Y8355D01*
X584687Y8261D01*
X584613Y8169D01*
X584537Y8080D01*
X584457Y7994D01*
X584375Y7910D01*
X584289Y7829D01*
X584202Y7751D01*
X584111Y7675D01*
X584018Y7603D01*
X583923Y7534D01*
X583826Y7468D01*
X583726Y7405D01*
X583625Y7346D01*
X583522Y7290D01*
X583416Y7238D01*
X583309Y7189D01*
X583201Y7143D01*
X583091Y7101D01*
X582980Y7063D01*
X582867Y7029D01*
X582754Y6998D01*
X582639Y6971D01*
X582524Y6948D01*
X582408Y6928D01*
X582292Y6913D01*
X582175Y6901D01*
X582057Y6893D01*
X581940Y6889D01*
X581822Y6889D01*
X581705Y6893D01*
X581587Y6901D01*
X581470Y6913D01*
X581354Y6928D01*
X581238Y6948D01*
X581123Y6971D01*
X581008Y6998D01*
X580895Y7029D01*
X580782Y7063D01*
X580671Y7101D01*
X580561Y7143D01*
X580453Y7189D01*
X580346Y7238D01*
X580240Y7290D01*
X580137Y7346D01*
X580036Y7405D01*
X579936Y7468D01*
X579839Y7534D01*
X579744Y7603D01*
X579651Y7675D01*
X579560Y7751D01*
X579473Y7829D01*
X579387Y7910D01*
X579305Y7994D01*
X579225Y8080D01*
X579149Y8169D01*
X579075Y8261D01*
X579004Y8355D01*
X578937Y8451D01*
X578872Y8550D01*
X578811Y8650D01*
X578754Y8753D01*
X578699Y8857D01*
X578649Y8963D01*
X578601Y9071D01*
X578558Y9180D01*
X578518Y9290D01*
X578481Y9402D01*
X578449Y9515D01*
X578420Y9629D01*
X578395Y9744D01*
X578373Y9860D01*
X578356Y9976D01*
X578342Y10093D01*
X578333Y10210D01*
X578327Y10327D01*
X578325Y10445D01*
X600883Y6889D02*
X600883Y22891D01*
X605328Y22891D01*
X605460Y22889D01*
X605591Y22883D01*
X605723Y22873D01*
X605854Y22860D01*
X605984Y22842D01*
X606114Y22821D01*
X606244Y22796D01*
X606372Y22767D01*
X606500Y22734D01*
X606626Y22697D01*
X606752Y22657D01*
X606876Y22613D01*
X606999Y22565D01*
X607120Y22514D01*
X607240Y22459D01*
X607358Y22401D01*
X607474Y22339D01*
X607588Y22273D01*
X607701Y22205D01*
X607811Y22133D01*
X607919Y22058D01*
X608025Y21979D01*
X608129Y21898D01*
X608230Y21813D01*
X608328Y21726D01*
X608424Y21635D01*
X608517Y21542D01*
X608608Y21446D01*
X608695Y21348D01*
X608780Y21247D01*
X608861Y21143D01*
X608940Y21037D01*
X609015Y20929D01*
X609087Y20819D01*
X609155Y20706D01*
X609221Y20592D01*
X609283Y20476D01*
X609341Y20358D01*
X609396Y20238D01*
X609447Y20117D01*
X609495Y19994D01*
X609539Y19870D01*
X609579Y19744D01*
X609616Y19618D01*
X609649Y19490D01*
X609678Y19362D01*
X609703Y19232D01*
X609724Y19102D01*
X609742Y18972D01*
X609755Y18841D01*
X609765Y18709D01*
X609771Y18578D01*
X609773Y18446D01*
X609773Y11334D01*
X609771Y11202D01*
X609765Y11071D01*
X609755Y10939D01*
X609742Y10808D01*
X609724Y10678D01*
X609703Y10548D01*
X609678Y10418D01*
X609649Y10290D01*
X609616Y10162D01*
X609579Y10036D01*
X609539Y9910D01*
X609495Y9786D01*
X609447Y9663D01*
X609396Y9542D01*
X609341Y9422D01*
X609283Y9304D01*
X609221Y9188D01*
X609155Y9074D01*
X609087Y8961D01*
X609015Y8851D01*
X608940Y8743D01*
X608861Y8637D01*
X608780Y8533D01*
X608695Y8432D01*
X608608Y8334D01*
X608517Y8238D01*
X608424Y8145D01*
X608328Y8054D01*
X608230Y7967D01*
X608129Y7882D01*
X608025Y7801D01*
X607919Y7722D01*
X607811Y7647D01*
X607701Y7575D01*
X607588Y7507D01*
X607474Y7441D01*
X607358Y7379D01*
X607240Y7321D01*
X607120Y7266D01*
X606999Y7215D01*
X606876Y7167D01*
X606752Y7123D01*
X606626Y7083D01*
X606500Y7046D01*
X606372Y7013D01*
X606244Y6984D01*
X606114Y6959D01*
X605984Y6938D01*
X605854Y6920D01*
X605723Y6907D01*
X605591Y6897D01*
X605460Y6891D01*
X605328Y6889D01*
X600883Y6889D01*
X616146Y6889D02*
X621480Y22891D01*
X626814Y6889D01*
X625481Y10890D02*
X617480Y10890D01*
X633588Y11334D02*
X633588Y18446D01*
X633590Y18578D01*
X633596Y18709D01*
X633606Y18841D01*
X633619Y18972D01*
X633637Y19102D01*
X633658Y19232D01*
X633683Y19362D01*
X633712Y19490D01*
X633745Y19618D01*
X633782Y19744D01*
X633822Y19870D01*
X633866Y19994D01*
X633914Y20117D01*
X633965Y20238D01*
X634020Y20358D01*
X634078Y20476D01*
X634140Y20592D01*
X634206Y20706D01*
X634274Y20819D01*
X634346Y20929D01*
X634421Y21037D01*
X634500Y21143D01*
X634581Y21247D01*
X634666Y21348D01*
X634753Y21446D01*
X634844Y21542D01*
X634937Y21635D01*
X635033Y21726D01*
X635131Y21813D01*
X635232Y21898D01*
X635336Y21979D01*
X635442Y22058D01*
X635550Y22133D01*
X635660Y22205D01*
X635773Y22273D01*
X635887Y22339D01*
X636003Y22401D01*
X636121Y22459D01*
X636241Y22514D01*
X636362Y22565D01*
X636485Y22613D01*
X636609Y22657D01*
X636735Y22697D01*
X636861Y22734D01*
X636989Y22767D01*
X637117Y22796D01*
X637247Y22821D01*
X637377Y22842D01*
X637507Y22860D01*
X637638Y22873D01*
X637770Y22883D01*
X637901Y22889D01*
X638033Y22891D01*
X638165Y22889D01*
X638296Y22883D01*
X638428Y22873D01*
X638559Y22860D01*
X638689Y22842D01*
X638819Y22821D01*
X638949Y22796D01*
X639077Y22767D01*
X639205Y22734D01*
X639331Y22697D01*
X639457Y22657D01*
X639581Y22613D01*
X639704Y22565D01*
X639825Y22514D01*
X639945Y22459D01*
X640063Y22401D01*
X640179Y22339D01*
X640293Y22273D01*
X640406Y22205D01*
X640516Y22133D01*
X640624Y22058D01*
X640730Y21979D01*
X640834Y21898D01*
X640935Y21813D01*
X641033Y21726D01*
X641129Y21635D01*
X641222Y21542D01*
X641313Y21446D01*
X641400Y21348D01*
X641485Y21247D01*
X641566Y21143D01*
X641645Y21037D01*
X641720Y20929D01*
X641792Y20819D01*
X641860Y20706D01*
X641926Y20592D01*
X641988Y20476D01*
X642046Y20358D01*
X642101Y20238D01*
X642152Y20117D01*
X642200Y19994D01*
X642244Y19870D01*
X642284Y19744D01*
X642321Y19618D01*
X642354Y19490D01*
X642383Y19362D01*
X642408Y19232D01*
X642429Y19102D01*
X642447Y18972D01*
X642460Y18841D01*
X642470Y18709D01*
X642476Y18578D01*
X642478Y18446D01*
X642478Y11334D01*
X642476Y11202D01*
X642470Y11071D01*
X642460Y10939D01*
X642447Y10808D01*
X642429Y10678D01*
X642408Y10548D01*
X642383Y10418D01*
X642354Y10290D01*
X642321Y10162D01*
X642284Y10036D01*
X642244Y9910D01*
X642200Y9786D01*
X642152Y9663D01*
X642101Y9542D01*
X642046Y9422D01*
X641988Y9304D01*
X641926Y9188D01*
X641860Y9074D01*
X641792Y8961D01*
X641720Y8851D01*
X641645Y8743D01*
X641566Y8637D01*
X641485Y8533D01*
X641400Y8432D01*
X641313Y8334D01*
X641222Y8238D01*
X641129Y8145D01*
X641033Y8054D01*
X640935Y7967D01*
X640834Y7882D01*
X640730Y7801D01*
X640624Y7722D01*
X640516Y7647D01*
X640406Y7575D01*
X640293Y7507D01*
X640179Y7441D01*
X640063Y7379D01*
X639945Y7321D01*
X639825Y7266D01*
X639704Y7215D01*
X639581Y7167D01*
X639457Y7123D01*
X639331Y7083D01*
X639205Y7046D01*
X639077Y7013D01*
X638949Y6984D01*
X638819Y6959D01*
X638689Y6938D01*
X638559Y6920D01*
X638428Y6907D01*
X638296Y6897D01*
X638165Y6891D01*
X638033Y6889D01*
X637901Y6891D01*
X637770Y6897D01*
X637638Y6907D01*
X637507Y6920D01*
X637377Y6938D01*
X637247Y6959D01*
X637117Y6984D01*
X636989Y7013D01*
X636861Y7046D01*
X636735Y7083D01*
X636609Y7123D01*
X636485Y7167D01*
X636362Y7215D01*
X636241Y7266D01*
X636121Y7321D01*
X636003Y7379D01*
X635887Y7441D01*
X635773Y7507D01*
X635660Y7575D01*
X635550Y7647D01*
X635442Y7722D01*
X635336Y7801D01*
X635232Y7882D01*
X635131Y7967D01*
X635033Y8054D01*
X634937Y8145D01*
X634844Y8238D01*
X634753Y8334D01*
X634666Y8432D01*
X634581Y8533D01*
X634500Y8637D01*
X634421Y8743D01*
X634346Y8851D01*
X634274Y8961D01*
X634206Y9074D01*
X634140Y9188D01*
X634078Y9304D01*
X634020Y9422D01*
X633965Y9542D01*
X633914Y9663D01*
X633866Y9786D01*
X633822Y9910D01*
X633782Y10036D01*
X633745Y10162D01*
X633712Y10290D01*
X633683Y10418D01*
X633658Y10548D01*
X633637Y10678D01*
X633619Y10808D01*
X633606Y10939D01*
X633596Y11071D01*
X633590Y11202D01*
X633588Y11334D01*
X640700Y10445D02*
X644256Y6889D01*
X657909Y15779D02*
X662354Y15779D01*
X662486Y15777D01*
X662617Y15771D01*
X662749Y15761D01*
X662880Y15748D01*
X663010Y15730D01*
X663140Y15709D01*
X663270Y15684D01*
X663398Y15655D01*
X663526Y15622D01*
X663652Y15585D01*
X663778Y15545D01*
X663902Y15501D01*
X664025Y15453D01*
X664146Y15402D01*
X664266Y15347D01*
X664384Y15289D01*
X664500Y15227D01*
X664614Y15161D01*
X664727Y15093D01*
X664837Y15021D01*
X664945Y14946D01*
X665051Y14867D01*
X665155Y14786D01*
X665256Y14701D01*
X665354Y14614D01*
X665450Y14523D01*
X665543Y14430D01*
X665634Y14334D01*
X665721Y14236D01*
X665806Y14135D01*
X665887Y14031D01*
X665966Y13925D01*
X666041Y13817D01*
X666113Y13707D01*
X666181Y13594D01*
X666247Y13480D01*
X666309Y13364D01*
X666367Y13246D01*
X666422Y13126D01*
X666473Y13005D01*
X666521Y12882D01*
X666565Y12758D01*
X666605Y12632D01*
X666642Y12506D01*
X666675Y12378D01*
X666704Y12250D01*
X666729Y12120D01*
X666750Y11990D01*
X666768Y11860D01*
X666781Y11729D01*
X666791Y11597D01*
X666797Y11466D01*
X666799Y11334D01*
X666797Y11202D01*
X666791Y11071D01*
X666781Y10939D01*
X666768Y10808D01*
X666750Y10678D01*
X666729Y10548D01*
X666704Y10418D01*
X666675Y10290D01*
X666642Y10162D01*
X666605Y10036D01*
X666565Y9910D01*
X666521Y9786D01*
X666473Y9663D01*
X666422Y9542D01*
X666367Y9422D01*
X666309Y9304D01*
X666247Y9188D01*
X666181Y9074D01*
X666113Y8961D01*
X666041Y8851D01*
X665966Y8743D01*
X665887Y8637D01*
X665806Y8533D01*
X665721Y8432D01*
X665634Y8334D01*
X665543Y8238D01*
X665450Y8145D01*
X665354Y8054D01*
X665256Y7967D01*
X665155Y7882D01*
X665051Y7801D01*
X664945Y7722D01*
X664837Y7647D01*
X664727Y7575D01*
X664614Y7507D01*
X664500Y7441D01*
X664384Y7379D01*
X664266Y7321D01*
X664146Y7266D01*
X664025Y7215D01*
X663902Y7167D01*
X663778Y7123D01*
X663652Y7083D01*
X663526Y7046D01*
X663398Y7013D01*
X663270Y6984D01*
X663140Y6959D01*
X663010Y6938D01*
X662880Y6920D01*
X662749Y6907D01*
X662617Y6897D01*
X662486Y6891D01*
X662354Y6889D01*
X657909Y6889D01*
X657909Y22891D01*
X662354Y22891D01*
X662472Y22889D01*
X662589Y22883D01*
X662706Y22874D01*
X662823Y22860D01*
X662939Y22843D01*
X663055Y22821D01*
X663170Y22796D01*
X663284Y22767D01*
X663397Y22735D01*
X663509Y22698D01*
X663619Y22658D01*
X663728Y22615D01*
X663836Y22567D01*
X663942Y22517D01*
X664046Y22462D01*
X664149Y22405D01*
X664249Y22344D01*
X664348Y22279D01*
X664444Y22212D01*
X664538Y22141D01*
X664630Y22067D01*
X664719Y21991D01*
X664805Y21911D01*
X664889Y21829D01*
X664970Y21743D01*
X665048Y21656D01*
X665124Y21565D01*
X665196Y21472D01*
X665265Y21377D01*
X665331Y21280D01*
X665394Y21180D01*
X665453Y21079D01*
X665509Y20976D01*
X665561Y20870D01*
X665610Y20763D01*
X665656Y20655D01*
X665698Y20545D01*
X665736Y20434D01*
X665770Y20321D01*
X665801Y20208D01*
X665828Y20093D01*
X665851Y19978D01*
X665871Y19862D01*
X665886Y19746D01*
X665898Y19629D01*
X665906Y19511D01*
X665910Y19394D01*
X665910Y19276D01*
X665906Y19159D01*
X665898Y19041D01*
X665886Y18924D01*
X665871Y18808D01*
X665851Y18692D01*
X665828Y18577D01*
X665801Y18462D01*
X665770Y18349D01*
X665736Y18236D01*
X665698Y18125D01*
X665656Y18015D01*
X665610Y17907D01*
X665561Y17800D01*
X665509Y17694D01*
X665453Y17591D01*
X665394Y17490D01*
X665331Y17390D01*
X665265Y17293D01*
X665196Y17198D01*
X665124Y17105D01*
X665048Y17014D01*
X664970Y16927D01*
X664889Y16841D01*
X664805Y16759D01*
X664719Y16679D01*
X664630Y16603D01*
X664538Y16529D01*
X664444Y16458D01*
X664348Y16391D01*
X664249Y16326D01*
X664149Y16265D01*
X664046Y16208D01*
X663942Y16153D01*
X663836Y16103D01*
X663728Y16055D01*
X663619Y16012D01*
X663509Y15972D01*
X663397Y15935D01*
X663284Y15903D01*
X663170Y15874D01*
X663055Y15849D01*
X662939Y15827D01*
X662823Y15810D01*
X662706Y15796D01*
X662589Y15787D01*
X662472Y15781D01*
X662354Y15779D01*
X672633Y14001D02*
X672633Y10445D01*
X672633Y14001D02*
X672635Y14119D01*
X672641Y14236D01*
X672650Y14353D01*
X672664Y14470D01*
X672681Y14586D01*
X672703Y14702D01*
X672728Y14817D01*
X672757Y14931D01*
X672789Y15044D01*
X672826Y15156D01*
X672866Y15266D01*
X672909Y15375D01*
X672957Y15483D01*
X673007Y15589D01*
X673062Y15693D01*
X673119Y15796D01*
X673180Y15896D01*
X673245Y15995D01*
X673312Y16091D01*
X673383Y16185D01*
X673457Y16277D01*
X673533Y16366D01*
X673613Y16452D01*
X673695Y16536D01*
X673781Y16617D01*
X673868Y16695D01*
X673959Y16771D01*
X674052Y16843D01*
X674147Y16912D01*
X674244Y16978D01*
X674344Y17041D01*
X674445Y17100D01*
X674548Y17156D01*
X674654Y17208D01*
X674761Y17257D01*
X674869Y17303D01*
X674979Y17345D01*
X675090Y17383D01*
X675203Y17417D01*
X675316Y17448D01*
X675431Y17475D01*
X675546Y17498D01*
X675662Y17518D01*
X675778Y17533D01*
X675895Y17545D01*
X676013Y17553D01*
X676130Y17557D01*
X676248Y17557D01*
X676365Y17553D01*
X676483Y17545D01*
X676600Y17533D01*
X676716Y17518D01*
X676832Y17498D01*
X676947Y17475D01*
X677062Y17448D01*
X677175Y17417D01*
X677288Y17383D01*
X677399Y17345D01*
X677509Y17303D01*
X677617Y17257D01*
X677724Y17208D01*
X677830Y17156D01*
X677933Y17100D01*
X678034Y17041D01*
X678134Y16978D01*
X678231Y16912D01*
X678326Y16843D01*
X678419Y16771D01*
X678510Y16695D01*
X678597Y16617D01*
X678683Y16536D01*
X678765Y16452D01*
X678845Y16366D01*
X678921Y16277D01*
X678995Y16185D01*
X679066Y16091D01*
X679133Y15995D01*
X679198Y15896D01*
X679259Y15796D01*
X679316Y15693D01*
X679371Y15589D01*
X679421Y15483D01*
X679469Y15375D01*
X679512Y15266D01*
X679552Y15156D01*
X679589Y15044D01*
X679621Y14931D01*
X679650Y14817D01*
X679675Y14702D01*
X679697Y14586D01*
X679714Y14470D01*
X679728Y14353D01*
X679737Y14236D01*
X679743Y14119D01*
X679745Y14001D01*
X679745Y10445D01*
X679743Y10327D01*
X679737Y10210D01*
X679728Y10093D01*
X679714Y9976D01*
X679697Y9860D01*
X679675Y9744D01*
X679650Y9629D01*
X679621Y9515D01*
X679589Y9402D01*
X679552Y9290D01*
X679512Y9180D01*
X679469Y9071D01*
X679421Y8963D01*
X679371Y8857D01*
X679316Y8753D01*
X679259Y8650D01*
X679198Y8550D01*
X679133Y8451D01*
X679066Y8355D01*
X678995Y8261D01*
X678921Y8169D01*
X678845Y8080D01*
X678765Y7994D01*
X678683Y7910D01*
X678597Y7829D01*
X678510Y7751D01*
X678419Y7675D01*
X678326Y7603D01*
X678231Y7534D01*
X678134Y7468D01*
X678034Y7405D01*
X677933Y7346D01*
X677830Y7290D01*
X677724Y7238D01*
X677617Y7189D01*
X677509Y7143D01*
X677399Y7101D01*
X677288Y7063D01*
X677175Y7029D01*
X677062Y6998D01*
X676947Y6971D01*
X676832Y6948D01*
X676716Y6928D01*
X676600Y6913D01*
X676483Y6901D01*
X676365Y6893D01*
X676248Y6889D01*
X676130Y6889D01*
X676013Y6893D01*
X675895Y6901D01*
X675778Y6913D01*
X675662Y6928D01*
X675546Y6948D01*
X675431Y6971D01*
X675316Y6998D01*
X675203Y7029D01*
X675090Y7063D01*
X674979Y7101D01*
X674869Y7143D01*
X674761Y7189D01*
X674654Y7238D01*
X674548Y7290D01*
X674445Y7346D01*
X674344Y7405D01*
X674244Y7468D01*
X674147Y7534D01*
X674052Y7603D01*
X673959Y7675D01*
X673868Y7751D01*
X673781Y7829D01*
X673695Y7910D01*
X673613Y7994D01*
X673533Y8080D01*
X673457Y8169D01*
X673383Y8261D01*
X673312Y8355D01*
X673245Y8451D01*
X673180Y8550D01*
X673119Y8650D01*
X673062Y8753D01*
X673007Y8857D01*
X672957Y8963D01*
X672909Y9071D01*
X672866Y9180D01*
X672826Y9290D01*
X672789Y9402D01*
X672757Y9515D01*
X672728Y9629D01*
X672703Y9744D01*
X672681Y9860D01*
X672664Y9976D01*
X672650Y10093D01*
X672641Y10210D01*
X672635Y10327D01*
X672633Y10445D01*
X689211Y13112D02*
X693212Y13112D01*
X689211Y13113D02*
X689100Y13111D01*
X688989Y13105D01*
X688878Y13095D01*
X688768Y13081D01*
X688658Y13064D01*
X688549Y13042D01*
X688441Y13016D01*
X688334Y12987D01*
X688228Y12954D01*
X688123Y12917D01*
X688020Y12876D01*
X687918Y12832D01*
X687818Y12784D01*
X687720Y12732D01*
X687623Y12677D01*
X687529Y12619D01*
X687436Y12557D01*
X687346Y12492D01*
X687258Y12424D01*
X687173Y12353D01*
X687090Y12279D01*
X687010Y12202D01*
X686933Y12122D01*
X686859Y12039D01*
X686788Y11954D01*
X686720Y11866D01*
X686655Y11776D01*
X686593Y11683D01*
X686535Y11589D01*
X686480Y11492D01*
X686428Y11394D01*
X686380Y11294D01*
X686336Y11192D01*
X686295Y11089D01*
X686258Y10984D01*
X686225Y10878D01*
X686196Y10771D01*
X686170Y10663D01*
X686148Y10554D01*
X686131Y10444D01*
X686117Y10334D01*
X686107Y10223D01*
X686101Y10112D01*
X686099Y10001D01*
X686101Y9890D01*
X686107Y9779D01*
X686117Y9668D01*
X686131Y9558D01*
X686148Y9448D01*
X686170Y9339D01*
X686196Y9231D01*
X686225Y9124D01*
X686258Y9018D01*
X686295Y8913D01*
X686336Y8810D01*
X686380Y8708D01*
X686428Y8608D01*
X686480Y8510D01*
X686535Y8413D01*
X686593Y8319D01*
X686655Y8226D01*
X686720Y8136D01*
X686788Y8048D01*
X686859Y7963D01*
X686933Y7880D01*
X687010Y7800D01*
X687090Y7723D01*
X687173Y7649D01*
X687258Y7578D01*
X687346Y7510D01*
X687436Y7445D01*
X687529Y7383D01*
X687623Y7325D01*
X687720Y7270D01*
X687818Y7218D01*
X687918Y7170D01*
X688020Y7126D01*
X688123Y7085D01*
X688228Y7048D01*
X688334Y7015D01*
X688441Y6986D01*
X688549Y6960D01*
X688658Y6938D01*
X688768Y6921D01*
X688878Y6907D01*
X688989Y6897D01*
X689100Y6891D01*
X689211Y6889D01*
X693212Y6889D01*
X693212Y14890D01*
X693210Y14992D01*
X693204Y15094D01*
X693194Y15196D01*
X693181Y15297D01*
X693163Y15398D01*
X693142Y15498D01*
X693117Y15597D01*
X693088Y15695D01*
X693055Y15791D01*
X693019Y15887D01*
X692979Y15981D01*
X692935Y16073D01*
X692888Y16164D01*
X692837Y16253D01*
X692784Y16340D01*
X692726Y16424D01*
X692666Y16507D01*
X692603Y16587D01*
X692536Y16664D01*
X692467Y16739D01*
X692394Y16812D01*
X692319Y16881D01*
X692242Y16948D01*
X692162Y17011D01*
X692079Y17071D01*
X691995Y17129D01*
X691908Y17182D01*
X691819Y17233D01*
X691728Y17280D01*
X691636Y17324D01*
X691542Y17364D01*
X691446Y17400D01*
X691350Y17433D01*
X691252Y17462D01*
X691153Y17487D01*
X691053Y17508D01*
X690952Y17526D01*
X690851Y17539D01*
X690749Y17549D01*
X690647Y17555D01*
X690545Y17557D01*
X686989Y17557D01*
X700863Y17557D02*
X700863Y6889D01*
X700863Y17557D02*
X706197Y17557D01*
X706197Y15779D01*
X718222Y22891D02*
X718222Y6889D01*
X713777Y6889D01*
X713675Y6891D01*
X713573Y6897D01*
X713471Y6907D01*
X713370Y6920D01*
X713269Y6938D01*
X713169Y6959D01*
X713070Y6984D01*
X712972Y7013D01*
X712876Y7046D01*
X712780Y7082D01*
X712686Y7122D01*
X712594Y7166D01*
X712503Y7213D01*
X712414Y7264D01*
X712327Y7317D01*
X712243Y7375D01*
X712160Y7435D01*
X712080Y7498D01*
X712003Y7565D01*
X711928Y7634D01*
X711855Y7707D01*
X711786Y7782D01*
X711719Y7859D01*
X711656Y7939D01*
X711596Y8022D01*
X711538Y8106D01*
X711485Y8193D01*
X711434Y8282D01*
X711387Y8373D01*
X711343Y8465D01*
X711303Y8559D01*
X711267Y8655D01*
X711234Y8751D01*
X711205Y8849D01*
X711180Y8948D01*
X711159Y9048D01*
X711141Y9149D01*
X711128Y9250D01*
X711118Y9352D01*
X711112Y9454D01*
X711110Y9556D01*
X711110Y14890D01*
X711112Y14992D01*
X711118Y15094D01*
X711128Y15196D01*
X711141Y15297D01*
X711159Y15398D01*
X711180Y15498D01*
X711205Y15597D01*
X711234Y15695D01*
X711267Y15791D01*
X711303Y15887D01*
X711343Y15981D01*
X711387Y16073D01*
X711434Y16164D01*
X711485Y16253D01*
X711538Y16340D01*
X711596Y16424D01*
X711656Y16507D01*
X711719Y16587D01*
X711786Y16664D01*
X711855Y16739D01*
X711928Y16812D01*
X712003Y16881D01*
X712080Y16948D01*
X712160Y17011D01*
X712243Y17071D01*
X712327Y17129D01*
X712414Y17182D01*
X712503Y17233D01*
X712594Y17280D01*
X712686Y17324D01*
X712780Y17364D01*
X712876Y17400D01*
X712972Y17433D01*
X713070Y17462D01*
X713169Y17487D01*
X713269Y17508D01*
X713370Y17526D01*
X713471Y17539D01*
X713573Y17549D01*
X713675Y17555D01*
X713777Y17557D01*
X718222Y17557D01*
X726592Y13112D02*
X731037Y11334D01*
X726592Y13112D02*
X726504Y13149D01*
X726418Y13190D01*
X726333Y13234D01*
X726251Y13282D01*
X726170Y13334D01*
X726092Y13388D01*
X726016Y13446D01*
X725942Y13507D01*
X725871Y13571D01*
X725803Y13637D01*
X725738Y13707D01*
X725675Y13779D01*
X725616Y13854D01*
X725559Y13931D01*
X725506Y14010D01*
X725456Y14092D01*
X725410Y14175D01*
X725367Y14260D01*
X725328Y14348D01*
X725292Y14436D01*
X725260Y14526D01*
X725232Y14617D01*
X725208Y14710D01*
X725187Y14803D01*
X725171Y14897D01*
X725158Y14991D01*
X725149Y15087D01*
X725144Y15182D01*
X725143Y15277D01*
X725146Y15373D01*
X725153Y15468D01*
X725164Y15563D01*
X725179Y15657D01*
X725198Y15751D01*
X725220Y15844D01*
X725247Y15935D01*
X725277Y16026D01*
X725311Y16115D01*
X725348Y16203D01*
X725389Y16289D01*
X725434Y16373D01*
X725482Y16456D01*
X725534Y16536D01*
X725589Y16614D01*
X725647Y16690D01*
X725708Y16764D01*
X725772Y16834D01*
X725839Y16902D01*
X725909Y16968D01*
X725981Y17030D01*
X726056Y17089D01*
X726133Y17145D01*
X726213Y17198D01*
X726294Y17247D01*
X726378Y17294D01*
X726463Y17336D01*
X726551Y17375D01*
X726639Y17410D01*
X726729Y17442D01*
X726821Y17470D01*
X726913Y17494D01*
X727006Y17514D01*
X727100Y17531D01*
X727195Y17543D01*
X727290Y17552D01*
X727385Y17556D01*
X727481Y17557D01*
X727724Y17551D01*
X727966Y17538D01*
X728208Y17520D01*
X728450Y17496D01*
X728691Y17467D01*
X728931Y17431D01*
X729170Y17390D01*
X729408Y17343D01*
X729645Y17291D01*
X729881Y17232D01*
X730115Y17168D01*
X730348Y17099D01*
X730579Y17023D01*
X730808Y16943D01*
X731034Y16857D01*
X731259Y16765D01*
X731482Y16668D01*
X731037Y11334D02*
X731125Y11297D01*
X731211Y11256D01*
X731296Y11212D01*
X731378Y11164D01*
X731459Y11112D01*
X731537Y11058D01*
X731613Y11000D01*
X731687Y10939D01*
X731758Y10875D01*
X731826Y10809D01*
X731891Y10739D01*
X731954Y10667D01*
X732013Y10592D01*
X732070Y10515D01*
X732123Y10436D01*
X732173Y10354D01*
X732219Y10271D01*
X732262Y10186D01*
X732301Y10098D01*
X732337Y10010D01*
X732369Y9920D01*
X732397Y9829D01*
X732421Y9736D01*
X732442Y9643D01*
X732458Y9549D01*
X732471Y9455D01*
X732480Y9359D01*
X732485Y9264D01*
X732486Y9169D01*
X732483Y9073D01*
X732476Y8978D01*
X732465Y8883D01*
X732450Y8789D01*
X732431Y8695D01*
X732409Y8602D01*
X732382Y8511D01*
X732352Y8420D01*
X732318Y8331D01*
X732281Y8243D01*
X732240Y8157D01*
X732195Y8073D01*
X732147Y7990D01*
X732095Y7910D01*
X732040Y7832D01*
X731982Y7756D01*
X731921Y7682D01*
X731857Y7612D01*
X731790Y7544D01*
X731720Y7478D01*
X731648Y7416D01*
X731573Y7357D01*
X731496Y7301D01*
X731416Y7248D01*
X731335Y7199D01*
X731251Y7152D01*
X731166Y7110D01*
X731078Y7071D01*
X730990Y7036D01*
X730900Y7004D01*
X730808Y6976D01*
X730716Y6952D01*
X730623Y6932D01*
X730529Y6915D01*
X730434Y6903D01*
X730339Y6894D01*
X730244Y6890D01*
X730148Y6889D01*
X730149Y6890D02*
X729792Y6899D01*
X729436Y6917D01*
X729080Y6943D01*
X728725Y6977D01*
X728371Y7020D01*
X728019Y7072D01*
X727667Y7131D01*
X727317Y7199D01*
X726969Y7275D01*
X726622Y7360D01*
X726278Y7452D01*
X725936Y7553D01*
X725596Y7662D01*
X725259Y7779D01*
D10*
X894130Y310000D02*
X909370Y316350D01*
X909370Y303650D01*
X894130Y310000D01*
X568502Y284600D02*
X568502Y339464D01*
X568502Y284600D02*
X891590Y284600D01*
X891590Y339464D01*
X568502Y339464D01*
D11*
X876164Y345969D02*
X876164Y357625D01*
X876164Y345969D02*
X876162Y345855D01*
X876156Y345742D01*
X876147Y345628D01*
X876133Y345516D01*
X876116Y345403D01*
X876094Y345291D01*
X876069Y345181D01*
X876041Y345071D01*
X876008Y344962D01*
X875972Y344854D01*
X875932Y344747D01*
X875888Y344642D01*
X875841Y344539D01*
X875791Y344437D01*
X875737Y344337D01*
X875679Y344239D01*
X875618Y344143D01*
X875555Y344049D01*
X875487Y343957D01*
X875417Y343867D01*
X875344Y343781D01*
X875268Y343696D01*
X875189Y343614D01*
X875107Y343535D01*
X875023Y343459D01*
X874936Y343386D01*
X874846Y343316D01*
X874754Y343249D01*
X874660Y343185D01*
X874564Y343124D01*
X874466Y343066D01*
X874366Y343012D01*
X874264Y342962D01*
X874161Y342915D01*
X874056Y342871D01*
X873949Y342831D01*
X873841Y342795D01*
X873732Y342762D01*
X873622Y342734D01*
X873512Y342709D01*
X873400Y342687D01*
X873287Y342670D01*
X873175Y342656D01*
X873061Y342647D01*
X872948Y342641D01*
X872834Y342639D01*
X871169Y342639D01*
X883137Y354295D02*
X887300Y357625D01*
X887300Y342639D01*
X883137Y342639D02*
X891463Y342639D01*
D10*
X857564Y50000D02*
X872804Y43650D01*
X872804Y56350D01*
X857564Y50000D01*
X855024Y26378D02*
X855024Y141440D01*
X421192Y141440D01*
X421192Y26378D01*
X855024Y26378D01*
D11*
X382910Y33569D02*
X382910Y45225D01*
X382910Y33569D02*
X382908Y33455D01*
X382902Y33342D01*
X382893Y33228D01*
X382879Y33116D01*
X382862Y33003D01*
X382840Y32891D01*
X382815Y32781D01*
X382787Y32671D01*
X382754Y32562D01*
X382718Y32454D01*
X382678Y32347D01*
X382634Y32242D01*
X382587Y32139D01*
X382537Y32037D01*
X382483Y31937D01*
X382425Y31839D01*
X382364Y31743D01*
X382301Y31649D01*
X382233Y31557D01*
X382163Y31467D01*
X382090Y31381D01*
X382014Y31296D01*
X381935Y31214D01*
X381853Y31135D01*
X381769Y31059D01*
X381682Y30986D01*
X381592Y30916D01*
X381500Y30849D01*
X381406Y30785D01*
X381310Y30724D01*
X381212Y30666D01*
X381112Y30612D01*
X381010Y30562D01*
X380907Y30515D01*
X380802Y30471D01*
X380695Y30431D01*
X380587Y30395D01*
X380478Y30362D01*
X380368Y30334D01*
X380258Y30309D01*
X380146Y30287D01*
X380033Y30270D01*
X379921Y30256D01*
X379807Y30247D01*
X379694Y30241D01*
X379580Y30239D01*
X377915Y30239D01*
X389883Y41895D02*
X394046Y45225D01*
X394046Y30239D01*
X389883Y30239D02*
X398209Y30239D01*
X404749Y43560D02*
X404749Y45225D01*
X413074Y45225D01*
X408912Y30239D01*
D10*
X894130Y200000D02*
X909370Y206350D01*
X909370Y193650D01*
X894130Y200000D01*
X568502Y174600D02*
X568502Y229464D01*
X568502Y174600D02*
X891590Y174600D01*
X891590Y229464D01*
X568502Y229464D01*
D11*
X876164Y235969D02*
X876164Y247625D01*
X876164Y235969D02*
X876162Y235855D01*
X876156Y235742D01*
X876147Y235628D01*
X876133Y235516D01*
X876116Y235403D01*
X876094Y235291D01*
X876069Y235181D01*
X876041Y235071D01*
X876008Y234962D01*
X875972Y234854D01*
X875932Y234747D01*
X875888Y234642D01*
X875841Y234539D01*
X875791Y234437D01*
X875737Y234337D01*
X875679Y234239D01*
X875618Y234143D01*
X875555Y234049D01*
X875487Y233957D01*
X875417Y233867D01*
X875344Y233781D01*
X875268Y233696D01*
X875189Y233614D01*
X875107Y233535D01*
X875023Y233459D01*
X874936Y233386D01*
X874846Y233316D01*
X874754Y233249D01*
X874660Y233185D01*
X874564Y233124D01*
X874466Y233066D01*
X874366Y233012D01*
X874264Y232962D01*
X874161Y232915D01*
X874056Y232871D01*
X873949Y232831D01*
X873841Y232795D01*
X873732Y232762D01*
X873622Y232734D01*
X873512Y232709D01*
X873400Y232687D01*
X873287Y232670D01*
X873175Y232656D01*
X873061Y232647D01*
X872948Y232641D01*
X872834Y232639D01*
X871169Y232639D01*
X887716Y247626D02*
X887836Y247624D01*
X887956Y247618D01*
X888076Y247609D01*
X888195Y247595D01*
X888314Y247578D01*
X888432Y247557D01*
X888550Y247532D01*
X888666Y247503D01*
X888782Y247471D01*
X888897Y247435D01*
X889010Y247395D01*
X889122Y247352D01*
X889233Y247305D01*
X889342Y247255D01*
X889449Y247201D01*
X889555Y247144D01*
X889658Y247083D01*
X889760Y247019D01*
X889860Y246952D01*
X889957Y246882D01*
X890052Y246809D01*
X890145Y246732D01*
X890235Y246653D01*
X890323Y246571D01*
X890408Y246486D01*
X890490Y246398D01*
X890569Y246308D01*
X890646Y246215D01*
X890719Y246120D01*
X890789Y246023D01*
X890856Y245923D01*
X890920Y245821D01*
X890981Y245718D01*
X891038Y245612D01*
X891092Y245505D01*
X891142Y245396D01*
X891189Y245285D01*
X891232Y245173D01*
X891272Y245060D01*
X891308Y244945D01*
X891340Y244829D01*
X891369Y244713D01*
X891394Y244595D01*
X891415Y244477D01*
X891432Y244358D01*
X891446Y244239D01*
X891455Y244119D01*
X891461Y243999D01*
X891463Y243879D01*
X887716Y247625D02*
X887578Y247623D01*
X887441Y247617D01*
X887304Y247607D01*
X887167Y247594D01*
X887031Y247576D01*
X886895Y247554D01*
X886759Y247529D01*
X886625Y247500D01*
X886492Y247467D01*
X886359Y247430D01*
X886228Y247389D01*
X886097Y247345D01*
X885969Y247297D01*
X885841Y247245D01*
X885715Y247189D01*
X885591Y247130D01*
X885468Y247068D01*
X885348Y247002D01*
X885229Y246933D01*
X885112Y246860D01*
X884998Y246784D01*
X884885Y246704D01*
X884775Y246622D01*
X884667Y246536D01*
X884562Y246448D01*
X884460Y246356D01*
X884360Y246262D01*
X884262Y246164D01*
X884168Y246064D01*
X884077Y245961D01*
X883988Y245856D01*
X883903Y245748D01*
X883820Y245638D01*
X883741Y245526D01*
X883665Y245411D01*
X883592Y245294D01*
X883523Y245175D01*
X883457Y245055D01*
X883395Y244932D01*
X883336Y244808D01*
X883281Y244682D01*
X883229Y244554D01*
X883181Y244425D01*
X883137Y244295D01*
X890213Y240965D02*
X890303Y241053D01*
X890389Y241144D01*
X890473Y241237D01*
X890554Y241333D01*
X890632Y241431D01*
X890706Y241531D01*
X890778Y241634D01*
X890846Y241739D01*
X890911Y241847D01*
X890973Y241956D01*
X891031Y242067D01*
X891086Y242180D01*
X891137Y242294D01*
X891184Y242410D01*
X891228Y242527D01*
X891268Y242646D01*
X891305Y242766D01*
X891338Y242887D01*
X891367Y243009D01*
X891392Y243131D01*
X891413Y243255D01*
X891431Y243379D01*
X891444Y243504D01*
X891454Y243629D01*
X891460Y243754D01*
X891462Y243879D01*
X890214Y240965D02*
X883137Y232639D01*
X891463Y232639D01*
D10*
X549370Y316350D02*
X534130Y310000D01*
X549370Y316350D02*
X549370Y303650D01*
X534130Y310000D01*
X388588Y284600D02*
X388588Y339464D01*
X388588Y284600D02*
X531590Y284600D01*
X531590Y339464D01*
X388588Y339464D01*
D11*
X514980Y345969D02*
X514980Y357625D01*
X514980Y345969D02*
X514978Y345855D01*
X514972Y345742D01*
X514963Y345628D01*
X514949Y345516D01*
X514932Y345403D01*
X514910Y345291D01*
X514885Y345181D01*
X514857Y345071D01*
X514824Y344962D01*
X514788Y344854D01*
X514748Y344747D01*
X514704Y344642D01*
X514657Y344539D01*
X514607Y344437D01*
X514553Y344337D01*
X514495Y344239D01*
X514434Y344143D01*
X514371Y344049D01*
X514303Y343957D01*
X514233Y343867D01*
X514160Y343781D01*
X514084Y343696D01*
X514005Y343614D01*
X513923Y343535D01*
X513839Y343459D01*
X513752Y343386D01*
X513662Y343316D01*
X513570Y343249D01*
X513476Y343185D01*
X513380Y343124D01*
X513282Y343066D01*
X513182Y343012D01*
X513080Y342962D01*
X512977Y342915D01*
X512872Y342871D01*
X512765Y342831D01*
X512657Y342795D01*
X512548Y342762D01*
X512438Y342734D01*
X512328Y342709D01*
X512216Y342687D01*
X512103Y342670D01*
X511991Y342656D01*
X511877Y342647D01*
X511764Y342641D01*
X511650Y342639D01*
X509985Y342639D01*
X521953Y342639D02*
X526116Y342639D01*
X526244Y342641D01*
X526372Y342647D01*
X526500Y342657D01*
X526628Y342671D01*
X526755Y342688D01*
X526881Y342710D01*
X527007Y342735D01*
X527131Y342765D01*
X527255Y342798D01*
X527378Y342835D01*
X527500Y342876D01*
X527620Y342920D01*
X527739Y342968D01*
X527856Y343020D01*
X527972Y343075D01*
X528085Y343134D01*
X528198Y343197D01*
X528308Y343263D01*
X528415Y343332D01*
X528521Y343404D01*
X528625Y343480D01*
X528726Y343559D01*
X528825Y343641D01*
X528921Y343726D01*
X529014Y343813D01*
X529105Y343904D01*
X529192Y343997D01*
X529277Y344093D01*
X529359Y344192D01*
X529438Y344293D01*
X529514Y344397D01*
X529586Y344503D01*
X529655Y344610D01*
X529721Y344721D01*
X529784Y344833D01*
X529843Y344946D01*
X529898Y345062D01*
X529950Y345179D01*
X529998Y345298D01*
X530042Y345418D01*
X530083Y345540D01*
X530120Y345663D01*
X530153Y345787D01*
X530183Y345911D01*
X530208Y346037D01*
X530230Y346163D01*
X530247Y346290D01*
X530261Y346418D01*
X530271Y346546D01*
X530277Y346674D01*
X530279Y346802D01*
X530277Y346930D01*
X530271Y347058D01*
X530261Y347186D01*
X530247Y347314D01*
X530230Y347441D01*
X530208Y347567D01*
X530183Y347693D01*
X530153Y347817D01*
X530120Y347941D01*
X530083Y348064D01*
X530042Y348186D01*
X529998Y348306D01*
X529950Y348425D01*
X529898Y348542D01*
X529843Y348658D01*
X529784Y348771D01*
X529721Y348884D01*
X529655Y348994D01*
X529586Y349101D01*
X529514Y349207D01*
X529438Y349311D01*
X529359Y349412D01*
X529277Y349511D01*
X529192Y349607D01*
X529105Y349700D01*
X529014Y349791D01*
X528921Y349878D01*
X528825Y349963D01*
X528726Y350045D01*
X528625Y350124D01*
X528521Y350200D01*
X528415Y350272D01*
X528308Y350341D01*
X528198Y350407D01*
X528085Y350470D01*
X527972Y350529D01*
X527856Y350584D01*
X527739Y350636D01*
X527620Y350684D01*
X527500Y350728D01*
X527378Y350769D01*
X527255Y350806D01*
X527131Y350839D01*
X527007Y350869D01*
X526881Y350894D01*
X526755Y350916D01*
X526628Y350933D01*
X526500Y350947D01*
X526372Y350957D01*
X526244Y350963D01*
X526116Y350965D01*
X526948Y357625D02*
X521953Y357625D01*
X526948Y357625D02*
X527062Y357623D01*
X527175Y357617D01*
X527289Y357608D01*
X527401Y357594D01*
X527514Y357577D01*
X527626Y357555D01*
X527736Y357530D01*
X527846Y357502D01*
X527955Y357469D01*
X528063Y357433D01*
X528170Y357393D01*
X528275Y357349D01*
X528378Y357302D01*
X528480Y357252D01*
X528580Y357198D01*
X528678Y357140D01*
X528774Y357079D01*
X528868Y357016D01*
X528960Y356948D01*
X529050Y356878D01*
X529136Y356805D01*
X529221Y356729D01*
X529303Y356650D01*
X529382Y356568D01*
X529458Y356483D01*
X529531Y356397D01*
X529601Y356307D01*
X529669Y356215D01*
X529732Y356121D01*
X529793Y356025D01*
X529851Y355927D01*
X529905Y355827D01*
X529955Y355725D01*
X530002Y355622D01*
X530046Y355517D01*
X530086Y355410D01*
X530122Y355302D01*
X530155Y355193D01*
X530183Y355083D01*
X530208Y354973D01*
X530230Y354861D01*
X530247Y354748D01*
X530261Y354636D01*
X530270Y354522D01*
X530276Y354409D01*
X530278Y354295D01*
X530276Y354181D01*
X530270Y354068D01*
X530261Y353954D01*
X530247Y353842D01*
X530230Y353729D01*
X530208Y353617D01*
X530183Y353507D01*
X530155Y353397D01*
X530122Y353288D01*
X530086Y353180D01*
X530046Y353073D01*
X530002Y352968D01*
X529955Y352865D01*
X529905Y352763D01*
X529851Y352663D01*
X529793Y352565D01*
X529732Y352469D01*
X529669Y352375D01*
X529601Y352283D01*
X529531Y352193D01*
X529458Y352107D01*
X529382Y352022D01*
X529303Y351940D01*
X529221Y351861D01*
X529136Y351785D01*
X529050Y351712D01*
X528960Y351642D01*
X528868Y351574D01*
X528774Y351511D01*
X528678Y351450D01*
X528580Y351392D01*
X528480Y351338D01*
X528378Y351288D01*
X528275Y351241D01*
X528170Y351197D01*
X528063Y351157D01*
X527955Y351121D01*
X527846Y351088D01*
X527736Y351060D01*
X527626Y351035D01*
X527514Y351013D01*
X527401Y350996D01*
X527289Y350982D01*
X527175Y350973D01*
X527062Y350967D01*
X526948Y350965D01*
X523618Y350965D01*
D10*
X549370Y206350D02*
X534130Y200000D01*
X549370Y206350D02*
X549370Y193650D01*
X534130Y200000D01*
X388588Y174600D02*
X388588Y229464D01*
X388588Y174600D02*
X531590Y174600D01*
X531590Y229464D01*
X388588Y229464D01*
D11*
X514980Y235969D02*
X514980Y247625D01*
X514980Y235969D02*
X514978Y235855D01*
X514972Y235742D01*
X514963Y235628D01*
X514949Y235516D01*
X514932Y235403D01*
X514910Y235291D01*
X514885Y235181D01*
X514857Y235071D01*
X514824Y234962D01*
X514788Y234854D01*
X514748Y234747D01*
X514704Y234642D01*
X514657Y234539D01*
X514607Y234437D01*
X514553Y234337D01*
X514495Y234239D01*
X514434Y234143D01*
X514371Y234049D01*
X514303Y233957D01*
X514233Y233867D01*
X514160Y233781D01*
X514084Y233696D01*
X514005Y233614D01*
X513923Y233535D01*
X513839Y233459D01*
X513752Y233386D01*
X513662Y233316D01*
X513570Y233249D01*
X513476Y233185D01*
X513380Y233124D01*
X513282Y233066D01*
X513182Y233012D01*
X513080Y232962D01*
X512977Y232915D01*
X512872Y232871D01*
X512765Y232831D01*
X512657Y232795D01*
X512548Y232762D01*
X512438Y232734D01*
X512328Y232709D01*
X512216Y232687D01*
X512103Y232670D01*
X511991Y232656D01*
X511877Y232647D01*
X511764Y232641D01*
X511650Y232639D01*
X509985Y232639D01*
X521953Y235969D02*
X525283Y247625D01*
X521953Y235969D02*
X530279Y235969D01*
X527781Y239299D02*
X527781Y232639D01*
M02*
