# https://github.com/mikedh/trimesh
v -16.86305046 -292.51730347 307.03390503
v -16.86305046 -290.51730347 307.03390503
v -16.00000000 -292.51730347 307.00000000
v -16.00000000 -290.51730347 307.00000000
v -15.13694954 -292.51730347 307.03390503
v -15.13694954 -290.51730347 307.03390503
v -14.27922058 -292.51730347 307.13543701
v -14.27922058 -290.51730347 307.13543701
v -13.43210125 -292.51730347 307.30392456
v -13.43210125 -290.51730347 307.30392456
v -12.60081291 -292.51730347 307.53836060
v -12.60081291 -290.51730347 307.53836060
v -11.79048252 -292.51730347 307.83731079
v -11.79048252 -290.51730347 307.83731079
v -11.00610447 -292.51730347 308.19891357
v -11.00610447 -290.51730347 308.19891357
v -10.25251579 -292.51730347 308.62094116
v -10.25251579 -290.51730347 308.62094116
v -9.53436184 -292.51730347 309.10079956
v -9.53436184 -290.51730347 309.10079956
v -8.85607147 -292.51730347 309.63552856
v -8.85607147 -290.51730347 309.63552856
v -8.22182560 -292.51730347 310.22183228
v -8.22182560 -290.51730347 310.22183228
v -7.63553429 -292.51730347 310.85607910
v -7.63553429 -290.51730347 310.85607910
v -7.10081291 -292.51730347 311.53436279
v -7.10081291 -290.51730347 311.53436279
v -6.62095833 -292.51730347 312.25250244
v -6.62095833 -290.51730347 312.25250244
v -6.19892836 -292.51730347 313.00610352
v -6.19892836 -290.51730347 313.00610352
v -5.83732510 -292.51730347 313.79046631
v -5.83732510 -290.51730347 313.79046631
v -5.53837824 -292.51730347 314.60079956
v -5.53837824 -290.51730347 314.60079956
v -5.30393076 -292.51730347 315.43209839
v -5.30393076 -290.51730347 315.43209839
v -5.13542843 -292.51730347 316.27920532
v -5.13542843 -290.51730347 316.27920532
v -5.03390932 -292.51730347 317.13693237
v -5.03390932 -290.51730347 317.13693237
v -5.00000000 -292.51730347 318.00000000
v -5.00000000 -290.51730347 318.00000000
v -5.03390932 -292.51730347 318.86303711
v -5.03390932 -290.51730347 318.86303711
v -5.13542843 -292.51730347 319.72076416
v -5.13542843 -290.51730347 319.72076416
v -5.30393076 -292.51730347 320.56790161
v -5.30393076 -290.51730347 320.56790161
v -5.53837824 -292.51730347 321.39916992
v -5.53837824 -290.51730347 321.39916992
v -5.83732510 -292.51730347 322.20950317
v -5.83732510 -290.51730347 322.20950317
v -6.19892836 -292.51730347 322.99389648
v -6.19892836 -290.51730347 322.99389648
v -6.62095833 -292.51730347 323.74746704
v -6.62095833 -290.51730347 323.74746704
v -7.10081291 -292.51730347 324.46563721
v -7.10081291 -290.51730347 324.46563721
v -7.63553429 -292.51730347 325.14392090
v -7.63553429 -290.51730347 325.14392090
v -8.22182560 -292.51730347 325.77816772
v -8.22182560 -290.51730347 325.77816772
v -8.85607147 -292.51730347 326.36447144
v -8.85607147 -290.51730347 326.36447144
v -9.53436184 -292.51730347 326.89916992
v -9.53436184 -290.51730347 326.89916992
v -10.25251579 -292.51730347 327.37902832
v -10.25251579 -290.51730347 327.37902832
v -11.00610447 -292.51730347 327.80105591
v -11.00610447 -290.51730347 327.80105591
v -11.79048252 -292.51730347 328.16265869
v -11.79048252 -290.51730347 328.16265869
v -12.60081291 -292.51730347 328.46160889
v -12.60081291 -290.51730347 328.46160889
v -13.43210125 -292.51730347 328.69607544
v -13.43210125 -290.51730347 328.69607544
v -14.27922058 -292.51730347 328.86456299
v -14.27922058 -290.51730347 328.86456299
v -15.13694954 -292.51730347 328.96609497
v -15.13694954 -290.51730347 328.96609497
v -16.00000000 -292.51730347 329.00000000
v -16.00000000 -290.51730347 329.00000000
v -16.86305046 -292.51730347 328.96609497
v -16.86305046 -290.51730347 328.96609497
v -17.72077942 -292.51730347 328.86456299
v -17.72077942 -290.51730347 328.86456299
v -18.56789970 -292.51730347 328.69607544
v -18.56789970 -290.51730347 328.69607544
v -19.39918709 -292.51730347 328.46160889
v -19.39918709 -290.51730347 328.46160889
v -20.20951843 -292.51730347 328.16265869
v -20.20951843 -290.51730347 328.16265869
v -20.99389458 -292.51730347 327.80105591
v -20.99389458 -290.51730347 327.80105591
v -21.74748421 -292.51730347 327.37902832
v -21.74748421 -290.51730347 327.37902832
v -22.46563721 -292.51730347 326.89916992
v -22.46563721 -290.51730347 326.89916992
v -23.14392853 -292.51730347 326.36447144
v -23.14392853 -290.51730347 326.36447144
v -23.77817535 -292.51730347 325.77816772
v -23.77817535 -290.51730347 325.77816772
v -24.36446571 -292.51730347 325.14392090
v -24.36446571 -290.51730347 325.14392090
v -24.89918709 -292.51730347 324.46563721
v -24.89918709 -290.51730347 324.46563721
v -25.37904167 -292.51730347 323.74746704
v -25.37904167 -290.51730347 323.74746704
v -25.80107117 -292.51730347 322.99389648
v -25.80107117 -290.51730347 322.99389648
v -26.16267395 -292.51730347 322.20950317
v -26.16267395 -290.51730347 322.20950317
v -26.46162224 -292.51730347 321.39916992
v -26.46162224 -290.51730347 321.39916992
v -26.69606972 -292.51730347 320.56790161
v -26.69606972 -290.51730347 320.56790161
v -26.86457253 -292.51730347 319.72076416
v -26.86457253 -290.51730347 319.72076416
v -26.96609116 -292.51730347 318.86303711
v -26.96609116 -290.51730347 318.86303711
v -27.00000000 -292.51730347 318.00000000
v -27.00000000 -290.51730347 318.00000000
v -26.96609116 -292.51730347 317.13693237
v -26.96609116 -290.51730347 317.13693237
v -26.86457253 -292.51730347 316.27920532
v -26.86457253 -290.51730347 316.27920532
v -26.69606972 -292.51730347 315.43209839
v -26.69606972 -290.51730347 315.43209839
v -26.46162224 -292.51730347 314.60079956
v -26.46162224 -290.51730347 314.60079956
v -26.16267395 -292.51730347 313.79046631
v -26.16267395 -290.51730347 313.79046631
v -25.80107117 -292.51730347 313.00610352
v -25.80107117 -290.51730347 313.00610352
v -25.37904167 -292.51730347 312.25250244
v -25.37904167 -290.51730347 312.25250244
v -24.89918709 -292.51730347 311.53436279
v -24.89918709 -290.51730347 311.53436279
v -24.36446571 -292.51730347 310.85607910
v -24.36446571 -290.51730347 310.85607910
v -23.77817535 -292.51730347 310.22183228
v -23.77817535 -290.51730347 310.22183228
v -23.14392853 -292.51730347 309.63552856
v -23.14392853 -290.51730347 309.63552856
v -22.46563721 -292.51730347 309.10079956
v -22.46563721 -290.51730347 309.10079956
v -21.74748421 -292.51730347 308.62094116
v -21.74748421 -290.51730347 308.62094116
v -20.99389458 -292.51730347 308.19891357
v -20.99389458 -290.51730347 308.19891357
v -20.20951843 -292.51730347 307.83731079
v -20.20951843 -290.51730347 307.83731079
v -19.39918709 -292.51730347 307.53836060
v -19.39918709 -290.51730347 307.53836060
v -18.56789970 -292.51730347 307.30392456
v -18.56789970 -290.51730347 307.30392456
v -17.72077942 -292.51730347 307.13543701
v -17.72077942 -290.51730347 307.13543701
v -29.31186676 -290.51730347 332.46722412
v -29.31186676 -286.01730347 332.46722412
v -29.00000000 -290.51730347 332.50000000
v -29.00000000 -286.01730347 332.50000000
v -28.68813324 -290.51730347 332.46722412
v -28.68813324 -286.01730347 332.46722412
v -28.38989449 -290.51730347 332.37030029
v -28.38989449 -286.01730347 332.37030029
v -28.11832237 -290.51730347 332.21353149
v -28.11832237 -286.01730347 332.21353149
v -27.88528252 -290.51730347 332.00369263
v -27.88528252 -286.01730347 332.00369263
v -27.70096207 -290.51730347 331.75000000
v -27.70096207 -286.01730347 331.75000000
v -27.57341576 -290.51730347 331.46353149
v -27.57341576 -286.01730347 331.46353149
v -27.50821686 -290.51730347 331.15679932
v -27.50821686 -286.01730347 331.15679932
v -27.50821686 -290.51730347 330.84320068
v -27.50821686 -286.01730347 330.84320068
v -27.57341576 -290.51730347 330.53646851
v -27.57341576 -286.01730347 330.53646851
v -27.70096207 -290.51730347 330.25000000
v -27.70096207 -286.01730347 330.25000000
v -27.88528252 -290.51730347 329.99630737
v -27.88528252 -286.01730347 329.99630737
v -28.11832237 -290.51730347 329.78646851
v -28.11832237 -286.01730347 329.78646851
v -28.38989449 -290.51730347 329.62966919
v -28.38989449 -286.01730347 329.62966919
v -28.68813324 -290.51730347 329.53277588
v -28.68813324 -286.01730347 329.53277588
v -29.00000000 -290.51730347 329.50000000
v -29.00000000 -286.01730347 329.50000000
v -29.31186676 -290.51730347 329.53277588
v -29.31186676 -286.01730347 329.53277588
v -29.61010551 -290.51730347 329.62966919
v -29.61010551 -286.01730347 329.62966919
v -29.88167763 -290.51730347 329.78646851
v -29.88167763 -286.01730347 329.78646851
v -30.11471748 -290.51730347 329.99630737
v -30.11471748 -286.01730347 329.99630737
v -30.29903793 -290.51730347 330.25000000
v -30.29903793 -286.01730347 330.25000000
v -30.42658424 -290.51730347 330.53646851
v -30.42658424 -286.01730347 330.53646851
v -30.49178314 -290.51730347 330.84320068
v -30.49178314 -286.01730347 330.84320068
v -30.49178314 -290.51730347 331.15679932
v -30.49178314 -286.01730347 331.15679932
v -30.42658424 -290.51730347 331.46353149
v -30.42658424 -286.01730347 331.46353149
v -30.29903793 -290.51730347 331.75000000
v -30.29903793 -286.01730347 331.75000000
v -30.11471748 -290.51730347 332.00369263
v -30.11471748 -286.01730347 332.00369263
v -29.88167763 -290.51730347 332.21353149
v -29.88167763 -286.01730347 332.21353149
v -29.61010551 -290.51730347 332.37030029
v -29.61010551 -286.01730347 332.37030029
v -29.31186676 -290.51730347 306.46722412
v -29.31186676 -286.01730347 306.46722412
v -29.00000000 -290.51730347 306.50000000
v -29.00000000 -286.01730347 306.50000000
v -28.68813324 -290.51730347 306.46722412
v -28.68813324 -286.01730347 306.46722412
v -28.38989449 -290.51730347 306.37030029
v -28.38989449 -286.01730347 306.37030029
v -28.11832237 -290.51730347 306.21353149
v -28.11832237 -286.01730347 306.21353149
v -27.88528252 -290.51730347 306.00369263
v -27.88528252 -286.01730347 306.00369263
v -27.70096207 -290.51730347 305.75000000
v -27.70096207 -286.01730347 305.75000000
v -27.57341576 -290.51730347 305.46353149
v -27.57341576 -286.01730347 305.46353149
v -27.50821686 -290.51730347 305.15679932
v -27.50821686 -286.01730347 305.15679932
v -27.50821686 -290.51730347 304.84320068
v -27.50821686 -286.01730347 304.84320068
v -27.57341576 -290.51730347 304.53646851
v -27.57341576 -286.01730347 304.53646851
v -27.70096207 -290.51730347 304.25000000
v -27.70096207 -286.01730347 304.25000000
v -27.88528252 -290.51730347 303.99630737
v -27.88528252 -286.01730347 303.99630737
v -28.11832237 -290.51730347 303.78646851
v -28.11832237 -286.01730347 303.78646851
v -28.38989449 -290.51730347 303.62966919
v -28.38989449 -286.01730347 303.62966919
v -28.68813324 -290.51730347 303.53277588
v -28.68813324 -286.01730347 303.53277588
v -29.00000000 -290.51730347 303.50000000
v -29.00000000 -286.01730347 303.50000000
v -29.31186676 -290.51730347 303.53277588
v -29.31186676 -286.01730347 303.53277588
v -29.61010551 -290.51730347 303.62966919
v -29.61010551 -286.01730347 303.62966919
v -29.88167763 -290.51730347 303.78646851
v -29.88167763 -286.01730347 303.78646851
v -30.11471748 -290.51730347 303.99630737
v -30.11471748 -286.01730347 303.99630737
v -30.29903793 -290.51730347 304.25000000
v -30.29903793 -286.01730347 304.25000000
v -30.42658424 -290.51730347 304.53646851
v -30.42658424 -286.01730347 304.53646851
v -30.49178314 -290.51730347 304.84320068
v -30.49178314 -286.01730347 304.84320068
v -30.49178314 -290.51730347 305.15679932
v -30.49178314 -286.01730347 305.15679932
v -30.42658424 -290.51730347 305.46353149
v -30.42658424 -286.01730347 305.46353149
v -30.29903793 -290.51730347 305.75000000
v -30.29903793 -286.01730347 305.75000000
v -30.11471748 -290.51730347 306.00369263
v -30.11471748 -286.01730347 306.00369263
v -29.88167763 -290.51730347 306.21353149
v -29.88167763 -286.01730347 306.21353149
v -29.61010551 -290.51730347 306.37030029
v -29.61010551 -286.01730347 306.37030029
v -3.31186748 -290.51730347 332.46722412
v -3.31186748 -286.01730347 332.46722412
v -3.00000000 -290.51730347 332.50000000
v -3.00000000 -286.01730347 332.50000000
v -2.68813252 -290.51730347 332.46722412
v -2.68813252 -286.01730347 332.46722412
v -2.38989496 -290.51730347 332.37030029
v -2.38989496 -286.01730347 332.37030029
v -2.11832213 -290.51730347 332.21353149
v -2.11832213 -286.01730347 332.21353149
v -1.88528275 -290.51730347 332.00369263
v -1.88528275 -286.01730347 332.00369263
v -1.70096195 -290.51730347 331.75000000
v -1.70096195 -286.01730347 331.75000000
v -1.57341528 -290.51730347 331.46353149
v -1.57341528 -286.01730347 331.46353149
v -1.50821722 -290.51730347 331.15679932
v -1.50821722 -286.01730347 331.15679932
v -1.50821722 -290.51730347 330.84320068
v -1.50821722 -286.01730347 330.84320068
v -1.57341528 -290.51730347 330.53646851
v -1.57341528 -286.01730347 330.53646851
v -1.70096195 -290.51730347 330.25000000
v -1.70096195 -286.01730347 330.25000000
v -1.88528275 -290.51730347 329.99630737
v -1.88528275 -286.01730347 329.99630737
v -2.11832213 -290.51730347 329.78646851
v -2.11832213 -286.01730347 329.78646851
v -2.38989496 -290.51730347 329.62966919
v -2.38989496 -286.01730347 329.62966919
v -2.68813252 -290.51730347 329.53277588
v -2.68813252 -286.01730347 329.53277588
v -3.00000000 -290.51730347 329.50000000
v -3.00000000 -286.01730347 329.50000000
v -3.31186748 -290.51730347 329.53277588
v -3.31186748 -286.01730347 329.53277588
v -3.61010504 -290.51730347 329.62966919
v -3.61010504 -286.01730347 329.62966919
v -3.88167787 -290.51730347 329.78646851
v -3.88167787 -286.01730347 329.78646851
v -4.11471701 -290.51730347 329.99630737
v -4.11471701 -286.01730347 329.99630737
v -4.29903793 -290.51730347 330.25000000
v -4.29903793 -286.01730347 330.25000000
v -4.42658472 -290.51730347 330.53646851
v -4.42658472 -286.01730347 330.53646851
v -4.49178267 -290.51730347 330.84320068
v -4.49178267 -286.01730347 330.84320068
v -4.49178267 -290.51730347 331.15679932
v -4.49178267 -286.01730347 331.15679932
v -4.42658472 -290.51730347 331.46353149
v -4.42658472 -286.01730347 331.46353149
v -4.29903793 -290.51730347 331.75000000
v -4.29903793 -286.01730347 331.75000000
v -4.11471701 -290.51730347 332.00369263
v -4.11471701 -286.01730347 332.00369263
v -3.88167787 -290.51730347 332.21353149
v -3.88167787 -286.01730347 332.21353149
v -3.61010504 -290.51730347 332.37030029
v -3.61010504 -286.01730347 332.37030029
v -3.31186748 -290.51730347 306.46722412
v -3.31186748 -286.01730347 306.46722412
v -3.00000000 -290.51730347 306.50000000
v -3.00000000 -286.01730347 306.50000000
v -2.68813252 -290.51730347 306.46722412
v -2.68813252 -286.01730347 306.46722412
v -2.38989496 -290.51730347 306.37030029
v -2.38989496 -286.01730347 306.37030029
v -2.11832213 -290.51730347 306.21353149
v -2.11832213 -286.01730347 306.21353149
v -1.88528275 -290.51730347 306.00369263
v -1.88528275 -286.01730347 306.00369263
v -1.70096195 -290.51730347 305.75000000
v -1.70096195 -286.01730347 305.75000000
v -1.57341528 -290.51730347 305.46353149
v -1.57341528 -286.01730347 305.46353149
v -1.50821722 -290.51730347 305.15679932
v -1.50821722 -286.01730347 305.15679932
v -1.50821722 -290.51730347 304.84320068
v -1.50821722 -286.01730347 304.84320068
v -1.57341528 -290.51730347 304.53646851
v -1.57341528 -286.01730347 304.53646851
v -1.70096195 -290.51730347 304.25000000
v -1.70096195 -286.01730347 304.25000000
v -1.88528275 -290.51730347 303.99630737
v -1.88528275 -286.01730347 303.99630737
v -2.11832213 -290.51730347 303.78646851
v -2.11832213 -286.01730347 303.78646851
v -2.38989496 -290.51730347 303.62966919
v -2.38989496 -286.01730347 303.62966919
v -2.68813252 -290.51730347 303.53277588
v -2.68813252 -286.01730347 303.53277588
v -3.00000000 -290.51730347 303.50000000
v -3.00000000 -286.01730347 303.50000000
v -3.31186748 -290.51730347 303.53277588
v -3.31186748 -286.01730347 303.53277588
v -3.61010504 -290.51730347 303.62966919
v -3.61010504 -286.01730347 303.62966919
v -3.88167787 -290.51730347 303.78646851
v -3.88167787 -286.01730347 303.78646851
v -4.11471701 -290.51730347 303.99630737
v -4.11471701 -286.01730347 303.99630737
v -4.29903793 -290.51730347 304.25000000
v -4.29903793 -286.01730347 304.25000000
v -4.42658472 -290.51730347 304.53646851
v -4.42658472 -286.01730347 304.53646851
v -4.49178267 -290.51730347 304.84320068
v -4.49178267 -286.01730347 304.84320068
v -4.49178267 -290.51730347 305.15679932
v -4.49178267 -286.01730347 305.15679932
v -4.42658472 -290.51730347 305.46353149
v -4.42658472 -286.01730347 305.46353149
v -4.29903793 -290.51730347 305.75000000
v -4.29903793 -286.01730347 305.75000000
v -4.11471701 -290.51730347 306.00369263
v -4.11471701 -286.01730347 306.00369263
v -3.88167787 -290.51730347 306.21353149
v -3.88167787 -286.01730347 306.21353149
v -3.61010504 -290.51730347 306.37030029
v -3.61010504 -286.01730347 306.37030029
v -14.00000000 -299.51730347 316.50000000
v -14.00000000 -309.51730347 316.50000000
v -14.16069031 -301.01730347 316.30679321
v -14.26662445 -309.51730347 316.19848633
v -14.46446800 -301.01730347 316.02713013
v -14.57817554 -309.51730347 315.94369507
v -14.81013107 -301.01730347 315.80130005
v -14.92657852 -309.51730347 315.74218750
v -15.18825150 -301.01730347 315.63546753
v -15.30280304 -309.51730347 315.59918213
v -15.58851337 -301.01730347 315.53408813
v -15.69709778 -309.51730347 315.51840210
v -16.00000000 -301.01730347 315.50000000
v -16.09924316 -309.51730347 315.50195312
v -16.41148567 -301.01730347 315.53408813
v -16.49881744 -309.51730347 315.55026245
v -16.81174850 -301.01730347 315.63546753
v -16.88546181 -309.51730347 315.66204834
v -17.18986893 -301.01730347 315.80130005
v -17.24915695 -309.51730347 315.83444214
v -17.53553200 -301.01730347 316.02713013
v -17.58047485 -309.51730347 316.06295776
v -17.83930969 -301.01730347 316.30679321
v -17.87083054 -309.51730347 316.34167480
v -18.09291649 -301.01730347 316.63262939
v -18.11269569 -309.51730347 316.66339111
v -18.28943253 -301.01730347 316.99575806
v -18.29980278 -309.51730347 317.01974487
v -18.42350006 -301.01730347 317.38629150
v -18.42730141 -309.51730347 317.40148926
v -18.49146080 -301.01730347 317.79354858
v -18.49188805 -309.51730347 317.79876709
v -18.49188805 -309.51730347 318.20123291
v -18.49146080 -301.01730347 318.20645142
v -18.42730141 -309.51730347 318.59851074
v -18.42350006 -301.01730347 318.61370850
v -18.29980278 -309.51730347 318.98025513
v -18.28943253 -301.01730347 319.00424194
v -18.11269569 -309.51730347 319.33660889
v -18.09291649 -301.01730347 319.36737061
v -17.87083054 -309.51730347 319.65829468
v -17.83930969 -301.01730347 319.69320679
v -17.58047485 -309.51730347 319.93704224
v -17.53553200 -301.01730347 319.97283936
v -17.24915695 -309.51730347 320.16555786
v -17.18986893 -301.01730347 320.19866943
v -16.88546181 -309.51730347 320.33792114
v -16.81174850 -301.01730347 320.36453247
v -16.49881744 -309.51730347 320.44973755
v -16.41148567 -301.01730347 320.46591187
v -16.09924316 -309.51730347 320.49801636
v -16.00000000 -301.01730347 320.50000000
v -15.69709778 -309.51730347 320.48156738
v -15.58851337 -301.01730347 320.46591187
v -15.30280304 -309.51730347 320.40081787
v -15.18825150 -301.01730347 320.36453247
v -14.92657852 -309.51730347 320.25781250
v -14.81013107 -301.01730347 320.19866943
v -14.57817554 -309.51730347 320.05630493
v -14.46446800 -301.01730347 319.97283936
v -14.26662445 -309.51730347 319.80148315
v -14.16069031 -301.01730347 319.69320679
v -14.00000000 -309.51730347 319.50000000
v -14.00000000 -299.51730347 319.50000000
v -13.78555202 -299.51730347 319.16024780
v -13.90708351 -292.51730347 319.36737061
v -14.16069031 -292.51730347 319.69320679
v -13.71056652 -292.51730347 319.00424194
v -13.62829208 -299.51730347 318.79055786
v -13.57649899 -292.51730347 318.61370850
v -13.53228092 -299.51730347 318.40045166
v -13.50853920 -292.51730347 318.20645142
v -13.50000000 -299.51730347 318.00000000
v -13.50853920 -292.51730347 317.79354858
v -13.53228092 -299.51730347 317.59954834
v -13.57649899 -292.51730347 317.38629150
v -13.62829208 -299.51730347 317.20941162
v -13.71056652 -292.51730347 316.99575806
v -13.78555202 -299.51730347 316.83972168
v -13.90708351 -292.51730347 316.63262939
v -14.16069031 -292.51730347 316.30679321
v -14.46446800 -292.51730347 316.02713013
v -14.81013107 -292.51730347 315.80130005
v -15.18825150 -292.51730347 315.63546753
v -15.58851337 -292.51730347 315.53408813
v -16.00000000 -292.51730347 315.50000000
v -16.41148567 -292.51730347 315.53408813
v -16.81174850 -292.51730347 315.63546753
v -17.18986893 -292.51730347 315.80130005
v -17.53553200 -292.51730347 316.02713013
v -17.83930969 -292.51730347 316.30679321
v -18.09291649 -292.51730347 316.63262939
v -18.28943253 -292.51730347 316.99575806
v -18.42350006 -292.51730347 317.38629150
v -18.49146080 -292.51730347 317.79354858
v -18.49146080 -292.51730347 318.20645142
v -18.42350006 -292.51730347 318.61370850
v -18.28943253 -292.51730347 319.00424194
v -18.09291649 -292.51730347 319.36737061
v -17.83930969 -292.51730347 319.69320679
v -17.53553200 -292.51730347 319.97283936
v -17.18986893 -292.51730347 320.19866943
v -16.81174850 -292.51730347 320.36453247
v -16.41148567 -292.51730347 320.46591187
v -16.00000000 -292.51730347 320.50000000
v -15.58851337 -292.51730347 320.46591187
v -15.18825150 -292.51730347 320.36453247
v -14.81013107 -292.51730347 320.19866943
v -14.46446800 -292.51730347 319.97283936
v -27.63829803 -284.51730347 300.39999390
v -28.50824356 -284.51730347 334.99276733
v -4.36170101 -284.51730347 300.39999390
v -27.63829803 -284.51730347 335.60000610
v -3.49175596 -284.51730347 301.00723267
v -4.36170101 -284.51730347 335.60000610
v -3.49175596 -284.51730347 334.99276733
v -28.50824356 -284.51730347 301.00723267
v -29.34656715 -284.51730347 334.34255981
v -29.34656715 -284.51730347 301.65744019
v -30.15114784 -284.51730347 333.65103149
v -30.15114784 -284.51730347 302.34896851
v -30.91995239 -284.51730347 332.91995239
v -30.91995239 -284.51730347 303.08004761
v -31.65103912 -284.51730347 332.15115356
v -31.65103912 -284.51730347 303.84884644
v -32.34255600 -284.51730347 331.34655762
v -32.34255600 -284.51730347 304.65344238
v -32.99275970 -284.51730347 330.50823975
v -32.99275970 -284.51730347 305.49176025
v -33.59999847 -284.51730347 329.63830566
v -33.59999847 -284.51730347 306.36169434
v -2.65343308 -284.51730347 301.65744019
v -2.65343308 -284.51730347 334.34255981
v -1.84885204 -284.51730347 302.34896851
v -1.84885204 -284.51730347 333.65103149
v -1.08004689 -284.51730347 303.08004761
v -1.08004689 -284.51730347 332.91995239
v -0.34896132 -284.51730347 303.84884644
v -0.34896132 -284.51730347 332.15115356
v 0.34255645 -284.51730347 304.65344238
v 0.34255645 -284.51730347 331.34655762
v 0.99275815 -284.51730347 305.49176025
v 0.99275815 -284.51730347 330.50823975
v 1.60000002 -284.51730347 306.36169434
v 1.60000002 -284.51730347 329.63830566
v 0.94738644 -290.51730347 333.54946899
v 1.60000002 -290.51730347 332.80676270
v 0.26345596 -290.51730347 334.26345825
v -0.45052755 -290.51730347 334.94738770
v -1.19324481 -290.51730347 335.60000610
v -30.80675507 -290.51730347 335.60000610
v -31.54947281 -290.51730347 334.94738770
v -32.26345444 -290.51730347 334.26345825
v -32.94738770 -290.51730347 333.54946899
v -33.59999847 -290.51730347 332.80676270
v -33.59999847 -290.51730347 303.19323730
v -32.94738770 -290.51730347 302.45053101
v -32.26345444 -290.51730347 301.73654175
v -31.54947281 -290.51730347 301.05261230
v -30.80675507 -290.51730347 300.39999390
v -1.19324481 -290.51730347 300.39999390
v -0.45052755 -290.51730347 301.05261230
v 0.26345596 -290.51730347 301.73654175
v 0.94738644 -290.51730347 302.45053101
v 1.60000002 -290.51730347 303.19323730
v 1.60000002 -282.01730347 332.80676270
v 0.94738644 -282.01730347 333.54946899
v 0.26345596 -282.01730347 334.26345825
v -0.45052755 -282.01730347 334.94738770
v -1.19324481 -282.01730347 335.60000610
v -30.80675507 -282.01730347 335.60000610
v -31.54947281 -282.01730347 334.94738770
v -32.26345444 -282.01730347 334.26345825
v -32.94738770 -282.01730347 333.54946899
v -33.59999847 -282.01730347 332.80676270
v -1.19324481 -282.01730347 300.39999390
v -0.45052755 -282.01730347 301.05261230
v 0.26345596 -282.01730347 301.73654175
v 0.94738644 -282.01730347 302.45053101
v 1.60000002 -282.01730347 303.19323730
v -33.59999847 -282.01730347 303.19323730
v -32.94738770 -282.01730347 302.45053101
v -32.26345444 -282.01730347 301.73654175
v -31.54947281 -282.01730347 301.05261230
v -30.80675507 -282.01730347 300.39999390
v -4.36170101 -282.01730347 300.39999390
v -27.63829803 -282.01730347 300.39999390
v -33.59999847 -282.01730347 306.36169434
v -33.59999847 -282.01730347 329.63830566
v 1.60000002 -282.01730347 306.36169434
v 1.60000002 -282.01730347 329.63830566
v -4.36170101 -282.01730347 335.60000610
v -27.63829803 -282.01730347 335.60000610
v -28.50824356 -282.01730347 334.99276733
v -29.34656715 -282.01730347 334.34255981
v -30.15114784 -282.01730347 333.65103149
v -30.91995239 -282.01730347 332.91995239
v -31.65103912 -282.01730347 332.15115356
v -32.34255600 -282.01730347 331.34655762
v -32.99275970 -282.01730347 330.50823975
v 0.99275815 -282.01730347 330.50823975
v 0.34255645 -282.01730347 331.34655762
v -0.34896132 -282.01730347 332.15115356
v -1.08004689 -282.01730347 332.91995239
v -1.84885204 -282.01730347 333.65103149
v -2.65343308 -282.01730347 334.34255981
v -3.49175596 -282.01730347 334.99276733
v -3.49175596 -282.01730347 301.00723267
v -2.65343308 -282.01730347 301.65744019
v -1.84885204 -282.01730347 302.34896851
v -1.08004689 -282.01730347 303.08004761
v -0.34896132 -282.01730347 303.84884644
v 0.34255645 -282.01730347 304.65344238
v 0.99275815 -282.01730347 305.49176025
v -32.99275970 -282.01730347 305.49176025
v -32.34255600 -282.01730347 304.65344238
v -31.65103912 -282.01730347 303.84884644
v -30.91995239 -282.01730347 303.08004761
v -30.15114784 -282.01730347 302.34896851
v -29.34656715 -282.01730347 301.65744019
v -28.50824356 -282.01730347 301.00723267
v -33.59999847 -276.01730347 328.50000000
v -33.59999847 -276.01730347 329.63830566
v -33.59999847 -269.01730347 328.50000000
v -33.59999847 -269.01730347 332.80676270
v -33.59999847 -278.51730347 332.80676270
v -33.59999847 -278.51730347 329.63830566
v -33.59999847 -276.01730347 307.50000000
v -33.59999847 -269.01730347 307.50000000
v -33.59999847 -276.01730347 306.36169434
v -33.59999847 -269.01730347 303.19323730
v -33.59999847 -278.51730347 303.19323730
v -33.59999847 -278.51730347 306.36169434
v -4.36170101 -276.01730347 335.60000610
v -27.63829803 -276.01730347 335.60000610
v -3.49175596 -276.01730347 334.99276733
v -28.50824356 -276.01730347 334.99276733
v -2.65343308 -276.01730347 334.34255981
v -29.34656715 -276.01730347 334.34255981
v -1.84885204 -276.01730347 333.65103149
v -30.15114784 -276.01730347 333.65103149
v -1.08004689 -276.01730347 332.91995239
v -30.91995239 -276.01730347 332.91995239
v -0.34896132 -276.01730347 332.15115356
v -31.65103912 -276.01730347 332.15115356
v 0.34255645 -276.01730347 331.34655762
v -32.34255600 -276.01730347 331.34655762
v 0.99275815 -276.01730347 330.50823975
v 1.60000002 -276.01730347 329.63830566
v -32.99275970 -276.01730347 330.50823975
v -32.99275970 -276.01730347 305.49176025
v -36.59999847 -276.01730347 307.50000000
v -36.59999847 -276.01730347 328.50000000
v -32.34255600 -276.01730347 304.65344238
v 0.99275815 -276.01730347 305.49176025
v 1.60000002 -276.01730347 306.36169434
v 0.34255645 -276.01730347 304.65344238
v -31.65103912 -276.01730347 303.84884644
v -0.34896132 -276.01730347 303.84884644
v -30.91995239 -276.01730347 303.08004761
v -1.08004689 -276.01730347 303.08004761
v -30.15114784 -276.01730347 302.34896851
v -1.84885204 -276.01730347 302.34896851
v -29.34656715 -276.01730347 301.65744019
v -2.65343308 -276.01730347 301.65744019
v -28.50824356 -276.01730347 301.00723267
v -3.49175596 -276.01730347 301.00723267
v -27.63829803 -276.01730347 300.39999390
v -4.36170101 -276.01730347 300.39999390
v -30.80675507 -269.01730347 300.39999390
v -30.80675507 -278.51730347 300.39999390
v -31.54947281 -269.01730347 301.05261230
v -31.54947281 -278.51730347 301.05261230
v -32.26345444 -269.01730347 301.73654175
v -32.26345444 -278.51730347 301.73654175
v -32.94738770 -269.01730347 302.45053101
v -32.94738770 -278.51730347 302.45053101
v 1.60000002 -269.01730347 303.19323730
v 1.60000002 -278.51730347 303.19323730
v 0.94738644 -269.01730347 302.45053101
v 0.94738644 -278.51730347 302.45053101
v 0.26345596 -269.01730347 301.73654175
v 0.26345596 -278.51730347 301.73654175
v -0.45052755 -269.01730347 301.05261230
v -0.45052755 -278.51730347 301.05261230
v -1.19324481 -269.01730347 300.39999390
v -1.19324481 -278.51730347 300.39999390
v -4.36170101 -278.51730347 300.39999390
v -27.63829803 -278.51730347 300.39999390
v -32.94738770 -269.01730347 333.54946899
v -32.94738770 -278.51730347 333.54946899
v -32.26345444 -269.01730347 334.26345825
v -32.26345444 -278.51730347 334.26345825
v -31.54947281 -269.01730347 334.94738770
v -31.54947281 -278.51730347 334.94738770
v -30.80675507 -269.01730347 335.60000610
v -30.80675507 -278.51730347 335.60000610
v -1.19324481 -269.01730347 335.60000610
v -1.19324481 -278.51730347 335.60000610
v -0.45052755 -269.01730347 334.94738770
v -0.45052755 -278.51730347 334.94738770
v 0.26345596 -269.01730347 334.26345825
v 0.26345596 -278.51730347 334.26345825
v 0.94738644 -269.01730347 333.54946899
v 0.94738644 -278.51730347 333.54946899
v 1.60000002 -269.01730347 332.80676270
v 1.60000002 -278.51730347 332.80676270
v 1.60000002 -278.51730347 306.36169434
v 1.60000002 -278.51730347 329.63830566
v -36.59999847 -269.01730347 328.50000000
v -36.59999847 -269.01730347 307.50000000
v -4.36170101 -278.51730347 335.60000610
v -27.63829803 -278.51730347 335.60000610
v -28.50824356 -278.51730347 301.00723267
v -29.34656715 -278.51730347 301.65744019
v -30.15114784 -278.51730347 302.34896851
v -30.91995239 -278.51730347 303.08004761
v -31.65103912 -278.51730347 303.84884644
v -32.34255600 -278.51730347 304.65344238
v -32.99275970 -278.51730347 305.49176025
v 0.99275815 -278.51730347 305.49176025
v 0.34255645 -278.51730347 304.65344238
v -0.34896132 -278.51730347 303.84884644
v -1.08004689 -278.51730347 303.08004761
v -1.84885204 -278.51730347 302.34896851
v -2.65343308 -278.51730347 301.65744019
v -3.49175596 -278.51730347 301.00723267
v -3.49175596 -278.51730347 334.99276733
v -2.65343308 -278.51730347 334.34255981
v -1.84885204 -278.51730347 333.65103149
v -1.08004689 -278.51730347 332.91995239
v -0.34896132 -278.51730347 332.15115356
v 0.34255645 -278.51730347 331.34655762
v 0.99275815 -278.51730347 330.50823975
v -32.99275970 -278.51730347 330.50823975
v -32.34255600 -278.51730347 331.34655762
v -31.65103912 -278.51730347 332.15115356
v -30.91995239 -278.51730347 332.91995239
v -30.15114784 -278.51730347 333.65103149
v -29.34656715 -278.51730347 334.34255981
v -28.50824356 -278.51730347 334.99276733
v -27.45600319 -284.51730347 300.39999390
v -27.45600319 -276.01730347 300.39999390
v -4.54399729 -284.51730347 300.39999390
v -4.54399729 -276.01730347 300.39999390
v 1.60000002 -284.51730347 306.54400635
v 1.60000002 -276.01730347 306.54400635
v 1.60000002 -284.51730347 329.45599365
v 1.60000002 -276.01730347 329.45599365
v -4.54399729 -284.51730347 335.60000610
v -4.54399729 -276.01730347 335.60000610
v -27.45600319 -284.51730347 335.60000610
v -27.45600319 -276.01730347 335.60000610
v -3.64306450 -276.01730347 334.97958374
v -3.64306450 -284.51730347 334.97958374
v -2.77566075 -276.01730347 334.31307983
v -2.77566075 -284.51730347 334.31307983
v -1.94413972 -276.01730347 333.60232544
v -1.94413972 -284.51730347 333.60232544
v -1.15075755 -276.01730347 332.84924316
v -1.15075755 -284.51730347 332.84924316
v -0.39766708 -276.01730347 332.05584717
v -0.39766708 -284.51730347 332.05584717
v 0.31308836 -276.01730347 331.22433472
v 0.31308836 -284.51730347 331.22433472
v 0.97958022 -276.01730347 330.35693359
v 0.97958022 -284.51730347 330.35693359
v -33.59999847 -284.51730347 329.45599365
v -33.59999847 -276.01730347 329.45599365
v -33.59999847 -284.51730347 306.54400635
v -33.59999847 -276.01730347 306.54400635
v -32.97957993 -276.01730347 330.35693359
v -32.97957993 -284.51730347 330.35693359
v -32.31308746 -276.01730347 331.22433472
v -32.31308746 -284.51730347 331.22433472
v -31.60233307 -276.01730347 332.05584717
v -31.60233307 -284.51730347 332.05584717
v -30.84924316 -276.01730347 332.84924316
v -30.84924316 -284.51730347 332.84924316
v -30.05586052 -276.01730347 333.60232544
v -30.05586052 -284.51730347 333.60232544
v -29.22433853 -276.01730347 334.31307983
v -29.22433853 -284.51730347 334.31307983
v -28.35693550 -276.01730347 334.97958374
v -28.35693550 -284.51730347 334.97958374
v 0.97958022 -276.01730347 305.64306641
v 0.97958022 -284.51730347 305.64306641
v 0.31308836 -276.01730347 304.77566528
v 0.31308836 -284.51730347 304.77566528
v -0.39766708 -276.01730347 303.94412231
v -0.39766708 -284.51730347 303.94412231
v -1.15075755 -276.01730347 303.15075684
v -1.15075755 -284.51730347 303.15075684
v -1.94413972 -276.01730347 302.39767456
v -1.94413972 -284.51730347 302.39767456
v -2.77566075 -276.01730347 301.68692017
v -2.77566075 -284.51730347 301.68692017
v -3.64306450 -276.01730347 301.02041626
v -3.64306450 -284.51730347 301.02041626
v -28.35693550 -276.01730347 301.02041626
v -28.35693550 -284.51730347 301.02041626
v -29.22433853 -276.01730347 301.68692017
v -29.22433853 -284.51730347 301.68692017
v -30.05586052 -276.01730347 302.39767456
v -30.05586052 -284.51730347 302.39767456
v -30.84924316 -276.01730347 303.15075684
v -30.84924316 -284.51730347 303.15075684
v -31.60233307 -276.01730347 303.94412231
v -31.60233307 -284.51730347 303.94412231
v -32.31308746 -276.01730347 304.77566528
v -32.31308746 -284.51730347 304.77566528
v -32.97957993 -276.01730347 305.64306641
v -32.97957993 -284.51730347 305.64306641
f 1 2 3
f 3 2 4
f 3 4 5
f 5 4 6
f 5 6 7
f 7 6 8
f 7 8 9
f 9 8 10
f 9 10 11
f 11 10 12
f 11 12 13
f 13 12 14
f 13 14 15
f 15 14 16
f 15 16 17
f 17 16 18
f 17 18 19
f 19 18 20
f 19 20 21
f 21 20 22
f 21 22 23
f 23 22 24
f 23 24 25
f 25 24 26
f 25 26 27
f 27 26 28
f 27 28 29
f 29 28 30
f 29 30 31
f 31 30 32
f 31 32 33
f 33 32 34
f 33 34 35
f 35 34 36
f 35 36 37
f 37 36 38
f 37 38 39
f 39 38 40
f 39 40 41
f 41 40 42
f 41 42 43
f 43 42 44
f 43 44 45
f 45 44 46
f 45 46 47
f 47 46 48
f 47 48 49
f 49 48 50
f 49 50 51
f 51 50 52
f 51 52 53
f 53 52 54
f 53 54 55
f 55 54 56
f 55 56 57
f 57 56 58
f 57 58 59
f 59 58 60
f 59 60 61
f 61 60 62
f 61 62 63
f 63 62 64
f 63 64 65
f 65 64 66
f 65 66 67
f 67 66 68
f 67 68 69
f 69 68 70
f 69 70 71
f 71 70 72
f 71 72 73
f 73 72 74
f 73 74 75
f 75 74 76
f 75 76 77
f 77 76 78
f 77 78 79
f 79 78 80
f 79 80 81
f 81 80 82
f 81 82 83
f 83 82 84
f 83 84 85
f 85 84 86
f 85 86 87
f 87 86 88
f 87 88 89
f 89 88 90
f 89 90 91
f 91 90 92
f 91 92 93
f 93 92 94
f 93 94 95
f 95 94 96
f 95 96 97
f 97 96 98
f 97 98 99
f 99 98 100
f 99 100 101
f 101 100 102
f 101 102 103
f 103 102 104
f 103 104 105
f 105 104 106
f 105 106 107
f 107 106 108
f 107 108 109
f 109 108 110
f 109 110 111
f 111 110 112
f 111 112 113
f 113 112 114
f 113 114 115
f 115 114 116
f 115 116 117
f 117 116 118
f 117 118 119
f 119 118 120
f 119 120 121
f 121 120 122
f 121 122 123
f 123 122 124
f 123 124 125
f 125 124 126
f 125 126 127
f 127 126 128
f 127 128 129
f 129 128 130
f 129 130 131
f 131 130 132
f 131 132 133
f 133 132 134
f 133 134 135
f 135 134 136
f 135 136 137
f 137 136 138
f 137 138 139
f 139 138 140
f 139 140 141
f 141 140 142
f 141 142 143
f 143 142 144
f 143 144 145
f 145 144 146
f 145 146 147
f 147 146 148
f 147 148 149
f 149 148 150
f 149 150 151
f 151 150 152
f 151 152 153
f 153 152 154
f 153 154 155
f 155 154 156
f 155 156 157
f 157 156 158
f 157 158 159
f 159 158 160
f 159 160 1
f 1 160 2
f 161 162 163
f 163 162 164
f 163 164 165
f 165 164 166
f 165 166 167
f 167 166 168
f 167 168 169
f 169 168 170
f 169 170 171
f 171 170 172
f 171 172 173
f 173 172 174
f 173 174 175
f 175 174 176
f 175 176 177
f 177 176 178
f 177 178 179
f 179 178 180
f 179 180 181
f 181 180 182
f 181 182 183
f 183 182 184
f 183 184 185
f 185 184 186
f 185 186 187
f 187 186 188
f 187 188 189
f 189 188 190
f 189 190 191
f 191 190 192
f 191 192 193
f 193 192 194
f 193 194 195
f 195 194 196
f 195 196 197
f 197 196 198
f 197 198 199
f 199 198 200
f 199 200 201
f 201 200 202
f 201 202 203
f 203 202 204
f 203 204 205
f 205 204 206
f 205 206 207
f 207 206 208
f 207 208 209
f 209 208 210
f 209 210 211
f 211 210 212
f 211 212 213
f 213 212 214
f 213 214 215
f 215 214 216
f 215 216 217
f 217 216 218
f 217 218 219
f 219 218 220
f 219 220 161
f 161 220 162
f 221 222 223
f 223 222 224
f 223 224 225
f 225 224 226
f 225 226 227
f 227 226 228
f 227 228 229
f 229 228 230
f 229 230 231
f 231 230 232
f 231 232 233
f 233 232 234
f 233 234 235
f 235 234 236
f 235 236 237
f 237 236 238
f 237 238 239
f 239 238 240
f 239 240 241
f 241 240 242
f 241 242 243
f 243 242 244
f 243 244 245
f 245 244 246
f 245 246 247
f 247 246 248
f 247 248 249
f 249 248 250
f 249 250 251
f 251 250 252
f 251 252 253
f 253 252 254
f 253 254 255
f 255 254 256
f 255 256 257
f 257 256 258
f 257 258 259
f 259 258 260
f 259 260 261
f 261 260 262
f 261 262 263
f 263 262 264
f 263 264 265
f 265 264 266
f 265 266 267
f 267 266 268
f 267 268 269
f 269 268 270
f 269 270 271
f 271 270 272
f 271 272 273
f 273 272 274
f 273 274 275
f 275 274 276
f 275 276 277
f 277 276 278
f 277 278 279
f 279 278 280
f 279 280 221
f 221 280 222
f 281 282 283
f 283 282 284
f 283 284 285
f 285 284 286
f 285 286 287
f 287 286 288
f 287 288 289
f 289 288 290
f 289 290 291
f 291 290 292
f 291 292 293
f 293 292 294
f 293 294 295
f 295 294 296
f 295 296 297
f 297 296 298
f 297 298 299
f 299 298 300
f 299 300 301
f 301 300 302
f 301 302 303
f 303 302 304
f 303 304 305
f 305 304 306
f 305 306 307
f 307 306 308
f 307 308 309
f 309 308 310
f 309 310 311
f 311 310 312
f 311 312 313
f 313 312 314
f 313 314 315
f 315 314 316
f 315 316 317
f 317 316 318
f 317 318 319
f 319 318 320
f 319 320 321
f 321 320 322
f 321 322 323
f 323 322 324
f 323 324 325
f 325 324 326
f 325 326 327
f 327 326 328
f 327 328 329
f 329 328 330
f 329 330 331
f 331 330 332
f 331 332 333
f 333 332 334
f 333 334 335
f 335 334 336
f 335 336 337
f 337 336 338
f 337 338 339
f 339 338 340
f 339 340 281
f 281 340 282
f 341 342 343
f 343 342 344
f 343 344 345
f 345 344 346
f 345 346 347
f 347 346 348
f 347 348 349
f 349 348 350
f 349 350 351
f 351 350 352
f 351 352 353
f 353 352 354
f 353 354 355
f 355 354 356
f 355 356 357
f 357 356 358
f 357 358 359
f 359 358 360
f 359 360 361
f 361 360 362
f 361 362 363
f 363 362 364
f 363 364 365
f 365 364 366
f 365 366 367
f 367 366 368
f 367 368 369
f 369 368 370
f 369 370 371
f 371 370 372
f 371 372 373
f 373 372 374
f 373 374 375
f 375 374 376
f 375 376 377
f 377 376 378
f 377 378 379
f 379 378 380
f 379 380 381
f 381 380 382
f 381 382 383
f 383 382 384
f 383 384 385
f 385 384 386
f 385 386 387
f 387 386 388
f 387 388 389
f 389 388 390
f 389 390 391
f 391 390 392
f 391 392 393
f 393 392 394
f 393 394 395
f 395 394 396
f 395 396 397
f 397 396 398
f 397 398 399
f 399 398 400
f 399 400 341
f 341 400 342
f 401 402 403
f 403 402 404
f 403 404 405
f 405 404 406
f 405 406 407
f 407 406 408
f 407 408 409
f 409 408 410
f 409 410 411
f 411 410 412
f 411 412 413
f 413 412 414
f 413 414 415
f 415 414 416
f 415 416 417
f 417 416 418
f 417 418 419
f 419 418 420
f 419 420 421
f 421 420 422
f 421 422 423
f 423 422 424
f 423 424 425
f 425 424 426
f 425 426 427
f 427 426 428
f 427 428 429
f 429 428 430
f 429 430 431
f 431 430 432
f 431 432 433
f 431 433 434
f 434 433 435
f 434 435 436
f 436 435 437
f 436 437 438
f 438 437 439
f 438 439 440
f 440 439 441
f 440 441 442
f 442 441 443
f 442 443 444
f 444 443 445
f 444 445 446
f 446 445 447
f 446 447 448
f 448 447 449
f 448 449 450
f 450 449 451
f 450 451 452
f 452 451 453
f 452 453 454
f 454 453 455
f 454 455 456
f 456 455 457
f 456 457 458
f 458 457 459
f 458 459 460
f 460 459 461
f 460 461 462
f 462 461 463
f 462 463 464
f 465 466 464
f 464 466 467
f 464 467 462
f 462 467 460
f 466 465 468
f 468 465 469
f 468 469 470
f 470 469 471
f 470 471 472
f 472 471 473
f 472 473 474
f 474 473 475
f 474 475 476
f 476 475 477
f 476 477 478
f 478 477 479
f 478 479 480
f 480 479 401
f 480 401 481
f 481 401 403
f 481 403 482
f 482 403 405
f 482 405 483
f 483 405 407
f 483 407 484
f 484 407 409
f 484 409 485
f 485 409 411
f 485 411 486
f 486 411 413
f 486 413 487
f 487 413 415
f 487 415 488
f 488 415 417
f 488 417 489
f 489 417 419
f 489 419 490
f 490 419 421
f 490 421 491
f 491 421 423
f 491 423 492
f 492 423 425
f 492 425 493
f 493 425 427
f 493 427 494
f 494 427 429
f 494 429 495
f 495 429 431
f 495 431 496
f 496 431 434
f 496 434 497
f 497 434 436
f 497 436 498
f 498 436 438
f 498 438 499
f 499 438 440
f 499 440 500
f 500 440 442
f 500 442 501
f 501 442 444
f 501 444 502
f 502 444 446
f 502 446 503
f 503 446 448
f 503 448 504
f 504 448 450
f 504 450 505
f 505 450 452
f 505 452 506
f 506 452 454
f 506 454 507
f 507 454 456
f 507 456 508
f 508 456 458
f 508 458 509
f 509 458 460
f 509 460 467
f 510 511 512
f 512 511 513
f 512 513 514
f 514 513 515
f 514 515 516
f 510 517 511
f 511 517 518
f 518 517 519
f 518 519 520
f 520 519 521
f 520 521 522
f 522 521 523
f 522 523 524
f 524 523 525
f 524 525 526
f 526 525 527
f 526 527 528
f 528 527 529
f 528 529 530
f 530 529 531
f 514 516 532
f 532 516 533
f 532 533 534
f 534 533 535
f 534 535 536
f 536 535 537
f 536 537 538
f 538 537 539
f 538 539 540
f 540 539 541
f 540 541 542
f 542 541 543
f 542 543 544
f 544 543 545
f 402 463 404
f 404 463 461
f 404 461 406
f 406 461 459
f 406 459 408
f 408 459 457
f 408 457 410
f 410 457 455
f 410 455 412
f 412 455 453
f 412 453 414
f 414 453 451
f 414 451 416
f 416 451 449
f 416 449 418
f 418 449 447
f 418 447 420
f 420 447 445
f 420 445 422
f 422 445 443
f 422 443 424
f 424 443 441
f 424 441 426
f 426 441 439
f 426 439 428
f 428 439 437
f 428 437 430
f 430 437 435
f 430 435 432
f 432 435 433
f 464 401 465
f 465 401 479
f 465 479 469
f 469 479 477
f 469 477 471
f 471 477 475
f 471 475 473
f 402 401 463
f 463 401 464
f 342 376 344
f 344 376 374
f 344 374 346
f 346 374 372
f 346 372 348
f 348 372 370
f 348 370 350
f 350 370 368
f 350 368 352
f 352 368 366
f 352 366 354
f 354 366 364
f 354 364 356
f 356 364 362
f 356 362 358
f 358 362 360
f 376 342 378
f 378 342 400
f 378 400 380
f 380 400 398
f 380 398 382
f 382 398 396
f 382 396 384
f 384 396 394
f 384 394 386
f 386 394 392
f 386 392 388
f 388 392 390
f 282 316 284
f 284 316 314
f 284 314 286
f 286 314 312
f 286 312 288
f 288 312 310
f 288 310 290
f 290 310 308
f 290 308 292
f 292 308 306
f 292 306 294
f 294 306 304
f 294 304 296
f 296 304 302
f 296 302 298
f 298 302 300
f 316 282 318
f 318 282 340
f 318 340 320
f 320 340 338
f 320 338 322
f 322 338 336
f 322 336 324
f 324 336 334
f 324 334 326
f 326 334 332
f 326 332 328
f 328 332 330
f 222 256 224
f 224 256 254
f 224 254 226
f 226 254 252
f 226 252 228
f 228 252 250
f 228 250 230
f 230 250 248
f 230 248 232
f 232 248 246
f 232 246 234
f 234 246 244
f 234 244 236
f 236 244 242
f 236 242 238
f 238 242 240
f 256 222 258
f 258 222 280
f 258 280 260
f 260 280 278
f 260 278 262
f 262 278 276
f 262 276 264
f 264 276 274
f 264 274 266
f 266 274 272
f 266 272 268
f 268 272 270
f 162 196 164
f 164 196 194
f 164 194 166
f 166 194 192
f 166 192 168
f 168 192 190
f 168 190 170
f 170 190 188
f 170 188 172
f 172 188 186
f 172 186 174
f 174 186 184
f 174 184 176
f 176 184 182
f 176 182 178
f 178 182 180
f 196 162 198
f 198 162 220
f 198 220 200
f 200 220 218
f 200 218 202
f 202 218 216
f 202 216 204
f 204 216 214
f 204 214 206
f 206 214 212
f 206 212 208
f 208 212 210
f 1 3 486
f 486 3 5
f 486 5 485
f 485 5 7
f 485 7 9
f 485 9 484
f 484 9 11
f 484 11 13
f 484 13 483
f 483 13 15
f 483 15 17
f 483 17 482
f 482 17 19
f 482 19 21
f 482 21 481
f 481 21 23
f 481 23 25
f 25 27 481
f 481 27 480
f 480 27 29
f 480 29 31
f 480 31 478
f 478 31 33
f 478 33 35
f 478 35 476
f 476 35 37
f 476 37 39
f 476 39 474
f 474 39 41
f 474 41 43
f 474 43 472
f 472 43 45
f 472 45 47
f 472 47 470
f 470 47 49
f 470 49 51
f 470 51 468
f 468 51 53
f 468 53 55
f 468 55 466
f 466 55 57
f 466 57 59
f 466 59 467
f 467 59 61
f 467 61 63
f 63 65 467
f 467 65 509
f 509 65 67
f 509 67 69
f 509 69 508
f 508 69 71
f 508 71 73
f 508 73 507
f 507 73 75
f 507 75 77
f 507 77 506
f 506 77 79
f 506 79 81
f 506 81 505
f 505 81 83
f 505 83 85
f 505 85 504
f 504 85 87
f 504 87 89
f 504 89 503
f 503 89 91
f 503 91 93
f 503 93 502
f 502 93 95
f 502 95 97
f 99 500 97
f 97 500 501
f 97 501 502
f 99 101 500
f 500 101 103
f 500 103 105
f 105 107 500
f 500 107 499
f 499 107 109
f 499 109 111
f 499 111 498
f 498 111 113
f 498 113 115
f 498 115 497
f 497 115 117
f 497 117 119
f 497 119 496
f 496 119 121
f 496 121 123
f 496 123 495
f 495 123 125
f 495 125 127
f 495 127 494
f 494 127 129
f 494 129 131
f 494 131 493
f 493 131 133
f 493 133 135
f 493 135 492
f 492 135 137
f 492 137 139
f 492 139 491
f 491 139 141
f 491 141 143
f 143 145 491
f 491 145 490
f 490 145 147
f 490 147 149
f 490 149 489
f 489 149 151
f 489 151 153
f 489 153 488
f 488 153 155
f 488 155 157
f 488 157 487
f 487 157 159
f 487 159 1
f 487 1 486
f 546 295 547
f 547 295 297
f 547 297 299
f 548 291 546
f 546 291 293
f 546 293 295
f 291 548 289
f 289 548 549
f 289 549 287
f 287 549 550
f 287 550 285
f 285 550 283
f 283 550 281
f 281 550 339
f 339 550 337
f 337 550 80
f 337 80 335
f 335 80 78
f 335 78 333
f 333 78 76
f 333 76 331
f 331 76 74
f 331 74 72
f 551 84 550
f 550 84 82
f 550 82 80
f 552 219 551
f 551 219 161
f 551 161 163
f 219 552 217
f 217 552 553
f 217 553 215
f 215 553 554
f 215 554 213
f 213 554 211
f 211 554 555
f 211 555 209
f 209 555 207
f 207 555 205
f 205 555 203
f 203 555 201
f 201 555 120
f 201 120 118
f 556 124 555
f 555 124 122
f 555 122 120
f 557 265 556
f 556 265 267
f 556 267 269
f 558 261 557
f 557 261 263
f 557 263 265
f 261 558 259
f 259 558 559
f 259 559 257
f 257 559 560
f 257 560 255
f 255 560 253
f 253 560 251
f 251 560 249
f 249 560 247
f 247 560 160
f 247 160 245
f 245 160 158
f 245 158 243
f 243 158 156
f 243 156 241
f 241 156 154
f 241 154 152
f 561 4 560
f 560 4 2
f 560 2 160
f 562 369 561
f 561 369 371
f 561 371 373
f 369 562 367
f 367 562 563
f 367 563 365
f 365 563 564
f 365 564 363
f 363 564 361
f 361 564 565
f 361 565 359
f 359 565 357
f 357 565 355
f 355 565 353
f 353 565 351
f 351 565 40
f 351 40 38
f 547 44 565
f 565 44 42
f 565 42 40
f 241 152 239
f 239 152 150
f 239 150 237
f 237 150 148
f 237 148 235
f 235 148 233
f 233 148 146
f 233 146 231
f 231 146 144
f 231 144 229
f 229 144 142
f 229 142 227
f 227 142 140
f 227 140 225
f 225 140 138
f 225 138 223
f 223 138 136
f 223 136 221
f 221 136 134
f 221 134 279
f 279 134 132
f 279 132 277
f 277 132 130
f 277 130 275
f 275 130 128
f 275 128 556
f 556 128 126
f 556 126 124
f 201 118 199
f 199 118 116
f 199 116 197
f 197 116 114
f 197 114 195
f 195 114 112
f 195 112 193
f 193 112 110
f 193 110 191
f 191 110 108
f 191 108 189
f 189 108 106
f 189 106 187
f 187 106 104
f 187 104 185
f 185 104 102
f 185 102 183
f 183 102 100
f 183 100 181
f 181 100 179
f 179 100 98
f 179 98 177
f 177 98 96
f 177 96 175
f 175 96 94
f 175 94 92
f 175 92 173
f 173 92 90
f 173 90 171
f 171 90 88
f 171 88 169
f 169 88 551
f 169 551 167
f 167 551 165
f 165 551 163
f 88 86 551
f 551 86 84
f 331 72 329
f 329 72 70
f 329 70 327
f 327 70 68
f 327 68 325
f 325 68 323
f 323 68 66
f 323 66 321
f 321 66 64
f 321 64 319
f 319 64 62
f 319 62 317
f 317 62 60
f 317 60 315
f 315 60 58
f 315 58 313
f 313 58 56
f 313 56 311
f 311 56 54
f 311 54 309
f 309 54 52
f 309 52 307
f 307 52 50
f 307 50 305
f 305 50 48
f 305 48 547
f 547 48 46
f 547 46 44
f 351 38 349
f 349 38 36
f 349 36 347
f 347 36 34
f 347 34 345
f 345 34 32
f 345 32 343
f 343 32 30
f 343 30 341
f 341 30 28
f 341 28 399
f 399 28 26
f 399 26 397
f 397 26 24
f 397 24 395
f 395 24 22
f 395 22 393
f 393 22 20
f 393 20 391
f 391 20 389
f 389 20 18
f 389 18 387
f 387 18 16
f 387 16 385
f 385 16 14
f 385 14 12
f 385 12 383
f 383 12 10
f 383 10 381
f 381 10 8
f 381 8 379
f 379 8 561
f 379 561 377
f 377 561 375
f 375 561 373
f 8 6 561
f 561 6 4
f 269 271 556
f 556 271 273
f 556 273 275
f 299 301 547
f 547 301 303
f 547 303 305
f 547 566 546
f 546 566 567
f 546 567 548
f 548 567 568
f 548 568 549
f 549 568 569
f 549 569 550
f 550 569 570
f 551 571 552
f 552 571 572
f 552 572 553
f 553 572 573
f 553 573 554
f 554 573 574
f 554 574 555
f 555 574 575
f 561 576 562
f 562 576 577
f 562 577 563
f 563 577 578
f 563 578 564
f 564 578 579
f 564 579 565
f 565 579 580
f 556 581 557
f 557 581 582
f 557 582 558
f 558 582 583
f 558 583 559
f 559 583 584
f 559 584 560
f 560 584 585
f 585 510 560
f 560 510 512
f 560 512 561
f 561 512 576
f 576 512 586
f 585 587 510
f 575 530 555
f 555 530 531
f 555 531 556
f 556 531 581
f 581 531 588
f 575 589 530
f 547 565 544
f 544 565 580
f 544 580 590
f 544 545 547
f 547 545 566
f 566 545 591
f 551 550 515
f 515 550 570
f 515 570 592
f 515 513 551
f 551 513 571
f 571 513 593
f 593 513 594
f 594 513 511
f 594 511 518
f 594 518 595
f 595 518 520
f 595 520 596
f 596 520 522
f 596 522 597
f 597 522 524
f 597 524 598
f 598 524 526
f 598 526 599
f 599 526 528
f 599 528 600
f 600 528 589
f 589 528 530
f 593 594 571
f 571 594 595
f 571 595 596
f 571 596 572
f 572 596 597
f 572 597 573
f 573 597 574
f 574 597 598
f 574 598 575
f 575 598 599
f 575 599 600
f 600 589 575
f 591 545 601
f 601 545 543
f 601 543 541
f 601 541 602
f 602 541 539
f 602 539 603
f 603 539 537
f 603 537 604
f 604 537 535
f 604 535 605
f 605 535 533
f 605 533 606
f 606 533 516
f 606 516 607
f 607 516 592
f 592 516 515
f 591 601 566
f 566 601 602
f 566 602 603
f 566 603 567
f 567 603 604
f 567 604 568
f 568 604 569
f 569 604 605
f 569 605 570
f 570 605 606
f 570 606 607
f 607 592 570
f 586 512 608
f 608 512 514
f 608 514 532
f 608 532 609
f 609 532 534
f 609 534 610
f 610 534 536
f 610 536 611
f 611 536 538
f 611 538 612
f 612 538 540
f 612 540 613
f 613 540 542
f 613 542 614
f 614 542 590
f 590 542 544
f 586 608 576
f 576 608 609
f 576 609 610
f 576 610 577
f 577 610 611
f 577 611 578
f 578 611 579
f 579 611 612
f 579 612 580
f 580 612 613
f 580 613 614
f 614 590 580
f 588 531 615
f 615 531 529
f 615 529 527
f 615 527 616
f 616 527 525
f 616 525 617
f 617 525 523
f 617 523 618
f 618 523 521
f 618 521 619
f 619 521 519
f 619 519 620
f 620 519 517
f 620 517 621
f 621 517 587
f 587 517 510
f 588 615 581
f 581 615 616
f 581 616 617
f 581 617 582
f 582 617 618
f 582 618 583
f 583 618 584
f 584 618 619
f 584 619 585
f 585 619 620
f 585 620 621
f 621 587 585
f 622 623 624
f 624 623 625
f 625 623 626
f 626 623 627
f 628 629 630
f 630 629 631
f 630 631 632
f 632 633 630
f 634 635 636
f 636 635 637
f 636 637 638
f 638 637 639
f 638 639 640
f 640 639 641
f 640 641 642
f 642 641 643
f 642 643 644
f 644 643 645
f 644 645 646
f 646 645 647
f 646 647 648
f 648 647 649
f 649 647 650
f 649 650 651
f 651 650 630
f 630 650 628
f 628 650 622
f 628 622 652
f 652 622 653
f 650 623 622
f 654 655 651
f 651 655 656
f 651 656 649
f 655 654 657
f 657 654 658
f 657 658 659
f 659 658 660
f 659 660 661
f 661 660 662
f 661 662 663
f 663 662 664
f 663 664 665
f 665 664 666
f 665 666 667
f 667 666 668
f 667 668 669
f 670 671 672
f 672 671 673
f 672 673 674
f 674 673 675
f 674 675 676
f 676 675 677
f 676 677 631
f 631 677 632
f 678 679 680
f 680 679 681
f 680 681 682
f 682 681 683
f 682 683 684
f 684 683 685
f 684 685 686
f 686 685 687
f 670 686 669
f 669 686 687
f 669 687 688
f 669 668 670
f 670 668 671
f 671 668 689
f 625 626 690
f 690 626 691
f 690 691 692
f 692 691 693
f 692 693 694
f 694 693 695
f 694 695 696
f 696 695 697
f 698 699 700
f 700 699 701
f 700 701 702
f 702 701 703
f 702 703 704
f 704 703 705
f 704 705 706
f 706 705 707
f 707 649 706
f 706 649 656
f 706 656 678
f 678 656 679
f 679 656 708
f 707 709 649
f 694 696 624
f 624 696 698
f 624 698 700
f 700 702 624
f 624 702 704
f 624 704 706
f 706 678 624
f 624 678 629
f 624 629 710
f 710 629 711
f 678 680 629
f 629 680 682
f 629 682 684
f 684 686 629
f 629 686 670
f 629 670 672
f 672 674 629
f 629 674 676
f 629 676 631
f 625 690 624
f 624 690 692
f 624 692 694
f 697 635 696
f 696 635 634
f 696 634 698
f 698 634 699
f 699 634 712
f 697 713 635
f 689 668 714
f 714 668 666
f 714 666 664
f 714 664 715
f 715 664 662
f 715 662 716
f 716 662 660
f 716 660 717
f 717 660 658
f 717 658 718
f 718 658 654
f 718 654 719
f 719 654 651
f 719 651 720
f 720 651 633
f 633 651 630
f 689 714 671
f 671 714 715
f 671 715 716
f 671 716 673
f 673 716 717
f 673 717 675
f 675 717 677
f 677 717 718
f 677 718 632
f 632 718 719
f 632 719 720
f 720 633 632
f 708 656 721
f 721 656 655
f 721 655 657
f 721 657 722
f 722 657 659
f 722 659 723
f 723 659 661
f 723 661 724
f 724 661 663
f 724 663 725
f 725 663 665
f 725 665 726
f 726 665 667
f 726 667 727
f 727 667 688
f 688 667 669
f 708 721 679
f 679 721 722
f 679 722 723
f 679 723 681
f 681 723 724
f 681 724 683
f 683 724 685
f 685 724 725
f 685 725 687
f 687 725 726
f 687 726 727
f 727 688 687
f 712 634 728
f 728 634 636
f 728 636 638
f 728 638 729
f 729 638 640
f 729 640 730
f 730 640 642
f 730 642 731
f 731 642 644
f 731 644 732
f 732 644 646
f 732 646 733
f 733 646 648
f 733 648 734
f 734 648 709
f 709 648 649
f 712 728 699
f 699 728 729
f 699 729 730
f 699 730 701
f 701 730 731
f 701 731 703
f 703 731 705
f 705 731 732
f 705 732 707
f 707 732 733
f 707 733 734
f 734 709 707
f 627 623 735
f 735 623 650
f 735 650 647
f 735 647 736
f 736 647 645
f 736 645 737
f 737 645 643
f 737 643 738
f 738 643 641
f 738 641 739
f 739 641 639
f 739 639 740
f 740 639 637
f 740 637 741
f 741 637 713
f 713 637 635
f 627 735 626
f 626 735 736
f 626 736 737
f 626 737 691
f 691 737 738
f 691 738 693
f 693 738 695
f 695 738 739
f 695 739 697
f 697 739 740
f 697 740 741
f 741 713 697
f 622 624 653
f 653 624 710
f 629 628 711
f 711 628 652
f 653 710 652
f 652 710 711
f 742 743 744
f 744 743 745
f 746 747 748
f 748 747 749
f 750 751 752
f 752 751 753
f 751 750 754
f 754 750 755
f 754 755 756
f 756 755 757
f 756 757 758
f 758 757 759
f 758 759 760
f 760 759 761
f 760 761 762
f 762 761 763
f 762 763 764
f 764 763 765
f 764 765 766
f 766 765 767
f 766 767 749
f 749 767 748
f 768 769 770
f 770 769 771
f 769 768 772
f 772 768 773
f 772 773 774
f 774 773 775
f 774 775 776
f 776 775 777
f 776 777 778
f 778 777 779
f 778 779 780
f 780 779 781
f 780 781 782
f 782 781 783
f 782 783 784
f 784 783 785
f 784 785 753
f 753 785 752
f 747 746 786
f 786 746 787
f 786 787 788
f 788 787 789
f 788 789 790
f 790 789 791
f 790 791 792
f 792 791 793
f 792 793 794
f 794 793 795
f 794 795 796
f 796 795 797
f 796 797 798
f 798 797 799
f 798 799 745
f 745 799 744
f 743 742 800
f 800 742 801
f 800 801 802
f 802 801 803
f 802 803 804
f 804 803 805
f 804 805 806
f 806 805 807
f 806 807 808
f 808 807 809
f 808 809 810
f 810 809 811
f 810 811 812
f 812 811 813
f 812 813 771
f 771 813 770
f 768 770 773
f 773 770 813
f 773 813 775
f 775 813 811
f 775 811 777
f 777 811 809
f 777 809 779
f 779 809 807
f 779 807 781
f 781 807 805
f 781 805 783
f 783 805 803
f 783 803 785
f 785 803 801
f 785 801 752
f 752 801 750
f 750 801 742
f 750 742 755
f 755 742 744
f 755 744 799
f 755 799 757
f 757 799 797
f 757 797 759
f 759 797 795
f 759 795 761
f 761 795 793
f 761 793 763
f 763 793 791
f 763 791 765
f 765 791 789
f 765 789 767
f 767 789 787
f 767 787 748
f 748 787 746
f 745 743 784
f 784 743 800
f 784 800 782
f 782 800 802
f 782 802 780
f 780 802 804
f 780 804 778
f 778 804 806
f 778 806 776
f 776 806 808
f 776 808 774
f 774 808 810
f 774 810 772
f 772 810 812
f 772 812 769
f 769 812 771
f 784 753 745
f 745 753 798
f 798 753 751
f 798 751 754
f 798 754 796
f 796 754 756
f 796 756 794
f 794 756 758
f 794 758 792
f 792 758 760
f 792 760 790
f 790 760 762
f 790 762 788
f 788 762 764
f 788 764 786
f 786 764 766
f 786 766 747
f 747 766 749

